<svg width="387" height="210" viewBox="0 0 387 210" fill="none" xmlns="http://www.w3.org/2000/svg">
<g id="Carillon Parc/Southlake">
<path d="M0.333008 20C0.333008 8.9543 9.28731 0 20.333 0H366.666C377.712 0 386.666 8.95431 386.666 20V210H0.333008V20Z" fill="url(#paint0_radial_810_716)"/>
<g id="Group 40714">
<g id="Layer_1" clip-path="url(#clip0_810_716)">
<g id="Group 10458">
<path id="Path 94" d="M98.3619 121.344H98.653V115.478H98.2835C97.3317 118.702 94.4762 120.459 90.3665 120.459C83.6926 120.459 79.0006 115.108 79.0006 107.485C79.0006 100.523 82.8079 96.3473 89.2579 96.3473C93.8715 96.3473 96.6598 98.0376 97.69 101.553H98.1267L98.5634 94.8809H98.1939C97.9699 95.7652 97.1637 96.3473 96.2119 96.2689C95.4056 96.1906 94.5994 96.1234 93.8715 95.8995C92.3374 95.5301 90.7249 95.3174 89.1124 95.2391C86.4697 95.2391 83.9053 95.9667 81.7105 97.4331C78.0488 99.8734 75.9324 103.97 75.9996 108.37C75.9212 112.836 78.1272 117.09 81.8673 119.586C84.1405 121.053 86.8504 121.858 89.6387 121.78C91.4751 121.78 93.3004 121.411 94.9913 120.829C95.5736 120.605 96.1671 120.459 96.8278 120.392C97.4884 120.392 98.0707 120.761 98.3619 121.344Z" fill="white"/>
<path id="Path 95" d="M115.293 121.411C114.923 121.411 113.971 121.411 112.292 121.489V121.12C113.322 120.896 113.904 120.459 113.904 119.732C113.904 119.295 113.389 117.75 112.37 115.187H106.502C105.696 117.459 105.181 118.926 105.181 119.653C105.181 120.538 105.696 120.974 106.794 121.12V121.489C105.763 121.411 104.812 121.411 103.86 121.411C103.569 121.411 102.762 121.411 101.295 121.489V121.12C103.714 120.75 104.151 118.847 105.248 115.769L108.619 106.243L109.056 104.776H110.444C111.172 106.825 111.765 108.291 112.135 109.176L115.282 117.314C116.166 119.586 116.973 120.829 118.507 121.12V121.489C117.409 121.411 116.312 121.411 115.282 121.411H115.293ZM109.28 107.273L106.782 114.302H111.989L109.28 107.273Z" fill="white"/>
<path id="Path 96" d="M134.207 121.411C133.983 121.411 133.479 121.411 132.594 121.489C129.951 116.575 128.339 114.09 125.707 114.09C125.483 114.09 125.271 114.09 125.125 114.168V117.168C125.125 119.877 125.125 120.907 127.398 121.119V121.489C126.301 121.411 125.203 121.411 124.173 121.411C123.076 121.411 122.046 121.489 120.948 121.489V121.119C123.221 120.896 123.221 119.877 123.221 117.314V108.963C123.221 106.467 123.143 105.593 120.948 105.302V104.933C121.978 105.011 123.076 105.011 124.173 105.011C124.61 105.011 125.271 104.933 126.155 104.933C127.544 104.855 128.944 105.078 130.265 105.515C131.956 106.175 133.053 107.709 133.12 109.545C133.12 111.526 131.653 113.284 129.168 113.866C129.974 114.09 131.004 114.896 131.956 116.429C133.647 119.138 134.375 121.041 136.424 121.119V121.489C135.696 121.411 134.957 121.411 134.229 121.411H134.207ZM127.018 113.429C129.515 113.429 131.049 112.041 131.049 109.914C131.049 107.496 129.291 105.661 126.211 105.661C125.842 105.661 125.483 105.661 125.181 105.739V113.138C125.763 113.429 126.357 113.508 127.018 113.429Z" fill="white"/>
<path id="Path 97" d="M142.56 121.41C142.269 121.41 141.239 121.41 139.559 121.489V121.119C141.832 120.896 141.832 119.877 141.832 117.313V109.108C141.832 106.466 141.832 105.593 139.559 105.302V104.933C140.656 105.011 141.832 105.011 143.008 105.011C143.59 105.011 144.621 105.011 146.087 104.933V105.302C143.893 105.593 143.814 106.478 143.814 108.963V117.313C143.814 119.877 143.814 120.828 146.087 121.119V121.489C144.912 121.41 143.747 121.41 142.571 121.41H142.56Z" fill="white"/>
<path id="Path 98" d="M162.571 121.489C160.298 121.41 158.025 121.41 155.83 121.41C153.926 121.41 152.235 121.41 150.847 121.489V121.119C153.12 120.896 153.12 119.877 153.12 117.313V108.963C153.12 106.466 153.041 105.593 150.847 105.302V104.933C151.944 105.011 153.12 105.011 154.296 105.011C154.878 105.011 155.908 105.011 157.297 104.933V105.302C155.024 105.526 155.024 106.545 155.024 109.108V116.44C155.024 119.586 155.247 120.47 158.831 120.47C160.958 120.47 162.134 119.955 162.94 117.974L163.232 118.052L162.571 121.5V121.489Z" fill="white"/>
<path id="Path 99" d="M178.326 121.489C176.053 121.41 173.78 121.41 171.585 121.41C169.681 121.41 168.069 121.41 166.602 121.489V121.119C168.875 120.896 168.875 119.877 168.875 117.313V108.963C168.875 106.466 168.797 105.593 166.602 105.302V104.933C167.699 105.011 168.875 105.011 170.051 105.011C170.633 105.011 171.664 105.011 173.052 104.933V105.302C170.779 105.526 170.779 106.545 170.779 109.108V116.44C170.779 119.586 171.003 120.47 174.586 120.47C176.714 120.47 177.89 119.955 178.696 117.974L178.987 118.052L178.326 121.5V121.489Z" fill="white"/>
<path id="Path 100" d="M195.918 119.284C194.306 120.896 192.111 121.78 189.759 121.78C187.71 121.858 185.65 121.053 184.116 119.653C182.279 117.963 181.182 115.545 181.182 113.06C181.182 110.788 182.066 108.661 183.679 107.049C187.128 103.825 192.548 103.825 195.997 107.049C197.609 108.661 198.494 110.855 198.415 113.205C198.494 115.478 197.609 117.672 195.918 119.284ZM189.323 105.661C186.176 105.515 183.455 107.933 183.309 111.079V111.739C183.309 114.303 184.194 116.799 185.874 118.702C186.904 120.023 188.516 120.829 190.274 120.829C193.791 120.829 196.355 118.411 196.355 114.303C196.355 109.243 193.208 105.661 189.323 105.661Z" fill="white"/>
<path id="Path 101" d="M217.475 109.399V114.605C217.475 117.101 217.475 119.362 217.62 121.567H217.183C215.28 119.295 213.958 117.907 213.231 117.101L207.665 110.944C207.374 110.653 206.489 109.702 204.955 108.011V117.023C204.955 119.732 205.179 120.907 207.228 121.131V121.5C206.198 121.422 205.179 121.422 204.227 121.422C203.936 121.422 203.13 121.422 201.663 121.5V121.131C203.645 120.985 203.936 119.743 203.936 117.023V107.127C203.13 106.03 201.809 105.37 200.487 105.291V104.922C201.518 105 202.391 105 202.984 105C203.276 105 203.936 105 204.966 104.922C206.433 106.612 207.464 107.776 208.113 108.515L216.4 117.526V109.388C216.4 106.746 216.176 105.504 214.126 105.28V104.911C215.302 104.989 216.254 104.989 217.06 104.989C217.351 104.989 218.236 104.989 219.625 104.911V105.28C217.788 105.504 217.497 106.668 217.497 109.388L217.475 109.399Z" fill="white"/>
<path id="Path 102" d="M257.417 96.1342C255.805 95.7648 254.114 95.5521 252.434 95.6192C251.482 95.6192 250.598 95.6192 249.792 95.6976H247.742C246.354 95.6976 244.808 95.6976 243.42 95.6192V95.9886C247.014 96.5036 247.014 98.1155 247.014 102V114.75C247.014 118.701 247.014 120.537 243.42 120.974V121.343C244.887 121.265 246.499 121.198 248.336 121.198C250.172 121.198 251.706 121.276 253.252 121.343V120.974C249.657 120.537 249.657 118.634 249.657 114.448V109.757L249.948 109.903C251.337 110.485 252.804 110.787 254.349 110.709C259.332 110.709 262.636 107.776 262.636 103.377C262.636 100.007 260.945 97.6566 257.429 96.123L257.417 96.1342ZM253.901 109.757C252.434 109.757 251.046 109.388 249.724 108.873L249.579 108.795V96.7051H249.724C250.609 96.5595 251.482 96.4812 252.367 96.4812C256.913 96.4812 259.478 99.1901 259.478 103.88C259.478 107.474 257.429 109.746 253.912 109.746L253.901 109.757Z" fill="white"/>
<path id="Path 103" d="M273.845 121.411C273.476 121.411 272.524 121.411 270.844 121.489V121.12C271.874 120.896 272.457 120.459 272.457 119.732C272.457 119.295 271.941 117.75 270.922 115.187H265.055C264.248 117.459 263.733 118.926 263.733 119.653C263.733 120.538 264.248 120.974 265.346 121.12V121.489C264.316 121.411 263.364 121.411 262.412 121.411C262.121 121.411 261.315 121.411 259.848 121.489V121.12C262.266 120.75 262.703 118.847 263.801 115.769L267.171 106.243L267.608 104.776H268.996C269.724 106.825 270.318 108.291 270.687 109.176L273.912 117.314C274.797 119.586 275.603 120.907 277.137 121.12V121.489C276.04 121.411 274.942 121.411 273.834 121.411H273.845ZM267.899 107.273L265.402 114.302H270.609L267.899 107.273Z" fill="white"/>
<path id="Path 104" d="M293.195 121.411C292.971 121.411 292.467 121.411 291.582 121.489C288.94 116.575 287.327 114.09 284.696 114.09C284.472 114.09 284.259 114.09 284.113 114.168V117.168C284.113 119.877 284.113 120.907 286.387 121.119V121.489C285.289 121.411 284.192 121.411 283.162 121.411C282.064 121.411 281.034 121.489 279.937 121.489V121.119C282.21 120.896 282.21 119.877 282.21 117.314V108.963C282.21 106.467 282.131 105.593 279.937 105.302V104.933C280.967 105.011 282.064 105.011 283.162 105.011C283.598 105.011 284.259 104.933 285.144 104.933C286.532 104.855 287.932 105.078 289.253 105.515C290.944 106.175 292.042 107.709 292.109 109.545C292.109 111.526 290.642 113.284 288.156 113.866C288.962 114.09 289.992 114.896 290.944 116.429C292.635 119.138 293.363 121.041 295.412 121.119V121.489C294.684 121.411 293.945 121.411 293.217 121.411H293.195ZM286.006 113.429C288.503 113.429 290.037 112.041 290.037 109.914C290.037 107.496 288.279 105.661 285.2 105.661C284.83 105.661 284.472 105.661 284.169 105.739V113.138C284.684 113.429 285.345 113.508 286.006 113.429Z" fill="white"/>
<path id="Path 105" d="M310.854 121.489C310.709 121.119 310.339 120.907 309.97 120.907C309.242 120.907 307.697 121.791 305.423 121.791C303.665 121.791 301.907 121.276 300.44 120.324C298.022 118.713 296.633 116.004 296.633 113.138C296.555 110.351 297.954 107.72 300.295 106.108C301.683 105.157 303.374 104.72 305.054 104.72C307.036 104.72 308.57 105.38 309.522 105.38C310.037 105.38 310.552 105.011 310.619 104.496H310.91L310.619 108.963H310.328C309.746 106.768 307.988 105.66 305.121 105.66C301.168 105.66 298.738 108.224 298.738 112.545C298.738 117.38 301.672 120.604 305.771 120.604C308.413 120.604 310.093 119.507 310.686 117.459H310.978V121.41L310.832 121.489H310.854Z" fill="white"/>
<g id="Group 41">
<g id="Group 40">
<g id="Group 39">
<g id="Group 38">
<g id="Group 35">
<path id="Path 109" d="M231.796 93.27V93.1245C231.718 92.979 231.796 93.1245 231.796 93.27Z" fill="white"/>
<path id="Path 110" d="M229.523 92.8228V92.9011C229.378 93.0466 229.445 92.9795 229.523 92.8228Z" fill="white"/>
<path id="Path 112" d="M234.798 116.128L234.215 93.9305V93.3484V93.0573V92.7663V92.6879L234.361 90.4939H226.813L226.735 92.3969V92.4752V92.5536V92.7775V93.8073L226.366 116.162H225.783V119.162H235.313V116.162H234.798V116.128ZM228.941 116.128L229.165 93.9305C229.165 93.7066 229.243 93.4155 229.311 93.2029C229.826 92.5424 230.195 92.3185 230.554 92.3185C230.912 92.3185 231.281 92.464 231.505 92.7551L231.584 92.8334C231.662 93.0573 231.729 93.27 231.729 93.5611L232.166 116.128H228.941Z" fill="white"/>
</g>
<g id="Group 37">
<g id="Group 36">
<path id="Rectangle 21" d="M236.589 119.599H224.496V119.968H236.589V119.599Z" fill="white"/>
<path id="Rectangle 22" d="M236.589 120.405H224.496V120.774H236.589V120.405Z" fill="white"/>
</g>
<path id="Path 113" d="M223.969 121.21V128.24H225.291V123.326C225.291 122.889 225.727 122.52 226.175 122.52C226.623 122.52 227.06 122.889 227.06 123.404V128.318H229.042V124.065C229.042 123.18 229.703 122.531 230.576 122.531C231.382 122.531 232.043 123.192 232.043 124.065V128.318H234.025V123.337C234.025 122.901 234.395 122.453 234.91 122.453C235.346 122.453 235.794 122.822 235.794 123.337V128.251H237.116V121.221H223.992L223.969 121.21Z" fill="white"/>
</g>
</g>
<path id="Path 114" d="M234.675 83.0381V82.6687H226.388V83.0381H226.758L226.612 88.7583H226.388V90.0008H234.675V88.7583H234.451L234.305 82.9709H234.675V83.0493V83.0381ZM230.856 83.0381H232.614L232.536 88.8254H231.002L230.856 83.0381ZM230.05 88.7471H228.516L228.437 83.0269H230.195L230.05 88.7471ZM227.407 83.0381H227.777L227.631 88.7583H227.486L227.407 83.0381ZM233.566 88.7471H233.42L233.275 82.9597H233.644L233.566 88.7471Z" fill="white"/>
</g>
<path id="Path 115" d="M231.45 80.0157L230.867 79.6463L230.643 78.6948H230.419L230.195 79.6463L229.613 80.0157L226.388 81.8515V82.2881H234.742V81.8515L231.438 80.0157H231.45Z" fill="white"/>
</g>
<path id="Path 116" d="M239.333 131.306H221.741L222.324 128.306H238.74L239.322 131.306H239.333Z" fill="white"/>
<path id="Path 117" d="M241.091 131.306H219.983L220.207 130.277H240.8L241.091 131.306Z" fill="white"/>
</g>
<g id="Group 42">
<path id="Path 118" d="M246.444 126.235C246.074 126.157 245.716 126.459 245.716 126.817V126.896C245.716 127.41 246.085 127.556 246.668 127.847C247.395 128.138 247.765 128.429 247.765 129.168C247.765 129.828 247.25 130.343 246.668 130.343H246.589C246.22 130.343 245.928 130.265 245.637 130.198C245.559 130.198 245.492 130.276 245.413 130.343H245.335L245.257 129.246H245.402C245.548 129.683 245.984 129.974 246.5 129.974C246.936 129.974 247.227 129.683 247.306 129.313V129.235C247.306 128.866 247.015 128.653 246.421 128.351C245.615 128.06 245.178 127.836 245.178 127.108C245.178 126.448 245.693 125.933 246.354 125.933H246.5C246.724 125.933 247.015 126.011 247.227 126.078C247.306 126.078 247.373 126 247.373 126H247.519V126.952H247.373C247.227 126.515 246.858 126.224 246.421 126.224L246.444 126.235Z" fill="white"/>
<path id="Path 119" d="M255.749 129.671C255.312 130.108 254.797 130.332 254.215 130.332C252.972 130.332 251.942 129.302 251.942 128.06C251.942 127.477 252.166 126.962 252.603 126.526C253.039 126.089 253.633 125.865 254.215 125.865C254.797 125.865 255.391 126.089 255.828 126.526C256.264 126.962 256.488 127.477 256.488 128.138C256.41 128.72 256.119 129.313 255.76 129.671H255.749ZM255.749 128.429C255.749 127.914 255.525 127.399 255.234 126.962C254.943 126.526 254.428 126.302 253.913 126.302C253.185 126.302 252.524 126.884 252.524 127.623V127.768C252.524 128.351 252.748 128.865 253.106 129.302C253.398 129.671 253.913 129.962 254.428 129.962C255.156 129.962 255.816 129.448 255.816 128.642C255.738 128.563 255.738 128.496 255.738 128.418L255.749 128.429Z" fill="white"/>
<path id="Path 120" d="M264.472 127.186V128.429C264.472 129.75 263.811 130.41 262.568 130.41C261.986 130.41 261.325 130.119 260.956 129.526C260.732 129.011 260.665 128.496 260.732 127.992V126.895C260.732 126.38 260.654 126.168 260.217 126.089V126.011H261.829V126.157C261.314 126.235 261.314 126.526 261.314 127.108V128.059C261.314 129.38 261.751 129.962 262.557 129.962C263.363 129.962 263.879 129.38 263.879 128.351V127.108C263.879 126.448 263.879 126.224 263.363 126.157V126.011H264.976V126.157C264.539 126.235 264.461 126.526 264.461 127.186H264.472Z" fill="white"/>
<path id="Path 121" d="M272.535 126.895H272.39C272.311 126.459 272.166 126.38 271.729 126.38H271.001V129.089C271.001 129.75 271.001 130.041 271.516 130.119V130.265H269.904V130.119C270.419 130.041 270.419 129.828 270.419 129.168V126.459H269.982C269.4 126.459 269.097 126.537 268.952 126.895H268.661L268.739 125.865H268.885L268.963 125.944C269.041 126.022 269.187 126.022 269.545 126.022H271.594C272.031 126.022 272.322 126.022 272.546 125.877H272.692L272.546 126.907L272.535 126.895Z" fill="white"/>
<path id="Path 122" d="M279.5 130.265V130.119C280.015 130.041 280.015 129.828 280.015 129.168V128.283H277.518V129.089C277.518 129.75 277.518 130.119 278.033 130.119V130.265H276.42V130.119C276.936 130.041 276.936 129.75 276.936 129.168V127.186C276.936 126.526 276.936 126.235 276.42 126.157V126.011H278.033V126.157C277.518 126.235 277.518 126.526 277.518 127.186V127.914H280.015V127.108C280.015 126.448 280.015 126.224 279.5 126.157V126.011H281.112V126.157C280.597 126.235 280.597 126.526 280.597 127.108V129.011C280.597 129.739 280.597 130.041 281.112 130.041V130.265H279.5Z" fill="white"/>
<path id="Path 123" d="M288.078 130.265H285.077V130.119C285.592 130.041 285.592 129.828 285.592 129.167V127.119C285.592 126.459 285.592 126.235 285.077 126.167V126.022H286.689V126.167C286.174 126.246 286.174 126.459 286.174 127.119V129.022C286.174 129.75 286.252 129.973 287.059 129.973C287.641 129.973 288.011 129.828 288.156 129.313H288.302L288.078 130.265Z" fill="white"/>
<path id="Path 124" d="M294.594 130.265V130.119C294.818 130.119 294.964 130.041 294.964 129.895C294.818 129.526 294.74 129.089 294.527 128.72H293.06C292.982 129.011 292.836 129.38 292.836 129.75C292.836 129.974 292.982 130.119 293.273 130.119V130.265H291.806V130.119C292.321 130.041 292.467 129.75 292.691 129.089L293.351 127.108C293.43 126.817 293.575 126.448 293.721 126.011H294.236C294.236 126.235 294.314 126.593 294.46 126.895L295.412 129.235C295.636 129.75 295.703 130.041 296.218 130.119V130.265H294.606H294.594ZM293.721 126.739L293.206 128.272H294.382L293.721 126.739Z" fill="white"/>
<path id="Path 125" d="M302.153 130.265V130.119C302.377 130.119 302.523 130.041 302.523 129.974C302.086 129.246 301.493 128.653 300.91 128.071V129.022C300.91 129.683 300.91 130.052 301.425 130.052V130.276H299.813V130.13C300.328 130.052 300.328 129.761 300.328 129.179V127.198C300.328 126.537 300.328 126.246 299.813 126.168V126.022H301.425V126.168C300.91 126.246 300.91 126.537 300.91 127.198V127.925C301.941 126.974 302.445 126.537 302.445 126.313C302.445 126.235 302.366 126.089 302.153 126.089V126.011H303.687V126.157C303.251 126.157 302.96 126.526 302.512 126.962L301.56 127.847C302.142 128.507 302.657 129.089 302.948 129.459C303.094 129.75 303.464 130.041 303.833 130.119V130.265H302.142H302.153Z" fill="white"/>
<path id="Path 126" d="M310.574 130.265H307.573V130.119C308.088 130.041 308.088 129.75 308.088 129.089V127.477C308.088 126.671 308.088 126.302 307.573 126.157V126.011H310.653L310.574 126.895H310.429C310.35 126.459 310.138 126.38 309.622 126.38H308.738V127.992H309.253C309.914 127.992 310.205 127.914 310.283 127.477H310.429V128.72H310.283C310.138 128.283 309.914 128.283 309.331 128.283H308.749V129.011C308.749 129.739 308.827 129.962 309.634 129.962C310.216 129.962 310.585 129.817 310.731 129.302H310.877L310.585 130.254L310.574 130.265Z" fill="white"/>
</g>
</g>
</g>
</g>
</g>
<defs>
<radialGradient id="paint0_radial_810_716" cx="0" cy="0" r="1" gradientUnits="userSpaceOnUse" gradientTransform="translate(193.5 343) rotate(90) scale(172.5 317.345)">
<stop stop-color="white"/>
<stop offset="1" stop-color="white" stop-opacity="0.1"/>
</radialGradient>
<clipPath id="clip0_810_716">
<rect width="235" height="52.6119" fill="white" transform="translate(75.9995 78.6941)"/>
</clipPath>
</defs>
</svg>
