<svg width="361" height="480" viewBox="0 0 361 480" fill="none" xmlns="http://www.w3.org/2000/svg">
<g id="Bringing Liquidity to Illiquid Assets." filter="url(#filter0_d_2027_401)">
<g clip-path="url(#clip0_2027_401)">
<rect width="361" height="480" rx="15.0417" fill="white" fill-opacity="0.06" shape-rendering="crispEdges"/>
<g id="Group 1410089391">
<g id="Frame 2085663258">
<rect x="50.9223" y="230.157" width="259.782" height="259.782" rx="129.891" stroke="url(#paint0_linear_2027_401)" stroke-width="0.313368"/>
<g id="Frame 2085663252" filter="url(#filter1_d_2027_401)">
<path d="M291.201 345.27C291.201 334.659 299.802 326.058 310.412 326.058C321.023 326.058 329.624 334.659 329.624 345.27C329.624 355.88 321.023 364.481 310.412 364.481C299.802 364.481 291.201 355.88 291.201 345.27Z" fill="#342F3D" shape-rendering="crispEdges"/>
<path d="M310.413 326.309C320.884 326.309 329.374 334.798 329.374 345.27C329.373 355.741 320.884 364.231 310.413 364.231C299.941 364.231 291.452 355.742 291.452 345.27C291.452 334.798 299.941 326.309 310.413 326.309Z" stroke="url(#paint1_linear_2027_401)" stroke-width="0.501389" shape-rendering="crispEdges"/>
<g id="Group 40716">
<path id="Vector" d="M302.532 343.966H299.534L303.066 346.553C303.579 346.204 304.175 345.834 304.709 345.526L302.532 343.966ZM306.885 347.19C306.372 347.539 305.858 347.929 305.366 348.298L308.035 350.249H311.053L306.885 347.19Z" fill="white"/>
<path id="Vector_2" d="M325.406 340.29C308.979 341.235 301.382 348.257 299.678 349.92L299.329 350.249H302.368C310.581 342.015 322.388 340.557 325.406 340.29Z" fill="white"/>
</g>
</g>
<g id="Frame 2085663245" filter="url(#filter2_d_2027_401)">
<path d="M277.947 417.683C277.947 407.072 286.548 398.471 297.158 398.471C307.769 398.471 316.37 407.072 316.37 417.683C316.37 428.293 307.769 436.894 297.158 436.894C286.548 436.894 277.947 428.293 277.947 417.683Z" fill="#342F3D" shape-rendering="crispEdges"/>
<path d="M297.159 398.722C307.63 398.722 316.12 407.211 316.12 417.683C316.119 428.154 307.63 436.644 297.159 436.644C286.687 436.644 278.198 428.155 278.198 417.683C278.198 407.211 286.687 398.722 297.159 398.722Z" stroke="url(#paint2_linear_2027_401)" stroke-width="0.501389" shape-rendering="crispEdges"/>
<g id="Group">
<path id="Vector_3" d="M306.127 415.763C306.593 414.337 306.437 412.754 305.687 411.457C304.548 409.46 302.245 408.449 299.993 408.916C299.01 407.8 297.56 407.178 296.059 407.178C293.756 407.178 291.737 408.656 291.012 410.835C289.537 411.146 288.269 412.054 287.518 413.377C286.38 415.374 286.638 417.864 288.165 419.576C287.7 421.029 287.881 422.585 288.631 423.882C289.77 425.879 292.073 426.917 294.325 426.424C295.334 427.539 296.758 428.187 298.259 428.187C300.562 428.187 302.581 426.709 303.306 424.53C304.781 424.219 306.049 423.311 306.8 421.988C307.939 419.991 307.68 417.475 306.127 415.763ZM298.259 426.813C297.327 426.813 296.447 426.502 295.749 425.905C295.774 425.879 295.852 425.853 295.878 425.827L300.045 423.415C300.252 423.285 300.381 423.078 300.381 422.818V416.93L302.141 417.942C302.167 417.942 302.167 417.968 302.167 417.994V422.87C302.193 425.049 300.433 426.813 298.259 426.813ZM289.822 423.207C289.356 422.403 289.201 421.47 289.356 420.562C289.382 420.588 289.434 420.614 289.485 420.64L293.652 423.052C293.859 423.181 294.118 423.181 294.325 423.052L299.424 420.095V422.144C299.424 422.17 299.424 422.196 299.398 422.196L295.179 424.634C293.316 425.723 290.909 425.075 289.822 423.207ZM288.735 414.077C289.201 413.273 289.925 412.677 290.779 412.339V417.319C290.779 417.553 290.909 417.786 291.116 417.916L296.214 420.873L294.455 421.885C294.429 421.885 294.403 421.91 294.403 421.885L290.184 419.446C288.269 418.357 287.648 415.945 288.735 414.077ZM303.228 417.449L298.13 414.492L299.89 413.481C299.915 413.481 299.941 413.455 299.941 413.481L304.16 415.919C306.049 417.008 306.67 419.42 305.583 421.288C305.118 422.092 304.393 422.689 303.539 423V418.046C303.565 417.812 303.435 417.579 303.228 417.449ZM304.962 414.803C304.936 414.778 304.885 414.752 304.833 414.726L300.666 412.313C300.459 412.184 300.2 412.184 299.993 412.313L294.895 415.27V413.221C294.895 413.195 294.895 413.169 294.92 413.169L299.139 410.731C301.028 409.642 303.409 410.29 304.496 412.184C304.962 412.962 305.118 413.896 304.962 414.803ZM293.937 418.435L292.177 417.423C292.151 417.423 292.151 417.397 292.151 417.371V412.495C292.151 410.316 293.911 408.552 296.085 408.552C297.017 408.552 297.897 408.864 298.595 409.46C298.57 409.486 298.518 409.512 298.466 409.538L294.299 411.95C294.092 412.08 293.963 412.288 293.963 412.547V418.435H293.937ZM294.895 416.36L297.172 415.037L299.45 416.36V418.98L297.172 420.302L294.895 418.98V416.36Z" fill="white"/>
</g>
</g>
<g id="Frame 1410089376" filter="url(#filter3_d_2027_401)">
<path d="M43.4229 417.683C43.4229 407.072 52.0242 398.471 62.6345 398.471C73.2447 398.471 81.8461 407.072 81.8461 417.683C81.8461 428.293 73.2447 436.894 62.6345 436.894C52.0242 436.894 43.4229 428.293 43.4229 417.683Z" fill="#342F3D" shape-rendering="crispEdges"/>
<path d="M62.6348 398.722C73.1064 398.722 81.5957 407.211 81.5957 417.683C81.5955 428.154 73.1063 436.644 62.6348 436.644C52.163 436.644 43.674 428.155 43.6738 417.683C43.6738 407.211 52.1629 398.722 62.6348 398.722Z" stroke="url(#paint3_linear_2027_401)" stroke-width="0.501389" shape-rendering="crispEdges"/>
<g id="Group 10458">
<g id="Group 41">
<g id="Group 40">
<g id="Group 39">
<g id="Group 38">
<g id="Group 35">
<path id="Path 109" d="M63.3919 411.746V411.677C63.355 411.609 63.3919 411.677 63.3919 411.746Z" fill="white"/>
<path id="Path 110" d="M62.3119 411.533V411.57C62.2433 411.639 62.275 411.607 62.3119 411.533Z" fill="white"/>
<path id="Path 112" d="M64.8173 422.603L64.5407 412.06V411.783V411.645V411.507V411.47L64.6099 410.427H61.025L60.9877 411.331V411.369V411.406V411.512V412.001L60.8122 422.619H60.5356V424.044H65.062V422.619H64.8173V422.603ZM62.0356 422.603L62.1419 412.06C62.1419 411.953 62.1792 411.815 62.2111 411.714C62.4557 411.4 62.6313 411.294 62.8015 411.294C62.9717 411.294 63.1472 411.363 63.2536 411.502L63.2908 411.539C63.328 411.645 63.3599 411.746 63.3599 411.884L63.5674 422.603H62.0356Z" fill="white"/>
</g>
<g id="Group 37">
<g id="Group 36">
<path id="Rectangle 21" d="M65.6686 424.252H59.9243V424.428H65.6686V424.252Z" fill="white"/>
<path id="Rectangle 22" d="M65.6686 424.635H59.9243V424.81H65.6686V424.635Z" fill="white"/>
</g>
<path id="Path 113" d="M59.6738 425.017V428.356H60.3015V426.022C60.3015 425.815 60.5089 425.639 60.7216 425.639C60.9344 425.639 61.1418 425.815 61.1418 426.059V428.394H62.0833V426.373C62.0833 425.953 62.3971 425.645 62.8119 425.645C63.1949 425.645 63.5087 425.958 63.5087 426.373V428.394H64.4501V426.028C64.4501 425.82 64.6256 425.608 64.8703 425.608C65.0777 425.608 65.2905 425.783 65.2905 426.028V428.362H65.9181V425.023H59.6845L59.6738 425.017Z" fill="white"/>
</g>
</g>
<path id="Path 114" d="M64.7587 406.887V406.711H60.8228V406.887H60.9983L60.9291 409.604H60.8228V410.194H64.7587V409.604H64.6523L64.5832 406.855H64.7587V406.892V406.887ZM62.945 406.887H63.78L63.7428 409.636H63.0141L62.945 406.887ZM62.562 409.598H61.8333L61.7961 406.881H62.6311L62.562 409.598ZM61.3068 406.887H61.4823L61.4131 409.604H61.344L61.3068 406.887ZM64.2321 409.598H64.163L64.0938 406.849H64.2693L64.2321 409.598Z" fill="white"/>
</g>
<path id="Path 115" d="M63.2269 405.451L62.9503 405.276L62.8439 404.824H62.7375L62.6311 405.276L62.3546 405.451L60.8228 406.323V406.531H64.7906V406.323L63.2215 405.451H63.2269Z" fill="white"/>
</g>
<path id="Path 116" d="M66.9716 429.814H58.6157L58.8923 428.389H66.6897L66.9663 429.814H66.9716Z" fill="white"/>
<path id="Path 117" d="M67.8067 429.813H57.7808L57.8871 429.324H67.6684L67.8067 429.813Z" fill="white"/>
</g>
</g>
</g>
</g>
<g id="Frame 2085663257">
<rect x="76.7841" y="256.757" width="207.32" height="207.32" rx="103.66" stroke="url(#paint4_linear_2027_401)" stroke-width="0.313368"/>
<g id="OBJECTS" clip-path="url(#clip1_2027_401)">
<g id="Group_2">
<path id="Union" d="M133.554 208.624C132 211.096 131.401 214.204 131.352 217.528C131.217 228.113 137.665 241.674 144.773 250.506L144.755 250.515C151.889 259.381 164.095 268.721 172.338 264.318C165.267 268.026 164.031 268.878 162.685 269.37C154.182 272.478 143.012 263.514 136.209 255.066L136.217 255.061C125.906 242.256 119.448 223.623 124.562 213.952C124.696 213.688 124.843 213.437 125.002 213.185L133.554 208.624ZM136.672 205.543C135.481 206.248 134.371 207.323 133.554 208.624L125.001 213.185C127.127 209.832 129.431 209.681 136.672 205.543ZM136.672 205.543C136.766 205.488 136.861 205.435 136.955 205.384C136.861 205.438 136.765 205.49 136.672 205.543Z" fill="url(#paint5_linear_2027_401)"/>
</g>
<path id="Vector_4" d="M137.323 213.304C141.801 206.212 153.228 210.112 162.795 221.993C172.35 233.873 176.486 249.318 172.008 256.41C167.53 263.502 156.103 259.602 146.535 247.722C136.98 235.841 132.845 220.397 137.323 213.304Z" fill="url(#paint6_radial_2027_401)"/>
<path id="Vector_5" d="M164.544 219.197C152.897 204.712 139.023 199.984 133.554 208.624C128.098 217.265 133.114 236.021 144.761 250.506C156.408 264.991 170.295 269.731 175.751 261.078C181.208 252.426 176.192 233.681 164.544 219.197ZM171.995 256.41C167.518 263.502 156.09 259.602 146.523 247.722C136.968 235.841 132.832 220.397 137.31 213.304C141.788 206.212 153.215 210.112 162.783 221.993C172.338 233.873 176.473 249.318 171.995 256.41Z" fill="url(#paint7_linear_2027_401)"/>
</g>
<g id="Frame 2085663241" filter="url(#filter4_d_2027_401)">
<path d="M30.8149 344.776C30.8149 334.438 39.1952 326.058 49.5327 326.058H50.5204C60.8579 326.058 69.2381 334.438 69.2381 344.776C69.2381 355.113 60.8579 363.494 50.5203 363.494H49.5327C39.1952 363.494 30.8149 355.113 30.8149 344.776Z" fill="#342F3D" shape-rendering="crispEdges"/>
<path d="M49.5327 326.309H50.52C60.7191 326.309 68.9878 334.577 68.9878 344.776C68.9878 354.975 60.7191 363.243 50.52 363.243H49.5327C39.3336 363.243 31.0659 354.975 31.0659 344.776C31.0659 334.577 39.3336 326.309 49.5327 326.309Z" stroke="url(#paint8_linear_2027_401)" stroke-width="0.501389" shape-rendering="crispEdges"/>
<g id="Layer_1" clip-path="url(#clip2_2027_401)">
<g id="Group_3">
<path id="Vector_6" d="M44.1377 346.884H48.3599C48.4642 346.884 48.5424 346.86 48.5967 346.814C48.651 346.767 48.6944 346.684 48.727 346.562H48.8877V348.339H48.727C48.6944 348.217 48.6488 348.135 48.5967 348.087C48.5424 348.039 48.4642 348.018 48.3599 348.018H42.3154V347.857C42.4371 347.824 42.5196 347.779 42.5674 347.727C42.6152 347.672 42.6369 347.594 42.6369 347.49V341.678C42.6369 341.573 42.613 341.495 42.5674 341.441C42.5196 341.387 42.4371 341.343 42.3154 341.311V341.15H44.4591V341.311C44.3375 341.341 44.255 341.384 44.2072 341.439C44.1594 341.493 44.1377 341.573 44.1377 341.678V346.886V346.884Z" fill="white"/>
<path id="Vector_7" d="M51.7222 343.311V347.488C51.7222 347.592 51.7461 347.67 51.7917 347.724C51.8394 347.779 51.922 347.822 52.0436 347.855V348.015H50.0259V347.855C50.1475 347.822 50.23 347.776 50.2778 347.724C50.3256 347.67 50.3473 347.592 50.3473 347.488V341.669C50.3473 341.569 50.3234 341.491 50.2778 341.437C50.23 341.382 50.1475 341.339 50.0259 341.306V341.146H52.3607V341.306C52.2174 341.343 52.1435 341.421 52.1435 341.539C52.1435 341.619 52.1913 341.708 52.2847 341.806L56.0747 345.746V341.669C56.0747 341.569 56.0508 341.491 56.0052 341.437C55.9574 341.382 55.8749 341.339 55.7533 341.306V341.146H57.771V341.306C57.6494 341.339 57.5668 341.384 57.5191 341.437C57.4713 341.491 57.4496 341.567 57.4496 341.669V347.488C57.4496 347.592 57.4735 347.67 57.5191 347.724C57.5668 347.779 57.6494 347.822 57.771 347.855V348.015H55.6078V347.855C55.7489 347.824 55.8184 347.753 55.8184 347.637C55.8184 347.57 55.7359 347.453 55.5708 347.286L51.72 343.311H51.7222Z" fill="white"/>
</g>
<g id="Group_4">
<path id="Vector_8" d="M58.0161 340.038H42.187V340.155H58.0161V340.038Z" fill="white"/>
<g id="Group_5">
<path id="Vector_9" fill-rule="evenodd" clip-rule="evenodd" d="M50.1128 338.398L50.2192 338.728C50.2257 338.748 50.2431 338.761 50.2648 338.761H50.6101C50.6319 338.761 50.6492 338.774 50.6557 338.793C50.6623 338.813 50.6557 338.835 50.6384 338.848L50.3582 339.052C50.3408 339.065 50.3343 339.087 50.3408 339.106L50.4494 339.436C50.4559 339.456 50.4494 339.478 50.432 339.491C50.4147 339.504 50.3929 339.504 50.3756 339.491L50.0954 339.286C50.078 339.273 50.0563 339.273 50.0389 339.286L49.7587 339.491C49.7414 339.504 49.7196 339.504 49.7023 339.491C49.6849 339.478 49.6784 339.456 49.6849 339.436L49.7935 339.106C49.8 339.087 49.7935 339.065 49.7761 339.052L49.4959 338.848C49.4786 338.835 49.472 338.813 49.4786 338.793C49.4851 338.774 49.5024 338.761 49.5242 338.761H49.8717C49.8934 338.761 49.9108 338.748 49.9173 338.728L50.0237 338.398C50.0302 338.379 50.0476 338.365 50.0693 338.365C50.091 338.365 50.1084 338.379 50.1149 338.398H50.1128Z" fill="white"/>
<path id="Vector_10" fill-rule="evenodd" clip-rule="evenodd" d="M50.9463 339.159V339.041H53.6677V339.159H50.9463ZM46.3613 339.159V339.041H49.0828V339.159H46.3613Z" fill="white"/>
<g id="Group_6">
<path id="Vector_11" d="M62.5315 337.729C62.4533 337.492 62.2861 337.31 62.0797 337.205C61.8734 337.101 61.6258 337.075 61.389 337.153C61.2783 337.19 61.1827 337.251 61.1045 337.327C61.0242 337.407 60.9633 337.503 60.9242 337.609C60.9112 337.646 60.9025 337.683 60.8938 337.72C60.8656 337.883 60.8938 338.044 60.9633 338.176C61.0502 338.339 61.1979 338.459 61.3782 338.491C61.4781 338.509 61.5758 338.502 61.6649 338.472C61.7539 338.443 61.8321 338.393 61.8929 338.328C61.9559 338.261 61.9994 338.181 62.0167 338.087C62.0385 337.963 62.0254 337.8 61.8973 337.738C61.869 337.724 61.8365 337.716 61.8017 337.718C61.6866 337.72 61.5954 337.816 61.5975 337.931C61.5997 338.046 61.7452 338.135 61.8104 338.135C61.8756 338.135 61.843 338.133 61.8582 338.128C61.843 338.168 61.8191 338.202 61.7908 338.233C61.7452 338.28 61.6866 338.317 61.6214 338.339C61.5541 338.361 61.4781 338.367 61.4042 338.354C61.2674 338.33 61.1545 338.235 61.0893 338.111C61.0328 338.005 61.0111 337.874 61.0328 337.744C61.0394 337.716 61.0459 337.685 61.0567 337.655C61.0871 337.57 61.1371 337.49 61.2023 337.427C61.2652 337.366 61.3434 337.316 61.4325 337.288C61.6323 337.223 61.8408 337.242 62.0146 337.331C62.1883 337.418 62.3295 337.572 62.3946 337.774C62.4403 337.911 62.4533 338.052 62.4381 338.187C62.4033 338.493 62.2166 338.782 61.9451 338.934C61.6475 339.099 61.2761 339.099 60.9047 339.097C60.8178 339.097 60.7309 339.097 60.6419 339.097H60.4138C58.9109 338.181 57.2754 337.462 55.5422 336.975C53.8524 336.502 51.6045 336.248 49.7648 336.248C47.9252 336.248 46.6133 336.502 44.9258 336.975C43.1925 337.462 41.5571 338.183 40.0541 339.097H39.4025C39.3156 339.097 39.2288 339.097 39.1397 339.097C38.7705 339.097 38.3991 339.097 38.1015 338.934C37.83 338.784 37.6432 338.496 37.6085 338.187C37.5933 338.052 37.6085 337.911 37.6519 337.774C37.7171 337.575 37.8583 337.42 38.032 337.331C38.2058 337.244 38.4143 337.223 38.6141 337.288C38.7032 337.318 38.7813 337.366 38.8443 337.427C38.9095 337.492 38.9594 337.57 38.9898 337.655C39.0007 337.685 39.0094 337.716 39.0137 337.744C39.0376 337.874 39.0137 338.005 38.9573 338.111C38.8921 338.235 38.7792 338.328 38.6423 338.354C38.5663 338.367 38.4925 338.361 38.4251 338.339C38.3578 338.317 38.2992 338.28 38.2557 338.233C38.2275 338.202 38.2036 338.168 38.1884 338.128C38.2036 338.133 38.171 338.133 38.2362 338.135C38.3013 338.135 38.4469 338.046 38.449 337.931C38.4512 337.816 38.36 337.72 38.2449 337.718C38.2101 337.718 38.1797 337.724 38.1493 337.738C38.0212 337.798 38.006 337.961 38.0299 338.087C38.0472 338.181 38.0907 338.263 38.1537 338.328C38.2145 338.393 38.2948 338.443 38.3817 338.472C38.4708 338.5 38.5685 338.509 38.6684 338.491C38.8487 338.459 38.9985 338.339 39.0832 338.176C39.1527 338.044 39.1832 337.881 39.1527 337.72C39.1462 337.683 39.1354 337.646 39.1223 337.609C39.0854 337.503 39.0246 337.405 38.9421 337.327C38.8639 337.251 38.7683 337.19 38.6575 337.153C38.4208 337.075 38.1754 337.101 37.969 337.205C37.7627 337.31 37.5955 337.492 37.5173 337.729C37.4651 337.885 37.4499 338.046 37.4673 338.2C37.5086 338.565 37.7388 338.91 38.0689 339.078C38.3839 339.238 38.764 339.236 39.1397 339.236C39.2309 339.236 39.3222 339.236 39.4134 339.236H40.0954C41.5962 338.315 43.2316 337.594 44.9627 337.108C46.6394 336.636 47.9382 336.384 49.7648 336.384C51.5914 336.384 53.8285 336.636 55.5053 337.108C57.2385 337.594 58.8718 338.315 60.3726 339.232H60.3769L60.6332 339.234C60.7244 339.234 60.8157 339.234 60.9069 339.234C61.2826 339.234 61.6627 339.234 61.9776 339.075C62.3078 338.908 62.538 338.565 62.5793 338.198C62.5966 338.044 62.5814 337.883 62.5293 337.727L62.5315 337.729Z" fill="white"/>
<path id="Vector_12" d="M46.4748 338.09C47.639 337.827 48.8466 337.695 50.0694 337.695C51.2922 337.695 52.4998 337.827 53.6639 338.09C54.7543 338.335 55.8011 338.696 56.7807 339.158H57.0782L57.0522 339.145C56.0053 338.631 54.8759 338.235 53.6987 337.97C52.5215 337.705 51.3009 337.571 50.0694 337.571C48.8379 337.571 47.6151 337.705 46.4401 337.97C45.2629 338.235 44.1335 338.631 43.0866 339.145L43.0605 339.158H43.3581C44.3376 338.696 45.3845 338.335 46.4748 338.09Z" fill="white"/>
</g>
<g id="Group_7">
<path id="Vector_13" d="M41.6829 339.275C41.6526 339.275 41.6223 339.264 41.6006 339.241C41.5789 339.219 41.5659 339.189 41.5659 339.158C41.5659 339.128 41.5789 339.098 41.6006 339.076C41.6439 339.033 41.7219 339.033 41.7653 339.076C41.7869 339.098 41.7999 339.128 41.7999 339.158C41.7999 339.189 41.7869 339.219 41.7653 339.241C41.7436 339.262 41.7133 339.275 41.6829 339.275Z" fill="white"/>
<path id="Vector_14" d="M58.075 338.965C58.0185 338.932 57.9968 338.863 58.0315 338.807C58.0641 338.75 58.1336 338.728 58.1901 338.761C58.2466 338.793 58.2661 338.863 58.2335 338.919C58.2118 338.959 58.1727 338.98 58.1315 338.98C58.1119 338.98 58.0924 338.974 58.075 338.965ZM42.2003 338.861C42.1699 338.804 42.1916 338.733 42.2481 338.702C42.3045 338.672 42.3762 338.694 42.4066 338.75C42.4349 338.807 42.4153 338.878 42.3567 338.909C42.3393 338.917 42.3197 338.922 42.3024 338.922C42.2611 338.922 42.2198 338.9 42.2003 338.859V338.861ZM57.4495 338.641C57.3908 338.615 57.3669 338.544 57.393 338.485C57.4212 338.426 57.4907 338.403 57.5494 338.431C57.608 338.459 57.6341 338.528 57.6058 338.587C57.5863 338.628 57.5429 338.654 57.4994 338.654C57.482 338.654 57.4668 338.65 57.4495 338.644V338.641ZM42.8367 338.537C42.8106 338.479 42.8367 338.409 42.8931 338.383C42.9518 338.357 43.0213 338.381 43.0495 338.439C43.0756 338.498 43.0495 338.568 42.9931 338.594C42.9757 338.602 42.9605 338.605 42.9431 338.605C42.8997 338.605 42.8562 338.578 42.8367 338.535V338.537ZM56.8001 338.357C56.7414 338.333 56.711 338.264 56.7349 338.205C56.7588 338.144 56.8283 338.116 56.8869 338.14C56.9456 338.164 56.976 338.233 56.9521 338.294C56.9325 338.34 56.8891 338.366 56.8435 338.366C56.8283 338.366 56.8131 338.363 56.8001 338.357ZM43.4904 338.25C43.4665 338.19 43.4948 338.122 43.5556 338.096C43.6164 338.072 43.6837 338.103 43.7076 338.161C43.7315 338.22 43.7033 338.29 43.6425 338.313C43.6294 338.32 43.6142 338.322 43.599 338.322C43.5512 338.322 43.5078 338.296 43.4904 338.25ZM56.1376 338.107C56.0768 338.085 56.0442 338.02 56.0659 337.957C56.0877 337.896 56.1528 337.864 56.2158 337.886C56.2766 337.907 56.3092 337.972 56.2875 338.035C56.2701 338.083 56.2245 338.114 56.1767 338.114C56.1637 338.114 56.1506 338.111 56.1376 338.107ZM44.155 337.994C44.1333 337.931 44.1659 337.866 44.2267 337.844C44.2875 337.823 44.3549 337.855 44.3744 337.916C44.3961 337.977 44.3635 338.044 44.3027 338.064C44.2897 338.068 44.2767 338.07 44.2636 338.07C44.2137 338.07 44.1702 338.04 44.1529 337.992L44.155 337.994ZM55.4643 337.89C55.4013 337.87 55.3666 337.805 55.384 337.744C55.4035 337.681 55.4687 337.647 55.5295 337.664C55.5925 337.684 55.6272 337.749 55.6077 337.81C55.5925 337.86 55.5447 337.892 55.4947 337.892C55.4947 337.892 55.473 337.892 55.46 337.888L55.4643 337.89ZM44.8327 337.768C44.8131 337.705 44.8501 337.642 44.9109 337.623C44.9739 337.603 45.039 337.64 45.0564 337.701C45.0738 337.764 45.039 337.827 44.976 337.847C44.9652 337.851 44.9521 337.851 44.9413 337.851C44.8913 337.851 44.8435 337.818 44.8283 337.768H44.8327ZM54.7802 337.701C54.7172 337.684 54.6802 337.621 54.6955 337.558C54.7107 337.495 54.7758 337.458 54.8388 337.473C54.9018 337.49 54.9387 337.553 54.9235 337.616C54.9105 337.668 54.8605 337.703 54.8106 337.703C54.8106 337.703 54.791 337.703 54.7823 337.699L54.7802 337.701ZM45.5168 337.571C45.5016 337.508 45.5386 337.445 45.6015 337.429C45.6645 337.412 45.7275 337.451 45.7449 337.514C45.7623 337.577 45.7232 337.64 45.6602 337.658C45.6602 337.658 45.6406 337.662 45.632 337.662C45.5798 337.662 45.532 337.627 45.519 337.573L45.5168 337.571ZM54.0917 337.536C54.0287 337.523 53.9874 337.46 54.0004 337.397C54.0135 337.334 54.0764 337.295 54.1394 337.308C54.2024 337.321 54.2415 337.384 54.2285 337.447C54.2176 337.501 54.1677 337.54 54.1134 337.54C54.1134 337.54 54.096 337.54 54.0895 337.536H54.0917ZM46.2097 337.403C46.1967 337.34 46.2358 337.277 46.2987 337.264C46.3617 337.251 46.4247 337.29 46.4377 337.353C46.4508 337.416 46.4117 337.479 46.3465 337.492C46.3465 337.492 46.3291 337.495 46.3226 337.495C46.2683 337.495 46.2205 337.458 46.2075 337.401L46.2097 337.403ZM53.3945 337.399C53.3315 337.388 53.288 337.327 53.3011 337.262C53.3119 337.199 53.3727 337.156 53.4379 337.169C53.5031 337.18 53.5443 337.241 53.5335 337.306C53.5226 337.362 53.4748 337.401 53.4184 337.401C53.4184 337.401 53.4053 337.401 53.3966 337.401L53.3945 337.399ZM46.9112 337.262C46.9004 337.197 46.9416 337.136 47.0068 337.125C47.0698 337.115 47.1306 337.158 47.1436 337.221C47.1545 337.284 47.111 337.345 47.0481 337.358C47.0481 337.358 47.035 337.358 47.0263 337.358C46.9699 337.358 46.9199 337.319 46.9112 337.262ZM52.6929 337.284C52.6299 337.273 52.5843 337.214 52.5952 337.149C52.6039 337.086 52.6647 337.041 52.7277 337.052C52.7928 337.06 52.8363 337.121 52.8276 337.184C52.8189 337.243 52.7689 337.284 52.7125 337.284C52.7125 337.284 52.7016 337.284 52.6951 337.284H52.6929ZM47.6149 337.147C47.6062 337.082 47.6519 337.023 47.7148 337.015C47.7778 337.006 47.8386 337.052 47.8452 337.115C47.8538 337.18 47.8104 337.238 47.7452 337.247C47.7452 337.247 47.7344 337.247 47.7279 337.247C47.6714 337.247 47.6193 337.206 47.6128 337.147H47.6149ZM51.9892 337.193C51.9241 337.186 51.8784 337.128 51.8871 337.062C51.8937 336.997 51.9523 336.952 52.0175 336.96C52.0826 336.967 52.1282 337.026 52.1217 337.091C52.1152 337.149 52.0652 337.193 52.0066 337.193H51.9936H51.9892ZM48.323 337.06C48.3165 336.995 48.3643 336.939 48.4294 336.932C48.4946 336.926 48.551 336.973 48.5576 337.039C48.5641 337.104 48.5163 337.16 48.4511 337.167C48.4511 337.167 48.4446 337.167 48.4403 337.167C48.3816 337.167 48.3295 337.121 48.3252 337.06H48.323ZM51.2833 337.125C51.2182 337.121 51.1704 337.065 51.1747 336.999C51.1791 336.934 51.2356 336.887 51.3007 336.891C51.3659 336.895 51.4137 336.952 51.4093 337.017C51.405 337.08 51.3528 337.125 51.292 337.125C51.292 337.125 51.2855 337.125 51.2833 337.125ZM49.0354 336.999C49.031 336.934 49.081 336.88 49.1461 336.876C49.2113 336.871 49.2656 336.921 49.2699 336.986C49.2743 337.052 49.2243 337.108 49.1592 337.11H49.1527C49.0919 337.11 49.0397 337.062 49.0376 336.999H49.0354ZM50.5753 337.086C50.5101 337.086 50.4602 337.032 50.4623 336.965C50.4645 336.9 50.5188 336.85 50.584 336.852C50.6491 336.854 50.6991 336.906 50.6969 336.973C50.6947 337.036 50.6426 337.086 50.5796 337.086H50.5753ZM49.7478 336.967C49.7478 336.902 49.7977 336.85 49.8629 336.847C49.928 336.847 49.9802 336.9 49.9823 336.963C49.9823 337.028 49.9324 337.08 49.8672 337.08H49.8651C49.8021 337.08 49.7499 337.03 49.7478 336.965V336.967Z" fill="white"/>
<path id="Vector_15" d="M58.7369 339.353C58.7066 339.353 58.6762 339.34 58.6546 339.318C58.6437 339.307 58.6351 339.294 58.6307 339.279C58.6264 339.264 58.6221 339.251 58.6221 339.236C58.6221 339.203 58.6351 339.175 58.6567 339.154C58.6892 339.121 58.7412 339.11 58.7846 339.128C58.7997 339.134 58.8127 339.143 58.8236 339.154C58.8452 339.175 58.8582 339.206 58.8582 339.236C58.8582 339.251 58.8539 339.266 58.8496 339.279C58.8452 339.292 58.8366 339.305 58.8257 339.318C58.8149 339.329 58.8019 339.338 58.7867 339.342C58.7737 339.349 58.7586 339.351 58.7434 339.351L58.7369 339.353Z" fill="white"/>
</g>
</g>
</g>
<g id="Group_8">
<path id="Vector_16" d="M57.8662 349.397H42.0371V349.514H57.8662V349.397Z" fill="white"/>
<g id="Group_9">
<path id="Vector_17" fill-rule="evenodd" clip-rule="evenodd" d="M49.941 351.154L49.8345 350.824C49.828 350.804 49.8107 350.791 49.7889 350.791H49.4436C49.4219 350.791 49.4045 350.778 49.398 350.759C49.3915 350.739 49.398 350.717 49.4154 350.704L49.6955 350.5C49.7129 350.487 49.7194 350.466 49.7129 350.446L49.6043 350.116C49.5978 350.096 49.6043 350.075 49.6217 350.062C49.6391 350.048 49.6608 350.048 49.6782 350.062L49.9583 350.266C49.9757 350.279 49.9974 350.279 50.0148 350.266L50.295 350.062C50.3124 350.048 50.3341 350.048 50.3515 350.062C50.3688 350.075 50.3754 350.096 50.3688 350.116L50.2602 350.446C50.2537 350.466 50.2602 350.487 50.2776 350.5L50.5578 350.704C50.5752 350.717 50.5817 350.739 50.5752 350.759C50.5687 350.778 50.5513 350.791 50.5296 350.791H50.1821C50.1603 350.791 50.143 350.804 50.1364 350.824L50.03 351.154C50.0235 351.174 50.0061 351.187 49.9844 351.187C49.9627 351.187 49.9453 351.174 49.9388 351.154H49.941Z" fill="white"/>
<path id="Vector_18" fill-rule="evenodd" clip-rule="evenodd" d="M49.1072 350.392V350.509H46.3857V350.392H49.1072ZM53.6921 350.392V350.509H50.9707V350.392H53.6921Z" fill="white"/>
<g id="Group_10">
<path id="Vector_19" d="M37.5219 351.823C37.6001 352.06 37.7674 352.242 37.9737 352.346C38.18 352.451 38.4276 352.477 38.6644 352.399C38.7751 352.362 38.8707 352.301 38.9489 352.225C39.0293 352.144 39.0901 352.049 39.1292 351.942C39.1422 351.906 39.1509 351.869 39.1596 351.832C39.1878 351.669 39.1596 351.508 39.0901 351.376C39.0032 351.213 38.8555 351.093 38.6752 351.061C38.5753 351.043 38.4776 351.05 38.3885 351.08C38.2995 351.108 38.2213 351.158 38.1605 351.224C38.0975 351.291 38.0541 351.371 38.0367 351.465C38.015 351.588 38.028 351.751 38.1561 351.814C38.1844 351.827 38.217 351.836 38.2517 351.834C38.3668 351.832 38.458 351.736 38.4559 351.621C38.4537 351.506 38.3082 351.417 38.243 351.417C38.1779 351.417 38.2104 351.419 38.1952 351.423C38.2104 351.384 38.2343 351.35 38.2626 351.319C38.3082 351.271 38.3668 351.234 38.432 351.213C38.4993 351.191 38.5753 351.184 38.6492 351.197C38.786 351.221 38.8989 351.317 38.9641 351.441C39.0206 351.547 39.0423 351.677 39.0206 351.808C39.0141 351.836 39.0075 351.866 38.9967 351.897C38.9663 351.982 38.9163 352.062 38.8512 352.125C38.7882 352.186 38.71 352.236 38.6209 352.264C38.4211 352.329 38.2126 352.31 38.0389 352.22C37.8651 352.134 37.7239 351.979 37.6588 351.777C37.6132 351.641 37.6001 351.499 37.6153 351.365C37.6501 351.058 37.8369 350.77 38.1084 350.618C38.4059 350.453 38.7773 350.453 39.1487 350.455C39.2356 350.455 39.3225 350.455 39.4115 350.455H39.6396C41.1426 351.371 42.778 352.09 44.5112 352.577C46.201 353.05 48.449 353.304 50.2886 353.304C52.1282 353.304 53.4401 353.05 55.1277 352.577C56.8609 352.09 58.4963 351.369 59.9993 350.455H60.6509C60.7378 350.455 60.8247 350.455 60.9137 350.455C61.2829 350.455 61.6543 350.455 61.9519 350.618C62.2234 350.767 62.4102 351.056 62.4449 351.365C62.4601 351.499 62.4449 351.641 62.4015 351.777C62.3363 351.977 62.1952 352.131 62.0214 352.22C61.8476 352.307 61.6391 352.329 61.4393 352.264C61.3503 352.233 61.2721 352.186 61.2091 352.125C61.1439 352.06 61.094 351.982 61.0636 351.897C61.0527 351.866 61.044 351.836 61.0397 351.808C61.0158 351.677 61.0397 351.547 61.0962 351.441C61.1613 351.317 61.2743 351.224 61.4111 351.197C61.4871 351.184 61.5609 351.191 61.6283 351.213C61.6956 351.234 61.7542 351.271 61.7977 351.319C61.8259 351.35 61.8498 351.384 61.865 351.423C61.8498 351.419 61.8824 351.419 61.8172 351.417C61.7521 351.417 61.6066 351.506 61.6044 351.621C61.6022 351.736 61.6934 351.832 61.8085 351.834C61.8433 351.834 61.8737 351.827 61.9041 351.814C62.0323 351.753 62.0475 351.591 62.0236 351.465C62.0062 351.371 61.9628 351.289 61.8998 351.224C61.839 351.158 61.7586 351.108 61.6717 351.08C61.5827 351.052 61.4849 351.043 61.385 351.061C61.2047 351.093 61.0549 351.213 60.9702 351.376C60.9007 351.508 60.8703 351.671 60.9007 351.832C60.9072 351.869 60.9181 351.906 60.9311 351.942C60.968 352.049 61.0288 352.147 61.1114 352.225C61.1895 352.301 61.2851 352.362 61.3959 352.399C61.6326 352.477 61.878 352.451 62.0844 352.346C62.2907 352.242 62.458 352.06 62.5361 351.823C62.5883 351.667 62.6035 351.506 62.5861 351.352C62.5448 350.987 62.3146 350.641 61.9845 350.474C61.6695 350.314 61.2895 350.316 60.9137 350.316C60.8225 350.316 60.7313 350.316 60.64 350.316H59.9581C58.4572 351.237 56.8218 351.958 55.0907 352.444C53.414 352.915 52.1152 353.167 50.2886 353.167C48.462 353.167 46.2249 352.915 44.5482 352.444C42.815 351.958 41.1817 351.237 39.6808 350.32H39.6765L39.4202 350.318C39.329 350.318 39.2378 350.318 39.1465 350.318C38.7708 350.318 38.3907 350.318 38.0758 350.476C37.7456 350.644 37.5154 350.987 37.4742 351.354C37.4568 351.508 37.472 351.669 37.5241 351.825L37.5219 351.823Z" fill="white"/>
<path id="Vector_20" d="M53.5809 351.46C52.4168 351.723 51.2092 351.855 49.9864 351.855C48.7636 351.855 47.556 351.723 46.3918 351.46C45.3015 351.215 44.2546 350.854 43.2751 350.392H42.9775L43.0036 350.405C44.0505 350.919 45.1799 351.315 46.3571 351.58C47.5343 351.845 48.7549 351.979 49.9864 351.979C51.2179 351.979 52.4407 351.845 53.6157 351.58C54.7929 351.315 55.9223 350.919 56.9692 350.405L56.9952 350.392H56.6977C55.7181 350.854 54.6713 351.215 53.5809 351.46Z" fill="white"/>
</g>
<g id="Group_11">
<path id="Vector_21" d="M58.3704 350.276C58.4008 350.276 58.4311 350.287 58.4528 350.311C58.4744 350.333 58.4874 350.363 58.4874 350.393C58.4874 350.424 58.4744 350.454 58.4528 350.476C58.4094 350.519 58.3314 350.519 58.2881 350.476C58.2664 350.454 58.2534 350.424 58.2534 350.393C58.2534 350.363 58.2664 350.333 58.2881 350.311C58.3098 350.289 58.3401 350.276 58.3704 350.276Z" fill="white"/>
<path id="Vector_22" d="M41.979 350.585C42.0355 350.618 42.0572 350.687 42.0224 350.744C41.9899 350.8 41.9204 350.822 41.8639 350.789C41.8074 350.757 41.7879 350.687 41.8205 350.631C41.8422 350.592 41.8813 350.57 41.9225 350.57C41.9421 350.57 41.9616 350.576 41.979 350.585ZM57.8537 350.691C57.8841 350.748 57.8624 350.82 57.8059 350.85C57.7494 350.88 57.6778 350.859 57.6474 350.802C57.6191 350.746 57.6387 350.674 57.6973 350.644C57.7147 350.635 57.7342 350.631 57.7516 350.631C57.7929 350.631 57.8342 350.652 57.8537 350.694V350.691ZM42.6045 350.911C42.6632 350.937 42.6871 351.009 42.661 351.067C42.6328 351.126 42.5633 351.15 42.5046 351.121C42.446 351.093 42.4199 351.024 42.4481 350.965C42.4677 350.924 42.5111 350.898 42.5546 350.898C42.5719 350.898 42.5872 350.902 42.6045 350.909V350.911ZM57.2173 351.015C57.2434 351.074 57.2173 351.143 57.1609 351.169C57.1022 351.195 57.0327 351.171 57.0045 351.113C56.9784 351.054 57.0045 350.985 57.0609 350.959C57.0783 350.95 57.0935 350.948 57.1109 350.948C57.1543 350.948 57.1978 350.974 57.2173 351.017V351.015ZM43.2539 351.193C43.3126 351.217 43.343 351.287 43.3191 351.345C43.2952 351.406 43.2257 351.434 43.1671 351.41C43.1084 351.386 43.078 351.317 43.1019 351.256C43.1214 351.211 43.1649 351.184 43.2105 351.184C43.2257 351.184 43.2409 351.187 43.2539 351.193ZM56.5636 351.302C56.5875 351.363 56.5592 351.43 56.4984 351.456C56.4376 351.48 56.3703 351.449 56.3464 351.391C56.3225 351.332 56.3507 351.263 56.4115 351.239C56.4246 351.232 56.4398 351.23 56.455 351.23C56.5028 351.23 56.5462 351.256 56.5636 351.302ZM43.9164 351.443C43.9772 351.465 44.0098 351.53 43.9881 351.593C43.9663 351.654 43.9012 351.686 43.8382 351.664C43.7774 351.643 43.7448 351.578 43.7665 351.515C43.7839 351.467 43.8295 351.436 43.8773 351.436C43.8903 351.436 43.9033 351.439 43.9164 351.443ZM55.899 351.556C55.9207 351.619 55.8881 351.684 55.8273 351.706C55.7665 351.727 55.6991 351.695 55.6796 351.634C55.6579 351.573 55.6905 351.506 55.7513 351.486C55.7643 351.482 55.7773 351.48 55.7904 351.48C55.8403 351.48 55.8838 351.51 55.9011 351.558L55.899 351.556ZM44.5897 351.66C44.6527 351.68 44.6874 351.745 44.67 351.806C44.6505 351.869 44.5853 351.903 44.5245 351.886C44.4615 351.866 44.4268 351.801 44.4463 351.74C44.4615 351.691 44.5093 351.658 44.5593 351.658C44.5593 351.658 44.581 351.658 44.594 351.662L44.5897 351.66ZM55.2213 351.784C55.2409 351.847 55.2039 351.91 55.1431 351.929C55.0801 351.949 55.015 351.912 54.9976 351.851C54.9802 351.788 55.015 351.725 55.078 351.706C55.0888 351.701 55.1019 351.701 55.1127 351.701C55.1627 351.701 55.2105 351.734 55.2257 351.784H55.2213ZM45.2738 351.851C45.3368 351.869 45.3737 351.932 45.3585 351.995C45.3433 352.058 45.2782 352.095 45.2152 352.079C45.1522 352.062 45.1153 351.999 45.1305 351.936C45.1435 351.884 45.1935 351.849 45.2434 351.849C45.2434 351.849 45.263 351.849 45.2717 351.853L45.2738 351.851ZM54.5372 351.979C54.5524 352.042 54.5154 352.105 54.4524 352.121C54.3895 352.138 54.3265 352.099 54.3091 352.036C54.2917 351.973 54.3308 351.91 54.3938 351.893C54.3938 351.893 54.4134 351.888 54.422 351.888C54.4742 351.888 54.5219 351.923 54.535 351.977L54.5372 351.979ZM45.9623 352.014C46.0253 352.027 46.0666 352.09 46.0536 352.153C46.0405 352.216 45.9775 352.255 45.9146 352.242C45.8516 352.229 45.8125 352.166 45.8255 352.103C45.8364 352.049 45.8863 352.01 45.9406 352.01C45.9406 352.01 45.958 352.01 45.9645 352.014H45.9623ZM53.8443 352.149C53.8573 352.212 53.8182 352.275 53.7553 352.288C53.6923 352.301 53.6293 352.262 53.6163 352.199C53.6032 352.136 53.6423 352.073 53.7075 352.06C53.7075 352.06 53.7248 352.058 53.7314 352.058C53.7857 352.058 53.8334 352.095 53.8465 352.151L53.8443 352.149ZM46.6595 352.153C46.7225 352.164 46.766 352.225 46.7529 352.29C46.7421 352.353 46.6813 352.396 46.6161 352.383C46.5509 352.373 46.5097 352.312 46.5205 352.247C46.5314 352.19 46.5792 352.151 46.6356 352.151C46.6356 352.151 46.6487 352.151 46.6574 352.151L46.6595 352.153ZM53.1428 352.29C53.1536 352.355 53.1124 352.416 53.0472 352.427C52.9842 352.438 52.9234 352.394 52.9104 352.331C52.8995 352.268 52.943 352.207 53.0059 352.194C53.0059 352.194 53.019 352.194 53.0277 352.194C53.0841 352.194 53.1341 352.234 53.1428 352.29ZM47.3611 352.268C47.4241 352.279 47.4697 352.338 47.4588 352.403C47.4501 352.466 47.3893 352.512 47.3263 352.501C47.2612 352.492 47.2177 352.431 47.2264 352.368C47.2351 352.31 47.2851 352.268 47.3415 352.268C47.3415 352.268 47.3524 352.268 47.3589 352.268H47.3611ZM52.4391 352.403C52.4477 352.468 52.4021 352.527 52.3392 352.535C52.2762 352.544 52.2154 352.499 52.2088 352.436C52.2001 352.37 52.2436 352.312 52.3087 352.303C52.3087 352.303 52.3196 352.303 52.3261 352.303C52.3826 352.303 52.4347 352.344 52.4412 352.403H52.4391ZM48.0648 352.36C48.1299 352.366 48.1755 352.425 48.1669 352.49C48.1603 352.555 48.1017 352.601 48.0365 352.592C47.9714 352.585 47.9258 352.527 47.9323 352.462C47.9388 352.403 47.9888 352.36 48.0474 352.36H48.0604H48.0648ZM51.731 352.492C51.7375 352.557 51.6897 352.614 51.6246 352.62C51.5594 352.627 51.503 352.579 51.4964 352.514C51.4899 352.449 51.5377 352.392 51.6029 352.386C51.6029 352.386 51.6094 352.386 51.6137 352.386C51.6724 352.386 51.7245 352.431 51.7288 352.492H51.731ZM48.7707 352.427C48.8358 352.431 48.8836 352.488 48.8793 352.553C48.8749 352.618 48.8184 352.666 48.7533 352.661C48.6881 352.657 48.6403 352.601 48.6447 352.535C48.649 352.472 48.7012 352.427 48.762 352.427C48.762 352.427 48.7685 352.427 48.7707 352.427ZM51.0186 352.553C51.023 352.618 50.973 352.672 50.9078 352.677C50.8427 352.681 50.7884 352.631 50.784 352.566C50.7797 352.501 50.8297 352.444 50.8948 352.442H50.9013C50.9621 352.442 51.0143 352.49 51.0164 352.553H51.0186ZM49.4787 352.464C49.5439 352.464 49.5938 352.518 49.5917 352.585C49.5895 352.651 49.5352 352.7 49.47 352.698C49.4049 352.696 49.3549 352.644 49.3571 352.577C49.3593 352.514 49.4114 352.464 49.4744 352.464H49.4787ZM50.3062 352.583C50.3062 352.648 50.2563 352.7 50.1911 352.703C50.1259 352.703 50.0738 352.651 50.0716 352.588C50.0716 352.522 50.1216 352.47 50.1868 352.47H50.1889C50.2519 352.47 50.304 352.52 50.3062 352.585V352.583Z" fill="white"/>
<path id="Vector_23" d="M41.3157 350.198C41.346 350.198 41.3763 350.211 41.398 350.233C41.4088 350.244 41.4175 350.257 41.4218 350.272C41.4262 350.287 41.4305 350.3 41.4305 350.315C41.4305 350.348 41.4175 350.376 41.3958 350.398C41.3633 350.43 41.3113 350.441 41.268 350.424C41.2528 350.417 41.2398 350.408 41.229 350.398C41.2073 350.376 41.1943 350.346 41.1943 350.315C41.1943 350.3 41.1987 350.285 41.203 350.272C41.2073 350.259 41.216 350.246 41.2268 350.233C41.2377 350.222 41.2507 350.213 41.2658 350.209C41.2788 350.203 41.294 350.2 41.3092 350.2L41.3157 350.198Z" fill="white"/>
</g>
</g>
</g>
</g>
</g>
<g id="Frame 2085663253" filter="url(#filter5_d_2027_401)">
<path d="M259.184 271.985C259.184 261.448 267.859 252.906 278.396 252.906C288.933 252.906 297.607 261.448 297.607 271.985C297.607 282.522 288.933 291.065 278.396 291.065C267.859 291.065 259.184 282.522 259.184 271.985Z" fill="#342F3D" shape-rendering="crispEdges"/>
<path d="M278.396 253.157C288.797 253.157 297.357 261.589 297.357 271.985C297.357 282.382 288.797 290.814 278.396 290.814C267.995 290.814 259.435 282.382 259.435 271.985C259.435 261.589 267.995 253.157 278.396 253.157Z" stroke="url(#paint9_linear_2027_401)" stroke-width="0.501389" shape-rendering="crispEdges"/>
<g id="Group 40718">
<path id="Vector_24" d="M284.806 263.092H280.807C280.807 266.373 279.301 269.368 276.683 271.34L275.105 272.523L281.238 280.879H286.276L280.628 273.187C283.3 270.533 284.806 266.947 284.806 263.092Z" fill="white"/>
<path id="Vector_25" d="M274.603 263.091H270.515V280.879H274.603V263.091Z" fill="white"/>
</g>
</g>
<g id="Frame 2085663254" filter="url(#filter6_d_2027_401)">
<rect x="64.8047" y="252.906" width="38.4232" height="38.4232" rx="19.2116" fill="white" shape-rendering="crispEdges"/>
<rect x="65.055" y="253.156" width="37.9226" height="37.9226" rx="18.9613" stroke="url(#paint10_linear_2027_401)" stroke-width="0.500646" shape-rendering="crispEdges"/>
<g id="Group_12">
<g id="Group_13">
<path id="Vector_26" d="M83.0872 274.331L81.7851 275.735C81.1995 276.366 80.241 276.366 79.6554 275.735L74.8906 270.596L76.1509 269.235C76.7602 268.579 77.755 268.579 78.3642 269.235L83.0872 274.329V274.331Z" fill="#010101"/>
<path id="Vector_27" d="M74.8903 270.597L74.4102 271.116C74.4102 271.116 74.9867 270.703 75.4668 271.219L74.8903 270.597Z" fill="#010101"/>
<path id="Vector_28" d="M83.0892 274.331L83.5693 273.813C83.5693 273.813 82.9928 274.225 82.5127 273.709L83.0892 274.331Z" fill="#010101"/>
</g>
<g id="Group_14">
<path id="Vector_29" d="M94.2813 269.719C94.2813 269.719 91.8989 272.361 90.8004 273.467C90.3658 273.884 89.9438 273.927 89.6074 273.591L85.3918 269.01C84.9681 268.586 84.106 268.537 83.6132 269.03L82.1001 270.592L86.9558 275.83C87.4905 276.408 88.3398 276.375 88.9363 275.87C89.6292 275.282 91.0223 273.664 91.0223 273.664C91.0223 273.664 92.9537 271.496 93.9012 270.45L94.4177 269.868C95.3143 268.801 96.4218 268.235 97.693 268.804C96.5491 267.999 95.2506 268.55 94.2776 269.719H94.2813Z" fill="#010101"/>
<path id="Vector_30" d="M82.0993 270.592L81.6191 271.11C81.6191 271.11 82.1956 270.697 82.6758 271.214L82.0993 270.592Z" fill="#010101"/>
</g>
</g>
</g>
</g>
<g id="Frame 2085663259">
<rect x="103.384" y="283.358" width="154.118" height="154.118" rx="77.0592" stroke="url(#paint11_linear_2027_401)" stroke-width="0.313368"/>
<g id="Frame 2085663254_2" filter="url(#filter7_d_2027_401)">
<rect x="64.8047" y="252.906" width="38.4232" height="38.4232" rx="19.2116" fill="#342F3D" shape-rendering="crispEdges"/>
<rect x="65.0554" y="253.157" width="37.9218" height="37.9218" rx="18.9609" stroke="url(#paint12_linear_2027_401)" stroke-width="0.501389" shape-rendering="crispEdges"/>
<g id="Group_15">
<g id="Group 1410089390">
<g id="Group_16">
<path id="Vector_31" d="M81.5036 274.646L79.9955 276.272C79.3173 277.002 78.2073 277.002 77.5291 276.272L72.0107 270.319L73.4704 268.744C74.176 267.983 75.3281 267.983 76.0337 268.744L81.5036 274.643V274.646Z" fill="white"/>
<path id="Vector_32" d="M72.0111 270.321L71.4551 270.922C71.4551 270.922 72.1228 270.444 72.6788 271.042L72.0111 270.321Z" fill="white"/>
<path id="Vector_33" d="M81.5061 274.646L82.0621 274.045C82.0621 274.045 81.3944 274.523 80.8384 273.925L81.5061 274.646Z" fill="white"/>
</g>
<g id="Group_17">
<path id="Vector_34" d="M94.4674 269.304C94.4674 269.304 91.7083 272.365 90.4361 273.645C89.9327 274.128 89.4441 274.178 89.0544 273.789L84.1722 268.483C83.6814 267.992 82.683 267.935 82.1123 268.506L80.3599 270.315L85.9835 276.381C86.6028 277.051 87.5864 277.013 88.2772 276.428C89.0797 275.747 90.6931 273.873 90.6931 273.873C90.6931 273.873 92.9299 271.362 94.0272 270.151L94.6254 269.477C95.6638 268.241 96.9465 267.586 98.4188 268.245C97.0939 267.312 95.5901 267.95 94.4632 269.304H94.4674Z" fill="white"/>
<path id="Vector_35" d="M80.3598 270.315L79.8037 270.916C79.8037 270.916 80.4714 270.438 81.0274 271.036L80.3598 270.315Z" fill="white"/>
</g>
</g>
</g>
</g>
<g id="Frame 1410089463">
<rect x="93.2244" y="337.012" width="25.6871" height="25.6902" rx="12.8435" fill="#3E3848"/>
<rect x="93.2244" y="337.012" width="25.6871" height="25.6902" rx="12.8435" stroke="url(#paint13_linear_2027_401)" stroke-width="0.336501"/>
<g id="fi_2567943">
<path id="Union_2" d="M102.689 350.687C102.948 350.687 103.157 350.897 103.157 351.155V355.833C103.157 356.092 102.948 356.301 102.689 356.301H99.8828C99.6246 356.301 99.4152 356.092 99.415 355.833V351.155C99.4152 350.897 99.6246 350.687 99.8828 350.687H102.689ZM107.472 343.203C107.73 343.203 107.939 343.412 107.939 343.67V355.833C107.939 356.092 107.73 356.301 107.472 356.301H104.664C104.406 356.301 104.196 356.092 104.196 355.833V343.67C104.196 343.412 104.406 343.203 104.664 343.203H107.472ZM112.149 346.945C112.408 346.945 112.617 347.154 112.617 347.413V355.833C112.617 356.092 112.408 356.301 112.149 356.301H109.343C109.085 356.301 108.875 356.092 108.875 355.833V347.413C108.875 347.154 109.085 346.945 109.343 346.945H112.149Z" fill="white"/>
</g>
</g>
<g id="Frame 2085663263">
<rect x="244.895" y="336.713" width="25.6871" height="25.6871" rx="12.8435" fill="#4A4357"/>
<rect x="244.895" y="336.713" width="25.6871" height="25.6871" rx="12.8435" stroke="url(#paint14_linear_2027_401)" stroke-width="0.336501"/>
<g id="Group 40679">
<g id="fi_9964464" clip-path="url(#clip3_2027_401)">
<g id="Group_18">
<path id="Union_3" d="M260.381 356.551C260.264 357.108 259.777 357.503 259.197 357.503H255.714C255.156 357.503 254.668 357.108 254.529 356.551L253.995 354.276H260.915L260.381 356.551ZM262.401 347.565C262.494 347.565 262.564 347.588 262.61 347.657C262.657 347.704 262.68 347.797 262.657 347.866C261.937 349.956 260.079 351.698 257.687 351.234V352.07H260.892C261.357 352.07 261.752 352.441 261.752 352.928C261.752 353.416 261.38 353.811 260.892 353.811H253.996C253.531 353.811 253.136 353.416 253.136 352.951C253.136 352.464 253.508 352.07 253.996 352.07H257.223V351.234C254.808 351.698 252.95 349.933 252.254 347.866C252.23 347.797 252.254 347.727 252.301 347.657C252.347 347.588 252.44 347.565 252.51 347.565C255.366 347.797 256.643 348.841 257.223 349.724V348.401C257.363 348.424 257.548 348.424 257.687 348.401V349.724C258.245 348.842 259.545 347.797 262.401 347.565ZM257.456 342.2C259.035 342.201 260.335 343.478 260.335 345.08C260.335 346.659 259.058 347.959 257.456 347.959C255.854 347.959 254.576 346.659 254.576 345.08C254.576 343.501 255.854 342.2 257.456 342.2ZM257.456 343.036C257.316 343.036 257.223 343.153 257.223 343.269V343.547C256.852 343.64 256.573 343.989 256.573 344.406C256.573 344.894 256.968 345.289 257.456 345.289C257.688 345.289 257.874 345.475 257.85 345.707C257.85 345.939 257.664 346.125 257.432 346.125C257.2 346.125 257.015 345.939 257.014 345.707C257.014 345.568 256.898 345.475 256.782 345.475C256.666 345.475 256.55 345.568 256.55 345.707C256.55 346.125 256.805 346.449 257.176 346.566V346.845C257.177 346.984 257.293 347.077 257.409 347.077C257.525 347.077 257.641 346.984 257.641 346.845V346.566C258.036 346.473 258.337 346.125 258.338 345.707C258.338 345.22 257.943 344.825 257.456 344.824C257.224 344.824 257.038 344.639 257.038 344.406C257.038 344.198 257.2 343.989 257.432 343.989H257.478C257.687 343.989 257.874 344.174 257.874 344.406C257.874 344.546 257.989 344.639 258.105 344.639C258.245 344.639 258.338 344.546 258.338 344.406C258.338 343.989 258.059 343.64 257.687 343.547V343.269C257.687 343.153 257.572 343.037 257.456 343.036Z" fill="white"/>
</g>
</g>
</g>
</g>
<g id="OBJECTS_2" clip-path="url(#clip4_2027_401)">
<g id="Group_19">
<path id="Union_4" d="M213.299 252.294C214.244 252.854 215.125 253.707 215.773 254.74C217.007 256.704 217.483 259.173 217.522 261.813C217.629 270.219 212.507 280.989 206.862 288.004L206.876 288.011C201.21 295.052 191.517 302.471 184.969 298.975C190.585 301.92 191.568 302.596 192.636 302.986C199.39 305.455 208.261 298.336 213.664 291.626L213.657 291.622C221.847 281.453 226.976 266.653 222.915 258.972C222.861 258.867 222.806 258.765 222.748 258.664L222.565 258.362C220.877 255.7 219.048 255.58 213.299 252.294ZM213.299 252.294C213.223 252.25 213.148 252.208 213.072 252.167C213.148 252.211 213.224 252.252 213.299 252.294Z" fill="url(#paint15_linear_2027_401)"/>
</g>
<path id="Vector_36" d="M212.78 258.458C209.224 252.825 200.148 255.922 192.549 265.358C184.96 274.794 181.676 287.061 185.232 292.693C188.789 298.326 197.864 295.229 205.463 285.793C213.052 276.357 216.336 264.09 212.78 258.458Z" fill="url(#paint16_radial_2027_401)"/>
<path id="Vector_37" d="M191.159 263.137C200.41 251.633 211.429 247.878 215.773 254.74C220.106 261.603 216.122 276.5 206.872 288.004C197.621 299.508 186.592 303.273 182.258 296.401C177.925 289.529 181.909 274.641 191.159 263.137ZM185.242 292.693C188.798 298.326 197.874 295.229 205.473 285.793C213.062 276.357 216.346 264.09 212.79 258.457C209.233 252.824 200.157 255.922 192.559 265.358C184.969 274.794 181.685 287.06 185.242 292.693Z" fill="url(#paint17_linear_2027_401)"/>
</g>
</g>
<path id="Union_5" d="M180.185 321.625C180.683 321.625 181.18 321.653 181.679 321.672C181.79 321.677 181.903 321.676 182.014 321.681L182.153 321.687C182.787 321.72 183.416 321.774 184.046 321.838C184.161 321.85 184.276 321.859 184.391 321.872C184.992 321.938 185.591 322.022 186.189 322.117C186.374 322.146 186.56 322.173 186.743 322.205C187.283 322.298 187.821 322.406 188.356 322.522C188.588 322.572 188.819 322.624 189.05 322.678C189.427 322.768 189.804 322.857 190.179 322.958V322.952L190.908 323.161H190.909C191.016 323.192 191.123 323.233 191.229 323.264C191.761 323.423 192.29 323.591 192.814 323.774C193.1 323.872 193.383 323.975 193.666 324.081C194.113 324.248 194.557 324.422 194.998 324.606C195.323 324.742 195.645 324.882 195.966 325.027C196.364 325.206 196.759 325.391 197.15 325.583C197.504 325.757 197.854 325.937 198.201 326.121C198.388 326.22 198.579 326.307 198.764 326.409L199.429 326.777L199.417 326.79C199.674 326.938 199.929 327.092 200.182 327.246C200.551 327.471 200.915 327.702 201.277 327.94C201.58 328.138 201.881 328.338 202.178 328.544C202.489 328.762 202.794 328.988 203.101 329.214C203.201 329.289 203.303 329.358 203.402 329.433C203.642 329.614 203.88 329.797 204.115 329.985C204.342 330.165 204.562 330.354 204.785 330.54C205.072 330.777 205.368 331.005 205.647 331.251C205.729 331.322 205.803 331.401 205.884 331.473L206.026 331.6C206.029 331.601 206.029 331.602 206.029 331.602C206.03 331.603 206.031 331.603 206.031 331.603C206.423 331.953 206.804 332.32 207.181 332.69C207.261 332.769 207.347 332.841 207.427 332.92C207.608 333.102 207.776 333.295 207.953 333.48C208.208 333.746 208.467 334.008 208.71 334.281L208.795 334.376C209.117 334.734 209.426 335.102 209.734 335.471C209.95 335.727 210.164 335.983 210.373 336.245C210.593 336.523 210.806 336.806 211.019 337.09C211.302 337.468 211.581 337.849 211.852 338.238C211.997 338.449 212.141 338.664 212.283 338.877C212.605 339.362 212.917 339.853 213.218 340.351C213.301 340.489 213.383 340.629 213.465 340.769C213.488 340.807 213.511 340.844 213.532 340.881L213.55 340.865L213.913 341.522C213.914 341.524 213.917 341.526 213.917 341.529C214.082 341.826 214.226 342.134 214.382 342.436C214.467 342.598 214.552 342.762 214.634 342.927C214.902 343.462 215.155 344.003 215.396 344.55C215.492 344.767 215.587 344.983 215.679 345.201C215.885 345.694 216.081 346.192 216.268 346.694C216.375 346.978 216.479 347.264 216.578 347.552C216.734 348.003 216.88 348.458 217.019 348.915C217.071 349.092 217.137 349.264 217.188 349.442L217.398 350.172H217.384V350.176C217.457 350.448 217.523 350.721 217.59 350.995C217.703 351.455 217.806 351.919 217.901 352.385C217.961 352.673 218.018 352.961 218.071 353.249C218.16 353.735 218.235 354.224 218.304 354.715C218.332 354.909 218.372 355.1 218.396 355.293C218.408 355.394 218.412 355.496 218.425 355.598C218.48 356.068 218.521 356.54 218.559 357.012C218.579 357.264 218.611 357.514 218.626 357.767L218.654 358.25V358.254L218.695 359.195C218.723 360.142 218.709 361.095 218.654 362.036L218.629 362.475C218.615 362.719 218.586 362.964 218.567 363.208C218.527 363.74 218.479 364.268 218.416 364.798C218.395 364.981 218.368 365.163 218.343 365.345C218.257 365.981 218.158 366.616 218.041 367.25C218.019 367.362 217.997 367.474 217.976 367.586C217.838 368.289 217.682 368.989 217.506 369.685C217.492 369.737 217.479 369.787 217.467 369.837C217.444 369.929 217.421 370.02 217.397 370.112H217.422L217.211 370.842C217.106 371.205 216.978 371.56 216.862 371.92C216.828 372.028 216.793 372.137 216.758 372.245C216.555 372.859 216.336 373.467 216.102 374.07C216.026 374.263 215.951 374.456 215.873 374.649C215.669 375.152 215.453 375.649 215.227 376.143C215.096 376.432 214.962 376.718 214.823 377.003C214.628 377.404 214.425 377.8 214.216 378.193C214.119 378.374 214.036 378.561 213.937 378.74L213.568 379.406L213.555 379.393C213.421 379.625 213.284 379.854 213.146 380.082C212.883 380.515 212.612 380.942 212.331 381.365C212.178 381.594 212.027 381.823 211.871 382.048C211.588 382.456 211.292 382.858 210.992 383.257C210.808 383.501 210.627 383.745 210.438 383.986C210.16 384.339 209.869 384.684 209.577 385.029C209.391 385.249 209.214 385.475 209.023 385.69L208.728 386.022L208.725 386.025C207.953 386.89 207.083 387.761 206.068 388.681L205.679 389.033C205.438 389.244 205.187 389.44 204.942 389.645C204.666 389.877 204.391 390.109 204.108 390.333C203.789 390.587 203.464 390.83 203.137 391.073C202.83 391.302 202.521 391.529 202.208 391.748C201.906 391.959 201.598 392.164 201.29 392.367C200.922 392.609 200.552 392.843 200.178 393.072C199.936 393.219 199.694 393.365 199.45 393.507L199.465 393.523L198.801 393.89C198.584 394.011 198.359 394.113 198.14 394.229C197.822 394.396 197.503 394.561 197.181 394.719C196.799 394.905 196.417 395.085 196.03 395.26C195.656 395.429 195.281 395.593 194.902 395.75C194.559 395.891 194.215 396.027 193.867 396.16C193.441 396.322 193.015 396.477 192.584 396.623C192.259 396.733 191.933 396.838 191.604 396.94C191.372 397.013 191.142 397.099 190.907 397.167L190.177 397.378V397.357C189.916 397.428 189.655 397.494 189.394 397.558C188.929 397.673 188.462 397.776 187.992 397.873C187.661 397.942 187.329 398.007 186.997 398.068C186.625 398.133 186.25 398.192 185.874 398.248C185.722 398.27 185.57 398.299 185.417 398.32C185.129 398.359 184.84 398.395 184.552 398.427C184.31 398.454 184.067 398.474 183.824 398.497C183.421 398.535 183.019 398.587 182.615 398.612C182.481 398.62 182.345 398.617 182.209 398.625L182.076 398.632C181.807 398.647 181.517 398.646 181.24 398.655C180.888 398.665 180.535 398.689 180.183 398.689C180.04 398.689 179.899 398.676 179.757 398.675C179.29 398.669 178.814 398.656 178.314 398.632L178.171 398.625C177.568 398.593 176.967 398.539 176.368 398.48C176.229 398.466 176.09 398.455 175.95 398.44C175.376 398.376 174.804 398.296 174.233 398.207C174.022 398.174 173.811 398.143 173.601 398.106C173.103 398.021 172.608 397.924 172.114 397.818C171.811 397.754 171.507 397.686 171.205 397.614C170.877 397.534 170.548 397.457 170.222 397.371V397.387L169.493 397.177C169.285 397.118 169.082 397.041 168.876 396.978C168.482 396.857 168.091 396.731 167.7 396.597C167.318 396.466 166.937 396.328 166.56 396.185C166.189 396.045 165.82 395.9 165.455 395.749C165.057 395.585 164.663 395.411 164.271 395.234C163.951 395.087 163.63 394.938 163.312 394.784C162.854 394.561 162.403 394.326 161.955 394.085C161.828 394.016 161.695 393.957 161.569 393.886L160.907 393.519L160.912 393.514C160.609 393.339 160.31 393.154 160.011 392.97C159.751 392.81 159.496 392.647 159.24 392.481C158.831 392.215 158.424 391.945 158.025 391.665C157.838 391.532 157.654 391.397 157.469 391.261C156.986 390.91 156.511 390.551 156.047 390.177C156.008 390.146 155.97 390.113 155.931 390.082C155.52 389.751 155.107 389.423 154.711 389.075C154.102 388.538 153.51 387.983 152.936 387.409C152.594 387.067 152.275 386.708 151.947 386.355C151.842 386.242 151.735 386.138 151.629 386.022L151.443 385.82C151.384 385.754 151.321 385.693 151.263 385.626C150.993 385.321 150.745 384.999 150.485 384.686C150.343 384.516 150.2 384.347 150.062 384.173C149.735 383.764 149.421 383.345 149.111 382.923C148.959 382.716 148.807 382.509 148.658 382.299C148.38 381.902 148.112 381.501 147.849 381.095C147.671 380.822 147.496 380.546 147.325 380.268C147.146 379.976 146.969 379.685 146.798 379.389L146.783 379.402L146.418 378.74V378.737C146.307 378.537 146.211 378.326 146.104 378.124C145.931 377.796 145.762 377.467 145.599 377.133C145.508 376.948 145.406 376.769 145.318 376.583C145.219 376.373 145.137 376.155 145.041 375.942C144.89 375.606 144.743 375.268 144.602 374.927C144.433 374.52 144.273 374.111 144.118 373.698C143.992 373.363 143.871 373.028 143.755 372.689C143.6 372.236 143.456 371.78 143.317 371.322C143.271 371.163 143.211 371.009 143.166 370.85L142.958 370.121H142.97C142.888 369.816 142.815 369.51 142.74 369.203C142.647 368.816 142.561 368.427 142.479 368.037C142.403 367.667 142.328 367.295 142.262 366.922C142.198 366.56 142.143 366.196 142.09 365.831C142.048 365.555 141.994 365.283 141.959 365.006C141.938 364.839 141.93 364.669 141.911 364.501C141.886 364.274 141.867 364.046 141.846 363.817C141.73 362.602 141.651 361.38 141.651 360.155C141.651 359.96 141.667 359.764 141.67 359.568C141.675 359.133 141.678 358.703 141.699 358.258L141.725 357.734H141.729C141.745 357.475 141.779 357.217 141.801 356.959C141.836 356.529 141.872 356.099 141.923 355.668C141.963 355.323 142.015 354.983 142.064 354.639C142.126 354.206 142.193 353.773 142.27 353.339C142.329 353.016 142.393 352.692 142.46 352.37C142.556 351.903 142.657 351.437 142.771 350.972C142.835 350.709 142.902 350.446 142.973 350.184C142.975 350.174 142.977 350.164 142.979 350.154H142.954L143.166 349.423C143.239 349.174 143.329 348.931 143.406 348.683C143.498 348.387 143.594 348.093 143.693 347.799C143.839 347.369 143.992 346.941 144.153 346.515C144.297 346.134 144.448 345.754 144.604 345.377C144.734 345.065 144.867 344.754 145.006 344.445C145.225 343.954 145.454 343.469 145.693 342.987C145.787 342.8 145.88 342.615 145.976 342.43C146.119 342.153 146.248 341.869 146.399 341.594L146.766 340.927L146.786 340.946C146.814 340.898 146.842 340.851 146.87 340.803C146.968 340.635 147.069 340.467 147.17 340.299C147.454 339.831 147.745 339.373 148.045 338.921C148.2 338.689 148.355 338.455 148.515 338.225C148.807 337.805 149.107 337.395 149.412 336.99C149.578 336.769 149.743 336.547 149.914 336.331C150.22 335.942 150.536 335.565 150.854 335.193C151.003 335.018 151.141 334.837 151.291 334.666V334.663L151.645 334.272C152.008 333.872 152.384 333.483 152.762 333.1C152.821 333.04 152.875 332.975 152.936 332.915C153.005 332.844 153.081 332.782 153.151 332.712C153.52 332.35 153.89 331.989 154.268 331.648L154.657 331.297C154.91 331.073 155.175 330.865 155.435 330.649C155.703 330.424 155.969 330.198 156.242 329.981C156.566 329.724 156.897 329.477 157.228 329.232C157.532 329.005 157.837 328.781 158.148 328.564C158.466 328.344 158.788 328.129 159.111 327.917C159.44 327.703 159.769 327.494 160.102 327.29C160.382 327.118 160.663 326.95 160.947 326.785L160.938 326.776L161.597 326.411C161.599 326.409 161.602 326.408 161.604 326.407C161.744 326.329 161.89 326.263 162.031 326.188C162.452 325.963 162.875 325.744 163.305 325.534C163.613 325.383 163.921 325.236 164.233 325.094C164.663 324.898 165.095 324.711 165.532 324.531C165.822 324.411 166.112 324.295 166.404 324.183C166.891 323.996 167.384 323.818 167.88 323.651C168.118 323.57 168.357 323.492 168.597 323.417C168.871 323.33 169.141 323.229 169.418 323.148L170.149 322.935V322.963C170.164 322.96 170.178 322.955 170.193 322.952C170.474 322.876 170.756 322.807 171.038 322.738C171.45 322.64 171.86 322.547 172.271 322.461C172.671 322.377 173.07 322.299 173.473 322.228C173.816 322.168 174.16 322.116 174.504 322.064C174.627 322.045 174.75 322.022 174.873 322.004C175.184 321.96 175.496 321.921 175.809 321.886C176.107 321.853 176.405 321.829 176.703 321.802C177.052 321.771 177.398 321.725 177.748 321.703C177.863 321.695 177.977 321.697 178.09 321.691L178.305 321.681C178.403 321.676 178.501 321.677 178.601 321.673C178.662 321.671 178.724 321.671 178.786 321.668C179.252 321.652 179.717 321.625 180.185 321.625ZM180.198 386.3C179.202 389.955 178.762 393.719 178.903 397.494C179.059 397.499 179.217 397.506 179.374 397.509H179.417C179.698 397.516 179.978 397.522 180.247 397.522C180.442 397.522 180.628 397.517 180.818 397.513C181.042 397.509 181.267 397.5 181.491 397.492L181.492 397.493C181.642 393.713 181.204 389.954 180.198 386.3ZM181.383 386.234C182.364 389.889 182.789 393.649 182.649 397.43C183.012 397.406 183.375 397.379 183.735 397.345C183.962 397.323 184.19 397.306 184.416 397.28C184.849 397.231 185.279 397.167 185.708 397.104C186.071 397.05 186.435 396.995 186.796 396.93C187.072 396.881 187.345 396.825 187.619 396.769C187.755 396.741 187.89 396.71 188.026 396.681C188.393 396.602 188.76 396.524 189.124 396.434C189.308 396.389 189.49 396.339 189.673 396.292C189.84 396.249 190.006 396.199 190.172 396.153V396.156C190.175 393.62 190.535 391.138 191.233 388.77C188.191 387.264 184.851 386.394 181.383 386.234ZM179.016 386.23C175.554 386.379 172.21 387.245 169.16 388.753C169.868 391.134 170.234 393.627 170.236 396.168C170.31 396.189 170.385 396.21 170.459 396.23C170.798 396.319 171.137 396.409 171.479 396.49C171.758 396.558 172.04 396.619 172.322 396.679C172.341 396.684 172.359 396.688 172.378 396.692C172.852 396.791 173.327 396.888 173.806 396.969C174.006 397.005 174.209 397.034 174.41 397.066C174.967 397.153 175.524 397.233 176.086 397.294C176.215 397.308 176.345 397.318 176.475 397.331C176.896 397.372 177.321 397.401 177.745 397.428L177.746 397.427C177.616 393.656 178.042 389.898 179.016 386.23ZM168.111 389.306C166.205 390.365 164.427 391.68 162.827 393.236C163.071 393.364 163.316 393.49 163.562 393.614C163.755 393.709 163.949 393.805 164.145 393.898C164.347 393.995 164.55 394.092 164.755 394.185C165.057 394.322 165.363 394.453 165.669 394.583C165.82 394.646 165.973 394.71 166.125 394.772C166.407 394.886 166.689 395 166.974 395.107C167.256 395.214 167.541 395.315 167.827 395.416C167.977 395.467 168.127 395.519 168.278 395.57V395.572C168.544 395.661 168.809 395.746 169.076 395.83C169.045 393.597 168.714 391.408 168.111 389.306ZM192.284 389.321C191.69 391.412 191.363 393.591 191.331 395.816C191.548 395.748 191.763 395.677 191.979 395.605C192.158 395.546 192.337 395.483 192.516 395.42C192.833 395.311 193.15 395.199 193.463 395.079C193.716 394.982 193.968 394.882 194.219 394.78C194.373 394.717 194.527 394.652 194.682 394.586C194.974 394.463 195.265 394.338 195.555 394.208C195.835 394.08 196.114 393.947 196.391 393.814C196.557 393.733 196.725 393.653 196.891 393.57V393.571C197.111 393.46 197.328 393.349 197.546 393.234C195.954 391.685 194.184 390.377 192.284 389.321ZM162.554 379.403C160.663 382.685 158.315 385.651 155.561 388.236C155.933 388.566 156.305 388.896 156.69 389.209C156.714 389.228 156.737 389.248 156.761 389.267C157.221 389.64 157.695 389.995 158.172 390.343C158.342 390.467 158.511 390.593 158.684 390.713C159.074 390.989 159.472 391.254 159.872 391.513C159.883 391.521 159.894 391.527 159.905 391.535C160.142 391.687 160.378 391.838 160.617 391.985C160.992 392.215 161.373 392.44 161.757 392.657C161.758 392.657 161.76 392.658 161.762 392.659C163.561 390.863 165.579 389.359 167.757 388.175C166.663 384.953 164.906 381.97 162.554 379.403ZM197.798 379.44C195.461 382.01 193.719 384.98 192.635 388.189C194.804 389.37 196.812 390.867 198.602 392.652C198.737 392.575 198.873 392.5 199.007 392.422C199.193 392.313 199.379 392.203 199.564 392.091C199.858 391.911 200.147 391.724 200.437 391.537C200.547 391.466 200.656 391.396 200.766 391.325C201.025 391.152 201.284 390.981 201.54 390.802C201.825 390.603 202.103 390.396 202.383 390.19C202.412 390.168 202.442 390.147 202.471 390.125C202.779 389.896 203.088 389.666 203.389 389.427C203.659 389.213 203.922 388.989 204.187 388.767H204.186C204.395 388.592 204.602 388.415 204.808 388.235C202.054 385.665 199.7 382.712 197.798 379.44ZM194.285 382.1C191.678 383.785 188.801 384.98 185.768 385.638C187.79 386.076 189.741 386.751 191.59 387.65C192.261 385.702 193.163 383.841 194.285 382.1ZM166.115 382.124C167.231 383.856 168.13 385.705 168.801 387.637C170.639 386.743 172.58 386.071 174.588 385.635C171.572 384.979 168.712 383.793 166.115 382.124ZM161.639 378.667C158.346 380.547 155.397 382.88 152.857 385.628C153.068 385.854 153.28 386.076 153.491 386.292C153.588 386.391 153.683 386.494 153.78 386.589C153.875 386.685 153.971 386.772 154.066 386.866C154.278 387.071 154.489 387.267 154.699 387.461V387.46C157.447 384.897 159.774 381.94 161.639 378.667ZM198.673 378.631C200.551 381.915 202.9 384.885 205.666 387.454C205.91 387.226 206.159 387.003 206.396 386.769C206.479 386.687 206.568 386.605 206.648 386.525C206.66 386.515 206.67 386.503 206.682 386.492V386.491C206.961 386.209 207.225 385.914 207.496 385.624C204.93 382.847 201.964 380.501 198.673 378.631ZM180.182 335.253C166.446 335.254 155.272 346.428 155.271 360.164C155.271 373.899 166.446 385.074 180.182 385.074C193.917 385.074 205.092 373.899 205.092 360.164C205.092 346.428 193.917 335.253 180.182 335.253ZM208.223 372.583C205.016 373.671 202.045 375.418 199.48 377.757C202.752 379.646 205.705 382 208.274 384.767C208.419 384.603 208.558 384.437 208.699 384.271C208.977 383.942 209.257 383.612 209.524 383.274C209.689 383.068 209.845 382.854 210.004 382.644C210.073 382.552 210.14 382.459 210.208 382.367C210.449 382.042 210.69 381.718 210.919 381.387C211.03 381.226 211.137 381.064 211.245 380.902C211.354 380.741 211.457 380.575 211.562 380.412C211.763 380.102 211.965 379.792 212.156 379.477C212.266 379.297 212.371 379.115 212.477 378.932L212.473 378.933C212.547 378.805 212.618 378.677 212.691 378.548C210.902 376.757 209.404 374.748 208.223 372.583ZM152.132 372.574C150.953 374.741 149.453 376.748 147.661 378.544C147.711 378.633 147.761 378.723 147.812 378.811C147.979 379.097 148.146 379.383 148.318 379.664C148.476 379.92 148.638 380.175 148.802 380.428C148.814 380.448 148.827 380.467 148.84 380.486C149.093 380.874 149.349 381.259 149.614 381.636C149.757 381.839 149.903 382.037 150.049 382.236C150.351 382.649 150.658 383.059 150.977 383.458C151.106 383.621 151.241 383.777 151.372 383.937L151.722 384.352C151.84 384.49 151.959 384.627 152.079 384.764C154.644 382.004 157.605 379.65 160.898 377.75C158.342 375.408 155.36 373.659 152.132 372.574ZM179.11 338.025C179.824 337.99 180.542 337.99 181.241 338.025C182.99 338.109 184.713 338.396 186.358 338.875C189.921 339.897 193.209 341.838 195.859 344.489C198.502 347.132 200.444 350.42 201.474 353.996C201.948 355.627 202.233 357.335 202.317 359.065C202.359 359.786 202.359 360.527 202.317 361.253H202.316C202.242 362.939 201.962 364.646 201.487 366.304C200.457 369.883 198.509 373.178 195.854 375.833C193.208 378.479 189.924 380.422 186.354 381.454C184.724 381.93 183.012 382.213 181.272 382.298C180.94 382.317 180.594 382.326 180.235 382.326C179.876 382.326 179.502 382.317 179.11 382.298C177.394 382.215 175.688 381.932 174.039 381.461C170.446 380.426 167.152 378.482 164.509 375.839C161.852 373.184 159.908 369.888 158.887 366.31C158.41 364.67 158.128 362.959 158.051 361.232C158.012 360.561 158.009 359.827 158.044 359.074C158.127 357.366 158.411 355.657 158.887 353.993C159.92 350.418 161.865 347.133 164.509 344.489C167.144 341.854 170.423 339.911 173.991 338.87C175.71 338.384 177.428 338.1 179.11 338.025ZM180.183 374.594H180.163C180.094 374.594 180.027 374.584 179.958 374.584C179.932 374.587 179.905 374.585 179.879 374.587C177.99 374.634 176.18 375.079 174.525 375.864C174.763 376.722 174.918 377.606 174.994 378.506C176.382 378.894 177.818 379.13 179.263 379.201C179.937 379.233 180.542 379.235 181.108 379.201C182.585 379.129 184.022 378.891 185.395 378.5H185.394C185.469 377.6 185.626 376.717 185.864 375.858C184.215 375.079 182.409 374.634 180.533 374.587C180.494 374.584 180.463 374.584 180.429 374.583C180.347 374.585 180.265 374.594 180.183 374.594ZM173.458 376.429C172.967 376.72 172.491 377.037 172.038 377.392C172.609 377.662 173.189 377.911 173.784 378.123C173.714 377.548 173.6 376.984 173.458 376.429ZM186.93 376.42C186.787 376.976 186.676 377.54 186.606 378.114C187.201 377.901 187.78 377.65 188.349 377.379C187.897 377.026 187.421 376.71 186.93 376.42ZM144.784 372.085C144.847 372.274 144.911 372.462 144.977 372.648C145.052 372.862 145.127 373.075 145.206 373.287C145.328 373.61 145.456 373.931 145.586 374.252C145.653 374.416 145.72 374.579 145.789 374.742C145.892 374.985 145.996 375.226 146.103 375.465C146.237 375.769 146.381 376.069 146.524 376.368C146.597 376.52 146.671 376.674 146.746 376.825C146.857 377.048 146.969 377.268 147.085 377.488V377.484C148.636 375.887 149.94 374.117 150.994 372.221C148.912 371.632 146.74 371.307 144.524 371.277C144.609 371.548 144.695 371.817 144.784 372.085ZM215.845 371.268C213.625 371.302 211.449 371.631 209.36 372.229C210.417 374.125 211.725 375.894 213.273 377.488C213.402 377.242 213.528 376.996 213.651 376.748C213.756 376.535 213.862 376.322 213.963 376.107C214.032 375.96 214.103 375.812 214.171 375.665C214.324 375.328 214.468 374.987 214.611 374.646C214.741 374.338 214.873 374.031 214.994 373.719C215.002 373.698 215.01 373.678 215.018 373.658C215.168 373.27 215.303 372.877 215.439 372.485C215.553 372.16 215.67 371.836 215.774 371.509V371.511C215.799 371.431 215.82 371.348 215.845 371.268ZM165.088 367.247C164.647 368.026 164.13 368.767 163.545 369.46C164.397 370.985 165.454 372.4 166.702 373.648H166.703C167.952 374.897 169.373 375.956 170.908 376.811C171.598 376.228 172.334 375.715 173.108 375.277C172.517 373.619 171.604 372.079 170.38 370.754L170.35 370.739L170.268 370.636C170.256 370.622 170.244 370.611 170.232 370.598C170.149 370.519 170.06 370.45 169.979 370.368C169.898 370.287 169.828 370.198 169.75 370.116C169.739 370.107 169.729 370.096 169.719 370.087L169.6 369.975C168.283 368.753 166.746 367.84 165.088 367.247ZM195.303 367.24C193.583 367.854 191.993 368.817 190.633 370.113C190.601 370.139 190.577 370.161 190.552 370.185C190.494 370.244 190.446 370.309 190.388 370.367C190.337 370.418 190.279 370.462 190.228 370.512C190.207 370.534 190.186 370.554 190.167 370.576C188.862 371.945 187.898 373.543 187.282 375.268C188.055 375.705 188.79 376.216 189.479 376.796C191.002 375.943 192.416 374.886 193.661 373.641L193.662 373.64C194.912 372.39 195.973 370.972 196.829 369.445C196.246 368.755 195.74 368.014 195.303 367.24ZM173.279 372.839C173.615 373.455 173.914 374.089 174.156 374.747C174.793 374.452 175.452 374.211 176.125 374.013C175.137 373.726 174.184 373.333 173.28 372.839H173.279ZM187.107 372.825C186.203 373.321 185.249 373.717 184.258 374.008C184.934 374.206 185.594 374.446 186.232 374.741C186.474 374.081 186.769 373.443 187.107 372.825ZM205.664 365.698C205.009 368.742 203.814 371.629 202.128 374.246C203.87 373.119 205.736 372.212 207.687 371.538C206.782 369.683 206.102 367.726 205.664 365.699V365.698ZM154.685 365.65C154.25 367.694 153.576 369.668 152.67 371.536C154.617 372.204 156.477 373.105 158.217 374.224C156.53 371.599 155.336 368.703 154.685 365.65ZM180.184 346.895C179.729 346.895 179.279 346.918 178.836 346.963C178.789 346.967 178.743 346.978 178.696 346.983C178.297 347.028 177.902 347.085 177.514 347.165C177.511 347.166 177.51 347.166 177.508 347.166C172.372 348.222 168.314 352.257 167.215 357.377C167.206 357.419 167.191 357.46 167.183 357.502C167.116 357.827 167.072 358.16 167.03 358.494C167.016 358.605 166.993 358.714 166.981 358.826C166.949 359.141 166.941 359.464 166.933 359.787C166.931 359.798 166.931 359.808 166.931 359.818C166.937 359.936 166.942 360.057 166.942 360.167C166.942 360.3 166.941 360.426 166.933 360.554V360.575C166.941 360.884 166.948 361.195 166.979 361.5C166.99 361.618 167.015 361.734 167.03 361.851C167.072 362.177 167.113 362.505 167.179 362.824C167.19 362.874 167.205 362.922 167.217 362.972L167.22 362.969C167.747 365.404 168.946 367.587 170.61 369.325C170.683 369.393 170.759 369.46 170.824 369.526C170.905 369.607 170.979 369.684 171.051 369.763C172.803 371.431 175.005 372.632 177.459 373.147C177.479 373.152 177.497 373.158 177.518 373.162C177.879 373.236 178.248 373.286 178.619 373.331C178.693 373.339 178.767 373.356 178.841 373.364C179.205 373.4 179.575 373.412 179.946 373.418C180.091 373.412 180.253 373.412 180.423 373.418C180.795 373.412 181.165 373.4 181.529 373.364C181.59 373.357 181.649 373.343 181.709 373.337C182.094 373.293 182.478 373.238 182.854 373.162C182.856 373.16 182.859 373.16 182.861 373.16C185.386 372.641 187.646 371.396 189.428 369.663C189.473 369.616 189.522 369.567 189.568 369.52C189.596 369.491 189.626 369.466 189.653 369.44C191.692 367.361 193.054 364.619 193.376 361.568C193.377 361.55 193.383 361.533 193.384 361.515C193.429 361.077 193.452 360.631 193.452 360.18V360.15C193.452 359.698 193.429 359.251 193.384 358.81C193.383 358.799 193.379 358.787 193.379 358.776C192.732 352.586 187.812 347.651 181.63 346.977C181.597 346.975 181.566 346.967 181.533 346.963C181.089 346.919 180.638 346.895 180.184 346.895ZM154.07 361.323C150.807 362.193 147.484 362.636 144.145 362.636C143.738 362.636 143.33 362.619 142.923 362.607C142.946 362.981 142.972 363.356 143.006 363.728C143.027 363.943 143.044 364.159 143.068 364.375C143.116 364.811 143.179 365.246 143.243 365.68C143.295 366.027 143.347 366.376 143.408 366.722C143.467 367.055 143.535 367.386 143.603 367.717C143.623 367.815 143.645 367.912 143.666 368.01C143.731 368.318 143.798 368.625 143.871 368.931C143.957 369.284 144.049 369.635 144.145 369.985V369.989C144.157 370.034 144.17 370.079 144.183 370.125C146.71 370.13 149.182 370.489 151.543 371.181C153.046 368.138 153.915 364.799 154.07 361.323ZM206.27 361.326C206.432 364.801 207.302 368.139 208.81 371.18C211.174 370.48 213.651 370.116 216.18 370.11C216.254 369.839 216.336 369.572 216.404 369.299C216.512 368.872 216.601 368.437 216.693 368.005C216.761 367.688 216.838 367.373 216.897 367.053C216.982 366.596 217.047 366.137 217.115 365.677C217.148 365.452 217.189 365.229 217.218 365.003C217.232 364.892 217.249 364.781 217.262 364.67C217.319 364.195 217.358 363.716 217.397 363.239C217.401 363.186 217.408 363.132 217.411 363.08L217.413 363.081C217.424 362.924 217.438 362.765 217.448 362.607C217.041 362.619 216.634 362.635 216.229 362.635C212.88 362.635 209.542 362.193 206.27 361.326ZM162.225 366.565C162.439 367.167 162.691 367.755 162.964 368.332C163.323 367.872 163.642 367.39 163.936 366.892C163.374 366.747 162.805 366.633 162.225 366.564V366.565ZM198.147 366.561C197.571 366.63 197.003 366.746 196.445 366.889C196.736 367.381 197.056 367.858 197.412 368.312V368.313C197.684 367.74 197.935 367.158 198.147 366.561ZM194.031 364.221C193.742 365.211 193.348 366.164 192.854 367.069C193.472 366.73 194.11 366.434 194.771 366.19C194.478 365.552 194.228 364.897 194.031 364.221ZM166.338 364.246C166.143 364.911 165.91 365.564 165.62 366.193C166.27 366.434 166.895 366.729 167.505 367.063C167.015 366.168 166.625 365.225 166.338 364.246ZM164.483 354.465C163.626 354.704 162.745 354.866 161.845 354.942C161.451 356.344 161.212 357.785 161.142 359.222C161.111 359.864 161.114 360.487 161.148 361.073L161.146 361.072C161.211 362.538 161.446 363.97 161.839 365.35C162.743 365.424 163.633 365.582 164.498 365.824C165.246 364.237 165.687 362.51 165.758 360.716L165.747 360.685L165.763 360.555C165.765 360.537 165.764 360.519 165.766 360.5C165.763 360.387 165.747 360.275 165.747 360.162C165.747 360.048 165.763 359.937 165.766 359.824C165.764 359.81 165.765 359.794 165.764 359.78L165.747 359.65L165.759 359.616C165.693 357.812 165.248 356.068 164.483 354.465ZM195.896 354.474C195.065 356.22 194.618 358.14 194.614 360.138V360.162C194.614 360.17 194.612 360.179 194.612 360.188C194.615 362.175 195.059 364.083 195.88 365.822C196.741 365.583 197.628 365.424 198.532 365.348C198.923 363.956 199.155 362.525 199.22 361.093H199.222C199.257 360.465 199.257 359.844 199.222 359.228C199.15 357.758 198.913 356.324 198.521 354.948C197.625 354.872 196.749 354.71 195.896 354.474ZM217.497 358.843C213.753 358.715 210.014 359.159 206.361 360.147C210.001 361.134 213.745 361.579 217.498 361.451C217.512 361.023 217.539 360.607 217.539 360.165C217.539 359.723 217.512 359.284 217.497 358.843ZM153.985 360.138C150.329 359.139 146.596 358.703 142.86 358.85C142.852 359.097 142.84 359.345 142.836 359.593C142.835 359.64 142.832 359.689 142.832 359.736C142.831 359.884 142.827 360.034 142.827 360.18C142.827 360.324 142.832 360.462 142.835 360.604L142.836 360.606C142.84 360.89 142.85 361.171 142.861 361.449C146.618 361.581 150.352 361.134 153.985 360.138ZM208.787 349.122C207.288 352.162 206.426 355.5 206.269 358.971C209.943 357.999 213.691 357.57 217.444 357.687C217.432 357.497 217.415 357.309 217.4 357.121C217.399 357.104 217.398 357.089 217.396 357.073C217.36 356.628 217.323 356.184 217.271 355.742C217.242 355.487 217.202 355.236 217.167 354.983C217.15 354.862 217.129 354.741 217.111 354.621C217.053 354.234 216.997 353.848 216.928 353.464C216.887 353.239 216.841 353.014 216.796 352.789C216.762 352.62 216.724 352.453 216.688 352.286C216.616 351.949 216.543 351.614 216.463 351.281C216.396 351.009 216.326 350.738 216.253 350.468V350.469C216.228 350.375 216.2 350.283 216.175 350.19C213.635 350.187 211.154 349.823 208.787 349.122ZM151.52 349.124C149.17 349.812 146.711 350.173 144.192 350.177C144.141 350.361 144.088 350.542 144.04 350.726C143.993 350.907 143.945 351.088 143.901 351.269C143.816 351.62 143.742 351.974 143.666 352.327C143.636 352.466 143.604 352.605 143.576 352.745C143.521 353.016 143.466 353.289 143.417 353.562C143.352 353.925 143.297 354.291 143.243 354.656C143.232 354.728 143.22 354.8 143.21 354.872C143.166 355.186 143.119 355.5 143.082 355.815C143.033 356.23 142.998 356.648 142.963 357.066V357.067C142.945 357.276 142.928 357.486 142.914 357.695C146.662 357.558 150.408 357.98 154.068 358.958C153.905 355.486 153.029 352.157 151.52 349.124ZM192.848 353.244C193.346 354.154 193.743 355.112 194.032 356.108C194.231 355.423 194.487 354.759 194.785 354.115C194.121 353.87 193.471 353.586 192.848 353.244ZM167.524 353.231C166.906 353.572 166.261 353.856 165.602 354.1C165.897 354.739 166.139 355.402 166.338 356.081C166.629 355.09 167.027 354.136 167.524 353.231ZM158.278 346.011C156.512 347.161 154.623 348.082 152.645 348.763C153.562 350.642 154.245 352.629 154.684 354.689C155.342 351.595 156.557 348.664 158.278 346.011ZM202.097 346.03C203.795 348.652 204.996 351.547 205.657 354.6C206.091 352.572 206.768 350.613 207.668 348.757C205.713 348.08 203.845 347.165 202.097 346.03ZM197.413 352.02C197.061 352.469 196.744 352.939 196.456 353.423C197.007 353.563 197.566 353.672 198.135 353.741C197.926 353.154 197.679 352.583 197.413 352.02ZM162.961 351.998C162.692 352.565 162.441 353.143 162.229 353.735C162.804 353.665 163.368 353.555 163.922 353.413C163.631 352.924 163.315 352.45 162.961 351.998ZM189.45 343.509C188.768 344.086 188.036 344.587 187.271 345.023C187.918 346.851 188.963 348.531 190.38 349.95C190.382 349.953 190.386 349.956 190.389 349.958C190.393 349.962 190.395 349.966 190.398 349.97C191.815 351.383 193.489 352.426 195.312 353.075C195.748 352.306 196.251 351.57 196.83 350.884C195.975 349.352 194.916 347.931 193.667 346.682L193.67 346.684C192.413 345.427 190.988 344.364 189.45 343.509ZM170.906 343.514C169.374 344.372 167.951 345.433 166.702 346.682L166.701 346.681C165.455 347.928 164.398 349.343 163.543 350.869C164.123 351.555 164.637 352.288 165.074 353.059C166.89 352.409 168.558 351.368 169.967 349.959L169.971 349.962C169.973 349.96 169.976 349.958 169.977 349.957L169.975 349.954C171.394 348.535 172.439 346.853 173.086 345.024C172.32 344.59 171.589 344.091 170.906 343.514ZM213.251 342.792C211.701 344.388 210.394 346.161 209.339 348.064C211.427 348.661 213.603 348.99 215.83 349.023C215.748 348.759 215.663 348.495 215.574 348.232C215.489 347.98 215.404 347.728 215.313 347.478C215.271 347.356 215.228 347.234 215.183 347.113C215.052 346.76 214.911 346.412 214.769 346.063C214.652 345.776 214.537 345.487 214.412 345.203C214.388 345.147 214.365 345.092 214.341 345.037C214.178 344.669 214.003 344.309 213.829 343.948C213.688 343.656 213.551 343.361 213.402 343.073C213.387 343.043 213.372 343.013 213.357 342.983C213.323 342.919 213.287 342.857 213.253 342.792H213.251ZM147.003 342.988C146.985 343.021 146.968 343.054 146.952 343.086C146.809 343.367 146.675 343.652 146.538 343.935C146.377 344.27 146.216 344.605 146.063 344.944C145.982 345.129 145.903 345.315 145.823 345.501C145.745 345.682 145.67 345.864 145.596 346.045C145.472 346.346 145.352 346.647 145.237 346.951C145.125 347.248 145.02 347.548 144.916 347.847C144.847 348.045 144.777 348.244 144.712 348.443L144.714 348.44C144.651 348.63 144.587 348.82 144.528 349.01C146.736 348.979 148.893 348.654 150.963 348.069C149.912 346.193 148.613 344.441 147.073 342.86C147.051 342.904 147.026 342.945 147.003 342.988ZM151.751 335.946C151.73 335.971 151.708 335.998 151.687 336.023C151.397 336.365 151.106 336.708 150.829 337.06C150.689 337.236 150.554 337.42 150.417 337.6C150.33 337.713 150.248 337.831 150.162 337.947C149.929 338.261 149.695 338.576 149.471 338.898C149.355 339.067 149.242 339.238 149.127 339.41C149.02 339.568 148.919 339.729 148.815 339.889C148.594 340.23 148.371 340.571 148.162 340.918C148.119 340.989 148.078 341.06 148.035 341.13H148.036C147.904 341.352 147.782 341.58 147.655 341.804C149.436 343.583 150.929 345.571 152.104 347.716C155.333 346.63 158.321 344.879 160.899 342.521C157.633 340.634 154.681 338.29 152.1 335.541C151.983 335.674 151.867 335.81 151.751 335.946ZM208.259 335.54C205.691 338.277 202.737 340.623 199.459 342.529C202.027 344.876 204.999 346.62 208.21 347.709C209.388 345.54 210.884 343.53 212.672 341.737C212.547 341.518 212.429 341.293 212.3 341.077C212.276 341.038 212.252 340.998 212.228 340.958C212.011 340.597 211.78 340.245 211.553 339.892C211.438 339.715 211.326 339.536 211.209 339.361C211.106 339.207 211.004 339.053 210.898 338.901C210.676 338.579 210.441 338.264 210.207 337.948C210.158 337.881 210.11 337.814 210.061 337.749C209.862 337.484 209.664 337.219 209.459 336.96C209.265 336.716 209.062 336.478 208.862 336.239C208.663 336.002 208.463 335.77 208.259 335.54ZM174.126 345.55C173.879 346.224 173.588 346.878 173.241 347.507C174.159 347.002 175.128 346.6 176.134 346.308C175.444 346.109 174.776 345.853 174.126 345.552V345.55ZM186.229 345.55C185.58 345.851 184.911 346.108 184.223 346.308C185.226 346.599 186.193 346.999 187.109 347.502C186.764 346.875 186.474 346.221 186.229 345.55ZM180.179 341.099C179.873 341.099 179.564 341.107 179.254 341.123C177.841 341.186 176.398 341.423 174.959 341.822H174.958C174.885 342.717 174.721 343.593 174.487 344.444C176.24 345.279 178.168 345.727 180.172 345.727H180.181C182.187 345.727 184.115 345.277 185.866 344.441C185.632 343.592 185.468 342.72 185.393 341.829C184.005 341.432 182.559 341.194 181.089 341.123C180.789 341.107 180.484 341.099 180.179 341.099ZM173.744 342.211C173.164 342.42 172.597 342.666 172.039 342.93C172.485 343.279 172.951 343.594 173.432 343.879C173.57 343.333 173.676 342.777 173.744 342.211ZM186.608 342.212C186.676 342.776 186.783 343.33 186.922 343.875C187.403 343.588 187.869 343.274 188.313 342.925C187.756 342.662 187.189 342.419 186.608 342.212ZM205.639 332.835C202.899 335.395 200.565 338.354 198.681 341.638C201.955 339.76 204.921 337.423 207.483 334.678C207.391 334.58 207.299 334.48 207.206 334.383C207.098 334.269 206.993 334.153 206.882 334.04C206.785 333.939 206.688 333.836 206.589 333.737C206.488 333.638 206.385 333.54 206.283 333.441C206.072 333.234 205.854 333.036 205.639 332.835ZM154.033 333.489C153.941 333.578 153.849 333.666 153.759 333.756C153.676 333.841 153.594 333.928 153.511 334.012L152.882 334.683C155.425 337.406 158.349 339.715 161.578 341.57C159.721 338.345 157.404 335.422 154.675 332.887C154.461 333.087 154.242 333.284 154.033 333.489ZM161.655 327.73C161.335 327.913 161.016 328.099 160.7 328.292C160.428 328.458 160.161 328.632 159.895 328.804C159.825 328.849 159.755 328.895 159.686 328.94C159.392 329.133 159.099 329.326 158.811 329.528C158.521 329.731 158.237 329.943 157.952 330.153L157.93 330.17C157.605 330.412 157.279 330.653 156.962 330.906C156.705 331.11 156.456 331.323 156.204 331.533L156.202 331.532C155.977 331.721 155.751 331.912 155.529 332.107C158.28 334.675 160.628 337.624 162.523 340.89C164.882 338.31 166.631 335.324 167.715 332.094C165.567 330.921 163.578 329.427 161.797 327.649C161.749 327.675 161.703 327.704 161.655 327.73ZM198.571 327.655C196.783 329.439 194.788 330.934 192.632 332.109C193.714 335.318 195.451 338.29 197.789 340.86C199.697 337.581 202.041 334.629 204.777 332.06C204.531 331.843 204.281 331.629 204.029 331.42C203.822 331.248 203.616 331.073 203.406 330.906C203.08 330.646 202.747 330.399 202.413 330.151C202.404 330.145 202.395 330.139 202.387 330.132C202.1 329.92 201.813 329.708 201.521 329.504C201.266 329.326 201.006 329.155 200.747 328.984C200.646 328.918 200.545 328.854 200.444 328.789C200.159 328.604 199.872 328.418 199.581 328.241C199.353 328.102 199.123 327.969 198.893 327.835C198.787 327.774 198.678 327.715 198.571 327.655ZM168.77 332.638C168.09 334.617 167.165 336.504 166.018 338.271C166.581 337.908 167.155 337.569 167.738 337.252C167.749 337.247 167.759 337.241 167.771 337.235C168.071 337.072 168.375 336.918 168.681 336.768C168.781 336.719 168.881 336.667 168.981 336.62C169.203 336.515 169.427 336.415 169.649 336.317C169.843 336.231 170.037 336.146 170.233 336.064C170.367 336.01 170.5 335.959 170.635 335.906C170.926 335.791 171.217 335.68 171.512 335.576C171.553 335.561 171.594 335.548 171.634 335.534C172.627 335.187 173.648 334.9 174.693 334.674C172.635 334.236 170.648 333.555 168.77 332.638ZM191.58 332.652C189.708 333.563 187.727 334.241 185.675 334.676C186.463 334.846 187.239 335.052 187.999 335.292L188.837 335.572C189.145 335.681 189.45 335.797 189.752 335.917C189.873 335.963 189.994 336.01 190.114 336.059C190.324 336.147 190.532 336.239 190.739 336.331C190.948 336.424 191.158 336.517 191.364 336.615C191.48 336.67 191.595 336.728 191.709 336.785C192 336.928 192.289 337.074 192.575 337.229C192.603 337.244 192.629 337.259 192.655 337.274C193.221 337.581 193.778 337.91 194.324 338.262C193.181 336.501 192.26 334.621 191.58 332.652ZM182.587 322.898C182.717 326.661 182.291 330.409 181.32 334.063C184.814 333.908 188.166 333.037 191.219 331.525C190.526 329.169 190.175 326.7 190.172 324.175C189.706 324.046 189.237 323.922 188.765 323.81C188.555 323.76 188.343 323.715 188.132 323.668C187.602 323.554 187.07 323.447 186.534 323.355C186.365 323.326 186.195 323.3 186.026 323.274C185.44 323.181 184.851 323.096 184.258 323.032C184.155 323.02 184.051 323.013 183.947 323.003C183.497 322.958 183.043 322.927 182.589 322.898H182.587ZM176.805 322.966C176.517 322.993 176.231 323.016 175.943 323.048C175.524 323.096 175.102 323.157 174.681 323.22C174.675 323.22 174.668 323.222 174.662 323.222C174.335 323.271 174.006 323.32 173.68 323.378C173.318 323.443 172.957 323.516 172.596 323.59C172.509 323.608 172.422 323.626 172.335 323.645C171.995 323.718 171.655 323.792 171.317 323.874C171.117 323.921 170.917 323.974 170.717 324.026C170.532 324.075 170.348 324.129 170.163 324.18V324.179C170.163 326.699 169.814 329.162 169.127 331.511C172.179 333.027 175.531 333.903 179.023 334.062C178.048 330.417 177.616 326.67 177.735 322.896C177.426 322.916 177.116 322.939 176.805 322.966ZM179.717 322.817C179.443 322.821 179.168 322.829 178.894 322.837H178.895C178.766 326.566 179.201 330.268 180.174 333.865C181.141 330.27 181.57 326.562 181.432 322.837C181.16 322.827 180.888 322.821 180.615 322.817C180.472 322.814 180.329 322.811 180.186 322.811C180.03 322.811 179.873 322.816 179.717 322.817ZM191.33 324.523C191.363 326.734 191.688 328.896 192.277 330.969C194.162 329.918 195.923 328.619 197.511 327.077C197.286 326.958 197.058 326.841 196.83 326.728C196.688 326.656 196.545 326.588 196.401 326.519C196.097 326.372 195.791 326.225 195.482 326.086C195.271 325.992 195.057 325.901 194.843 325.81C194.659 325.732 194.475 325.657 194.291 325.582C193.945 325.439 193.596 325.3 193.245 325.169C193.124 325.125 193.002 325.082 192.881 325.038C192.633 324.948 192.382 324.864 192.132 324.78L192.131 324.781C191.865 324.691 191.598 324.606 191.33 324.523ZM168.942 324.535C168.834 324.569 168.727 324.605 168.619 324.64C168.365 324.723 168.113 324.814 167.86 324.902C167.51 325.024 167.159 325.146 166.812 325.28C166.655 325.34 166.499 325.404 166.342 325.467C166.128 325.553 165.916 325.643 165.703 325.732C165.368 325.873 165.034 326.015 164.703 326.167C164.532 326.244 164.362 326.327 164.192 326.408C163.996 326.501 163.8 326.597 163.606 326.694L163.605 326.695C163.356 326.818 163.108 326.947 162.861 327.077C164.441 328.611 166.193 329.906 168.069 330.955C168.654 328.883 168.974 326.725 169.003 324.517C168.983 324.523 168.962 324.528 168.942 324.535Z" fill="url(#paint18_radial_2027_401)"/>
</g>
</g>
<rect x="0.313368" y="0.313368" width="360.373" height="479.373" rx="14.7283" stroke="#D9D9D9" stroke-opacity="0.2" stroke-width="0.626736" shape-rendering="crispEdges"/>
</g>
<defs>
<filter id="filter0_d_2027_401" x="-12.5347" y="-11.2813" width="386.069" height="505.069" filterUnits="userSpaceOnUse" color-interpolation-filters="sRGB">
<feFlood flood-opacity="0" result="BackgroundImageFix"/>
<feColorMatrix in="SourceAlpha" type="matrix" values="0 0 0 0 0 0 0 0 0 0 0 0 0 0 0 0 0 0 127 0" result="hardAlpha"/>
<feOffset dy="1.25347"/>
<feGaussianBlur stdDeviation="6.26736"/>
<feComposite in2="hardAlpha" operator="out"/>
<feColorMatrix type="matrix" values="0 0 0 0 0 0 0 0 0 0 0 0 0 0 0 0 0 0 0.06 0"/>
<feBlend mode="normal" in2="BackgroundImageFix" result="effect1_dropShadow_2027_401"/>
<feBlend mode="normal" in="SourceGraphic" in2="effect1_dropShadow_2027_401" result="shape"/>
</filter>
<filter id="filter1_d_2027_401" x="274.225" y="312.478" width="72.3745" height="72.3743" filterUnits="userSpaceOnUse" color-interpolation-filters="sRGB">
<feFlood flood-opacity="0" result="BackgroundImageFix"/>
<feColorMatrix in="SourceAlpha" type="matrix" values="0 0 0 0 0 0 0 0 0 0 0 0 0 0 0 0 0 0 127 0" result="hardAlpha"/>
<feOffset dy="3.39511"/>
<feGaussianBlur stdDeviation="8.48778"/>
<feComposite in2="hardAlpha" operator="out"/>
<feColorMatrix type="matrix" values="0 0 0 0 0.254902 0 0 0 0 0.184314 0 0 0 0 0.364706 0 0 0 0.1 0"/>
<feBlend mode="normal" in2="BackgroundImageFix" result="effect1_dropShadow_2027_401"/>
<feBlend mode="normal" in="SourceGraphic" in2="effect1_dropShadow_2027_401" result="shape"/>
</filter>
<filter id="filter2_d_2027_401" x="260.971" y="384.89" width="72.3745" height="72.3742" filterUnits="userSpaceOnUse" color-interpolation-filters="sRGB">
<feFlood flood-opacity="0" result="BackgroundImageFix"/>
<feColorMatrix in="SourceAlpha" type="matrix" values="0 0 0 0 0 0 0 0 0 0 0 0 0 0 0 0 0 0 127 0" result="hardAlpha"/>
<feOffset dy="3.39511"/>
<feGaussianBlur stdDeviation="8.48778"/>
<feComposite in2="hardAlpha" operator="out"/>
<feColorMatrix type="matrix" values="0 0 0 0 0.254902 0 0 0 0 0.184314 0 0 0 0 0.364706 0 0 0 0.1 0"/>
<feBlend mode="normal" in2="BackgroundImageFix" result="effect1_dropShadow_2027_401"/>
<feBlend mode="normal" in="SourceGraphic" in2="effect1_dropShadow_2027_401" result="shape"/>
</filter>
<filter id="filter3_d_2027_401" x="26.4473" y="384.89" width="72.3745" height="72.3742" filterUnits="userSpaceOnUse" color-interpolation-filters="sRGB">
<feFlood flood-opacity="0" result="BackgroundImageFix"/>
<feColorMatrix in="SourceAlpha" type="matrix" values="0 0 0 0 0 0 0 0 0 0 0 0 0 0 0 0 0 0 127 0" result="hardAlpha"/>
<feOffset dy="3.39511"/>
<feGaussianBlur stdDeviation="8.48778"/>
<feComposite in2="hardAlpha" operator="out"/>
<feColorMatrix type="matrix" values="0 0 0 0 0.254902 0 0 0 0 0.184314 0 0 0 0 0.364706 0 0 0 0.1 0"/>
<feBlend mode="normal" in2="BackgroundImageFix" result="effect1_dropShadow_2027_401"/>
<feBlend mode="normal" in="SourceGraphic" in2="effect1_dropShadow_2027_401" result="shape"/>
</filter>
<filter id="filter4_d_2027_401" x="13.8394" y="312.478" width="72.3745" height="71.3868" filterUnits="userSpaceOnUse" color-interpolation-filters="sRGB">
<feFlood flood-opacity="0" result="BackgroundImageFix"/>
<feColorMatrix in="SourceAlpha" type="matrix" values="0 0 0 0 0 0 0 0 0 0 0 0 0 0 0 0 0 0 127 0" result="hardAlpha"/>
<feOffset dy="3.39511"/>
<feGaussianBlur stdDeviation="8.48778"/>
<feComposite in2="hardAlpha" operator="out"/>
<feColorMatrix type="matrix" values="0 0 0 0 0.254902 0 0 0 0 0.184314 0 0 0 0 0.364706 0 0 0 0.1 0"/>
<feBlend mode="normal" in2="BackgroundImageFix" result="effect1_dropShadow_2027_401"/>
<feBlend mode="normal" in="SourceGraphic" in2="effect1_dropShadow_2027_401" result="shape"/>
</filter>
<filter id="filter5_d_2027_401" x="242.209" y="239.326" width="72.3745" height="72.1096" filterUnits="userSpaceOnUse" color-interpolation-filters="sRGB">
<feFlood flood-opacity="0" result="BackgroundImageFix"/>
<feColorMatrix in="SourceAlpha" type="matrix" values="0 0 0 0 0 0 0 0 0 0 0 0 0 0 0 0 0 0 127 0" result="hardAlpha"/>
<feOffset dy="3.39511"/>
<feGaussianBlur stdDeviation="8.48778"/>
<feComposite in2="hardAlpha" operator="out"/>
<feColorMatrix type="matrix" values="0 0 0 0 0.254902 0 0 0 0 0.184314 0 0 0 0 0.364706 0 0 0 0.1 0"/>
<feBlend mode="normal" in2="BackgroundImageFix" result="effect1_dropShadow_2027_401"/>
<feBlend mode="normal" in="SourceGraphic" in2="effect1_dropShadow_2027_401" result="shape"/>
</filter>
<filter id="filter6_d_2027_401" x="47.8291" y="239.326" width="72.3745" height="72.3743" filterUnits="userSpaceOnUse" color-interpolation-filters="sRGB">
<feFlood flood-opacity="0" result="BackgroundImageFix"/>
<feColorMatrix in="SourceAlpha" type="matrix" values="0 0 0 0 0 0 0 0 0 0 0 0 0 0 0 0 0 0 127 0" result="hardAlpha"/>
<feOffset dy="3.39511"/>
<feGaussianBlur stdDeviation="8.48778"/>
<feComposite in2="hardAlpha" operator="out"/>
<feColorMatrix type="matrix" values="0 0 0 0 0.152941 0 0 0 0 0.286275 0 0 0 0 0.686275 0 0 0 0.1 0"/>
<feBlend mode="normal" in2="BackgroundImageFix" result="effect1_dropShadow_2027_401"/>
<feBlend mode="normal" in="SourceGraphic" in2="effect1_dropShadow_2027_401" result="shape"/>
</filter>
<filter id="filter7_d_2027_401" x="47.8291" y="239.326" width="72.3745" height="72.3743" filterUnits="userSpaceOnUse" color-interpolation-filters="sRGB">
<feFlood flood-opacity="0" result="BackgroundImageFix"/>
<feColorMatrix in="SourceAlpha" type="matrix" values="0 0 0 0 0 0 0 0 0 0 0 0 0 0 0 0 0 0 127 0" result="hardAlpha"/>
<feOffset dy="3.39511"/>
<feGaussianBlur stdDeviation="8.48778"/>
<feComposite in2="hardAlpha" operator="out"/>
<feColorMatrix type="matrix" values="0 0 0 0 0.254902 0 0 0 0 0.184314 0 0 0 0 0.364706 0 0 0 0.1 0"/>
<feBlend mode="normal" in2="BackgroundImageFix" result="effect1_dropShadow_2027_401"/>
<feBlend mode="normal" in="SourceGraphic" in2="effect1_dropShadow_2027_401" result="shape"/>
</filter>
<linearGradient id="paint0_linear_2027_401" x1="195.434" y1="202.219" x2="211.382" y2="498.428" gradientUnits="userSpaceOnUse">
<stop stop-color="white" stop-opacity="0.5"/>
<stop offset="1" stop-color="white" stop-opacity="0"/>
</linearGradient>
<linearGradient id="paint1_linear_2027_401" x1="312.572" y1="321.954" x2="314.961" y2="366.324" gradientUnits="userSpaceOnUse">
<stop stop-color="white" stop-opacity="0.5"/>
<stop offset="1" stop-color="white" stop-opacity="0.1"/>
</linearGradient>
<linearGradient id="paint2_linear_2027_401" x1="299.318" y1="394.367" x2="301.707" y2="438.737" gradientUnits="userSpaceOnUse">
<stop stop-color="white" stop-opacity="0.5"/>
<stop offset="1" stop-color="white" stop-opacity="0.1"/>
</linearGradient>
<linearGradient id="paint3_linear_2027_401" x1="64.7943" y1="394.367" x2="67.1832" y2="438.737" gradientUnits="userSpaceOnUse">
<stop stop-color="white" stop-opacity="0.5"/>
<stop offset="1" stop-color="white" stop-opacity="0.1"/>
</linearGradient>
<linearGradient id="paint4_linear_2027_401" x1="192.116" y1="234.423" x2="204.847" y2="470.886" gradientUnits="userSpaceOnUse">
<stop stop-color="white" stop-opacity="0.5"/>
<stop offset="1" stop-color="white" stop-opacity="0"/>
</linearGradient>
<linearGradient id="paint5_linear_2027_401" x1="125.034" y1="211.511" x2="161.062" y2="271.192" gradientUnits="userSpaceOnUse">
<stop stop-color="#8636FE"/>
<stop offset="0.25" stop-color="#E8D9FF"/>
<stop offset="0.514423" stop-color="#9C59FF"/>
<stop offset="0.706731" stop-color="#B07DFF"/>
<stop offset="1" stop-color="#502098"/>
</linearGradient>
<radialGradient id="paint6_radial_2027_401" cx="0" cy="0" r="1" gradientUnits="userSpaceOnUse" gradientTransform="translate(125.974 240.968) rotate(-11.1888) scale(58.138 44.366)">
<stop stop-color="#D8BEFF"/>
<stop offset="0.558487" stop-color="#8636FE"/>
<stop offset="1" stop-color="#502098"/>
</radialGradient>
<linearGradient id="paint7_linear_2027_401" x1="127.541" y1="210.885" x2="179.56" y2="266.664" gradientUnits="userSpaceOnUse">
<stop stop-color="#B787FF"/>
<stop offset="0.221154" stop-color="white"/>
<stop offset="0.490385" stop-color="#D7BDFF"/>
<stop offset="0.723874" stop-color="white"/>
<stop offset="1" stop-color="#8651D5"/>
</linearGradient>
<linearGradient id="paint8_linear_2027_401" x1="52.1864" y1="322.059" x2="54.4544" y2="365.295" gradientUnits="userSpaceOnUse">
<stop stop-color="white" stop-opacity="0.5"/>
<stop offset="1" stop-color="white" stop-opacity="0.1"/>
</linearGradient>
<linearGradient id="paint9_linear_2027_401" x1="280.556" y1="248.83" x2="282.912" y2="292.896" gradientUnits="userSpaceOnUse">
<stop stop-color="white" stop-opacity="0.5"/>
<stop offset="1" stop-color="white" stop-opacity="0.1"/>
</linearGradient>
<linearGradient id="paint10_linear_2027_401" x1="84.3044" y1="326.928" x2="78.6875" y2="222.603" gradientUnits="userSpaceOnUse">
<stop stop-color="#3C60FF"/>
<stop offset="0.436206" stop-color="#87A3FF"/>
<stop offset="1" stop-color="white"/>
</linearGradient>
<linearGradient id="paint11_linear_2027_401" x1="189.124" y1="266.706" x2="198.593" y2="442.58" gradientUnits="userSpaceOnUse">
<stop stop-color="white" stop-opacity="0.5"/>
<stop offset="1" stop-color="white" stop-opacity="0"/>
</linearGradient>
<linearGradient id="paint12_linear_2027_401" x1="86.1761" y1="248.802" x2="88.565" y2="293.172" gradientUnits="userSpaceOnUse">
<stop stop-color="white" stop-opacity="0.5"/>
<stop offset="1" stop-color="white" stop-opacity="0.1"/>
</linearGradient>
<linearGradient id="paint13_linear_2027_401" x1="107.531" y1="334.064" x2="109.149" y2="364.119" gradientUnits="userSpaceOnUse">
<stop stop-color="white" stop-opacity="0.5"/>
<stop offset="1" stop-color="white" stop-opacity="0.1"/>
</linearGradient>
<linearGradient id="paint14_linear_2027_401" x1="259.201" y1="333.766" x2="260.819" y2="363.817" gradientUnits="userSpaceOnUse">
<stop stop-color="white" stop-opacity="0.5"/>
<stop offset="1" stop-color="white" stop-opacity="0.1"/>
</linearGradient>
<linearGradient id="paint15_linear_2027_401" x1="222.54" y1="257.034" x2="193.926" y2="304.434" gradientUnits="userSpaceOnUse">
<stop stop-color="#8636FE"/>
<stop offset="0.25" stop-color="#E8D9FF"/>
<stop offset="0.514423" stop-color="#9C59FF"/>
<stop offset="0.706731" stop-color="#B07DFF"/>
<stop offset="1" stop-color="#502098"/>
</linearGradient>
<radialGradient id="paint16_radial_2027_401" cx="0" cy="0" r="1" gradientUnits="userSpaceOnUse" gradientTransform="translate(221.793 280.429) rotate(-168.811) scale(46.1749 35.2368)">
<stop stop-color="#D8BEFF"/>
<stop offset="0.558487" stop-color="#8636FE"/>
<stop offset="1" stop-color="#502098"/>
</radialGradient>
<linearGradient id="paint17_linear_2027_401" x1="220.548" y1="256.536" x2="179.233" y2="300.837" gradientUnits="userSpaceOnUse">
<stop stop-color="#B787FF"/>
<stop offset="0.221154" stop-color="white"/>
<stop offset="0.490385" stop-color="#D7BDFF"/>
<stop offset="0.723874" stop-color="white"/>
<stop offset="1" stop-color="#8651D5"/>
</linearGradient>
<radialGradient id="paint18_radial_2027_401" cx="0" cy="0" r="1" gradientUnits="userSpaceOnUse" gradientTransform="translate(180.18 321.503) rotate(90) scale(88.0562 88.0484)">
<stop stop-color="white"/>
<stop offset="0.9799" stop-color="white" stop-opacity="0"/>
</radialGradient>
<clipPath id="clip0_2027_401">
<rect width="361" height="480" rx="15.0417" fill="white"/>
</clipPath>
<clipPath id="clip1_2027_401">
<rect width="55.1903" height="65.7027" fill="white" transform="translate(122.775 204.304)"/>
</clipPath>
<clipPath id="clip2_2027_401">
<rect width="25.1228" height="17.0649" fill="white" transform="translate(37.4648 336.243)"/>
</clipPath>
<clipPath id="clip3_2027_401">
<rect width="15.5579" height="15.5579" fill="white" transform="translate(249.676 342.061)"/>
</clipPath>
<clipPath id="clip4_2027_401">
<rect width="43.8338" height="52.1831" fill="white" transform="matrix(-1 0 0 1 224.334 251.309)"/>
</clipPath>
</defs>
</svg>
