<svg width="576" height="675" viewBox="0 0 576 675" fill="none" xmlns="http://www.w3.org/2000/svg">
<g id="Bringing Liquidity to Illiquid Assets." filter="url(#filter0_d_810_428)">
<g clip-path="url(#clip0_810_428)">
<rect width="576" height="675" rx="24" fill="white" fill-opacity="0.06" shape-rendering="crispEdges"/>
<g id="Group 1410089391">
<g id="Frame 2085663258">
<rect x="81.25" y="281.25" width="414.5" height="414.5" rx="207.25" stroke="url(#paint0_linear_810_428)" stroke-width="0.5"/>
<g id="Frame 2085663252" filter="url(#filter1_d_810_428)">
<path d="M464.631 464.92C464.631 447.991 478.355 434.267 495.284 434.267C512.214 434.267 525.938 447.991 525.938 464.92C525.938 481.85 512.214 495.574 495.284 495.574C478.355 495.574 464.631 481.85 464.631 464.92Z" fill="#342F3D" shape-rendering="crispEdges"/>
<path d="M495.284 434.667C511.993 434.667 525.538 448.212 525.538 464.92C525.538 481.629 511.993 495.174 495.284 495.174C478.576 495.174 465.031 481.629 465.031 464.92C465.031 448.212 478.576 434.668 495.284 434.667Z" stroke="url(#paint1_linear_810_428)" stroke-width="0.8" shape-rendering="crispEdges"/>
<g id="Group 40716">
<path id="Vector" d="M482.711 462.84H477.927L483.562 466.968C484.381 466.411 485.332 465.822 486.183 465.33L482.711 462.84ZM489.656 467.984C488.837 468.541 488.018 469.164 487.232 469.753L491.491 472.866H496.307L489.656 467.984Z" fill="white"/>
<path id="Vector_2" d="M519.208 456.976C492.998 458.483 480.876 469.687 478.157 472.341L477.6 472.865H482.448C495.553 459.728 514.392 457.401 519.208 456.976Z" fill="white"/>
</g>
</g>
<g id="Frame 2085663245" filter="url(#filter2_d_810_428)">
<path d="M443.483 580.46C443.483 563.531 457.207 549.807 474.136 549.807C491.066 549.807 504.79 563.531 504.79 580.46C504.79 597.39 491.066 611.114 474.136 611.114C457.207 611.114 443.483 597.39 443.483 580.46Z" fill="#342F3D" shape-rendering="crispEdges"/>
<path d="M474.136 550.207C490.845 550.207 504.39 563.752 504.39 580.46C504.39 597.169 490.845 610.714 474.136 610.714C457.428 610.714 443.883 597.169 443.883 580.46C443.883 563.752 457.428 550.207 474.136 550.207Z" stroke="url(#paint2_linear_810_428)" stroke-width="0.8" shape-rendering="crispEdges"/>
<g id="Group">
<path id="Vector_3" d="M488.447 577.398C489.19 575.121 488.942 572.597 487.745 570.528C485.928 567.341 482.252 565.727 478.66 566.472C477.091 564.692 474.778 563.699 472.383 563.699C468.708 563.699 465.487 566.058 464.33 569.534C461.977 570.031 459.953 571.479 458.756 573.59C456.939 576.777 457.352 580.75 459.788 583.481C459.045 585.799 459.334 588.282 460.531 590.351C462.348 593.538 466.024 595.194 469.616 594.407C471.227 596.187 473.498 597.221 475.893 597.221C479.568 597.221 482.789 594.862 483.946 591.386C486.299 590.889 488.323 589.441 489.52 587.33C491.337 584.144 490.924 580.129 488.447 577.398ZM475.893 595.028C474.406 595.028 473.002 594.531 471.887 593.579C471.929 593.538 472.053 593.497 472.094 593.455L478.742 589.606C479.073 589.4 479.279 589.068 479.279 588.655V579.26L482.087 580.874C482.129 580.874 482.129 580.915 482.129 580.957V588.737C482.17 592.214 479.362 595.028 475.893 595.028ZM462.431 589.275C461.688 587.992 461.44 586.503 461.688 585.054C461.729 585.095 461.811 585.137 461.894 585.178L468.543 589.027C468.873 589.234 469.286 589.234 469.616 589.027L477.751 584.309V587.579C477.751 587.62 477.751 587.661 477.71 587.661L470.979 591.552C468.006 593.29 464.165 592.255 462.431 589.275ZM460.696 574.708C461.44 573.425 462.596 572.473 463.959 571.935V579.881C463.959 580.253 464.165 580.626 464.496 580.833L472.631 585.551L469.823 587.165C469.781 587.165 469.74 587.206 469.74 587.165L463.009 583.274C459.953 581.536 458.962 577.687 460.696 574.708ZM483.822 580.088L475.687 575.37L478.495 573.756C478.536 573.756 478.577 573.714 478.577 573.756L485.308 577.646C488.323 579.384 489.314 583.233 487.58 586.213C486.836 587.496 485.68 588.448 484.317 588.944V581.04C484.359 580.667 484.152 580.295 483.822 580.088ZM486.588 575.866C486.547 575.825 486.465 575.784 486.382 575.742L479.733 571.893C479.403 571.686 478.99 571.686 478.66 571.893L470.525 576.611V573.342C470.525 573.3 470.525 573.259 470.566 573.259L477.297 569.369C480.312 567.631 484.111 568.665 485.845 571.686C486.588 572.928 486.836 574.418 486.588 575.866ZM468.997 581.66L466.189 580.046C466.147 580.046 466.147 580.005 466.147 579.964V572.183C466.147 568.707 468.955 565.892 472.424 565.892C473.911 565.892 475.315 566.389 476.43 567.341C476.389 567.382 476.306 567.424 476.223 567.465L469.575 571.314C469.245 571.521 469.038 571.852 469.038 572.266V581.66H468.997ZM470.525 578.35L474.159 576.239L477.793 578.35V582.529L474.159 584.64L470.525 582.529V578.35Z" fill="white"/>
</g>
</g>
<g id="Frame 1410089376" filter="url(#filter3_d_810_428)">
<path d="M69.2842 580.46C69.2842 563.531 83.0082 549.807 99.9376 549.807C116.867 549.807 130.591 563.531 130.591 580.46C130.591 597.39 116.867 611.114 99.9376 611.114C83.0082 611.114 69.2842 597.39 69.2842 580.46Z" fill="#342F3D" shape-rendering="crispEdges"/>
<path d="M99.9375 550.207C116.646 550.207 130.191 563.752 130.191 580.46C130.191 597.169 116.646 610.714 99.9375 610.714C83.2291 610.714 69.6846 597.169 69.6846 580.46C69.6846 563.752 83.2291 550.207 99.9375 550.207Z" stroke="url(#paint3_linear_810_428)" stroke-width="0.8" shape-rendering="crispEdges"/>
<g id="Group 10458">
<g id="Group 41">
<g id="Group 40">
<g id="Group 39">
<g id="Group 38">
<g id="Group 35">
<path id="Path 109" d="M101.146 570.989V570.879C101.087 570.769 101.146 570.879 101.146 570.989Z" fill="white"/>
<path id="Path 110" d="M99.4228 570.649V570.708C99.3135 570.817 99.364 570.767 99.4228 570.649Z" fill="white"/>
<path id="Path 112" d="M103.421 588.312L102.979 571.489V571.048V570.827V570.606V570.547L103.09 568.884H97.3696L97.3102 570.326V570.386V570.445V570.615V571.395L97.0302 588.337H96.5889V590.611H103.811V588.337H103.421V588.312ZM98.9821 588.312L99.1518 571.489C99.1518 571.319 99.2112 571.098 99.2621 570.937C99.6525 570.437 99.9326 570.267 100.204 570.267C100.476 570.267 100.756 570.377 100.925 570.598L100.985 570.657C101.044 570.827 101.095 570.988 101.095 571.209L101.426 588.312H98.9821Z" fill="white"/>
</g>
<g id="Group 37">
<g id="Group 36">
<path id="Rectangle 21" d="M104.778 590.943H95.6123V591.223H104.778V590.943Z" fill="white"/>
<path id="Rectangle 22" d="M104.778 591.552H95.6123V591.832H104.778V591.552Z" fill="white"/>
</g>
<path id="Path 113" d="M95.2139 592.164V597.491H96.2153V593.767C96.2153 593.436 96.5463 593.156 96.8857 593.156C97.2252 593.156 97.5561 593.436 97.5561 593.826V597.551H99.0583V594.327C99.0583 593.657 99.559 593.165 100.221 593.165C100.832 593.165 101.333 593.665 101.333 594.327V597.551H102.835V593.775C102.835 593.445 103.115 593.105 103.505 593.105C103.836 593.105 104.176 593.385 104.176 593.775V597.5H105.177V592.172H95.2308L95.2139 592.164Z" fill="white"/>
</g>
</g>
<path id="Path 114" d="M103.327 563.235V562.955H97.0469V563.235H97.3269L97.2166 567.57H97.0469V568.511H103.327V567.57H103.157L103.047 563.184H103.327V563.243V563.235ZM100.433 563.235H101.765L101.706 567.621H100.543L100.433 563.235ZM99.822 567.561H98.6593L98.5999 563.226H99.9323L99.822 567.561ZM97.8192 563.235H98.0992L97.9889 567.57H97.8786L97.8192 563.235ZM102.487 567.561H102.376L102.266 563.175H102.546L102.487 567.561Z" fill="white"/>
</g>
<path id="Path 115" d="M100.883 560.944L100.441 560.664L100.272 559.943H100.102L99.9323 560.664L99.491 560.944L97.0469 562.336V562.667H103.378V562.336L100.874 560.944H100.883Z" fill="white"/>
</g>
<path id="Path 116" d="M106.858 599.816H93.5254L93.9667 597.542H106.408L106.849 599.816H106.858Z" fill="white"/>
<path id="Path 117" d="M108.19 599.816H92.1934L92.3631 599.035H107.97L108.19 599.816Z" fill="white"/>
</g>
</g>
</g>
</g>
<g id="Frame 2085663257">
<rect x="122.514" y="323.693" width="330.793" height="330.793" rx="165.396" stroke="url(#paint4_linear_810_428)" stroke-width="0.5"/>
<g id="OBJECTS" clip-path="url(#clip1_810_428)">
<g id="Group_2">
<path id="Union" d="M218.033 242.001C216.275 243.049 214.627 244.601 213.363 246.478L213.094 246.893L212.866 247.266C210.556 251.148 209.656 255.962 209.58 261.1C209.366 277.989 219.654 299.626 230.995 313.719L230.968 313.732C242.35 327.878 261.823 342.781 274.976 335.757C263.693 341.673 261.722 343.033 259.574 343.818C246.007 348.777 228.184 334.474 217.33 320.994L217.344 320.986C200.891 300.556 190.588 270.825 198.746 255.394C198.961 254.973 199.195 254.571 199.448 254.169L199.449 254.168C202.838 248.825 206.511 248.582 218.033 242.001ZM218.033 242.001C218.195 241.904 218.357 241.811 218.521 241.723C218.357 241.818 218.194 241.909 218.033 242.001Z" fill="url(#paint5_linear_810_428)"/>
</g>
<path id="Vector_4" d="M219.107 254.361C226.252 243.045 244.485 249.268 259.75 268.224C274.996 287.18 281.594 311.823 274.45 323.139C267.305 334.455 249.072 328.232 233.807 309.276C218.561 290.32 211.962 265.677 219.107 254.361Z" fill="url(#paint6_radial_810_428)"/>
<path id="Vector_5" d="M262.541 263.762C243.957 240.651 221.82 233.107 213.094 246.893C204.387 260.679 212.391 290.607 230.975 313.718C249.559 336.83 271.716 344.393 280.422 330.587C289.129 316.782 281.125 286.873 262.541 263.762ZM274.429 323.139C267.285 334.455 249.052 328.232 233.786 309.276C218.54 290.32 211.942 265.677 219.087 254.361C226.232 243.045 244.464 249.267 259.73 268.224C274.976 287.18 281.574 311.823 274.429 323.139Z" fill="url(#paint7_linear_810_428)"/>
</g>
<g id="Frame 2085663241" filter="url(#filter4_d_810_428)">
<path d="M49.167 464.133C49.167 447.638 62.5382 434.267 79.0325 434.267H80.6083C97.1025 434.267 110.474 447.638 110.474 464.133C110.474 480.627 97.1026 493.998 80.6083 493.998H79.0325C62.5383 493.998 49.167 480.627 49.167 464.133Z" fill="#342F3D" shape-rendering="crispEdges"/>
<path d="M79.0322 434.667H80.6084C96.8816 434.668 110.074 447.859 110.074 464.132C110.074 480.406 96.8817 493.598 80.6084 493.598H79.0322C62.759 493.598 49.5674 480.406 49.5674 464.132C49.5675 447.859 62.7591 434.668 79.0322 434.667Z" stroke="url(#paint8_linear_810_428)" stroke-width="0.8" shape-rendering="crispEdges"/>
<g id="Layer_1" clip-path="url(#clip2_810_428)">
<g id="Group_3">
<path id="Vector_6" d="M70.4241 467.496H77.161C77.3274 467.496 77.4521 467.458 77.5388 467.385C77.6254 467.309 77.6947 467.177 77.7467 466.983H78.0031V469.818H77.7467C77.6947 469.624 77.6219 469.492 77.5388 469.416C77.4521 469.34 77.3274 469.305 77.161 469.305H67.5166V469.049C67.7107 468.997 67.8424 468.924 67.9186 468.841C67.9948 468.754 68.0295 468.629 68.0295 468.463V459.189C68.0295 459.023 67.9914 458.898 67.9186 458.812C67.8424 458.725 67.7107 458.656 67.5166 458.604V458.347H70.937V458.604C70.743 458.652 70.6113 458.721 70.535 458.808C70.4588 458.895 70.4241 459.023 70.4241 459.189V467.499V467.496Z" fill="white"/>
<path id="Vector_7" d="M82.5259 461.795V468.459C82.5259 468.626 82.564 468.75 82.6368 468.837C82.713 468.924 82.8447 468.993 83.0388 469.045V469.301H79.8193V469.045C80.0134 468.993 80.1451 468.92 80.2213 468.837C80.2976 468.75 80.3322 468.626 80.3322 468.459V459.175C80.3322 459.016 80.2941 458.891 80.2213 458.804C80.1451 458.718 80.0134 458.649 79.8193 458.597V458.34H83.5447V458.597C83.316 458.655 83.1982 458.78 83.1982 458.967C83.1982 459.096 83.2744 459.238 83.4234 459.394L89.4707 465.68V459.175C89.4707 459.016 89.4326 458.891 89.3598 458.804C89.2835 458.718 89.1519 458.649 88.9578 458.597V458.34H92.1772V458.597C91.9831 458.649 91.8515 458.721 91.7752 458.804C91.699 458.891 91.6643 459.012 91.6643 459.175V468.459C91.6643 468.626 91.7024 468.75 91.7752 468.837C91.8515 468.924 91.9831 468.993 92.1772 469.045V469.301H88.7256V469.045C88.9509 468.996 89.0618 468.882 89.0618 468.698C89.0618 468.591 88.9301 468.404 88.6667 468.137L82.5224 461.795H82.5259Z" fill="white"/>
</g>
<g id="Group_4">
<path id="Vector_8" d="M92.5679 456.573H67.3115V456.76H92.5679V456.573Z" fill="white"/>
<g id="Group_5">
<path id="Vector_9" fill-rule="evenodd" clip-rule="evenodd" d="M79.9573 453.956L80.1271 454.483C80.1375 454.514 80.1652 454.535 80.1999 454.535H80.7509C80.7855 454.535 80.8133 454.556 80.8236 454.587C80.834 454.618 80.8236 454.653 80.7959 454.673L80.3489 454.999C80.3212 455.02 80.3108 455.055 80.3212 455.086L80.4944 455.613C80.5048 455.644 80.4944 455.678 80.4667 455.699C80.439 455.72 80.4043 455.72 80.3766 455.699L79.9296 455.373C79.9018 455.353 79.8672 455.353 79.8395 455.373L79.3924 455.699C79.3647 455.72 79.33 455.72 79.3023 455.699C79.2746 455.678 79.2642 455.644 79.2746 455.613L79.4479 455.086C79.4583 455.055 79.4479 455.02 79.4201 454.999L78.9731 454.673C78.9454 454.653 78.935 454.618 78.9454 454.587C78.9558 454.556 78.9835 454.535 79.0181 454.535H79.5726C79.6073 454.535 79.635 454.514 79.6454 454.483L79.8152 453.956C79.8256 453.925 79.8533 453.904 79.888 453.904C79.9226 453.904 79.9503 453.925 79.9607 453.956H79.9573Z" fill="white"/>
<path id="Vector_10" fill-rule="evenodd" clip-rule="evenodd" d="M81.2883 455.169V454.982H85.6305V455.169H81.2883ZM73.9727 455.169V454.982H78.3149V455.169H73.9727Z" fill="white"/>
<g id="Group_6">
<path id="Vector_11" d="M99.773 452.889C99.6483 452.511 99.3814 452.22 99.0522 452.054C98.723 451.887 98.3279 451.846 97.9502 451.97C97.7735 452.029 97.621 452.126 97.4962 452.248C97.368 452.376 97.271 452.528 97.2086 452.698C97.1878 452.757 97.1739 452.816 97.1601 452.875C97.115 453.135 97.1601 453.391 97.271 453.603C97.4096 453.863 97.6452 454.053 97.9329 454.105C98.0923 454.133 98.2482 454.123 98.3903 454.074C98.5324 454.029 98.6572 453.949 98.7542 453.845C98.8547 453.738 98.924 453.61 98.9517 453.461C98.9864 453.263 98.9656 453.003 98.7611 452.903C98.7161 452.882 98.6641 452.868 98.6086 452.872C98.425 452.875 98.2794 453.027 98.2829 453.211C98.2864 453.395 98.5185 453.537 98.6225 453.537C98.7265 453.537 98.6745 453.533 98.6987 453.526C98.6745 453.589 98.6364 453.644 98.5913 453.693C98.5185 453.769 98.425 453.828 98.321 453.863C98.2136 453.897 98.0923 453.908 97.9745 453.887C97.7561 453.849 97.5759 453.696 97.472 453.499C97.3819 453.329 97.3472 453.121 97.3819 452.913C97.3923 452.868 97.4027 452.82 97.42 452.771C97.4685 452.636 97.5482 452.508 97.6522 452.407C97.7527 452.31 97.8774 452.23 98.0195 452.185C98.3383 452.081 98.671 452.113 98.9483 452.255C99.2255 452.393 99.4507 452.639 99.5547 452.962C99.6275 453.18 99.6483 453.405 99.624 453.62C99.5686 454.109 99.2705 454.57 98.8374 454.812C98.3626 455.076 97.77 455.076 97.1774 455.072C97.0388 455.072 96.9002 455.072 96.7581 455.072H96.3942C93.9961 453.61 91.3866 452.463 88.6211 451.686C85.925 450.931 82.3382 450.525 79.403 450.525C76.4677 450.525 74.3746 450.931 71.6819 451.686C68.9165 452.463 66.307 453.613 63.9088 455.072H62.8692C62.7306 455.072 62.592 455.072 62.4499 455.072C61.8608 455.072 61.2682 455.072 60.7934 454.812C60.3602 454.573 60.0622 454.112 60.0067 453.62C59.9825 453.405 60.0067 453.18 60.076 452.962C60.18 452.643 60.4053 452.397 60.6825 452.255C60.9597 452.116 61.2924 452.081 61.6112 452.185C61.7533 452.234 61.8781 452.31 61.9786 452.407C62.0825 452.511 62.1622 452.636 62.2108 452.771C62.2281 452.82 62.242 452.868 62.2489 452.913C62.287 453.121 62.2489 453.329 62.1588 453.499C62.0548 453.696 61.8746 453.845 61.6563 453.887C61.535 453.908 61.4172 453.897 61.3097 453.863C61.2023 453.828 61.1087 453.769 61.0394 453.693C60.9944 453.644 60.9563 453.589 60.932 453.526C60.9563 453.533 60.9043 453.533 61.0082 453.537C61.1122 453.537 61.3444 453.395 61.3479 453.211C61.3513 453.027 61.2058 452.875 61.0221 452.872C60.9667 452.872 60.9181 452.882 60.8696 452.903C60.6652 453 60.6409 453.26 60.679 453.461C60.7068 453.61 60.7761 453.741 60.8766 453.845C60.9736 453.949 61.1018 454.029 61.2404 454.074C61.3825 454.119 61.5385 454.133 61.6979 454.105C61.9855 454.053 62.2246 453.863 62.3598 453.603C62.4707 453.391 62.5192 453.131 62.4707 452.875C62.4603 452.816 62.443 452.757 62.4222 452.698C62.3632 452.528 62.2662 452.372 62.1345 452.248C62.0098 452.126 61.8573 452.029 61.6805 451.97C61.3028 451.846 60.9112 451.887 60.582 452.054C60.2528 452.22 59.9859 452.511 59.8612 452.889C59.778 453.138 59.7537 453.395 59.7815 453.641C59.8473 454.223 60.2147 454.774 60.7414 455.041C61.2439 455.297 61.8504 455.294 62.4499 455.294C62.5954 455.294 62.741 455.294 62.8865 455.294H63.9747C66.3693 453.825 68.9788 452.674 71.7408 451.898C74.4162 451.146 76.4885 450.744 79.403 450.744C82.3174 450.744 85.8869 451.146 88.5622 451.898C91.3277 452.674 93.9337 453.825 96.3284 455.287H96.3353L96.7442 455.29C96.8898 455.29 97.0353 455.29 97.1809 455.29C97.7804 455.29 98.3868 455.29 98.8893 455.037C99.4161 454.771 99.7834 454.223 99.8493 453.637C99.877 453.391 99.8527 453.135 99.7696 452.885L99.773 452.889Z" fill="white"/>
<path id="Vector_12" d="M74.1528 453.464C76.0103 453.045 77.9371 452.834 79.8882 452.834C81.8392 452.834 83.766 453.045 85.6235 453.464C87.3632 453.856 89.0335 454.431 90.5965 455.169H91.0712L91.0297 455.149C89.3593 454.327 87.5573 453.697 85.679 453.274C83.8007 452.851 81.8531 452.636 79.8882 452.636C77.9232 452.636 75.9722 452.851 74.0974 453.274C72.2191 453.697 70.417 454.327 68.7467 455.149L68.7051 455.169H69.1798C70.7428 454.431 72.4131 453.856 74.1528 453.464Z" fill="white"/>
</g>
<g id="Group_7">
<path id="Vector_13" d="M66.508 455.356C66.4596 455.356 66.4112 455.338 66.3766 455.3C66.342 455.266 66.3213 455.217 66.3213 455.169C66.3213 455.121 66.342 455.072 66.3766 455.038C66.4457 454.969 66.5702 454.969 66.6393 455.038C66.6739 455.072 66.6947 455.121 66.6947 455.169C66.6947 455.217 66.6739 455.266 66.6393 455.3C66.6048 455.335 66.5564 455.356 66.508 455.356Z" fill="white"/>
<path id="Vector_14" d="M92.6626 454.861C92.5725 454.809 92.5379 454.698 92.5933 454.608C92.6453 454.518 92.7562 454.483 92.8463 454.535C92.9364 454.587 92.9676 454.698 92.9156 454.788C92.881 454.85 92.8186 454.885 92.7527 454.885C92.7216 454.885 92.6904 454.875 92.6626 454.861ZM67.3335 454.694C67.285 454.604 67.3196 454.49 67.4097 454.441C67.4998 454.393 67.6142 454.428 67.6627 454.518C67.7078 454.608 67.6766 454.722 67.583 454.771C67.5553 454.785 67.5241 454.791 67.4964 454.791C67.4305 454.791 67.3647 454.757 67.3335 454.691V454.694ZM91.6646 454.344C91.571 454.303 91.5329 454.188 91.5745 454.095C91.6195 454.001 91.7304 453.963 91.824 454.008C91.9176 454.053 91.9592 454.164 91.9141 454.258C91.8829 454.324 91.8136 454.365 91.7443 454.365C91.7166 454.365 91.6923 454.358 91.6646 454.348V454.344ZM68.3489 454.178C68.3073 454.085 68.3489 453.974 68.439 453.932C68.5325 453.89 68.6434 453.929 68.6885 454.022C68.7301 454.116 68.6885 454.227 68.5984 454.268C68.5707 454.282 68.5464 454.286 68.5187 454.286C68.4494 454.286 68.3801 454.244 68.3489 454.175V454.178ZM90.6284 453.89C90.5348 453.852 90.4863 453.741 90.5244 453.648C90.5626 453.551 90.6735 453.506 90.767 453.544C90.8606 453.582 90.9091 453.693 90.871 453.79C90.8398 453.863 90.7705 453.904 90.6977 453.904C90.6735 453.904 90.6492 453.901 90.6284 453.89ZM69.392 453.721C69.3539 453.624 69.3989 453.516 69.4959 453.475C69.593 453.436 69.7004 453.485 69.7385 453.579C69.7767 453.672 69.7316 453.783 69.6346 453.821C69.6138 453.832 69.5895 453.835 69.5653 453.835C69.489 453.835 69.4197 453.793 69.392 453.721ZM89.5714 453.492C89.4744 453.457 89.4224 453.353 89.4571 453.253C89.4917 453.156 89.5957 453.104 89.6962 453.138C89.7932 453.173 89.8452 453.277 89.8106 453.378C89.7828 453.454 89.7101 453.502 89.6338 453.502C89.613 453.502 89.5922 453.499 89.5714 453.492ZM70.4524 453.312C70.4178 453.211 70.4697 453.107 70.5668 453.073C70.6638 453.038 70.7712 453.09 70.8024 453.187C70.8371 453.284 70.7851 453.391 70.6881 453.423C70.6673 453.43 70.6465 453.433 70.6257 453.433C70.546 453.433 70.4767 453.384 70.449 453.308L70.4524 453.312ZM88.4971 453.145C88.3966 453.114 88.3412 453.01 88.3689 452.913C88.4001 452.813 88.5041 452.757 88.6011 452.785C88.7016 452.816 88.7571 452.92 88.7259 453.017C88.7016 453.097 88.6254 453.149 88.5457 453.149C88.5457 453.149 88.511 453.149 88.4902 453.142L88.4971 453.145ZM71.5336 452.951C71.5025 452.851 71.5614 452.75 71.6584 452.719C71.7589 452.688 71.8629 452.747 71.8906 452.844C71.9183 452.944 71.8629 453.045 71.7624 453.076C71.745 453.083 71.7242 453.083 71.7069 453.083C71.6272 453.083 71.551 453.031 71.5267 452.951H71.5336ZM87.4055 452.844C87.305 452.816 87.2461 452.716 87.2704 452.615C87.2946 452.515 87.3986 452.456 87.4991 452.48C87.5996 452.508 87.6585 452.608 87.6342 452.709C87.6134 452.792 87.5337 452.847 87.454 452.847C87.454 452.847 87.4228 452.847 87.409 452.84L87.4055 452.844ZM72.6253 452.636C72.601 452.535 72.6599 452.435 72.7604 452.411C72.8609 452.383 72.9614 452.445 72.9891 452.546C73.0169 452.646 72.9545 452.747 72.854 452.775C72.854 452.775 72.8228 452.781 72.8089 452.781C72.7258 452.781 72.6495 452.726 72.6287 452.639L72.6253 452.636ZM86.307 452.58C86.2065 452.56 86.1406 452.459 86.1614 452.359C86.1822 452.258 86.2827 452.196 86.3832 452.217C86.4837 452.237 86.5461 452.338 86.5253 452.438C86.508 452.525 86.4283 452.587 86.3416 452.587C86.3416 452.587 86.3139 452.587 86.3035 452.58H86.307ZM73.7308 452.369C73.71 452.269 73.7723 452.168 73.8728 452.147C73.9733 452.127 74.0738 452.189 74.0946 452.289C74.1154 452.39 74.053 452.49 73.9491 452.511C73.9491 452.511 73.9214 452.515 73.911 452.515C73.8243 452.515 73.7481 452.456 73.7273 452.366L73.7308 452.369ZM85.1945 452.362C85.094 452.345 85.0247 452.248 85.0455 452.144C85.0629 452.043 85.1599 451.974 85.2639 451.995C85.3678 452.012 85.4337 452.109 85.4163 452.213C85.399 452.303 85.3228 452.366 85.2327 452.366C85.2327 452.366 85.2119 452.366 85.198 452.366L85.1945 452.362ZM74.8501 452.144C74.8328 452.04 74.8986 451.943 75.0026 451.926C75.1031 451.908 75.2001 451.977 75.2209 452.078C75.2382 452.178 75.1689 452.276 75.0684 452.296C75.0684 452.296 75.0476 452.296 75.0338 452.296C74.9437 452.296 74.864 452.234 74.8501 452.144ZM84.0752 452.178C83.9747 452.161 83.9019 452.068 83.9193 451.964C83.9331 451.863 84.0301 451.79 84.1306 451.808C84.2346 451.822 84.3039 451.919 84.2901 452.019C84.2762 452.113 84.1965 452.178 84.1064 452.178C84.1064 452.178 84.0891 452.178 84.0787 452.178H84.0752ZM75.9729 451.96C75.9591 451.856 76.0318 451.763 76.1323 451.749C76.2328 451.735 76.3299 451.808 76.3403 451.908C76.3541 452.012 76.2848 452.106 76.1808 452.12C76.1808 452.12 76.1635 452.12 76.1531 452.12C76.063 452.12 75.9799 452.054 75.9695 451.96H75.9729ZM82.9524 452.033C82.8484 452.023 82.7756 451.929 82.7895 451.825C82.7999 451.721 82.8935 451.648 82.9974 451.662C83.1014 451.673 83.1742 451.766 83.1638 451.87C83.1534 451.964 83.0737 452.033 82.9801 452.033H82.9593H82.9524ZM77.1027 451.822C77.0923 451.718 77.1685 451.627 77.2725 451.617C77.3764 451.607 77.4665 451.683 77.4769 451.787C77.4873 451.891 77.4111 451.981 77.3071 451.991C77.3071 451.991 77.2967 451.991 77.2898 451.991C77.1962 451.991 77.1131 451.919 77.1061 451.822H77.1027ZM81.8261 451.926C81.7221 451.919 81.6459 451.828 81.6528 451.725C81.6598 451.621 81.7499 451.544 81.8538 451.551C81.9578 451.558 82.034 451.648 82.0271 451.752C82.0202 451.853 81.937 451.926 81.84 451.926C81.84 451.926 81.8296 451.926 81.8261 451.926ZM78.2393 451.725C78.2324 451.621 78.3121 451.534 78.4161 451.527C78.52 451.52 78.6067 451.6 78.6136 451.704C78.6205 451.808 78.5408 451.898 78.4369 451.901H78.4265C78.3294 451.901 78.2463 451.825 78.2428 451.725H78.2393ZM80.6964 451.863C80.5924 451.863 80.5127 451.776 80.5162 451.669C80.5196 451.565 80.6063 451.485 80.7102 451.489C80.8142 451.492 80.8939 451.576 80.8904 451.683C80.887 451.783 80.8038 451.863 80.7033 451.863H80.6964ZM79.376 451.673C79.376 451.569 79.4557 451.485 79.5597 451.482C79.6637 451.482 79.7468 451.565 79.7503 451.666C79.7503 451.77 79.6706 451.853 79.5666 451.853H79.5632C79.4627 451.853 79.3795 451.773 79.376 451.669V451.673Z" fill="white"/>
<path id="Vector_15" d="M93.7184 455.48C93.67 455.48 93.6216 455.459 93.587 455.425C93.5697 455.407 93.5559 455.387 93.549 455.363C93.5421 455.338 93.5352 455.318 93.5352 455.293C93.5352 455.242 93.5559 455.197 93.5905 455.162C93.6423 455.11 93.7253 455.093 93.7944 455.121C93.8186 455.131 93.8394 455.145 93.8567 455.162C93.8912 455.197 93.912 455.245 93.912 455.293C93.912 455.318 93.9051 455.342 93.8982 455.363C93.8912 455.383 93.8774 455.404 93.8601 455.425C93.8428 455.442 93.8221 455.456 93.7979 455.463C93.7772 455.473 93.753 455.477 93.7288 455.477L93.7184 455.48Z" fill="white"/>
</g>
</g>
</g>
<g id="Group_8">
<path id="Vector_16" d="M92.3296 471.506H67.0732V471.693H92.3296V471.506Z" fill="white"/>
<g id="Group_9">
<path id="Vector_17" fill-rule="evenodd" clip-rule="evenodd" d="M79.6838 474.309L79.514 473.782C79.5036 473.751 79.4759 473.73 79.4412 473.73H78.8902C78.8556 473.73 78.8278 473.709 78.8174 473.678C78.807 473.647 78.8174 473.612 78.8452 473.592L79.2922 473.266C79.3199 473.245 79.3303 473.21 79.3199 473.179L79.1467 472.653C79.1363 472.621 79.1467 472.587 79.1744 472.566C79.2021 472.545 79.2368 472.545 79.2645 472.566L79.7115 472.892C79.7392 472.912 79.7739 472.912 79.8016 472.892L80.2487 472.566C80.2764 472.545 80.3111 472.545 80.3388 472.566C80.3665 472.587 80.3769 472.621 80.3665 472.653L80.1932 473.179C80.1828 473.21 80.1932 473.245 80.2209 473.266L80.668 473.592C80.6957 473.612 80.7061 473.647 80.6957 473.678C80.6853 473.709 80.6576 473.73 80.6229 473.73H80.0685C80.0338 473.73 80.0061 473.751 79.9957 473.782L79.8259 474.309C79.8155 474.34 79.7878 474.361 79.7531 474.361C79.7185 474.361 79.6907 474.34 79.6803 474.309H79.6838Z" fill="white"/>
<path id="Vector_18" fill-rule="evenodd" clip-rule="evenodd" d="M78.353 473.093V473.28H74.0107V473.093H78.353ZM85.6686 473.093V473.28H81.3264V473.093H85.6686Z" fill="white"/>
<g id="Group_10">
<path id="Vector_19" d="M59.8685 475.376C59.9932 475.754 60.2601 476.045 60.5893 476.212C60.9185 476.378 61.3136 476.42 61.6913 476.295C61.868 476.236 62.0205 476.139 62.1453 476.018C62.2735 475.889 62.3705 475.737 62.4329 475.567C62.4537 475.508 62.4676 475.449 62.4814 475.39C62.5265 475.13 62.4814 474.874 62.3705 474.663C62.2319 474.403 61.9963 474.212 61.7086 474.16C61.5492 474.132 61.3933 474.143 61.2512 474.191C61.1091 474.236 60.9843 474.316 60.8873 474.42C60.7868 474.527 60.7175 474.656 60.6898 474.805C60.6551 475.002 60.6759 475.262 60.8804 475.363C60.9254 475.383 60.9774 475.397 61.0329 475.394C61.2165 475.39 61.3621 475.238 61.3586 475.054C61.3551 474.871 61.123 474.728 61.019 474.728C60.915 474.728 60.967 474.732 60.9427 474.739C60.967 474.676 61.0051 474.621 61.0502 474.572C61.123 474.496 61.2165 474.437 61.3205 474.403C61.4279 474.368 61.5492 474.358 61.667 474.378C61.8854 474.417 62.0656 474.569 62.1695 474.767C62.2596 474.936 62.2943 475.144 62.2596 475.352C62.2492 475.397 62.2388 475.446 62.2215 475.494C62.173 475.629 62.0933 475.758 61.9893 475.858C61.8888 475.955 61.7641 476.035 61.622 476.08C61.3032 476.184 60.9705 476.153 60.6932 476.011C60.416 475.872 60.1907 475.626 60.0868 475.304C60.014 475.085 59.9932 474.86 60.0175 474.645C60.0729 474.157 60.3709 473.696 60.8041 473.453C61.2789 473.19 61.8715 473.19 62.4641 473.193C62.6027 473.193 62.7413 473.193 62.8834 473.193H63.2473C65.6454 474.656 68.2549 475.803 71.0203 476.579C73.7165 477.334 77.3033 477.74 80.2385 477.74C83.1738 477.74 85.2669 477.334 87.9596 476.579C90.725 475.803 93.3345 474.652 95.7326 473.193H96.7723C96.9109 473.193 97.0495 473.193 97.1916 473.193C97.7807 473.193 98.3733 473.193 98.8481 473.453C99.2813 473.692 99.5793 474.153 99.6348 474.645C99.659 474.86 99.6348 475.085 99.5655 475.304C99.4615 475.623 99.2362 475.869 98.959 476.011C98.6818 476.149 98.3491 476.184 98.0303 476.08C97.8882 476.031 97.7634 475.955 97.6629 475.858C97.5589 475.754 97.4792 475.629 97.4307 475.494C97.4134 475.446 97.3995 475.397 97.3926 475.352C97.3545 475.144 97.3926 474.936 97.4827 474.767C97.5867 474.569 97.7669 474.42 97.9852 474.378C98.1065 474.358 98.2243 474.368 98.3317 474.403C98.4392 474.437 98.5327 474.496 98.6021 474.572C98.6471 474.621 98.6852 474.676 98.7095 474.739C98.6852 474.732 98.7372 474.732 98.6332 474.728C98.5293 474.728 98.2971 474.871 98.2936 475.054C98.2902 475.238 98.4357 475.39 98.6194 475.394C98.6748 475.394 98.7233 475.383 98.7719 475.363C98.9763 475.266 99.0006 475.006 98.9625 474.805C98.9347 474.656 98.8654 474.524 98.7649 474.42C98.6679 474.316 98.5397 474.236 98.4011 474.191C98.259 474.146 98.103 474.132 97.9436 474.16C97.656 474.212 97.4169 474.403 97.2817 474.663C97.1708 474.874 97.1223 475.134 97.1708 475.39C97.1812 475.449 97.1985 475.508 97.2193 475.567C97.2782 475.737 97.3753 475.893 97.507 476.018C97.6317 476.139 97.7842 476.236 97.9609 476.295C98.3387 476.42 98.7303 476.378 99.0595 476.212C99.3887 476.045 99.6556 475.754 99.7803 475.376C99.8635 475.127 99.8877 474.871 99.86 474.624C99.7942 474.042 99.4268 473.491 98.9001 473.224C98.3976 472.968 97.7911 472.971 97.1916 472.971C97.0461 472.971 96.9005 472.971 96.755 472.971H95.6668C93.2722 474.441 90.6627 475.591 87.9007 476.368C85.2253 477.12 83.153 477.522 80.2385 477.522C77.324 477.522 73.7546 477.12 71.0793 476.368C68.3138 475.591 65.7078 474.441 63.3131 472.978H63.3062L62.8973 472.975C62.7517 472.975 62.6062 472.975 62.4606 472.975C61.8611 472.975 61.2546 472.975 60.7521 473.228C60.2254 473.495 59.8581 474.042 59.7922 474.628C59.7645 474.874 59.7887 475.13 59.8719 475.38L59.8685 475.376Z" fill="white"/>
<path id="Vector_20" d="M85.4927 474.798C83.6352 475.217 81.7084 475.429 79.7573 475.429C77.8062 475.429 75.8794 475.217 74.0219 474.798C72.2823 474.406 70.6119 473.831 69.049 473.093H68.5742L68.6158 473.114C70.2862 473.935 72.0882 474.566 73.9665 474.988C75.8448 475.411 77.7924 475.626 79.7573 475.626C81.7222 475.626 83.6733 475.411 85.5481 474.988C87.4264 474.566 89.2284 473.935 90.8988 473.114L90.9404 473.093H90.4656C88.9027 473.831 87.2323 474.406 85.4927 474.798Z" fill="white"/>
</g>
<g id="Group_11">
<path id="Vector_21" d="M93.133 472.909C93.1814 472.909 93.2298 472.926 93.2643 472.964C93.2989 472.999 93.3197 473.047 93.3197 473.096C93.3197 473.144 93.2989 473.192 93.2643 473.227C93.1952 473.296 93.0707 473.296 93.0016 473.227C92.967 473.192 92.9463 473.144 92.9463 473.096C92.9463 473.047 92.967 472.999 93.0016 472.964C93.0362 472.93 93.0846 472.909 93.133 472.909Z" fill="white"/>
<path id="Vector_22" d="M66.9803 473.401C67.0704 473.453 67.105 473.564 67.0496 473.654C66.9976 473.744 66.8867 473.779 66.7966 473.727C66.7065 473.675 66.6753 473.564 66.7273 473.474C66.762 473.411 66.8243 473.377 66.8902 473.377C66.9214 473.377 66.9526 473.387 66.9803 473.401ZM92.3094 473.571C92.358 473.661 92.3233 473.775 92.2332 473.824C92.1431 473.872 92.0287 473.838 91.9802 473.748C91.9352 473.657 91.9664 473.543 92.0599 473.495C92.0877 473.481 92.1188 473.474 92.1466 473.474C92.2124 473.474 92.2783 473.508 92.3094 473.574V473.571ZM67.9783 473.921C68.0719 473.962 68.11 474.077 68.0684 474.17C68.0234 474.264 67.9125 474.302 67.8189 474.257C67.7254 474.212 67.6838 474.101 67.7288 474.007C67.76 473.942 67.8293 473.9 67.8986 473.9C67.9264 473.9 67.9506 473.907 67.9783 473.917V473.921ZM91.2941 474.087C91.3356 474.181 91.2941 474.292 91.204 474.333C91.1104 474.375 90.9995 474.337 90.9544 474.243C90.9129 474.15 90.9544 474.039 91.0445 473.997C91.0723 473.983 91.0965 473.98 91.1242 473.98C91.1936 473.98 91.2629 474.021 91.2941 474.091V474.087ZM69.0145 474.371C69.1081 474.409 69.1566 474.52 69.1185 474.614C69.0804 474.711 68.9695 474.756 68.8759 474.718C68.7823 474.68 68.7338 474.569 68.7719 474.472C68.8031 474.399 68.8724 474.357 68.9452 474.357C68.9695 474.357 68.9937 474.361 69.0145 474.371ZM90.2509 474.545C90.2891 474.642 90.244 474.749 90.147 474.791C90.05 474.829 89.9425 474.78 89.9044 474.687C89.8663 474.593 89.9113 474.482 90.0084 474.444C90.0292 474.434 90.0534 474.43 90.0777 474.43C90.1539 474.43 90.2232 474.472 90.2509 474.545ZM70.0715 474.77C70.1685 474.804 70.2205 474.908 70.1859 475.009C70.1512 475.106 70.0472 475.158 69.9467 475.123C69.8497 475.089 69.7977 474.985 69.8324 474.884C69.8601 474.808 69.9329 474.759 70.0091 474.759C70.0299 474.759 70.0507 474.763 70.0715 474.77ZM89.1905 474.95C89.2252 475.051 89.1732 475.154 89.0762 475.189C88.9791 475.224 88.8717 475.172 88.8405 475.075C88.8058 474.978 88.8578 474.87 88.9549 474.839C88.9757 474.832 88.9964 474.829 89.0172 474.829C89.0969 474.829 89.1663 474.877 89.194 474.954L89.1905 474.95ZM71.1458 475.116C71.2463 475.148 71.3017 475.252 71.274 475.349C71.2428 475.449 71.1389 475.505 71.0418 475.477C70.9413 475.446 70.8859 475.342 70.9171 475.245C70.9413 475.165 71.0176 475.113 71.0973 475.113C71.0973 475.113 71.1319 475.113 71.1527 475.12L71.1458 475.116ZM88.1093 475.314C88.1405 475.414 88.0816 475.515 87.9845 475.546C87.884 475.577 87.7801 475.518 87.7523 475.421C87.7246 475.321 87.7801 475.22 87.8806 475.189C87.8979 475.182 87.9187 475.182 87.936 475.182C88.0157 475.182 88.092 475.234 88.1162 475.314H88.1093ZM72.2374 475.421C72.3379 475.449 72.3968 475.55 72.3726 475.65C72.3483 475.751 72.2443 475.809 72.1438 475.785C72.0433 475.757 71.9844 475.657 72.0087 475.556C72.0295 475.473 72.1092 475.418 72.1889 475.418C72.1889 475.418 72.2201 475.418 72.2339 475.425L72.2374 475.421ZM87.0177 475.626C87.0419 475.726 86.983 475.827 86.8825 475.851C86.782 475.879 86.6815 475.816 86.6538 475.716C86.6261 475.615 86.6884 475.515 86.7889 475.487C86.7889 475.487 86.8201 475.48 86.834 475.48C86.9172 475.48 86.9934 475.536 87.0142 475.622L87.0177 475.626ZM73.336 475.681C73.4365 475.702 73.5023 475.803 73.4815 475.903C73.4607 476.004 73.3602 476.066 73.2597 476.045C73.1592 476.024 73.0969 475.924 73.1176 475.823C73.135 475.737 73.2147 475.674 73.3013 475.674C73.3013 475.674 73.329 475.674 73.3394 475.681H73.336ZM85.9122 475.896C85.933 475.997 85.8706 476.097 85.7701 476.118C85.6696 476.139 85.5691 476.076 85.5483 475.976C85.5275 475.875 85.5899 475.775 85.6938 475.754C85.6938 475.754 85.7216 475.751 85.732 475.751C85.8186 475.751 85.8948 475.809 85.9156 475.9L85.9122 475.896ZM74.4484 475.903C74.5489 475.92 74.6182 476.017 74.5974 476.121C74.5801 476.222 74.483 476.291 74.3791 476.27C74.2751 476.253 74.2093 476.156 74.2266 476.052C74.2439 475.962 74.3202 475.9 74.4103 475.9C74.4103 475.9 74.4311 475.9 74.4449 475.9L74.4484 475.903ZM84.7928 476.121C84.8102 476.225 84.7443 476.322 84.6403 476.34C84.5398 476.357 84.4428 476.288 84.422 476.187C84.4047 476.087 84.474 475.99 84.5745 475.969C84.5745 475.969 84.5953 475.969 84.6092 475.969C84.6993 475.969 84.779 476.031 84.7928 476.121ZM75.5677 476.087C75.6682 476.104 75.741 476.198 75.7237 476.302C75.7098 476.402 75.6128 476.475 75.5123 476.458C75.4083 476.444 75.339 476.347 75.3529 476.246C75.3667 476.153 75.4464 476.087 75.5365 476.087C75.5365 476.087 75.5539 476.087 75.5643 476.087H75.5677ZM83.67 476.302C83.6839 476.406 83.6111 476.499 83.5106 476.513C83.4101 476.527 83.3131 476.454 83.3027 476.354C83.2888 476.25 83.3581 476.156 83.4621 476.142C83.4621 476.142 83.4794 476.142 83.4898 476.142C83.5799 476.142 83.6631 476.208 83.6735 476.302H83.67ZM76.6905 476.232C76.7945 476.243 76.8673 476.336 76.8534 476.44C76.843 476.544 76.7495 476.617 76.6455 476.603C76.5415 476.593 76.4688 476.499 76.4792 476.395C76.4896 476.302 76.5693 476.232 76.6628 476.232H76.6836H76.6905ZM82.5403 476.444C82.5507 476.548 82.4744 476.638 82.3705 476.648C82.2665 476.659 82.1764 476.582 82.166 476.478C82.1556 476.374 82.2318 476.284 82.3358 476.274C82.3358 476.274 82.3462 476.274 82.3531 476.274C82.4467 476.274 82.5299 476.347 82.5368 476.444H82.5403ZM77.8168 476.34C77.9208 476.347 77.997 476.437 77.9901 476.541C77.9832 476.645 77.8931 476.721 77.7891 476.714C77.6851 476.707 77.6089 476.617 77.6158 476.513C77.6228 476.412 77.7059 476.34 77.803 476.34C77.803 476.34 77.8134 476.34 77.8168 476.34ZM81.4036 476.541C81.4105 476.645 81.3308 476.731 81.2269 476.738C81.1229 476.745 81.0363 476.665 81.0293 476.561C81.0224 476.458 81.1021 476.367 81.2061 476.364H81.2165C81.3135 476.364 81.3967 476.44 81.4001 476.541H81.4036ZM78.9466 476.399C79.0505 476.399 79.1302 476.485 79.1268 476.593C79.1233 476.697 79.0367 476.776 78.9327 476.773C78.8287 476.769 78.749 476.686 78.7525 476.579C78.756 476.478 78.8391 476.399 78.9396 476.399H78.9466ZM80.2669 476.589C80.2669 476.693 80.1872 476.776 80.0832 476.78C79.9793 476.78 79.8961 476.697 79.8926 476.596C79.8926 476.492 79.9724 476.409 80.0763 476.409H80.0798C80.1803 476.409 80.2635 476.489 80.2669 476.593V476.589Z" fill="white"/>
<path id="Vector_23" d="M65.9221 472.784C65.9705 472.784 66.0189 472.805 66.0535 472.839C66.0708 472.857 66.0846 472.878 66.0915 472.902C66.0984 472.926 66.1053 472.947 66.1053 472.971C66.1053 473.023 66.0846 473.068 66.05 473.102C65.9982 473.154 65.9152 473.171 65.8461 473.144C65.8219 473.133 65.8011 473.12 65.7838 473.102C65.7493 473.068 65.7285 473.019 65.7285 472.971C65.7285 472.947 65.7354 472.922 65.7423 472.902C65.7493 472.881 65.7631 472.86 65.7804 472.839C65.7977 472.822 65.8184 472.808 65.8426 472.801C65.8633 472.791 65.8875 472.788 65.9117 472.788L65.9221 472.784Z" fill="white"/>
</g>
</g>
</g>
</g>
</g>
<g id="Frame 2085663253" filter="url(#filter5_d_810_428)">
<path d="M413.545 347.991C413.545 331.178 427.386 317.548 444.198 317.548C461.011 317.548 474.852 331.178 474.852 347.991C474.852 364.803 461.011 378.433 444.198 378.433C427.386 378.433 413.545 364.803 413.545 347.991Z" fill="#342F3D" shape-rendering="crispEdges"/>
<path d="M444.198 317.949C460.794 317.949 474.452 331.402 474.452 347.991C474.452 364.579 460.794 378.033 444.198 378.033C427.603 378.033 413.945 364.579 413.945 347.991C413.945 331.403 427.603 317.949 444.198 317.949Z" stroke="url(#paint9_linear_810_428)" stroke-width="0.8" shape-rendering="crispEdges"/>
<g id="Group 40718">
<path id="Vector_24" d="M454.427 333.801H448.047C448.047 339.036 445.643 343.814 441.466 346.961L438.949 348.849L448.733 362.181H456.773L447.761 349.908C452.023 345.674 454.427 339.952 454.427 333.801Z" fill="white"/>
<path id="Vector_25" d="M438.147 333.8H431.624V362.181H438.147V333.8Z" fill="white"/>
</g>
</g>
<g id="Frame 2085663254" filter="url(#filter6_d_810_428)">
<rect x="103.4" y="317.548" width="61.3068" height="61.3068" rx="30.6534" fill="white" shape-rendering="crispEdges"/>
<rect x="103.8" y="317.948" width="60.508" height="60.508" rx="30.254" stroke="url(#paint10_linear_810_428)" stroke-width="0.798814" shape-rendering="crispEdges"/>
<g id="Group_12">
<g id="Group_13">
<path id="Vector_26" d="M132.571 351.733L130.494 353.973C129.559 354.98 128.03 354.98 127.096 353.973L119.493 345.773L121.504 343.602C122.476 342.555 124.063 342.555 125.036 343.602L132.571 351.73V351.733Z" fill="#010101"/>
<path id="Vector_27" d="M119.493 345.776L118.727 346.603C118.727 346.603 119.646 345.944 120.412 346.768L119.493 345.776Z" fill="#010101"/>
<path id="Vector_28" d="M132.574 351.733L133.34 350.906C133.34 350.906 132.42 351.565 131.654 350.74L132.574 351.733Z" fill="#010101"/>
</g>
<g id="Group_14">
<path id="Vector_29" d="M150.431 344.374C150.431 344.374 146.63 348.591 144.877 350.355C144.184 351.019 143.51 351.089 142.974 350.552L136.247 343.243C135.571 342.567 134.196 342.488 133.409 343.275L130.995 345.767L138.743 354.124C139.596 355.047 140.951 354.995 141.903 354.188C143.008 353.251 145.231 350.668 145.231 350.668C145.231 350.668 148.313 347.209 149.825 345.541L150.649 344.612C152.079 342.909 153.846 342.006 155.875 342.915C154.049 341.629 151.978 342.508 150.425 344.374H150.431Z" fill="#010101"/>
<path id="Vector_30" d="M130.996 345.767L130.229 346.594C130.229 346.594 131.149 345.935 131.915 346.759L130.996 345.767Z" fill="#010101"/>
</g>
</g>
</g>
</g>
<g id="Frame 2085663259">
<rect x="164.957" y="366.136" width="245.906" height="245.906" rx="122.953" stroke="url(#paint11_linear_810_428)" stroke-width="0.5"/>
<g id="Frame 2085663254_2" filter="url(#filter7_d_810_428)">
<rect x="103.4" y="317.548" width="61.3068" height="61.3068" rx="30.6534" fill="#342F3D" shape-rendering="crispEdges"/>
<rect x="103.8" y="317.948" width="60.5068" height="60.5068" rx="30.2534" stroke="url(#paint12_linear_810_428)" stroke-width="0.8" shape-rendering="crispEdges"/>
<g id="Group_15">
<g id="Group 1410089390">
<g id="Group_16">
<path id="Vector_31" d="M130.045 352.235L127.639 354.83C126.557 355.996 124.785 355.996 123.703 354.83L114.898 345.333L117.227 342.819C118.353 341.606 120.191 341.606 121.317 342.819L130.045 352.232V352.235Z" fill="white"/>
<path id="Vector_32" d="M114.898 345.336L114.011 346.294C114.011 346.294 115.076 345.531 115.963 346.485L114.898 345.336Z" fill="white"/>
<path id="Vector_33" d="M130.048 352.235L130.935 351.277C130.935 351.277 129.87 352.04 128.982 351.086L130.048 352.235Z" fill="white"/>
</g>
<g id="Group_17">
<path id="Vector_34" d="M150.728 343.713C150.728 343.713 146.326 348.596 144.296 350.639C143.493 351.409 142.713 351.489 142.092 350.868L134.302 342.402C133.518 341.619 131.926 341.529 131.015 342.439L128.219 345.326L137.192 355.005C138.18 356.073 139.749 356.013 140.851 355.079C142.132 353.993 144.706 351.002 144.706 351.002C144.706 351.002 148.275 346.996 150.026 345.064L150.98 343.989C152.637 342.016 154.684 340.971 157.033 342.023C154.919 340.534 152.52 341.552 150.722 343.713H150.728Z" fill="white"/>
<path id="Vector_35" d="M128.219 345.326L127.332 346.284C127.332 346.284 128.397 345.521 129.285 346.476L128.219 345.326Z" fill="white"/>
</g>
</g>
</g>
</g>
<g id="Frame 1410089463">
<rect x="148.746" y="451.746" width="40.9855" height="40.9904" rx="20.4927" fill="#3E3848"/>
<rect x="148.746" y="451.746" width="40.9855" height="40.9904" rx="20.4927" stroke="url(#paint13_linear_810_428)" stroke-width="0.53691"/>
<g id="fi_2567943">
<path id="Union_2" d="M163.848 473.565C164.26 473.565 164.595 473.9 164.595 474.312V481.776C164.595 482.188 164.26 482.522 163.848 482.522H159.369C158.957 482.522 158.623 482.188 158.623 481.776V474.312C158.623 473.9 158.957 473.565 159.369 473.565H163.848ZM171.478 461.623C171.89 461.623 172.223 461.957 172.224 462.369V481.776C172.223 482.188 171.89 482.522 171.478 482.522H166.999C166.587 482.522 166.253 482.188 166.253 481.776V462.369C166.253 461.957 166.587 461.623 166.999 461.623H171.478ZM178.941 467.594C179.354 467.594 179.688 467.928 179.688 468.34V481.776C179.688 482.188 179.354 482.522 178.941 482.522H174.463C174.051 482.522 173.717 482.188 173.717 481.776V468.34C173.717 467.928 174.051 467.594 174.463 467.594H178.941Z" fill="white"/>
</g>
</g>
<g id="Frame 2085663263">
<rect x="390.746" y="451.268" width="40.9855" height="40.9855" rx="20.4927" fill="#4A4357"/>
<rect x="390.746" y="451.268" width="40.9855" height="40.9855" rx="20.4927" stroke="url(#paint14_linear_810_428)" stroke-width="0.53691"/>
<g id="Group 40679">
<g id="fi_9964464" clip-path="url(#clip3_810_428)">
<g id="Group_18">
<path id="Union_3" d="M415.456 482.919C415.271 483.809 414.492 484.439 413.566 484.439H408.009C407.119 484.439 406.341 483.809 406.119 482.919L405.266 479.289H416.307L415.456 482.919ZM418.679 468.582C418.827 468.582 418.938 468.618 419.013 468.729C419.087 468.803 419.124 468.952 419.087 469.063C417.938 472.397 414.974 475.176 411.158 474.435V475.769H416.27C417.011 475.769 417.641 476.362 417.641 477.14C417.641 477.918 417.048 478.547 416.27 478.547H405.266C404.526 478.547 403.897 477.918 403.896 477.177C403.896 476.399 404.489 475.769 405.266 475.769H410.417V474.435C406.564 475.176 403.6 472.36 402.488 469.063C402.451 468.952 402.488 468.84 402.562 468.729C402.637 468.618 402.784 468.582 402.895 468.582C407.453 468.952 409.491 470.619 410.417 472.027V469.915C410.639 469.952 410.936 469.952 411.158 469.915V472.027C412.047 470.619 414.122 468.952 418.679 468.582ZM410.787 460.023C413.306 460.023 415.381 462.06 415.382 464.617C415.382 467.136 413.343 469.211 410.787 469.211C408.231 469.211 406.193 467.136 406.193 464.617C406.193 462.097 408.231 460.023 410.787 460.023ZM410.787 461.357C410.565 461.357 410.417 461.542 410.417 461.727V462.171C409.824 462.32 409.379 462.876 409.379 463.542C409.379 464.321 410.009 464.951 410.787 464.951C411.157 464.951 411.454 465.247 411.417 465.618C411.417 465.988 411.12 466.285 410.75 466.285C410.38 466.285 410.083 465.988 410.083 465.618C410.083 465.395 409.898 465.247 409.713 465.247C409.528 465.247 409.342 465.395 409.342 465.618C409.342 466.284 409.75 466.804 410.343 466.989V467.433C410.343 467.655 410.528 467.803 410.713 467.803C410.898 467.803 411.084 467.655 411.084 467.433V466.989C411.714 466.84 412.195 466.284 412.195 465.618C412.195 464.84 411.565 464.209 410.787 464.209C410.417 464.209 410.12 463.913 410.12 463.542C410.12 463.209 410.38 462.876 410.75 462.875H410.824C411.157 462.875 411.454 463.172 411.454 463.542C411.454 463.765 411.639 463.913 411.824 463.914C412.046 463.914 412.195 463.765 412.195 463.542C412.195 462.876 411.75 462.32 411.157 462.171V461.727C411.157 461.542 410.972 461.357 410.787 461.357Z" fill="white"/>
</g>
</g>
</g>
</g>
<g id="OBJECTS_2" clip-path="url(#clip4_810_428)">
<g id="Group_19">
<path id="Union_4" d="M344.28 320.475C346.249 323.608 347.009 327.547 347.071 331.759C347.242 345.172 339.07 362.357 330.063 373.549L330.085 373.56C321.045 384.795 305.578 396.633 295.132 391.053C304.093 395.752 305.659 396.832 307.364 397.456C318.14 401.394 332.296 390.035 340.916 379.329L340.905 379.323C353.973 363.097 362.156 339.483 355.676 327.227C355.505 326.893 355.319 326.573 355.117 326.254L344.28 320.475ZM340.319 316.565C341.832 317.458 343.243 318.822 344.28 320.475L355.118 326.254C352.423 322.003 349.502 321.815 340.319 316.565ZM340.319 316.565C340.203 316.497 340.087 316.431 339.971 316.369C340.087 316.436 340.204 316.5 340.319 316.565Z" fill="url(#paint15_linear_810_428)"/>
</g>
<path id="Vector_36" d="M339.505 326.406C333.831 317.418 319.35 322.361 307.225 337.416C295.116 352.472 289.876 372.044 295.55 381.031C301.225 390.019 315.706 385.077 327.83 370.021C339.939 354.966 345.18 335.393 339.505 326.406Z" fill="url(#paint16_radial_810_428)"/>
<path id="Vector_37" d="M305.008 333.873C319.768 315.517 337.35 309.525 344.281 320.475C351.196 331.424 344.839 355.194 330.079 373.549C315.319 391.905 297.721 397.912 290.806 386.947C283.892 375.983 290.248 352.228 305.008 333.873ZM295.566 381.031C301.241 390.019 315.722 385.077 327.846 370.021C339.955 354.966 345.195 335.393 339.521 326.406C333.846 317.418 319.365 322.361 307.241 337.416C295.132 352.472 289.892 372.044 295.566 381.031Z" fill="url(#paint17_linear_810_428)"/>
</g>
</g>
<path id="Union_5" d="M287.496 427.193C288.291 427.193 289.085 427.239 289.88 427.269C290.057 427.277 290.239 427.276 290.416 427.284L290.638 427.294C291.649 427.346 292.653 427.432 293.658 427.535C293.841 427.553 294.025 427.567 294.208 427.587C295.169 427.693 296.122 427.828 297.077 427.978C297.372 428.024 297.668 428.069 297.96 428.119C298.822 428.268 299.681 428.441 300.535 428.626C300.904 428.706 301.274 428.788 301.642 428.875C302.244 429.017 302.845 429.16 303.443 429.321V429.31L304.607 429.644H304.609C304.779 429.695 304.948 429.759 305.119 429.809C305.967 430.062 306.81 430.332 307.648 430.623C308.104 430.78 308.554 430.944 309.006 431.113C309.72 431.38 310.429 431.658 311.132 431.951C311.65 432.168 312.165 432.391 312.677 432.622C313.312 432.907 313.942 433.202 314.567 433.51C315.132 433.787 315.689 434.074 316.243 434.367C316.54 434.526 316.846 434.664 317.141 434.827L318.202 435.414L318.183 435.434C318.593 435.671 318.999 435.916 319.403 436.161C319.992 436.521 320.572 436.891 321.151 437.27C321.633 437.586 322.113 437.906 322.587 438.235C323.084 438.583 323.572 438.942 324.06 439.303C324.221 439.422 324.383 439.533 324.542 439.653C324.924 439.942 325.304 440.234 325.679 440.533C326.041 440.82 326.393 441.121 326.749 441.417C327.206 441.796 327.679 442.161 328.125 442.554C328.255 442.667 328.373 442.794 328.501 442.908L328.729 443.11C328.732 443.111 328.733 443.112 328.733 443.112C328.735 443.114 328.737 443.115 328.737 443.115C329.362 443.673 329.97 444.258 330.571 444.848C330.699 444.975 330.836 445.089 330.962 445.216C331.252 445.505 331.519 445.815 331.802 446.11C332.208 446.534 332.622 446.952 333.01 447.387L333.147 447.541C333.661 448.111 334.154 448.697 334.646 449.286C334.989 449.694 335.33 450.102 335.664 450.519C336.015 450.963 336.355 451.416 336.695 451.87C337.147 452.473 337.591 453.079 338.023 453.7C338.256 454.037 338.485 454.379 338.711 454.72C339.226 455.494 339.722 456.277 340.203 457.073C340.335 457.294 340.468 457.517 340.598 457.74C340.635 457.8 340.671 457.858 340.705 457.919L340.733 457.893L341.313 458.941C341.315 458.945 341.32 458.948 341.32 458.952C341.583 459.426 341.812 459.918 342.061 460.4C342.198 460.659 342.332 460.92 342.462 461.183C342.891 462.037 343.295 462.899 343.68 463.773C343.833 464.119 343.984 464.463 344.13 464.81C344.46 465.598 344.773 466.391 345.07 467.192C345.241 467.646 345.405 468.102 345.564 468.562C345.813 469.281 346.047 470.007 346.268 470.736C346.352 471.019 346.456 471.295 346.539 471.578L346.875 472.744H346.85V472.75C346.967 473.184 347.073 473.62 347.179 474.055C347.36 474.791 347.523 475.53 347.675 476.273C347.77 476.733 347.862 477.191 347.947 477.651C348.088 478.427 348.209 479.209 348.319 479.992C348.363 480.301 348.427 480.605 348.465 480.914C348.485 481.074 348.492 481.238 348.512 481.4C348.6 482.149 348.665 482.903 348.725 483.656C348.757 484.058 348.809 484.458 348.833 484.862L348.877 485.632V485.639L348.916 486.384C348.992 488.143 348.979 489.922 348.877 491.673L348.837 492.374C348.815 492.763 348.769 493.153 348.739 493.543C348.675 494.39 348.598 495.234 348.498 496.08C348.464 496.371 348.422 496.66 348.381 496.952C348.245 497.966 348.085 498.981 347.899 499.992C347.864 500.171 347.828 500.349 347.794 500.528C347.575 501.649 347.326 502.766 347.045 503.878C347.023 503.96 347.003 504.04 346.983 504.12C346.946 504.267 346.911 504.412 346.873 504.558H346.911L346.575 505.723C346.408 506.302 346.203 506.868 346.018 507.443C345.964 507.616 345.908 507.789 345.851 507.962C345.528 508.942 345.179 509.911 344.805 510.873C344.685 511.182 344.564 511.489 344.439 511.797C344.114 512.6 343.77 513.394 343.409 514.181C343.2 514.642 342.985 515.098 342.764 515.553C342.453 516.193 342.129 516.825 341.795 517.452C341.641 517.741 341.508 518.039 341.349 518.324L340.763 519.386L340.741 519.367C340.528 519.736 340.309 520.102 340.088 520.466C339.67 521.157 339.236 521.838 338.789 522.512C338.545 522.878 338.304 523.244 338.055 523.604C337.603 524.255 337.131 524.895 336.653 525.532C336.359 525.922 336.07 526.311 335.768 526.695C335.324 527.259 334.86 527.808 334.394 528.359C334.097 528.71 333.814 529.07 333.51 529.414L333.039 529.944C333.037 529.946 333.035 529.948 333.035 529.948C331.803 531.328 330.414 532.719 328.795 534.187L328.174 534.748C327.791 535.085 327.388 535.397 326.999 535.724C326.557 536.094 326.119 536.466 325.669 536.823C325.159 537.227 324.64 537.614 324.118 538.002C323.628 538.367 323.136 538.729 322.636 539.079C322.154 539.416 321.663 539.744 321.171 540.067C320.585 540.453 319.994 540.826 319.397 541.192C319.012 541.427 318.626 541.66 318.236 541.887L318.26 541.912L317.199 542.499C316.853 542.691 316.493 542.854 316.144 543.039C315.638 543.306 315.13 543.567 314.616 543.82C314.007 544.117 313.396 544.405 312.78 544.684C312.183 544.953 311.584 545.214 310.979 545.466C310.431 545.69 309.883 545.908 309.329 546.119C308.649 546.378 307.968 546.625 307.281 546.858C306.763 547.035 306.242 547.201 305.717 547.364C305.346 547.48 304.98 547.617 304.605 547.725L303.439 548.063V548.029C303.023 548.142 302.607 548.248 302.19 548.35C301.448 548.533 300.703 548.698 299.954 548.852C299.425 548.963 298.897 549.068 298.367 549.165C297.772 549.269 297.175 549.361 296.575 549.45C296.332 549.486 296.09 549.532 295.845 549.566C295.385 549.628 294.925 549.685 294.465 549.737C294.079 549.779 293.692 549.811 293.304 549.847C292.661 549.909 292.02 549.992 291.375 550.032C291.16 550.046 290.943 550.041 290.726 550.052L290.515 550.064C290.086 550.088 289.623 550.086 289.181 550.1C288.618 550.116 288.056 550.155 287.494 550.155C287.267 550.155 287.042 550.134 286.815 550.133C286.07 550.122 285.31 550.103 284.512 550.064L284.284 550.052C283.322 550.002 282.363 549.915 281.407 549.821C281.184 549.799 280.963 549.781 280.74 549.757C279.824 549.654 278.912 549.528 278.001 549.385C277.664 549.333 277.326 549.283 276.991 549.224C276.197 549.088 275.408 548.933 274.621 548.764C274.136 548.662 273.652 548.554 273.169 548.439C272.645 548.313 272.121 548.19 271.601 548.052V548.078L270.437 547.742C270.106 547.648 269.782 547.525 269.453 547.425C268.824 547.231 268.199 547.03 267.577 546.817C266.966 546.608 266.359 546.388 265.756 546.159C265.166 545.936 264.577 545.705 263.995 545.464C263.36 545.202 262.731 544.926 262.106 544.642C261.594 544.407 261.082 544.169 260.576 543.923C259.844 543.567 259.125 543.193 258.41 542.809C258.207 542.699 257.995 542.605 257.794 542.492L256.738 541.905L256.746 541.898C256.261 541.619 255.785 541.323 255.307 541.03C254.893 540.775 254.485 540.515 254.078 540.25C253.425 539.826 252.776 539.395 252.139 538.947C251.84 538.736 251.547 538.52 251.251 538.303C250.482 537.743 249.724 537.17 248.983 536.574C248.921 536.524 248.861 536.471 248.798 536.421C248.144 535.892 247.485 535.371 246.852 534.814C245.88 533.958 244.935 533.072 244.019 532.156C243.475 531.611 242.964 531.037 242.442 530.474C242.273 530.294 242.102 530.129 241.933 529.944L241.638 529.621C241.544 529.516 241.441 529.42 241.349 529.313C240.919 528.825 240.524 528.312 240.11 527.812C239.883 527.541 239.653 527.272 239.432 526.995C238.912 526.342 238.412 525.673 237.917 525C237.674 524.669 237.431 524.339 237.194 524.004C236.75 523.37 236.323 522.73 235.903 522.083C235.62 521.647 235.34 521.206 235.067 520.762C234.782 520.297 234.498 519.832 234.225 519.36L234.203 519.381L233.621 518.324V518.32C233.444 518.001 233.29 517.665 233.12 517.342C232.842 516.819 232.573 516.293 232.312 515.76C232.167 515.465 232.005 515.18 231.865 514.883C231.706 514.548 231.575 514.2 231.422 513.86C231.181 513.324 230.946 512.785 230.721 512.241C230.452 511.592 230.197 510.939 229.95 510.28C229.749 509.746 229.556 509.211 229.372 508.671C229.125 507.948 228.893 507.22 228.672 506.489C228.598 506.236 228.503 505.988 228.431 505.735L228.099 504.572H228.118C227.987 504.086 227.871 503.598 227.752 503.108C227.604 502.491 227.467 501.87 227.336 501.247C227.214 500.656 227.095 500.064 226.989 499.469C226.886 498.891 226.798 498.31 226.713 497.727C226.647 497.288 226.561 496.854 226.504 496.412C226.47 496.144 226.458 495.874 226.428 495.606C226.388 495.243 226.358 494.879 226.324 494.513C226.139 492.575 226.014 490.625 226.014 488.671C226.014 488.359 226.04 488.048 226.044 487.735C226.052 487.042 226.056 486.354 226.09 485.645L226.13 484.807H226.136C226.162 484.394 226.219 483.984 226.253 483.572C226.31 482.885 226.367 482.199 226.448 481.512C226.512 480.962 226.595 480.418 226.673 479.87C226.772 479.179 226.878 478.487 227 477.796C227.095 477.279 227.198 476.763 227.304 476.249C227.457 475.504 227.62 474.761 227.8 474.019C227.903 473.599 228.009 473.179 228.122 472.761C228.126 472.746 228.129 472.73 228.133 472.714H228.093L228.431 471.548C228.548 471.15 228.692 470.763 228.815 470.367C228.962 469.895 229.114 469.425 229.273 468.957C229.506 468.27 229.749 467.586 230.006 466.907C230.235 466.299 230.476 465.694 230.725 465.094C230.932 464.595 231.145 464.098 231.366 463.604C231.715 462.821 232.082 462.048 232.463 461.278C232.612 460.981 232.761 460.686 232.914 460.39C233.143 459.948 233.349 459.494 233.59 459.056L234.174 457.991L234.207 458.021C234.251 457.945 234.297 457.871 234.341 457.795C234.498 457.526 234.659 457.258 234.82 456.991C235.274 456.244 235.738 455.512 236.216 454.791C236.463 454.419 236.71 454.047 236.965 453.679C237.431 453.009 237.912 452.356 238.398 451.709C238.663 451.357 238.925 451.003 239.198 450.658C239.686 450.037 240.19 449.437 240.698 448.843C240.935 448.563 241.156 448.274 241.395 448.001V447.997L241.959 447.374C242.54 446.735 243.139 446.114 243.742 445.504C243.836 445.407 243.923 445.304 244.019 445.208C244.13 445.095 244.25 444.995 244.363 444.885C244.951 444.306 245.542 443.732 246.144 443.187L246.765 442.627C247.169 442.269 247.593 441.937 248.006 441.592C248.434 441.232 248.859 440.873 249.294 440.527C249.811 440.117 250.339 439.724 250.868 439.332C251.354 438.97 251.84 438.61 252.336 438.264C252.843 437.913 253.357 437.572 253.874 437.234C254.398 436.893 254.922 436.557 255.453 436.231C255.9 435.958 256.348 435.69 256.802 435.427L256.789 435.412L257.839 434.83C257.843 434.828 257.847 434.825 257.851 434.823C258.074 434.698 258.307 434.594 258.532 434.473C259.203 434.114 259.878 433.767 260.563 433.431C261.055 433.19 261.547 432.957 262.045 432.73C262.73 432.417 263.42 432.117 264.117 431.83C264.579 431.639 265.043 431.454 265.509 431.275C266.287 430.976 267.072 430.693 267.864 430.426C268.243 430.297 268.626 430.172 269.007 430.052C269.445 429.913 269.875 429.752 270.317 429.624L271.484 429.285V429.329C271.508 429.323 271.53 429.316 271.554 429.31C272.002 429.19 272.453 429.08 272.903 428.969C273.56 428.813 274.214 428.666 274.869 428.529C275.508 428.394 276.145 428.268 276.788 428.155C277.336 428.059 277.885 427.977 278.433 427.894C278.63 427.864 278.825 427.828 279.022 427.8C279.518 427.729 280.017 427.667 280.515 427.611C280.991 427.559 281.465 427.518 281.941 427.476C282.497 427.426 283.05 427.354 283.608 427.318C283.791 427.306 283.974 427.31 284.155 427.3L284.497 427.284C284.653 427.276 284.81 427.277 284.968 427.271C285.067 427.267 285.166 427.267 285.266 427.263C286.009 427.237 286.75 427.193 287.496 427.193ZM287.518 530.388C285.929 536.22 285.228 542.225 285.453 548.248C285.702 548.256 285.953 548.266 286.204 548.272H286.273C286.721 548.282 287.167 548.293 287.596 548.293C287.908 548.293 288.205 548.284 288.508 548.278C288.866 548.272 289.224 548.256 289.582 548.244L289.583 548.246C289.823 542.215 289.123 536.218 287.518 530.388ZM289.409 530.282C290.974 536.114 291.652 542.113 291.429 548.145C292.008 548.107 292.587 548.065 293.162 548.01C293.523 547.975 293.887 547.948 294.249 547.906C294.94 547.828 295.624 547.726 296.309 547.626C296.888 547.539 297.469 547.452 298.045 547.348C298.485 547.27 298.921 547.179 299.359 547.091C299.576 547.046 299.791 546.996 300.008 546.95C300.593 546.823 301.18 546.699 301.76 546.556C302.054 546.484 302.345 546.406 302.636 546.33C302.903 546.261 303.166 546.182 303.431 546.108V546.112C303.436 542.066 304.01 538.107 305.125 534.328C300.272 531.925 294.942 530.537 289.409 530.282ZM285.631 530.275C280.109 530.512 274.772 531.895 269.907 534.302C271.036 538.1 271.619 542.077 271.623 546.133C271.741 546.165 271.86 546.199 271.978 546.231C272.518 546.374 273.062 546.517 273.606 546.645C274.052 546.754 274.502 546.852 274.952 546.949C274.982 546.957 275.01 546.962 275.041 546.969C275.797 547.127 276.555 547.28 277.319 547.41C277.638 547.466 277.962 547.515 278.283 547.565C279.17 547.704 280.061 547.83 280.957 547.928C281.163 547.951 281.371 547.967 281.578 547.987C282.25 548.053 282.928 548.099 283.605 548.143L283.607 548.141C283.4 542.124 284.079 536.127 285.631 530.275ZM268.234 535.183C265.192 536.873 262.355 538.971 259.801 541.454C260.191 541.659 260.581 541.859 260.975 542.056C261.282 542.209 261.592 542.362 261.903 542.51C262.226 542.665 262.55 542.82 262.877 542.969C263.36 543.188 263.848 543.397 264.336 543.603C264.577 543.704 264.82 543.807 265.063 543.905C265.513 544.088 265.963 544.268 266.417 544.439C266.867 544.61 267.324 544.771 267.78 544.931C268.019 545.014 268.258 545.098 268.499 545.178V545.18C268.922 545.323 269.346 545.46 269.772 545.593C269.722 542.03 269.196 538.536 268.234 535.183ZM306.802 535.208C305.854 538.545 305.332 542.02 305.282 545.57C305.627 545.462 305.971 545.349 306.315 545.234C306.602 545.14 306.887 545.04 307.172 544.939C307.679 544.764 308.183 544.586 308.683 544.394C309.087 544.24 309.489 544.08 309.888 543.917C310.135 543.817 310.38 543.714 310.627 543.609C311.093 543.412 311.558 543.213 312.02 543.005C312.468 542.801 312.912 542.589 313.354 542.376C313.619 542.247 313.887 542.119 314.152 541.986V541.988C314.503 541.811 314.85 541.635 315.198 541.452C312.658 538.981 309.834 536.893 306.802 535.208ZM259.366 519.383C256.348 524.62 252.603 529.352 248.208 533.476C248.802 534.003 249.396 534.529 250.01 535.029C250.048 535.059 250.085 535.091 250.123 535.121C250.858 535.715 251.613 536.282 252.375 536.839C252.646 537.036 252.915 537.237 253.19 537.429C253.813 537.87 254.448 538.292 255.086 538.706C255.104 538.718 255.121 538.727 255.139 538.739C255.517 538.982 255.894 539.224 256.276 539.459C256.875 539.826 257.482 540.184 258.094 540.53C258.096 540.531 258.099 540.532 258.101 540.533C260.972 537.667 264.193 535.268 267.667 533.38C265.922 528.238 263.119 523.479 259.366 519.383ZM315.6 519.441C311.872 523.542 309.091 528.281 307.361 533.402C310.822 535.287 314.027 537.673 316.881 540.521C317.098 540.399 317.316 540.281 317.529 540.156C317.826 539.982 318.123 539.806 318.418 539.628C318.886 539.341 319.347 539.043 319.809 538.743C319.985 538.631 320.161 538.519 320.335 538.404C320.75 538.129 321.163 537.855 321.571 537.57C322.025 537.253 322.469 536.924 322.915 536.594C322.961 536.56 323.009 536.525 323.055 536.491C323.547 536.125 324.04 535.758 324.52 535.377C324.952 535.035 325.372 534.678 325.793 534.324H325.792C326.125 534.045 326.456 533.761 326.784 533.474C322.39 529.374 318.636 524.662 315.6 519.441ZM309.995 523.685C305.834 526.373 301.243 528.281 296.404 529.332C299.63 530.031 302.744 531.107 305.694 532.542C306.764 529.434 308.204 526.464 309.995 523.685ZM265.047 523.724C266.827 526.489 268.262 529.438 269.333 532.521C272.266 531.095 275.362 530.022 278.566 529.327C273.754 528.28 269.19 526.388 265.047 523.724ZM257.905 518.21C252.651 521.209 247.946 524.93 243.894 529.315C244.229 529.675 244.567 530.03 244.905 530.374C245.059 530.532 245.212 530.695 245.367 530.848C245.517 531.001 245.67 531.141 245.823 531.29C246.16 531.617 246.498 531.93 246.833 532.24V532.238C251.217 528.148 254.929 523.431 257.905 518.21ZM316.997 518.151C319.994 523.391 323.741 528.13 328.155 532.228C328.544 531.865 328.94 531.509 329.32 531.135C329.452 531.005 329.592 530.874 329.721 530.746C329.739 530.73 329.756 530.711 329.774 530.693V530.691C330.22 530.241 330.642 529.771 331.074 529.307C326.98 524.877 322.248 521.135 316.997 518.151ZM287.492 448.938C265.575 448.938 247.746 466.769 247.746 488.685C247.746 510.601 265.575 528.431 287.492 528.431C309.408 528.431 327.238 510.601 327.238 488.685C327.238 466.769 309.408 448.938 287.492 448.938ZM332.233 508.5C327.116 510.236 322.376 513.024 318.284 516.757C323.503 519.77 328.215 523.525 332.315 527.941C332.546 527.68 332.769 527.414 332.994 527.149C333.438 526.625 333.884 526.099 334.31 525.558C334.573 525.229 334.822 524.89 335.075 524.554C335.185 524.408 335.293 524.259 335.401 524.112C335.785 523.594 336.17 523.077 336.536 522.549C336.713 522.291 336.884 522.033 337.056 521.773C337.229 521.516 337.393 521.253 337.562 520.992C337.882 520.498 338.203 520.004 338.508 519.502C338.683 519.214 338.852 518.923 339.021 518.632L339.015 518.634C339.134 518.429 339.246 518.223 339.363 518.018C336.508 515.16 334.117 511.955 332.233 508.5ZM242.737 508.486C240.856 511.944 238.462 515.146 235.603 518.012C235.683 518.153 235.762 518.297 235.844 518.438C236.109 518.894 236.377 519.35 236.652 519.799C236.903 520.208 237.162 520.614 237.423 521.017C237.443 521.049 237.464 521.08 237.484 521.11C237.888 521.729 238.295 522.343 238.719 522.946C238.946 523.27 239.18 523.586 239.413 523.903C239.895 524.562 240.385 525.217 240.893 525.853C241.1 526.113 241.315 526.362 241.524 526.617L241.522 526.613C241.892 527.061 242.271 527.501 242.653 527.937C246.745 523.533 251.469 519.777 256.724 516.745C252.646 513.008 247.888 510.218 242.737 508.486ZM285.783 453.361C286.922 453.305 288.067 453.305 289.182 453.361C291.973 453.496 294.721 453.953 297.346 454.719C303.032 456.348 308.277 459.447 312.506 463.676C316.723 467.892 319.822 473.138 321.465 478.844C322.222 481.447 322.677 484.171 322.811 486.931C322.878 488.082 322.878 489.264 322.811 490.424H322.809C322.691 493.113 322.244 495.837 321.487 498.483C319.843 504.193 316.734 509.451 312.497 513.687C308.276 517.909 303.036 521.009 297.34 522.654C294.739 523.413 292.009 523.865 289.233 524.002C288.702 524.031 288.149 524.046 287.577 524.046C287.004 524.046 286.407 524.031 285.783 524.002C283.045 523.869 280.323 523.419 277.691 522.668C271.957 521.016 266.701 517.914 262.484 513.697C258.245 509.46 255.143 504.201 253.514 498.491C252.753 495.874 252.303 493.145 252.18 490.389C252.118 489.318 252.114 488.146 252.17 486.945C252.303 484.221 252.755 481.494 253.514 478.839C255.164 473.136 258.265 467.894 262.484 463.676C266.689 459.471 271.921 456.37 277.615 454.709C280.357 453.933 283.099 453.482 285.783 453.361ZM287.493 511.711H287.462C287.352 511.711 287.245 511.694 287.135 511.694C287.093 511.698 287.05 511.695 287.008 511.699C283.995 511.773 281.106 512.484 278.466 513.736C278.846 515.106 279.095 516.517 279.215 517.953C281.429 518.572 283.721 518.947 286.026 519.059C287.103 519.112 288.067 519.114 288.971 519.059C291.327 518.945 293.62 518.565 295.809 517.942H295.808C295.929 516.506 296.179 515.095 296.559 513.725C293.927 512.482 291.047 511.773 288.053 511.699C287.991 511.693 287.94 511.692 287.886 511.69C287.756 511.694 287.625 511.711 287.493 511.711ZM276.764 514.637C275.981 515.101 275.222 515.608 274.499 516.175C275.409 516.604 276.334 517.002 277.285 517.34C277.172 516.424 276.991 515.523 276.764 514.637ZM298.259 514.624C298.032 515.51 297.853 516.41 297.743 517.326C298.691 516.987 299.615 516.586 300.523 516.154C299.802 515.59 299.043 515.086 298.259 514.624ZM231.012 507.707C231.113 508.008 231.215 508.307 231.32 508.604C231.44 508.946 231.559 509.285 231.686 509.623C231.881 510.139 232.086 510.651 232.292 511.164C232.399 511.425 232.505 511.686 232.616 511.945C232.78 512.333 232.945 512.719 233.116 513.1C233.331 513.584 233.56 514.063 233.789 514.539C233.905 514.782 234.023 515.027 234.143 515.268C234.32 515.624 234.498 515.976 234.683 516.327V516.321C237.158 513.773 239.24 510.948 240.921 507.923C237.599 506.983 234.135 506.465 230.599 506.417C230.734 506.849 230.87 507.279 231.012 507.707ZM344.395 506.402C340.853 506.456 337.381 506.981 334.048 507.935C335.734 510.961 337.822 513.784 340.292 516.327C340.498 515.935 340.698 515.541 340.895 515.145C341.062 514.806 341.231 514.466 341.391 514.123C341.502 513.888 341.615 513.653 341.723 513.418C341.968 512.881 342.197 512.337 342.426 511.793C342.633 511.301 342.844 510.812 343.038 510.314C343.05 510.28 343.064 510.248 343.076 510.216C343.315 509.597 343.531 508.97 343.749 508.344C343.929 507.826 344.116 507.31 344.283 506.788V506.79C344.322 506.661 344.355 506.53 344.395 506.402ZM263.409 499.986C262.706 501.23 261.882 502.411 260.948 503.518C262.308 505.951 263.993 508.209 265.984 510.2H265.986C267.979 512.193 270.247 513.882 272.696 515.246C273.797 514.316 274.97 513.499 276.206 512.8C275.262 510.154 273.805 507.696 271.852 505.583L271.804 505.558L271.673 505.394C271.655 505.372 271.636 505.354 271.618 505.334C271.485 505.207 271.342 505.097 271.211 504.967C271.083 504.838 270.973 504.695 270.848 504.564C270.83 504.55 270.813 504.532 270.797 504.518L270.607 504.34C268.506 502.389 266.054 500.932 263.409 499.986ZM311.619 499.976C308.875 500.957 306.337 502.491 304.167 504.558C304.117 504.601 304.079 504.637 304.039 504.676C303.946 504.77 303.868 504.872 303.776 504.965C303.695 505.047 303.602 505.117 303.52 505.197C303.488 505.231 303.454 505.263 303.424 505.298C301.343 507.483 299.803 510.034 298.821 512.786C300.054 513.483 301.226 514.298 302.325 515.224C304.756 513.862 307.012 512.177 308.999 510.19L309.001 510.187C310.996 508.192 312.688 505.931 314.054 503.494C313.124 502.393 312.316 501.212 311.619 499.976ZM276.479 508.91C277.015 509.892 277.492 510.905 277.877 511.954C278.894 511.484 279.945 511.098 281.02 510.783C279.443 510.325 277.924 509.698 276.481 508.91H276.479ZM298.542 508.885C297.1 509.677 295.577 510.31 293.996 510.774C295.075 511.09 296.128 511.474 297.146 511.944C297.532 510.891 298.002 509.872 298.542 508.885ZM327.945 498.423C326.865 502.947 325.031 507.24 322.509 511.154C325.289 509.356 328.265 507.91 331.377 506.833C329.935 503.873 328.85 500.751 328.151 497.516L327.945 498.423ZM246.809 497.438C246.116 500.701 245.042 503.851 243.595 506.831C246.701 507.897 249.668 509.334 252.445 511.12C249.753 506.931 247.848 502.31 246.809 497.438ZM287.495 467.514C286.769 467.514 286.052 467.55 285.345 467.623C285.271 467.629 285.196 467.647 285.122 467.655C284.485 467.727 283.855 467.818 283.236 467.944C283.232 467.946 283.229 467.946 283.225 467.946C275.031 469.632 268.555 476.069 266.801 484.239C266.787 484.306 266.766 484.37 266.751 484.438C266.645 484.957 266.575 485.489 266.508 486.021C266.486 486.198 266.448 486.371 266.43 486.55C266.378 487.053 266.366 487.568 266.352 488.083C266.35 488.101 266.35 488.116 266.35 488.133C266.36 488.321 266.368 488.514 266.368 488.691C266.368 488.902 266.366 489.104 266.352 489.308V489.341C266.366 489.835 266.378 490.331 266.426 490.817C266.444 491.006 266.484 491.191 266.508 491.377C266.575 491.897 266.641 492.42 266.746 492.928C266.764 493.009 266.788 493.085 266.806 493.166L266.81 493.162C267.652 497.047 269.564 500.531 272.22 503.302C272.337 503.411 272.457 503.518 272.561 503.623C272.69 503.753 272.809 503.875 272.923 504.002C275.72 506.663 279.231 508.578 283.147 509.4C283.179 509.408 283.209 509.418 283.242 509.425C283.818 509.543 284.407 509.624 285 509.694C285.118 509.708 285.235 509.733 285.353 509.746C285.934 509.804 286.524 509.824 287.117 509.834C287.348 509.824 287.605 509.824 287.876 509.834C288.471 509.824 289.061 509.804 289.642 509.746C289.738 509.736 289.833 509.713 289.929 509.704C290.544 509.633 291.157 509.547 291.755 509.425C291.759 509.423 291.764 509.421 291.768 509.421C295.796 508.593 299.402 506.608 302.245 503.842C302.317 503.767 302.395 503.688 302.469 503.614C302.513 503.568 302.56 503.528 302.604 503.486C305.856 500.169 308.03 495.793 308.544 490.926C308.546 490.897 308.555 490.869 308.557 490.842C308.63 490.142 308.666 489.431 308.666 488.712V488.663C308.666 487.942 308.63 487.228 308.557 486.525C308.555 486.508 308.549 486.49 308.549 486.471C307.517 476.596 299.667 468.72 289.803 467.645C289.751 467.641 289.7 467.629 289.648 467.623C288.939 467.552 288.22 467.514 287.495 467.514ZM245.829 490.535C240.621 491.923 235.32 492.631 229.992 492.631C229.343 492.631 228.692 492.602 228.043 492.583C228.08 493.179 228.122 493.778 228.176 494.372C228.21 494.716 228.236 495.059 228.274 495.403C228.35 496.1 228.451 496.794 228.553 497.487C228.636 498.041 228.718 498.598 228.817 499.15C228.911 499.681 229.02 500.209 229.128 500.737C229.161 500.894 229.195 501.048 229.229 501.205C229.333 501.695 229.44 502.185 229.556 502.674C229.693 503.236 229.839 503.797 229.992 504.355V504.361C230.012 504.433 230.032 504.506 230.052 504.578C234.084 504.586 238.03 505.158 241.797 506.263C244.196 501.408 245.582 496.082 245.829 490.535ZM329.117 490.54C329.376 496.085 330.765 501.41 333.169 506.261C336.942 505.145 340.895 504.565 344.929 504.554C345.048 504.123 345.179 503.697 345.288 503.262C345.46 502.58 345.603 501.886 345.75 501.197C345.858 500.691 345.98 500.189 346.075 499.678C346.209 498.949 346.314 498.216 346.422 497.482C346.475 497.123 346.539 496.767 346.585 496.407C346.607 496.228 346.636 496.052 346.656 495.876C346.748 495.116 346.81 494.352 346.873 493.591C346.879 493.506 346.888 493.422 346.894 493.338L346.897 493.34C346.915 493.089 346.936 492.836 346.953 492.583C346.304 492.602 345.655 492.629 345.007 492.629C339.664 492.629 334.338 491.924 329.117 490.54ZM258.84 498.899C259.182 499.859 259.583 500.798 260.019 501.718C260.592 500.985 261.102 500.215 261.57 499.422C260.674 499.191 259.766 499.007 258.84 498.897V498.899ZM316.157 498.893C315.237 499.004 314.331 499.187 313.441 499.416C313.905 500.201 314.415 500.96 314.984 501.685V501.687C315.418 500.774 315.817 499.846 316.157 498.893ZM309.589 495.158C309.128 496.737 308.501 498.258 307.711 499.703C308.698 499.163 309.716 498.69 310.771 498.301C310.303 497.282 309.903 496.237 309.589 495.158ZM265.404 495.2C265.093 496.261 264.72 497.301 264.258 498.304C265.295 498.688 266.294 499.16 267.266 499.692C266.485 498.265 265.862 496.762 265.404 495.2ZM262.444 479.593C261.076 479.974 259.669 480.234 258.233 480.354C257.604 482.592 257.224 484.89 257.112 487.182C257.064 488.207 257.068 489.201 257.123 490.135L257.119 490.134C257.223 492.474 257.598 494.759 258.225 496.961C259.668 497.079 261.088 497.33 262.468 497.716C263.661 495.184 264.365 492.43 264.477 489.567L264.461 489.517L264.485 489.31C264.489 489.281 264.488 489.252 264.49 489.221C264.486 489.041 264.461 488.862 264.461 488.681C264.461 488.501 264.486 488.324 264.49 488.143C264.488 488.121 264.49 488.095 264.488 488.073L264.461 487.865L264.479 487.811C264.375 484.932 263.663 482.15 262.444 479.593ZM312.565 479.606C311.239 482.393 310.526 485.457 310.52 488.645V488.681C310.52 488.695 310.517 488.709 310.517 488.723C310.521 491.893 311.229 494.939 312.539 497.714C313.913 497.332 315.329 497.077 316.772 496.957C317.395 494.735 317.766 492.452 317.869 490.168H317.871C317.927 489.165 317.927 488.175 317.871 487.193C317.756 484.846 317.378 482.558 316.751 480.362C315.323 480.241 313.925 479.982 312.565 479.606ZM245.695 488.644C239.861 487.049 233.904 486.355 227.943 486.59C227.929 486.984 227.911 487.379 227.905 487.775C227.903 487.849 227.899 487.927 227.899 488.002C227.897 488.239 227.89 488.478 227.89 488.711C227.89 488.94 227.899 489.161 227.903 489.388L227.905 489.39C227.911 489.844 227.927 490.292 227.945 490.736C233.94 490.947 239.897 490.234 245.695 488.644ZM347.031 486.578C341.056 486.373 335.091 487.082 329.263 488.659C335.071 490.234 341.044 490.943 347.033 490.738C347.055 490.055 347.097 489.392 347.097 488.687C347.097 487.982 347.055 487.281 347.031 486.578ZM333.134 471.066C330.742 475.918 329.366 481.243 329.115 486.782C334.977 485.231 340.958 484.546 346.947 484.733C346.927 484.43 346.9 484.13 346.876 483.829C346.874 483.803 346.873 483.779 346.871 483.753C346.813 483.044 346.754 482.335 346.669 481.63C346.623 481.224 346.561 480.821 346.504 480.418C346.477 480.225 346.445 480.034 346.417 479.842C346.324 479.225 346.233 478.608 346.123 477.995C346.058 477.635 345.984 477.277 345.912 476.918C345.857 476.649 345.798 476.382 345.74 476.115C345.625 475.579 345.51 475.044 345.381 474.511C345.275 474.078 345.163 473.645 345.046 473.216V473.218C345.006 473.067 344.962 472.92 344.921 472.771C340.869 472.767 336.912 472.185 333.134 471.066ZM241.758 471.07C238.01 472.169 234.086 472.746 230.068 472.752C229.986 473.045 229.902 473.334 229.826 473.628C229.751 473.917 229.674 474.204 229.604 474.493C229.467 475.053 229.35 475.618 229.229 476.18C229.181 476.403 229.131 476.625 229.086 476.847C228.998 477.281 228.909 477.716 228.831 478.152C228.726 478.731 228.64 479.315 228.553 479.897C228.535 480.012 228.518 480.126 228.501 480.241C228.431 480.743 228.355 481.243 228.296 481.746C228.218 482.409 228.164 483.076 228.108 483.743V483.745C228.08 484.078 228.051 484.412 228.029 484.745C234.009 484.526 239.987 485.202 245.827 486.762C245.565 481.221 244.167 475.91 241.758 471.07ZM307.701 477.643C308.496 479.096 309.13 480.625 309.592 482.214C309.91 481.121 310.316 480.062 310.792 479.034C309.732 478.644 308.695 478.19 307.701 477.643ZM267.295 477.624C266.309 478.168 265.281 478.621 264.228 479.01C264.7 480.031 265.086 481.087 265.404 482.17C265.868 480.589 266.502 479.068 267.295 477.624ZM252.543 466.103C249.725 467.937 246.711 469.408 243.555 470.495C245.02 473.492 246.108 476.664 246.807 479.95C247.858 475.014 249.797 470.336 252.543 466.103ZM322.458 466.135C325.168 470.319 327.086 474.937 328.14 479.807C328.833 476.571 329.913 473.446 331.349 470.485C328.23 469.404 325.248 467.946 322.458 466.135ZM314.986 475.691C314.423 476.408 313.919 477.158 313.458 477.931C314.337 478.154 315.229 478.327 316.137 478.437C315.804 477.501 315.41 476.589 314.986 475.691ZM260.015 475.655C259.585 476.561 259.186 477.484 258.848 478.427C259.764 478.315 260.664 478.14 261.548 477.913C261.084 477.134 260.58 476.376 260.015 475.655ZM302.281 462.112C301.192 463.032 300.025 463.832 298.803 464.527C299.836 467.444 301.503 470.124 303.763 472.388C303.767 472.394 303.774 472.398 303.778 472.402C303.784 472.408 303.787 472.415 303.793 472.421C306.053 474.675 308.725 476.34 311.634 477.375C312.329 476.147 313.132 474.974 314.056 473.879C312.692 471.434 311.002 469.167 309.009 467.175L309.013 467.177C307.008 465.172 304.734 463.476 302.281 462.112ZM272.692 462.12C270.247 463.488 267.977 465.182 265.984 467.175L265.982 467.173C263.993 469.162 262.308 471.42 260.944 473.855C261.87 474.95 262.689 476.119 263.386 477.348C266.283 476.312 268.946 474.652 271.194 472.404L271.2 472.408C271.204 472.404 271.209 472.398 271.209 472.398L271.206 472.394C273.47 470.13 275.137 467.448 276.169 464.529C274.948 463.836 273.781 463.04 272.692 462.12ZM340.256 460.969C337.783 463.514 335.698 466.343 334.015 469.379C337.346 470.331 340.817 470.857 344.371 470.909C344.24 470.487 344.104 470.067 343.963 469.647C343.827 469.245 343.692 468.844 343.547 468.444C343.479 468.249 343.411 468.054 343.338 467.861C343.129 467.299 342.904 466.743 342.677 466.186C342.491 465.728 342.308 465.268 342.109 464.814C342.071 464.726 342.033 464.637 341.995 464.549C341.735 463.962 341.456 463.388 341.178 462.811C340.953 462.345 340.734 461.875 340.498 461.415C340.473 461.367 340.449 461.32 340.425 461.272C340.371 461.17 340.312 461.071 340.258 460.969H340.256ZM234.552 461.28C234.524 461.332 234.498 461.384 234.472 461.436C234.243 461.884 234.03 462.339 233.811 462.791C233.554 463.325 233.297 463.86 233.054 464.4C232.924 464.695 232.797 464.993 232.67 465.29C232.546 465.577 232.427 465.869 232.308 466.158C232.111 466.638 231.919 467.118 231.736 467.602C231.557 468.076 231.39 468.555 231.223 469.033C231.113 469.348 231.002 469.666 230.898 469.983L230.9 469.979C230.799 470.283 230.699 470.586 230.605 470.889C234.127 470.839 237.568 470.321 240.871 469.386C239.193 466.393 237.122 463.598 234.665 461.075C234.628 461.145 234.588 461.212 234.552 461.28ZM242.128 450.044C242.094 450.084 242.06 450.126 242.026 450.166C241.564 450.712 241.1 451.259 240.658 451.822C240.435 452.103 240.219 452.396 240 452.683C239.862 452.864 239.73 453.051 239.593 453.236C239.222 453.738 238.847 454.24 238.49 454.755C238.305 455.024 238.125 455.297 237.942 455.57C237.771 455.823 237.611 456.081 237.446 456.336C237.092 456.88 236.736 457.423 236.403 457.977C236.335 458.09 236.268 458.205 236.2 458.317H236.202C235.991 458.671 235.796 459.034 235.593 459.391C238.434 462.23 240.817 465.401 242.691 468.824C247.844 467.09 252.612 464.298 256.726 460.535C251.515 457.523 246.804 453.784 242.685 449.396C242.498 449.609 242.313 449.827 242.128 450.044ZM332.292 449.395C328.194 453.763 323.48 457.506 318.25 460.547C322.348 464.291 327.089 467.076 332.212 468.814C334.093 465.353 336.48 462.144 339.333 459.283C339.134 458.933 338.944 458.576 338.738 458.23C338.7 458.168 338.662 458.104 338.624 458.04C338.278 457.465 337.91 456.902 337.546 456.34C337.363 456.056 337.185 455.771 336.999 455.492C336.834 455.247 336.67 455.002 336.501 454.759C336.146 454.244 335.773 453.742 335.399 453.238C335.321 453.132 335.244 453.025 335.166 452.921C334.848 452.499 334.533 452.075 334.206 451.663C333.896 451.273 333.573 450.893 333.253 450.511C332.936 450.134 332.617 449.763 332.292 449.395ZM277.829 465.369C277.435 466.444 276.971 467.487 276.418 468.491C277.883 467.685 279.429 467.044 281.034 466.578C279.933 466.26 278.866 465.851 277.829 465.371V465.369ZM297.14 465.369C296.105 465.849 295.038 466.258 293.939 466.578C295.54 467.042 297.084 467.679 298.546 468.482C297.996 467.482 297.532 466.44 297.14 465.369ZM287.487 458.266C286.999 458.266 286.506 458.279 286.012 458.303C283.758 458.404 281.455 458.783 279.159 459.42H279.157C279.04 460.848 278.779 462.244 278.406 463.602C281.202 464.934 284.278 465.65 287.476 465.65H287.491C290.691 465.65 293.767 464.932 296.561 463.598C296.187 462.245 295.927 460.853 295.806 459.43C293.592 458.798 291.285 458.418 288.939 458.303C288.461 458.279 287.975 458.266 287.487 458.266ZM277.22 460.041C276.294 460.374 275.39 460.766 274.5 461.188C275.211 461.745 275.955 462.247 276.722 462.703C276.943 461.831 277.112 460.943 277.22 460.041ZM297.747 460.043C297.855 460.943 298.026 461.827 298.247 462.697C299.014 462.239 299.757 461.736 300.466 461.179C299.577 460.76 298.673 460.372 297.747 460.043ZM328.11 445.082C323.738 449.166 320.016 453.887 317.008 459.127C322.233 456.129 326.965 452.4 331.053 448.02C330.907 447.864 330.76 447.705 330.612 447.551C330.439 447.368 330.27 447.182 330.093 447.002C329.939 446.841 329.786 446.679 329.627 446.52C329.466 446.362 329.301 446.206 329.138 446.048C328.801 445.718 328.453 445.401 328.11 445.082ZM246.793 445.164C246.452 445.483 246.104 445.796 245.771 446.124C245.624 446.266 245.477 446.405 245.333 446.55C245.2 446.684 245.07 446.823 244.937 446.958L244.432 447.49C244.265 447.67 244.099 447.849 243.932 448.028C247.99 452.374 252.656 456.059 257.809 459.018C254.846 453.873 251.149 449.208 246.793 445.164ZM257.931 436.934C257.421 437.226 256.913 437.523 256.409 437.831C255.975 438.096 255.548 438.373 255.123 438.648C255.012 438.72 254.9 438.793 254.79 438.865C254.322 439.172 253.853 439.482 253.393 439.803C252.931 440.127 252.477 440.465 252.023 440.801L251.987 440.828C251.469 441.214 250.95 441.598 250.444 442.002C250.034 442.327 249.636 442.666 249.234 443.002L249.23 443C248.871 443.301 248.511 443.606 248.158 443.918C252.547 448.016 256.294 452.722 259.318 457.933C263.081 453.817 265.871 449.051 267.601 443.898C264.174 442.026 261.001 439.643 258.159 436.806C258.082 436.849 258.007 436.892 257.931 436.934ZM316.834 436.814C313.982 439.661 310.798 442.048 307.357 443.923C309.084 449.043 311.856 453.784 315.586 457.885C318.63 452.653 322.37 447.942 326.736 443.844C326.342 443.498 325.944 443.156 325.542 442.823C325.211 442.548 324.884 442.269 324.548 442.002C324.028 441.588 323.495 441.194 322.963 440.799C322.949 440.789 322.935 440.778 322.921 440.768C322.463 440.429 322.007 440.091 321.541 439.765C321.133 439.48 320.719 439.209 320.305 438.936C320.144 438.832 319.983 438.729 319.823 438.625C319.367 438.329 318.909 438.034 318.445 437.751C318.081 437.53 317.714 437.316 317.346 437.103C317.178 437.005 317.005 436.91 316.834 436.814ZM269.283 444.766C268.199 447.923 266.724 450.934 264.893 453.753C265.792 453.173 266.707 452.634 267.637 452.129C267.655 452.121 267.671 452.111 267.689 452.101C268.169 451.842 268.654 451.594 269.142 451.355C269.303 451.277 269.461 451.195 269.622 451.119C269.975 450.952 270.331 450.793 270.687 450.636C270.996 450.5 271.305 450.363 271.619 450.232C271.831 450.146 272.044 450.064 272.259 449.979C272.723 449.796 273.188 449.62 273.658 449.453C273.724 449.429 273.789 449.409 273.853 449.386C275.438 448.834 277.068 448.374 278.735 448.014C275.451 447.315 272.28 446.229 269.283 444.766ZM305.679 444.788C302.692 446.242 299.532 447.323 296.257 448.018C297.935 448.38 299.574 448.845 301.171 449.403C301.213 449.417 301.257 449.431 301.301 449.447C301.794 449.622 302.28 449.807 302.762 449.998C302.955 450.072 303.148 450.146 303.339 450.224C303.674 450.365 304.006 450.511 304.337 450.658C304.671 450.807 305.005 450.953 305.334 451.11C305.519 451.198 305.702 451.291 305.884 451.382C306.348 451.611 306.811 451.843 307.267 452.091C307.311 452.115 307.353 452.139 307.395 452.163C308.297 452.653 309.185 453.178 310.057 453.74C308.233 450.929 306.764 447.93 305.679 444.788ZM291.329 429.224C291.536 435.229 290.857 441.21 289.308 447.04C294.883 446.793 300.231 445.403 305.103 442.99C303.998 439.231 303.435 435.291 303.431 431.263C302.688 431.057 301.941 430.859 301.187 430.68C300.852 430.6 300.515 430.528 300.177 430.454C299.331 430.271 298.483 430.101 297.627 429.954C297.358 429.908 297.087 429.867 296.818 429.825C295.882 429.676 294.941 429.542 293.995 429.439C293.83 429.421 293.665 429.409 293.5 429.393C292.782 429.321 292.059 429.271 291.333 429.224H291.329ZM283.588 429.222C283.094 429.255 282.6 429.291 282.104 429.335C281.646 429.377 281.187 429.413 280.729 429.466C280.06 429.542 279.387 429.639 278.714 429.739C278.704 429.739 278.694 429.743 278.684 429.743C278.162 429.821 277.638 429.9 277.118 429.992C276.541 430.094 275.964 430.21 275.388 430.329C275.249 430.357 275.111 430.388 274.972 430.418C274.43 430.534 273.887 430.65 273.348 430.781C273.029 430.857 272.709 430.942 272.39 431.024C272.095 431.103 271.802 431.189 271.506 431.271L271.5 432.022C271.434 435.78 270.881 439.453 269.853 442.968C274.723 445.386 280.07 446.785 285.643 447.038C284.086 441.222 283.398 435.243 283.588 429.222ZM286.75 429.095C286.313 429.101 285.875 429.114 285.437 429.128H285.439C285.234 435.076 285.927 440.983 287.48 446.722C289.023 440.987 289.708 435.07 289.487 429.128C289.053 429.112 288.619 429.101 288.183 429.095C287.954 429.091 287.727 429.086 287.498 429.086C287.249 429.086 287 429.093 286.75 429.095ZM305.28 431.818C305.332 435.346 305.85 438.795 306.791 442.104C309.798 440.427 312.609 438.353 315.142 435.892C314.783 435.703 314.419 435.517 314.055 435.336C313.828 435.221 313.601 435.112 313.372 435.002C312.886 434.767 312.398 434.534 311.906 434.313C311.568 434.163 311.227 434.015 310.885 433.871C310.592 433.746 310.299 433.628 310.005 433.508C309.453 433.281 308.896 433.057 308.335 432.848C308.143 432.778 307.948 432.71 307.754 432.639C307.359 432.497 306.959 432.362 306.559 432.227L306.557 432.229C306.134 432.087 305.707 431.951 305.28 431.818ZM269.559 431.836C269.386 431.89 269.216 431.948 269.043 432.005C268.638 432.137 268.235 432.282 267.832 432.423C267.273 432.617 266.713 432.812 266.161 433.025C265.909 433.122 265.66 433.225 265.409 433.325C265.067 433.462 264.73 433.604 264.39 433.747C263.856 433.972 263.324 434.198 262.795 434.439C262.522 434.564 262.251 434.696 261.98 434.825C261.667 434.974 261.355 435.126 261.045 435.281L261.043 435.283C260.646 435.48 260.25 435.685 259.856 435.892C262.377 438.341 265.172 440.406 268.166 442.08C269.098 438.775 269.61 435.331 269.656 431.807C269.624 431.817 269.591 431.826 269.559 431.836Z" fill="url(#paint18_radial_810_428)"/>
</g>
</g>
<rect x="0.5" y="0.5" width="575" height="674" rx="23.5" stroke="#D9D9D9" stroke-opacity="0.2" shape-rendering="crispEdges"/>
</g>
<defs>
<filter id="filter0_d_810_428" x="-20" y="-18" width="616" height="715" filterUnits="userSpaceOnUse" color-interpolation-filters="sRGB">
<feFlood flood-opacity="0" result="BackgroundImageFix"/>
<feColorMatrix in="SourceAlpha" type="matrix" values="0 0 0 0 0 0 0 0 0 0 0 0 0 0 0 0 0 0 127 0" result="hardAlpha"/>
<feOffset dy="2"/>
<feGaussianBlur stdDeviation="10"/>
<feComposite in2="hardAlpha" operator="out"/>
<feColorMatrix type="matrix" values="0 0 0 0 0 0 0 0 0 0 0 0 0 0 0 0 0 0 0.06 0"/>
<feBlend mode="normal" in2="BackgroundImageFix" result="effect1_dropShadow_810_428"/>
<feBlend mode="normal" in="SourceGraphic" in2="effect1_dropShadow_810_428" result="shape"/>
</filter>
<filter id="filter1_d_810_428" x="437.545" y="412.599" width="115.478" height="115.478" filterUnits="userSpaceOnUse" color-interpolation-filters="sRGB">
<feFlood flood-opacity="0" result="BackgroundImageFix"/>
<feColorMatrix in="SourceAlpha" type="matrix" values="0 0 0 0 0 0 0 0 0 0 0 0 0 0 0 0 0 0 127 0" result="hardAlpha"/>
<feOffset dy="5.41713"/>
<feGaussianBlur stdDeviation="13.5428"/>
<feComposite in2="hardAlpha" operator="out"/>
<feColorMatrix type="matrix" values="0 0 0 0 0.254902 0 0 0 0 0.184314 0 0 0 0 0.364706 0 0 0 0.1 0"/>
<feBlend mode="normal" in2="BackgroundImageFix" result="effect1_dropShadow_810_428"/>
<feBlend mode="normal" in="SourceGraphic" in2="effect1_dropShadow_810_428" result="shape"/>
</filter>
<filter id="filter2_d_810_428" x="416.397" y="528.138" width="115.478" height="115.478" filterUnits="userSpaceOnUse" color-interpolation-filters="sRGB">
<feFlood flood-opacity="0" result="BackgroundImageFix"/>
<feColorMatrix in="SourceAlpha" type="matrix" values="0 0 0 0 0 0 0 0 0 0 0 0 0 0 0 0 0 0 127 0" result="hardAlpha"/>
<feOffset dy="5.41713"/>
<feGaussianBlur stdDeviation="13.5428"/>
<feComposite in2="hardAlpha" operator="out"/>
<feColorMatrix type="matrix" values="0 0 0 0 0.254902 0 0 0 0 0.184314 0 0 0 0 0.364706 0 0 0 0.1 0"/>
<feBlend mode="normal" in2="BackgroundImageFix" result="effect1_dropShadow_810_428"/>
<feBlend mode="normal" in="SourceGraphic" in2="effect1_dropShadow_810_428" result="shape"/>
</filter>
<filter id="filter3_d_810_428" x="42.1985" y="528.138" width="115.478" height="115.478" filterUnits="userSpaceOnUse" color-interpolation-filters="sRGB">
<feFlood flood-opacity="0" result="BackgroundImageFix"/>
<feColorMatrix in="SourceAlpha" type="matrix" values="0 0 0 0 0 0 0 0 0 0 0 0 0 0 0 0 0 0 127 0" result="hardAlpha"/>
<feOffset dy="5.41713"/>
<feGaussianBlur stdDeviation="13.5428"/>
<feComposite in2="hardAlpha" operator="out"/>
<feColorMatrix type="matrix" values="0 0 0 0 0.254902 0 0 0 0 0.184314 0 0 0 0 0.364706 0 0 0 0.1 0"/>
<feBlend mode="normal" in2="BackgroundImageFix" result="effect1_dropShadow_810_428"/>
<feBlend mode="normal" in="SourceGraphic" in2="effect1_dropShadow_810_428" result="shape"/>
</filter>
<filter id="filter4_d_810_428" x="22.0813" y="412.599" width="115.478" height="113.902" filterUnits="userSpaceOnUse" color-interpolation-filters="sRGB">
<feFlood flood-opacity="0" result="BackgroundImageFix"/>
<feColorMatrix in="SourceAlpha" type="matrix" values="0 0 0 0 0 0 0 0 0 0 0 0 0 0 0 0 0 0 127 0" result="hardAlpha"/>
<feOffset dy="5.41713"/>
<feGaussianBlur stdDeviation="13.5428"/>
<feComposite in2="hardAlpha" operator="out"/>
<feColorMatrix type="matrix" values="0 0 0 0 0.254902 0 0 0 0 0.184314 0 0 0 0 0.364706 0 0 0 0.1 0"/>
<feBlend mode="normal" in2="BackgroundImageFix" result="effect1_dropShadow_810_428"/>
<feBlend mode="normal" in="SourceGraphic" in2="effect1_dropShadow_810_428" result="shape"/>
</filter>
<filter id="filter5_d_810_428" x="386.459" y="295.88" width="115.478" height="115.056" filterUnits="userSpaceOnUse" color-interpolation-filters="sRGB">
<feFlood flood-opacity="0" result="BackgroundImageFix"/>
<feColorMatrix in="SourceAlpha" type="matrix" values="0 0 0 0 0 0 0 0 0 0 0 0 0 0 0 0 0 0 127 0" result="hardAlpha"/>
<feOffset dy="5.41713"/>
<feGaussianBlur stdDeviation="13.5428"/>
<feComposite in2="hardAlpha" operator="out"/>
<feColorMatrix type="matrix" values="0 0 0 0 0.254902 0 0 0 0 0.184314 0 0 0 0 0.364706 0 0 0 0.1 0"/>
<feBlend mode="normal" in2="BackgroundImageFix" result="effect1_dropShadow_810_428"/>
<feBlend mode="normal" in="SourceGraphic" in2="effect1_dropShadow_810_428" result="shape"/>
</filter>
<filter id="filter6_d_810_428" x="76.3147" y="295.88" width="115.478" height="115.478" filterUnits="userSpaceOnUse" color-interpolation-filters="sRGB">
<feFlood flood-opacity="0" result="BackgroundImageFix"/>
<feColorMatrix in="SourceAlpha" type="matrix" values="0 0 0 0 0 0 0 0 0 0 0 0 0 0 0 0 0 0 127 0" result="hardAlpha"/>
<feOffset dy="5.41713"/>
<feGaussianBlur stdDeviation="13.5428"/>
<feComposite in2="hardAlpha" operator="out"/>
<feColorMatrix type="matrix" values="0 0 0 0 0.152941 0 0 0 0 0.286275 0 0 0 0 0.686275 0 0 0 0.1 0"/>
<feBlend mode="normal" in2="BackgroundImageFix" result="effect1_dropShadow_810_428"/>
<feBlend mode="normal" in="SourceGraphic" in2="effect1_dropShadow_810_428" result="shape"/>
</filter>
<filter id="filter7_d_810_428" x="76.3147" y="295.88" width="115.478" height="115.478" filterUnits="userSpaceOnUse" color-interpolation-filters="sRGB">
<feFlood flood-opacity="0" result="BackgroundImageFix"/>
<feColorMatrix in="SourceAlpha" type="matrix" values="0 0 0 0 0 0 0 0 0 0 0 0 0 0 0 0 0 0 127 0" result="hardAlpha"/>
<feOffset dy="5.41713"/>
<feGaussianBlur stdDeviation="13.5428"/>
<feComposite in2="hardAlpha" operator="out"/>
<feColorMatrix type="matrix" values="0 0 0 0 0.254902 0 0 0 0 0.184314 0 0 0 0 0.364706 0 0 0 0.1 0"/>
<feBlend mode="normal" in2="BackgroundImageFix" result="effect1_dropShadow_810_428"/>
<feBlend mode="normal" in="SourceGraphic" in2="effect1_dropShadow_810_428" result="shape"/>
</filter>
<linearGradient id="paint0_linear_810_428" x1="311.828" y1="236.673" x2="337.274" y2="709.295" gradientUnits="userSpaceOnUse">
<stop stop-color="white" stop-opacity="0.5"/>
<stop offset="1" stop-color="white" stop-opacity="0"/>
</linearGradient>
<linearGradient id="paint1_linear_810_428" x1="498.73" y1="427.719" x2="502.542" y2="498.514" gradientUnits="userSpaceOnUse">
<stop stop-color="white" stop-opacity="0.5"/>
<stop offset="1" stop-color="white" stop-opacity="0.1"/>
</linearGradient>
<linearGradient id="paint2_linear_810_428" x1="477.583" y1="543.259" x2="481.394" y2="614.053" gradientUnits="userSpaceOnUse">
<stop stop-color="white" stop-opacity="0.5"/>
<stop offset="1" stop-color="white" stop-opacity="0.1"/>
</linearGradient>
<linearGradient id="paint3_linear_810_428" x1="103.384" y1="543.259" x2="107.195" y2="614.053" gradientUnits="userSpaceOnUse">
<stop stop-color="white" stop-opacity="0.5"/>
<stop offset="1" stop-color="white" stop-opacity="0.1"/>
</linearGradient>
<linearGradient id="paint4_linear_810_428" x1="306.533" y1="288.057" x2="326.846" y2="665.349" gradientUnits="userSpaceOnUse">
<stop stop-color="white" stop-opacity="0.5"/>
<stop offset="1" stop-color="white" stop-opacity="0"/>
</linearGradient>
<linearGradient id="paint5_linear_810_428" x1="199.499" y1="251.5" x2="256.985" y2="346.725" gradientUnits="userSpaceOnUse">
<stop stop-color="#8636FE"/>
<stop offset="0.25" stop-color="#E8D9FF"/>
<stop offset="0.514423" stop-color="#9C59FF"/>
<stop offset="0.706731" stop-color="#B07DFF"/>
<stop offset="1" stop-color="#502098"/>
</linearGradient>
<radialGradient id="paint6_radial_810_428" cx="0" cy="0" r="1" gradientUnits="userSpaceOnUse" gradientTransform="translate(201 298.5) rotate(-11.1888) scale(92.7631 70.789)">
<stop stop-color="#D8BEFF"/>
<stop offset="0.558487" stop-color="#8636FE"/>
<stop offset="1" stop-color="#502098"/>
</radialGradient>
<linearGradient id="paint7_linear_810_428" x1="203.5" y1="250.5" x2="286.5" y2="339.5" gradientUnits="userSpaceOnUse">
<stop stop-color="#B787FF"/>
<stop offset="0.221154" stop-color="white"/>
<stop offset="0.490385" stop-color="#D7BDFF"/>
<stop offset="0.723874" stop-color="white"/>
<stop offset="1" stop-color="#8651D5"/>
</linearGradient>
<linearGradient id="paint8_linear_810_428" x1="83.2666" y1="427.887" x2="86.8853" y2="496.872" gradientUnits="userSpaceOnUse">
<stop stop-color="white" stop-opacity="0.5"/>
<stop offset="1" stop-color="white" stop-opacity="0.1"/>
</linearGradient>
<linearGradient id="paint9_linear_810_428" x1="447.645" y1="311.045" x2="451.404" y2="381.355" gradientUnits="userSpaceOnUse">
<stop stop-color="white" stop-opacity="0.5"/>
<stop offset="1" stop-color="white" stop-opacity="0.1"/>
</linearGradient>
<linearGradient id="paint10_linear_810_428" x1="134.514" y1="435.656" x2="125.551" y2="269.197" gradientUnits="userSpaceOnUse">
<stop stop-color="#3C60FF"/>
<stop offset="0.436206" stop-color="#87A3FF"/>
<stop offset="1" stop-color="white"/>
</linearGradient>
<linearGradient id="paint11_linear_810_428" x1="301.761" y1="339.567" x2="316.87" y2="620.187" gradientUnits="userSpaceOnUse">
<stop stop-color="white" stop-opacity="0.5"/>
<stop offset="1" stop-color="white" stop-opacity="0"/>
</linearGradient>
<linearGradient id="paint12_linear_810_428" x1="137.5" y1="311" x2="141.312" y2="381.795" gradientUnits="userSpaceOnUse">
<stop stop-color="white" stop-opacity="0.5"/>
<stop offset="1" stop-color="white" stop-opacity="0.1"/>
</linearGradient>
<linearGradient id="paint13_linear_810_428" x1="171.573" y1="447.041" x2="174.155" y2="494.996" gradientUnits="userSpaceOnUse">
<stop stop-color="white" stop-opacity="0.5"/>
<stop offset="1" stop-color="white" stop-opacity="0.1"/>
</linearGradient>
<linearGradient id="paint14_linear_810_428" x1="413.573" y1="446.565" x2="416.154" y2="494.513" gradientUnits="userSpaceOnUse">
<stop stop-color="white" stop-opacity="0.5"/>
<stop offset="1" stop-color="white" stop-opacity="0.1"/>
</linearGradient>
<linearGradient id="paint15_linear_810_428" x1="355.078" y1="324.134" x2="309.421" y2="399.764" gradientUnits="userSpaceOnUse">
<stop stop-color="#8636FE"/>
<stop offset="0.25" stop-color="#E8D9FF"/>
<stop offset="0.514423" stop-color="#9C59FF"/>
<stop offset="0.706731" stop-color="#B07DFF"/>
<stop offset="1" stop-color="#502098"/>
</linearGradient>
<radialGradient id="paint16_radial_810_428" cx="0" cy="0" r="1" gradientUnits="userSpaceOnUse" gradientTransform="translate(353.887 361.462) rotate(-168.811) scale(73.6752 56.2227)">
<stop stop-color="#D8BEFF"/>
<stop offset="0.558487" stop-color="#8636FE"/>
<stop offset="1" stop-color="#502098"/>
</radialGradient>
<linearGradient id="paint17_linear_810_428" x1="351.901" y1="323.339" x2="285.98" y2="394.026" gradientUnits="userSpaceOnUse">
<stop stop-color="#B787FF"/>
<stop offset="0.221154" stop-color="white"/>
<stop offset="0.490385" stop-color="#D7BDFF"/>
<stop offset="0.723874" stop-color="white"/>
<stop offset="1" stop-color="#8651D5"/>
</linearGradient>
<radialGradient id="paint18_radial_810_428" cx="0" cy="0" r="1" gradientUnits="userSpaceOnUse" gradientTransform="translate(287.489 427) rotate(90) scale(140.5 140.487)">
<stop stop-color="white"/>
<stop offset="0.9799" stop-color="white" stop-opacity="0"/>
</radialGradient>
<clipPath id="clip0_810_428">
<rect width="576" height="675" rx="24" fill="white"/>
</clipPath>
<clipPath id="clip1_810_428">
<rect width="88.0599" height="104.833" fill="white" transform="translate(195.896 240)"/>
</clipPath>
<clipPath id="clip2_810_428">
<rect width="40.0851" height="27.2282" fill="white" transform="translate(59.7783 450.519)"/>
</clipPath>
<clipPath id="clip3_810_428">
<rect width="24.8237" height="24.8237" fill="white" transform="translate(398.376 459.801)"/>
</clipPath>
<clipPath id="clip4_810_428">
<rect width="69.9398" height="83.2616" fill="white" transform="matrix(-1 0 0 1 357.94 315)"/>
</clipPath>
</defs>
</svg>
