<svg width="135" height="51" viewBox="0 0 135 51" fill="none" xmlns="http://www.w3.org/2000/svg">
<g clip-path="url(#clip0_741_1188)">
<path d="M73.1203 21.114H70.2588V15.8801H64.8442V21.114H61.9834V8.16623H64.8442V13.4273H70.2588V8.16623H73.1203V21.114Z" fill="white"/>
<path d="M77.072 10.0872H74.3057V7.71484H77.072V10.0872ZM77.045 21.1158H74.3327V11.133H77.045V21.1158Z" fill="white"/>
<path d="M88.1587 11.1322V19.7794C88.1587 22.8537 86.1935 24.8188 83.0922 24.8188C80.1995 24.8188 78.1891 23.1524 78.1891 20.771H80.8924C80.8924 21.921 81.7888 22.7083 83.052 22.7083C84.5371 22.7083 85.4466 21.5994 85.4466 19.7933V17.5655C85.0025 19.5307 83.7982 20.6626 82.0556 20.6626C79.7151 20.6626 78.0537 18.6302 78.0537 15.7234C78.0537 12.8167 79.7151 10.8613 82.0556 10.8613C83.7982 10.8613 85.0025 11.9432 85.4466 13.8904V11.133L88.1587 11.1322ZM83.0652 13.1918C81.5801 13.1918 80.784 14.016 80.784 15.7226C80.784 17.4292 81.5801 18.3256 83.0652 18.3256C84.5502 18.3256 85.4466 17.3791 85.4466 15.7226C85.4466 14.0661 84.5953 13.1918 83.0652 13.1918Z" fill="white"/>
<path d="M92.0375 21.115H89.3252V7.71484H92.0375V14.13C92.4587 12.0204 93.6947 10.8613 95.5459 10.8613C97.6966 10.8613 98.8598 12.4275 98.8598 15.3162V21.1157H96.1477V15.7694C96.1477 14.0669 95.514 13.2205 94.2095 13.2205C92.8248 13.2205 92.0367 14.1621 92.0367 15.8777V21.1157L92.0375 21.115Z" fill="white"/>
<path d="M68.2764 40.6788C70.01 40.6788 71.0747 39.6602 71.4186 37.6547H74.2614C73.7721 41.064 71.518 43.1326 68.2713 43.1326C64.5815 43.1326 61.9834 40.4532 61.9834 36.3873C61.9834 32.3214 64.5815 29.642 68.2713 29.642C71.518 29.642 73.7721 31.7116 74.2614 35.1199H71.4186C71.0747 33.1102 70.0108 32.0957 68.2764 32.0957C66.1034 32.0957 64.863 33.6217 64.863 36.3873C64.863 39.1529 66.1034 40.6788 68.2764 40.6788Z" fill="white"/>
<path d="M78.1345 31.8329H75.3682V29.4604H78.1345V31.8329ZM78.1073 42.8615H75.3952V32.8787H78.1073V42.8615Z" fill="white"/>
<path d="M81.9797 42.862H79.2676V32.8792H81.9797V36.3475C82.3376 34.2107 83.3605 32.8792 85.3167 32.8792H85.9092V35.428H84.8634C82.6406 35.428 81.9797 36.3336 81.9797 38.3028V42.862Z" fill="white"/>
<path d="M91.4427 40.7697C92.6789 40.7697 93.3217 39.9999 93.5301 38.9178H96.2326C95.9197 41.3854 94.1138 43.1323 91.4386 43.1323C88.4554 43.1323 86.377 41.0496 86.377 37.8672C86.377 34.6846 88.4546 32.607 91.4386 32.607C94.1146 32.607 95.9205 34.3496 96.2326 36.8213H93.5301C93.3265 35.7394 92.6789 34.9694 91.4427 34.9694C89.9715 34.9694 89.1073 36.0202 89.1073 37.8672C89.1073 39.7141 89.9715 40.7697 91.4427 40.7697Z" fill="white"/>
<path d="M99.9025 42.8615H97.1904V29.4605H99.9025V42.8615Z" fill="white"/>
<path d="M110.69 39.4793C110.147 41.7515 108.327 43.1323 105.901 43.1323C102.89 43.1323 100.857 41.0045 100.857 37.858C100.857 34.7116 102.867 32.6069 105.847 32.6069C108.827 32.6069 110.736 34.6796 110.736 37.8448C110.736 38.0846 110.727 38.3293 110.7 38.583H103.479C103.651 40.0768 104.565 40.9642 105.978 40.9642C107.038 40.9642 107.749 40.466 108.147 39.4793H110.691H110.69ZM108.132 36.9075C107.906 35.4816 107.131 34.7396 105.86 34.7396C104.588 34.7396 103.727 35.5277 103.506 36.9075H108.132Z" fill="white"/>
<path d="M50.2019 23.8812C50.2019 23.8812 50.2019 23.8786 50.2019 23.8778L50.1839 23.5634C50.1741 23.3985 50.1528 23.2351 50.1396 23.071C50.115 22.7632 50.0887 22.4553 50.0527 22.1491C50.0444 22.0827 50.0419 22.0161 50.0337 21.9505C50.0182 21.8241 49.9919 21.7001 49.9737 21.5736C49.9287 21.2535 49.8795 20.9342 49.8219 20.6172C49.7874 20.4294 49.7496 20.2421 49.711 20.0542C49.6487 19.7504 49.5823 19.4484 49.5083 19.1479C49.4648 18.9698 49.4213 18.7917 49.3737 18.6144C49.3737 18.6144 49.3737 18.6127 49.3737 18.6119H49.3835L49.2466 18.1358C49.2129 18.02 49.1702 17.9076 49.1357 17.7919C49.0454 17.4939 48.9502 17.1975 48.8483 16.9036C48.7835 16.7157 48.7163 16.5293 48.6464 16.3438C48.5249 16.0163 48.3968 15.692 48.2622 15.3702C48.2023 15.2282 48.1408 15.0878 48.0783 14.9467C47.9208 14.5896 47.7558 14.2374 47.5809 13.8885C47.5276 13.781 47.4726 13.6743 47.4168 13.5684C47.3149 13.3714 47.2215 13.1703 47.1139 12.9765C47.1139 12.9749 47.1122 12.9741 47.1114 12.9724L46.8741 12.5439L46.8626 12.5546C46.8487 12.53 46.834 12.5062 46.8191 12.4815C46.7658 12.3904 46.7116 12.2993 46.6575 12.209C46.4612 11.8839 46.2585 11.5638 46.0483 11.2478C45.9556 11.1082 45.862 10.9686 45.7668 10.8307C45.5903 10.5771 45.4089 10.3292 45.2242 10.0829C45.0855 9.89741 44.9468 9.7127 44.803 9.53129C44.6669 9.36055 44.5272 9.19391 44.3869 9.02726C44.1858 8.78675 43.9846 8.54704 43.7744 8.31391L43.7187 8.25154C43.5603 8.07339 43.3912 7.90266 43.2253 7.72945C43.1095 7.60878 43.0004 7.48235 42.8821 7.36415C42.8304 7.31244 42.7746 7.26564 42.7221 7.21393C42.4766 6.97259 42.228 6.73372 41.9726 6.50551C41.9726 6.50551 41.9718 6.50551 41.971 6.50469C41.971 6.50469 41.971 6.50469 41.9693 6.50386L41.8766 6.42096C41.8241 6.37417 41.7757 6.32245 41.7222 6.27647C41.5401 6.11559 41.3471 5.96701 41.16 5.81186C41.0147 5.69119 40.8711 5.56806 40.7232 5.45066C40.5698 5.32837 40.4147 5.20932 40.2585 5.09112C40.1937 5.04188 40.1273 4.99673 40.0617 4.94828C39.8621 4.80052 39.6626 4.65358 39.4599 4.51158C39.2662 4.37695 39.0701 4.24643 38.873 4.11755C38.6366 3.96241 38.3994 3.81137 38.1588 3.66442C37.9939 3.56428 37.8279 3.46414 37.6605 3.36727L37.6679 3.35906L37.2344 3.11935C37.1137 3.05287 36.9891 2.99624 36.8675 2.93138C36.641 2.81153 36.4136 2.69414 36.1829 2.58085C35.9276 2.45527 35.6698 2.3346 35.4105 2.21802C35.2013 2.12362 34.9911 2.03252 34.7793 1.94385C34.4919 1.82401 34.2022 1.71072 33.9107 1.60154C33.726 1.53259 33.5421 1.46528 33.3558 1.40125C33.0135 1.28222 32.6688 1.17222 32.3223 1.06879C32.2525 1.04827 32.1836 1.022 32.1138 1.00148C32.1138 1.00148 32.1138 1.00148 32.113 1.00148L31.6376 0.865211V0.869317C31.3932 0.803645 31.1477 0.745364 30.9015 0.687081C30.7512 0.651783 30.6002 0.618125 30.4492 0.58529C30.1003 0.509769 29.7496 0.439174 29.3974 0.378428C29.2777 0.357905 29.1571 0.339846 29.0364 0.320966C28.6464 0.2594 28.2566 0.2044 27.8642 0.160893C27.7894 0.152684 27.7139 0.146938 27.6391 0.13955C27.2287 0.0976853 26.8183 0.0623873 26.4054 0.0410443L26.3143 0.0369398C26.242 0.0336563 26.1682 0.034477 26.0959 0.0311935C25.7709 0.0188803 25.4465 0 25.1215 0C24.8169 0 24.5141 0.0180595 24.2103 0.028731C24.1693 0.0303728 24.1292 0.0303728 24.0888 0.0320145C24.024 0.034477 23.9599 0.0336563 23.8958 0.0369398L23.7564 0.0435068C23.6825 0.0476113 23.6079 0.0459695 23.5331 0.0508948C23.3048 0.0656708 23.0792 0.0952226 22.8518 0.115745C22.6572 0.132983 22.4635 0.149401 22.269 0.170744C22.0655 0.193729 21.8617 0.219176 21.659 0.247907C21.5787 0.2594 21.4989 0.274176 21.4184 0.286489C21.1943 0.320145 20.9702 0.353801 20.7461 0.393204C20.4834 0.439174 20.2233 0.490889 19.9622 0.545889C19.6946 0.601708 19.427 0.661632 19.1586 0.725661C18.9747 0.77081 18.7909 0.815959 18.6078 0.865211C18.598 0.867676 18.5889 0.870138 18.5791 0.8726V0.854541L18.1021 0.99327C17.9216 1.04581 17.7459 1.11148 17.5669 1.16812C17.411 1.21737 17.255 1.26827 17.0998 1.3208C16.7764 1.42998 16.4555 1.54573 16.1378 1.66804C15.9473 1.74109 15.7577 1.81662 15.5689 1.8946C15.284 2.01199 15.0025 2.1343 14.7226 2.26235C14.519 2.35511 14.3179 2.45033 14.1167 2.54884C13.8368 2.68593 13.561 2.82795 13.2868 2.97488C13.1949 3.02413 13.0997 3.06682 13.0086 3.11773C13.0069 3.11853 13.0053 3.11935 13.0036 3.12018L12.5743 3.35824L12.5801 3.36398C12.3945 3.47152 12.2115 3.58152 12.0284 3.69316C11.8117 3.82614 11.5975 3.96323 11.3832 4.10278C11.1722 4.24069 10.9621 4.38024 10.7552 4.52389C10.5525 4.66508 10.3538 4.81202 10.1552 4.95978C9.93927 5.11986 9.72338 5.28075 9.5124 5.44821C9.33428 5.58941 9.16107 5.73635 8.98622 5.88328C8.81711 6.02446 8.6439 6.15992 8.47891 6.30604L8.22527 6.53505C7.97899 6.75752 7.73766 6.9923 7.49714 7.2287C7.45117 7.27385 7.40192 7.31491 7.35677 7.36086C7.31736 7.40028 7.28206 7.44214 7.24349 7.48153C6.99721 7.7311 6.75259 7.98473 6.51536 8.24578L6.28468 8.50026V8.5019C6.18701 8.61354 6.09671 8.73174 5.99984 8.84585C5.79216 9.08883 5.58612 9.33428 5.38664 9.58792C5.27501 9.72912 5.16829 9.8736 5.05994 10.0173C4.86127 10.2816 4.66508 10.5484 4.47464 10.8225C4.37039 10.9728 4.26942 11.1246 4.16844 11.2765C3.97308 11.5712 3.78346 11.87 3.59793 12.1754C3.53227 12.2845 3.46659 12.3937 3.40257 12.5037C3.38451 12.5349 3.36563 12.5653 3.34757 12.5965L3.33444 12.5842L3.09555 13.0192C2.99704 13.1982 2.91249 13.3837 2.81892 13.5643C2.75653 13.685 2.69578 13.8056 2.63504 13.9271C2.47907 14.2415 2.32966 14.5576 2.18684 14.8777C2.09653 15.0796 2.00952 15.2824 1.92497 15.486C1.82318 15.7314 1.72468 15.9785 1.6311 16.2272C1.52602 16.5047 1.4267 16.7838 1.33147 17.0645C1.26663 17.2558 1.20424 17.4479 1.14431 17.6408C1.09424 17.8025 1.03513 17.9609 0.987523 18.1235L0.849615 18.5996H0.866032C0.86439 18.6062 0.862749 18.6127 0.861107 18.6193C0.815138 18.79 0.771631 18.9616 0.729767 19.1332C0.655887 19.4361 0.589394 19.7398 0.527007 20.0443C0.483502 20.2544 0.441636 20.4654 0.403054 20.6764C0.35298 20.9589 0.309473 21.2411 0.269251 21.5236C0.237235 21.7477 0.203579 21.9701 0.177311 22.1951C0.144476 22.4758 0.12067 22.7558 0.0976853 23.0365C0.0837303 23.2047 0.0607455 23.3722 0.050074 23.5413H0.0476113L0.0311935 23.8837C0.0172386 24.1734 0.0155968 24.4541 0.0123133 24.7374C0.0106715 24.8653 0 24.9926 0 25.12C0 25.9186 0.0508948 26.7149 0.126416 27.5071C0.140371 27.6564 0.152685 27.805 0.169102 27.9535C0.181415 28.0628 0.186341 28.1735 0.200296 28.2828C0.223281 28.4634 0.258579 28.6407 0.285668 28.8203C0.320145 29.0585 0.356263 29.2958 0.398129 29.5322C0.441636 29.7751 0.490068 30.0172 0.540141 30.2586C0.5935 30.513 0.649319 30.7667 0.710064 31.0188C0.758496 31.219 0.806109 31.4186 0.859466 31.6172H0.852079L0.987523 32.0925C1.01708 32.1959 1.05566 32.2968 1.08603 32.4002C1.17633 32.6991 1.27073 32.9963 1.3717 33.2917C1.44722 33.5127 1.52602 33.7309 1.60811 33.9493C1.70908 34.2185 1.81333 34.4853 1.92333 34.7505C2.01528 34.973 2.11132 35.193 2.20982 35.412C2.27221 35.5509 2.32557 35.6929 2.39041 35.8299C2.44788 35.9515 2.51437 36.0681 2.57347 36.1887C2.68019 36.4062 2.79018 36.6213 2.90346 36.8348C2.97324 36.9668 3.03563 37.1039 3.10787 37.2344C3.10787 37.2344 3.10787 37.2344 3.10787 37.2362L3.34592 37.6679L3.35495 37.6597C3.46659 37.8526 3.58234 38.0422 3.69891 38.2327C3.81055 38.414 3.92464 38.5939 4.04039 38.7719C4.21195 39.0364 4.3868 39.2981 4.56822 39.5569C4.66508 39.6938 4.76442 39.8286 4.86374 39.9639C5.06568 40.239 5.27007 40.5122 5.48269 40.779C5.57297 40.8923 5.66657 41.0023 5.75933 41.1132C5.92842 41.3175 6.09014 41.5269 6.26582 41.7264C6.30357 41.7698 6.34543 41.8092 6.38402 41.8519L6.50469 41.9841C6.57364 42.0596 6.64342 42.1269 6.71237 42.2008C6.92579 42.4308 7.1343 42.6654 7.35677 42.888C7.7311 43.2623 8.1169 43.6243 8.51421 43.974C8.7728 44.2014 9.04203 44.4147 9.30966 44.6306C9.3351 44.6512 9.35973 44.6725 9.38517 44.6931C9.68808 44.9368 9.99754 45.1709 10.3119 45.3999C10.4326 45.4884 10.5525 45.5764 10.6748 45.6626C10.935 45.8455 11.2002 46.022 11.4669 46.1952C11.6336 46.3037 11.8002 46.4095 11.9693 46.5137C12.1647 46.6336 12.3592 46.7543 12.5571 46.8685L12.5538 46.8716L12.9856 47.1114C13.0677 47.1574 13.1538 47.196 13.2368 47.241C13.529 47.3978 13.8229 47.5506 14.1217 47.6959C14.3285 47.7968 14.5379 47.8938 14.7472 47.9897C15.0025 48.1055 15.2594 48.2187 15.5188 48.3255C15.7569 48.424 15.9974 48.5184 16.2387 48.6095C16.485 48.703 16.7329 48.7933 16.9825 48.8787C17.2369 48.9657 17.4922 49.0477 17.7492 49.1267C17.8838 49.1676 18.016 49.2178 18.1514 49.2564L18.6267 49.3935V49.3827C18.8393 49.4393 19.0535 49.4895 19.2678 49.5412C19.4648 49.588 19.6627 49.6323 19.8605 49.6742C20.1824 49.7432 20.5048 49.8064 20.8292 49.8621C20.9661 49.886 21.104 49.9065 21.2419 49.9279C21.6139 49.9861 21.9865 50.0378 22.3609 50.0797C22.4519 50.0895 22.5422 50.0969 22.6333 50.1059C23.0241 50.1445 23.4157 50.1798 23.8089 50.2004L23.9025 50.2053C24.2285 50.2209 24.5388 50.2292 24.8432 50.2333C24.936 50.2341 25.0279 50.2423 25.1207 50.2423C25.3505 50.2423 25.5803 50.2266 25.8103 50.2201C25.9909 50.2143 26.1797 50.215 26.3552 50.2053L26.4414 50.2004C26.5302 50.1955 26.6187 50.1978 26.7067 50.1921C26.9701 50.1757 27.2321 50.142 27.4947 50.1167C27.6532 50.1018 27.8115 50.0887 27.9692 50.0715C28.1572 50.0501 28.3451 50.0272 28.5332 50.0017C28.6333 49.9878 28.7318 49.9688 28.8311 49.9541C29.0766 49.9179 29.3204 49.8803 29.5633 49.8376C29.78 49.7982 29.9959 49.7555 30.2117 49.7102C30.5181 49.6472 30.8225 49.5798 31.1256 49.5051C31.2962 49.4632 31.4662 49.4197 31.6361 49.3737V49.3876L32.1123 49.2497C32.2656 49.2054 32.4151 49.1496 32.5669 49.102C32.7812 49.0356 32.9938 48.9674 33.2055 48.8951C33.4864 48.7999 33.7646 48.6989 34.0422 48.5931C34.2686 48.5069 34.4927 48.4182 34.7168 48.3263C34.9638 48.2236 35.2085 48.1169 35.4524 48.007C35.7043 47.8928 35.9539 47.7754 36.2026 47.654C36.4128 47.5506 36.6205 47.4438 36.8273 47.3347C36.9701 47.2591 37.1171 47.1927 37.2583 47.1139L37.6918 46.8741L37.6818 46.8644C37.8411 46.7715 37.9988 46.6763 38.1563 46.5803C38.4001 46.4308 38.6415 46.2782 38.8812 46.1206C39.0822 45.9883 39.2826 45.8545 39.4797 45.7166C39.684 45.5738 39.8852 45.4261 40.0854 45.2767C40.2989 45.1182 40.5107 44.9599 40.7191 44.7948C40.903 44.6486 41.0821 44.4968 41.2625 44.3458C41.4217 44.212 41.5861 44.0847 41.7428 43.9468L41.9965 43.7178C42.658 43.1178 43.2253 42.5497 43.7285 41.9857C43.7285 41.9857 43.7293 41.9849 43.7301 41.9841L43.9231 41.7675C44.0471 41.627 44.1628 41.4801 44.2843 41.3365C44.4747 41.1115 44.6643 40.8874 44.8457 40.6568C44.9689 40.4999 45.087 40.3406 45.2069 40.1814C45.4022 39.9212 45.5952 39.6593 45.7799 39.3935C45.8818 39.2464 45.9801 39.0971 46.0796 38.9477C46.2626 38.6718 46.4399 38.3937 46.6107 38.1112C46.701 37.9625 46.7905 37.8132 46.8775 37.6622L46.8865 37.6704L47.1261 37.2362C47.1911 37.1196 47.2452 36.9982 47.3084 36.8798C47.4446 36.6238 47.5768 36.3652 47.7041 36.1041C47.7944 35.9178 47.8822 35.7315 47.9676 35.5435C48.1153 35.2216 48.2558 34.8974 48.3886 34.5691C48.4395 34.4436 48.4889 34.3178 48.538 34.1914C48.6908 33.7983 48.8336 33.4026 48.9657 33.002C48.9888 32.9315 49.0117 32.8608 49.0338 32.7902C49.1094 32.5554 49.1931 32.324 49.2613 32.0876L49.3984 31.6114H49.3827C49.3984 31.5514 49.4131 31.4925 49.428 31.4325C49.4362 31.3996 49.4444 31.3669 49.4534 31.3332C49.5682 30.8791 49.6701 30.4227 49.7596 29.9647C49.7735 29.8917 49.7882 29.8186 49.8023 29.7455C49.8785 29.3326 49.9434 28.9181 49.9992 28.5036C50.0156 28.3845 50.0329 28.2663 50.0468 28.1472C50.0879 27.8017 50.1191 27.4569 50.1453 27.1106C50.1577 26.9513 50.1765 26.7921 50.1857 26.6328L50.2019 26.3462C50.2495 25.5286 50.2495 24.6963 50.2019 23.8778V23.8812ZM48.6366 18.8048C48.6842 18.9805 48.7302 19.157 48.7737 19.3343C48.8262 19.5518 48.873 19.7702 48.9198 19.9894C48.9435 20.0985 48.9682 20.2076 48.9903 20.3177C49.0199 20.4646 49.0503 20.6108 49.0765 20.7577C49.1218 21.008 49.1586 21.2601 49.1964 21.5121C49.208 21.5908 49.2211 21.669 49.2325 21.7477C49.2556 21.9127 49.281 22.0768 49.2999 22.2427C49.3343 22.5309 49.3582 22.8206 49.3819 23.1103C49.3827 23.1211 49.3835 23.1309 49.3845 23.1415C49.3943 23.2647 49.4049 23.3869 49.4131 23.5109C46.966 23.4345 44.5223 23.7145 42.1269 24.3482C42.2296 22.085 42.7918 19.9089 43.7695 17.9265C45.3129 18.3837 46.93 18.6218 48.5856 18.6234C48.6021 18.6842 48.6201 18.7441 48.6366 18.8056V18.8048ZM25.12 41.3659C16.1649 41.3659 8.8795 34.0806 8.8795 25.1256C8.8795 16.1706 16.1649 8.88524 25.12 8.88524C34.0749 8.88524 41.3602 16.1706 41.3602 25.1256C41.3602 34.0806 34.0749 41.3659 25.12 41.3659ZM34.3147 39.427C33.5832 40.5624 32.9946 41.7757 32.5571 43.0455C31.352 42.4594 30.0797 42.0194 28.7614 41.7338C30.7389 41.3044 32.6145 40.5253 34.3147 39.427ZM21.4727 41.732C20.1634 42.0161 18.8984 42.4545 17.6999 43.0372C17.2624 41.7773 16.6763 40.5722 15.949 39.4427C17.6416 40.5312 19.5067 41.3044 21.4727 41.732ZM8.49697 28.7022C8.92136 30.6928 9.69958 32.5808 10.7996 34.2925C9.6651 33.5626 8.45264 32.9757 7.18356 32.5399C7.7746 31.3224 8.21377 30.0352 8.49697 28.7022ZM8.49615 21.5563C8.21048 20.2135 7.76557 18.9181 7.16715 17.6933C8.45675 17.2492 9.68808 16.6483 10.8398 15.8989C9.71764 17.6285 8.92548 19.5395 8.49615 21.5563ZM15.8849 10.8545C16.6336 9.70202 17.2361 8.4707 17.6794 7.18027C18.9041 7.77787 20.1996 8.22198 21.5416 8.50764C20.8603 8.65458 20.1945 8.84256 19.5469 9.0683C19.5206 9.07733 19.4944 9.08554 19.4673 9.09539C19.2752 9.16352 19.0856 9.23577 18.8959 9.31046C18.8081 9.34494 18.7211 9.37861 18.6341 9.41391C18.506 9.46725 18.3796 9.52308 18.2532 9.57891C18.1079 9.64292 17.9626 9.70778 17.8181 9.77591C17.7524 9.8071 17.6876 9.84075 17.6219 9.87278C17.4224 9.97045 17.2246 10.0714 17.0284 10.1773C17.021 10.1814 17.0145 10.1855 17.0071 10.1888C16.6262 10.3957 16.2519 10.6165 15.8841 10.8537L15.8849 10.8545ZM39.4066 15.9112C40.5467 16.6516 41.7649 17.2476 43.0398 17.6892C42.4529 18.8992 42.012 20.1757 41.7289 21.4982C41.2979 19.5075 40.514 17.6203 39.4066 15.9104V15.9112ZM41.733 28.7341C42.0186 30.0558 42.4619 31.3314 43.0513 32.5407C41.7796 32.9806 40.5639 33.5716 39.428 34.3064C40.5271 32.6006 41.3062 30.7183 41.733 28.7334V28.7341ZM46.6804 13.8007C46.7025 13.8426 46.7264 13.8828 46.7486 13.9247C46.7584 13.9444 46.7682 13.9632 46.7782 13.9829C46.8749 14.1709 46.9645 14.363 47.0563 14.5535C47.1697 14.7891 47.2838 15.0238 47.3897 15.2635C47.4052 15.2996 47.4209 15.3358 47.4364 15.3719C47.5176 15.5574 47.5925 15.7454 47.6687 15.9325C47.7615 16.1599 47.8534 16.3873 47.9388 16.6172C47.9684 16.696 47.9962 16.7756 48.0242 16.8552C48.0834 17.0186 48.1382 17.1828 48.1941 17.3469C48.2516 17.5185 48.3075 17.6901 48.3608 17.8624C46.9086 17.8411 45.4902 17.626 44.1291 17.2369C44.8169 15.9966 45.669 14.8408 46.6796 13.8007H46.6804ZM43.4247 9.07159C43.5577 9.22182 43.6882 9.37367 43.8181 9.528C43.9485 9.68396 44.0808 9.83911 44.2071 9.99837C44.3409 10.1667 44.4698 10.3399 44.5995 10.5122C44.6314 10.5549 44.6627 10.5984 44.6947 10.6419C44.8475 10.848 45.0001 11.0532 45.1454 11.2633C45.2144 11.3627 45.2808 11.4628 45.3482 11.563C45.4244 11.6771 45.4974 11.7936 45.5723 11.9094C45.7207 12.1392 45.871 12.3691 46.0122 12.6039C46.0279 12.6301 46.0434 12.6564 46.059 12.6818C46.1435 12.823 46.2207 12.9692 46.302 13.112C45.1364 14.2809 44.1611 15.5919 43.3928 17.0063C41.2995 16.2962 39.3622 15.1584 37.6877 13.6283C39.8252 12.3855 41.7518 10.8562 43.4265 9.07077L43.4247 9.07159ZM41.7166 7.30915C41.8568 7.43967 41.9988 7.56937 42.1367 7.704C42.2033 7.76884 42.2705 7.83206 42.3364 7.8969C42.4012 7.96176 42.4635 8.02824 42.5268 8.09392C42.599 8.16779 42.668 8.24331 42.7385 8.31802C42.7992 8.38124 42.8592 8.44607 42.9191 8.51011C41.2486 10.2996 39.3153 11.8232 37.1803 13.048C38.4091 10.9071 39.9302 8.97801 41.7166 7.30915ZM37.1088 3.93122C37.1788 3.97061 37.2493 4.0092 37.3182 4.04942C37.4685 4.13643 37.6187 4.22345 37.7672 4.31375C37.9568 4.42949 38.1441 4.55015 38.3304 4.67082C38.396 4.71353 38.4616 4.75539 38.5275 4.79807C38.6965 4.90971 38.8656 5.02053 39.0323 5.1371C39.2227 5.27007 39.409 5.40798 39.5962 5.54671C39.6019 5.55082 39.6076 5.55493 39.6135 5.55903C39.8309 5.72073 40.0486 5.88164 40.2611 6.05073C40.3982 6.15992 40.532 6.27403 40.6674 6.38649C40.8315 6.52275 40.9941 6.6623 41.1549 6.8035C39.3712 8.47808 37.8428 10.4031 36.5991 12.5406C35.0747 10.8652 33.9427 8.92795 33.2369 6.83551C34.643 6.06961 35.9441 5.09442 37.1098 3.93122H37.1088ZM32.9109 2.05714C33.0743 2.11213 33.2377 2.16713 33.3993 2.22541C33.4782 2.25415 33.5577 2.28206 33.6365 2.3108C33.8657 2.39617 34.0929 2.48728 34.3188 2.58005C34.4387 2.6293 34.5583 2.67772 34.6782 2.72861C34.8179 2.78773 34.9574 2.84765 35.0953 2.90922C35.2965 2.99951 35.4959 3.09473 35.6945 3.19078C35.7881 3.23593 35.8808 3.28026 35.9736 3.32704C36.1221 3.40093 36.2708 3.47726 36.4177 3.55443C35.3826 4.56001 34.2341 5.40717 33.0053 6.09261C32.6212 4.7406 32.4094 3.33115 32.3881 1.88968C32.5628 1.94385 32.737 1.99967 32.9101 2.05796L32.9109 2.05714ZM32.5513 7.1893C32.9946 8.47317 33.5948 9.69875 34.3401 10.8472C33.9838 10.6173 33.621 10.4031 33.2523 10.2028C33.2351 10.1929 33.2179 10.1831 33.1998 10.1732C33.0135 10.0723 32.8247 9.97703 32.6351 9.88344C32.5605 9.84651 32.4856 9.80875 32.4102 9.77262C32.2754 9.70861 32.1393 9.64866 32.003 9.58792C31.8676 9.528 31.732 9.46807 31.5951 9.41062C31.517 9.37861 31.4382 9.34823 31.3595 9.31786C31.1624 9.23988 30.9638 9.16434 30.7626 9.09294C30.7446 9.08636 30.7265 9.08062 30.7093 9.07488C30.0566 8.84667 29.3868 8.65705 28.7014 8.50929C30.0394 8.22527 31.3307 7.78361 32.5513 7.1893ZM26.6894 0.829914C26.9858 0.848794 27.2812 0.869317 27.5751 0.898869C27.6424 0.905435 27.7098 0.91036 27.777 0.917749C28.1637 0.959615 28.5478 1.01461 28.9304 1.07536C29.0405 1.0926 29.1512 1.10901 29.2613 1.1279C29.6109 1.18782 29.9573 1.25759 30.303 1.3323C30.4409 1.36267 30.5788 1.39222 30.7158 1.42506C31.0237 1.49811 31.3291 1.57856 31.6327 1.66311C31.6345 3.30898 31.8643 4.91874 32.3158 6.45462C30.3252 7.44049 28.14 8.00855 25.862 8.10952C26.4949 5.72732 26.7723 3.28353 26.6877 0.829914H26.6894ZM24.2802 0.790513C24.459 0.784765 24.6381 0.77984 24.8169 0.777378C24.9188 0.776557 25.0206 0.773272 25.1223 0.773272C25.216 0.773272 25.3086 0.775737 25.4022 0.777378C25.5803 0.77984 25.7578 0.783944 25.9351 0.790513C26.0254 3.21869 25.7454 5.63619 25.1149 7.97982C24.4804 5.63454 24.1971 3.22116 24.281 0.790513H24.2802ZM18.5881 1.6664C18.7088 1.63274 18.8286 1.59744 18.9493 1.56543C19.0798 1.53177 19.2103 1.49729 19.3409 1.4661C19.5609 1.41274 19.7825 1.36513 20.0041 1.31752C20.0607 1.30521 20.1173 1.29289 20.1741 1.2814C20.4096 1.23297 20.6452 1.18536 20.8809 1.14349C21.0934 1.10573 21.3077 1.07372 21.5211 1.0417C21.5252 1.0417 21.5293 1.04006 21.5334 1.04006C21.8084 0.999016 22.0835 0.959615 22.3567 0.928421C22.544 0.907077 22.7311 0.892301 22.9184 0.875063C23.1211 0.857003 23.3229 0.842227 23.5248 0.829093C23.4469 3.28929 23.7286 5.73223 24.3646 8.10869C22.0876 8.00526 19.9024 7.43393 17.9125 6.44559C18.3607 4.9138 18.5881 3.30817 18.5881 1.66557V1.6664ZM14.3138 3.30488C14.4402 3.24167 14.5674 3.17928 14.6955 3.11853C14.8063 3.06599 14.9171 3.01183 15.0287 2.96094C15.2446 2.86242 15.4622 2.76967 15.6805 2.67772C15.8193 2.61944 15.9572 2.56116 16.0967 2.50534C16.1993 2.4643 16.3011 2.42244 16.4037 2.38302C16.6295 2.29601 16.8585 2.21638 17.0867 2.13677C17.2517 2.07929 17.4159 2.02019 17.5817 1.96601C17.6523 1.94303 17.7221 1.91923 17.7927 1.89706C17.8058 1.89296 17.8189 1.88968 17.8321 1.88557C17.8132 3.32541 17.6039 4.73239 17.223 6.08276C15.9999 5.39895 14.858 4.55509 13.8278 3.55443C13.9887 3.46988 14.1504 3.38616 14.3129 3.3057L14.3138 3.30488ZM9.48778 6.45953C9.65195 6.32245 9.81449 6.18372 9.98195 6.05073C10.1888 5.88573 10.4006 5.72894 10.6124 5.57135L10.6272 5.55985C10.8127 5.42277 10.9982 5.28486 11.187 5.15269C11.375 5.02135 11.5663 4.89494 11.7575 4.76934C11.8027 4.73978 11.8486 4.71024 11.8938 4.68068C12.0678 4.56822 12.2418 4.45493 12.4192 4.34659C12.6252 4.22098 12.8329 4.09949 13.0414 3.98047C13.0726 3.96323 13.103 3.94517 13.1342 3.92793C14.2957 5.08701 15.5919 6.06058 16.9923 6.82565C16.2855 8.93122 15.1453 10.8784 13.6078 12.5604C12.3724 10.431 10.8414 8.50847 9.04779 6.83386C9.19226 6.70663 9.3392 6.58185 9.48613 6.45871L9.48778 6.45953ZM7.73192 8.07586C7.78608 8.02086 7.83944 7.96422 7.89363 7.90922C7.95273 7.85012 8.01265 7.79347 8.07257 7.73519C8.20885 7.6014 8.35085 7.47332 8.49041 7.3428C10.2701 8.99525 11.7805 10.9013 12.9913 13.0036C10.8857 11.7945 8.97966 10.289 7.32147 8.51338C7.45773 8.36727 7.59237 8.21869 7.73272 8.07504L7.73192 8.07586ZM4.16188 12.7171C4.1898 12.6712 4.21689 12.6244 4.2448 12.5784C4.38106 12.3518 4.52635 12.1302 4.67082 11.9077C4.73815 11.8035 4.80381 11.6984 4.87359 11.595C4.94828 11.4834 5.02217 11.3717 5.09769 11.2617C5.2438 11.0516 5.3965 10.8463 5.54835 10.6411C5.60418 10.5656 5.65836 10.4893 5.715 10.4154C5.80448 10.298 5.89231 10.1781 5.98342 10.0632C6.16401 9.83337 6.35364 9.61009 6.54245 9.38682C6.5564 9.3704 6.57035 9.35316 6.58432 9.33673C6.65983 9.24809 6.73535 9.15943 6.81171 9.07241C8.49452 10.8652 10.4195 12.3929 12.5489 13.6234C10.8677 15.1609 8.91974 16.3019 6.81415 17.0104C6.04828 15.6116 5.07471 14.3162 3.91398 13.1563C3.99688 13.0102 4.07651 12.8616 4.1627 12.7171H4.16188ZM1.99557 17.484C2.03826 17.3543 2.08341 17.2246 2.12856 17.0957C2.19669 16.9004 2.26482 16.705 2.33787 16.5113C2.41258 16.3134 2.49139 16.1172 2.57182 15.921C2.62026 15.8028 2.66869 15.6838 2.71958 15.5664C2.7713 15.4449 2.82301 15.3234 2.87637 15.2028C2.97571 14.982 3.08078 14.7636 3.18586 14.5452C3.27532 14.3605 3.36234 14.175 3.45593 13.992C3.46659 13.9706 3.47726 13.9493 3.48876 13.9279C3.50353 13.9 3.51995 13.8729 3.53472 13.8442C4.53868 14.8752 5.385 16.0171 6.07044 17.2402C4.72091 17.6219 3.31473 17.8337 1.87572 17.8542C1.9143 17.7303 1.95535 17.6063 1.99639 17.4824L1.99557 17.484ZM0.855362 23.1062C0.878346 22.8337 0.900511 22.5612 0.932525 22.2903C0.956329 22.085 0.987523 21.8807 1.01625 21.6754C1.02282 21.6286 1.03021 21.5818 1.0376 21.535C1.0729 21.297 1.10819 21.0582 1.15088 20.8217C1.18289 20.6437 1.21901 20.4662 1.25513 20.2889C1.27319 20.1978 1.29371 20.1075 1.31342 20.0164C1.36267 19.7867 1.4111 19.5559 1.46692 19.3269C1.49565 19.2087 1.52685 19.0913 1.55722 18.9731C1.58841 18.8532 1.62289 18.735 1.65654 18.6152C3.29832 18.6127 4.9015 18.3771 6.43327 17.9281C7.41752 19.9056 7.98885 22.076 8.09557 24.3401C5.70926 23.7023 3.26711 23.4263 0.823348 23.5158C0.832376 23.3797 0.843869 23.2433 0.855362 23.107V23.1062ZM0.771631 25.413C0.769989 25.3202 0.766706 25.2299 0.766706 25.1362C0.766706 25.041 0.769168 24.9435 0.769989 24.8465C0.769989 24.8161 0.771631 24.7842 0.772451 24.7538C0.774916 24.592 0.782303 24.4304 0.788048 24.2694C3.22361 24.1734 5.65754 24.4575 8.04139 25.1092C5.67231 25.7586 3.2384 26.0499 0.788869 25.9637C0.781482 25.7823 0.774916 25.5993 0.772451 25.4138L0.771631 25.413ZM1.62535 31.5285C1.56296 31.3003 1.50304 31.0713 1.44722 30.8415C1.39961 30.6419 1.3561 30.4417 1.31342 30.2413C1.29946 30.1773 1.28551 30.1142 1.27237 30.0501C1.22804 29.8343 1.18371 29.6184 1.14513 29.4015C1.10491 29.1759 1.07125 28.9484 1.0376 28.722C0.995733 28.4387 0.954688 28.1555 0.923494 27.8707C0.907898 27.7302 0.897225 27.5899 0.883272 27.4495C0.861107 27.2066 0.843869 26.9619 0.829093 26.7182C1.09424 26.7263 1.36021 26.7378 1.62535 26.7378C3.80234 26.7378 5.96865 26.4489 8.09637 25.8816C7.99541 28.148 7.42899 30.3244 6.44886 32.3083C4.90971 31.8568 3.2975 31.6229 1.64998 31.6196C1.64177 31.59 1.63356 31.5604 1.62535 31.5311V31.5285ZM3.54212 36.4201C3.46659 36.2765 3.39354 36.1329 3.3213 35.9876C3.27205 35.889 3.22443 35.7889 3.17683 35.6896C3.08323 35.4951 2.98966 35.2996 2.90182 35.1017C2.83204 34.9458 2.76473 34.7883 2.69743 34.6298C2.65227 34.5239 2.60877 34.4173 2.56526 34.3105C2.48071 34.1011 2.39699 33.8919 2.31736 33.681C2.26565 33.543 2.2172 33.4042 2.16795 33.2647C2.12527 33.1432 2.08341 33.0208 2.04237 32.8978C1.98407 32.7229 1.92826 32.5473 1.87326 32.3708C3.31801 32.3904 4.73321 32.6022 6.09097 32.9863C5.40388 34.2226 4.55345 35.3768 3.54212 36.4177V36.4201ZM6.33722 40.6247C6.25185 40.5205 6.16401 40.4188 6.07947 40.3128C5.87179 40.0527 5.67149 39.7849 5.47448 39.5157C5.37926 39.3861 5.28404 39.2572 5.19126 39.1249C5.01806 38.8787 4.85143 38.6276 4.68644 38.3747C4.67823 38.3623 4.67002 38.35 4.66179 38.3369C4.55509 38.1719 4.44919 38.0062 4.34659 37.8387C4.23413 37.6556 4.12494 37.4693 4.01659 37.283C3.98293 37.2254 3.95091 37.1664 3.91808 37.1088C5.08621 35.9374 6.0647 34.6291 6.83304 33.2163C8.93778 33.9239 10.8816 35.0641 12.548 36.5909C10.4006 37.8297 8.4707 39.3647 6.79856 41.1641C6.64259 40.9859 6.48745 40.8061 6.3364 40.6231L6.33722 40.6247ZM8.50682 42.9225C8.36974 42.7959 8.23183 42.668 8.09392 42.5342C8.03153 42.4733 7.96914 42.4159 7.90757 42.3536C7.84438 42.2911 7.78199 42.2247 7.71877 42.1599C7.58087 42.0194 7.44296 41.8741 7.30588 41.7271C8.9616 39.9351 10.8841 38.4148 13.0307 37.1893C11.815 39.3228 10.298 41.2503 8.50682 42.9215V42.9225ZM13.112 46.3117C13.112 46.3117 13.1095 46.3102 13.1079 46.3094C12.8575 46.1682 12.6096 46.022 12.365 45.8718C12.209 45.7758 12.0547 45.6773 11.9004 45.5779C11.893 45.573 11.8864 45.5689 11.879 45.564C11.618 45.395 11.3586 45.2226 11.1041 45.0428C10.9916 44.964 10.8816 44.8819 10.7708 44.8014C10.4597 44.574 10.1511 44.3425 9.85061 44.0996C9.83501 44.0872 9.82024 44.0741 9.80465 44.0618C9.55346 43.8574 9.31128 43.6424 9.0683 43.4273C10.8644 41.742 12.3945 39.8088 13.6275 37.6687C15.1609 39.3426 16.306 41.2872 17.0194 43.3879C15.5993 44.1595 14.2834 45.1405 13.1103 46.3117H13.112ZM17.3592 48.2089C17.2607 48.176 17.163 48.1416 17.0654 48.1079C16.879 48.0422 16.6927 47.9766 16.5088 47.9069C16.3233 47.8369 16.1394 47.7631 15.9555 47.6885C15.8562 47.6483 15.7569 47.6064 15.6584 47.5652C15.4589 47.4808 15.2594 47.3954 15.0624 47.3059C14.9286 47.2452 14.7964 47.1819 14.6643 47.1188C14.537 47.0581 14.4106 46.9956 14.285 46.9333C14.1241 46.8528 13.9649 46.7707 13.8056 46.6869C14.849 45.6724 16.0081 44.8153 17.2509 44.125C17.6441 45.4951 17.8592 46.9225 17.8797 48.378C17.7057 48.3237 17.5325 48.2679 17.3592 48.2097V48.2089ZM23.5315 49.4205C23.2549 49.4025 22.9781 49.3835 22.7033 49.3565C22.6186 49.3482 22.534 49.3418 22.4496 49.3328C22.0835 49.2924 21.7197 49.2407 21.3569 49.1841C21.2257 49.1635 21.0934 49.1439 20.963 49.1208C20.6509 49.0675 20.3414 49.0052 20.0321 48.9404C20.0198 48.9378 20.0082 48.9353 19.9959 48.9322C19.8121 48.8926 19.6282 48.8524 19.4459 48.8082C19.2235 48.7557 19.0018 48.6973 18.781 48.6391C18.7326 48.626 18.6842 48.6119 18.6357 48.5988C18.6341 46.9415 18.396 45.3168 17.9347 43.7646C19.9228 42.7812 22.1031 42.2165 24.3597 42.1195C23.7252 44.5107 23.4477 46.9611 23.5323 49.4197L23.5315 49.4205ZM25.9737 49.4615C25.8275 49.4666 25.6814 49.473 25.5353 49.4756C25.4113 49.4779 25.2898 49.4812 25.1625 49.4812C24.987 49.4812 24.8046 49.4771 24.6216 49.473C24.6126 49.473 24.6028 49.473 24.5936 49.473C24.4912 49.4707 24.3885 49.4666 24.2866 49.4632C24.1948 47.0023 24.4812 44.5485 25.1305 42.1655C25.7864 44.5478 26.0722 46.9981 25.9744 49.4624L25.9737 49.4615ZM31.6327 48.589C31.5244 48.6193 31.4169 48.6513 31.3077 48.6793C31.1886 48.7104 31.0697 48.7425 30.9499 48.7719C30.7126 48.8303 30.4729 48.8812 30.2341 48.933C30.1453 48.9518 30.0576 48.9723 29.9688 48.9903C29.79 49.0266 29.6117 49.0634 29.4319 49.0955C29.1964 49.1381 28.9592 49.1735 28.7228 49.2088C28.4428 49.2497 28.1629 49.2916 27.8804 49.3236C27.7327 49.3408 27.5843 49.3516 27.4364 49.3663C27.2017 49.3886 26.9653 49.4058 26.7288 49.4213C26.8199 46.9562 26.5425 44.5051 25.9029 42.1221C28.1637 42.2263 30.3416 42.7936 32.3248 43.7754C31.8692 45.3194 31.6345 46.9374 31.6327 48.5905V48.589ZM36.013 46.9045C35.9047 46.9588 35.7954 47.0113 35.6871 47.0638C35.5065 47.1507 35.3251 47.2377 35.1421 47.3208C34.9533 47.406 34.7636 47.4873 34.5732 47.5678C34.4721 47.6105 34.3721 47.6524 34.2712 47.6934C34.1078 47.76 33.9436 47.8256 33.7785 47.8887C33.5742 47.9668 33.3681 48.0397 33.1613 48.1112C33.0447 48.1523 32.9281 48.1933 32.8108 48.2319C32.6704 48.2787 32.5301 48.3247 32.3889 48.369C32.4094 46.9184 32.6228 45.4984 33.0102 44.1348C34.249 44.8236 35.403 45.6765 36.4406 46.6861C36.2986 46.7609 36.1566 46.833 36.013 46.9053V46.9045ZM40.77 43.7736C40.5976 43.9182 40.426 44.0643 40.2495 44.2038C40.0535 44.3597 39.8523 44.5099 39.6511 44.6594C39.6323 44.6733 39.6125 44.6872 39.5937 44.7013C39.4115 44.8359 39.2301 44.9705 39.0446 45.1002C38.8779 45.2167 38.7089 45.3284 38.5396 45.4408C38.4683 45.4876 38.3968 45.5337 38.3247 45.5795C38.1359 45.7019 37.9478 45.8234 37.7566 45.9407C37.636 46.0138 37.5143 46.0853 37.3929 46.1566C37.3059 46.2075 37.2172 46.2559 37.1286 46.3061C35.9621 45.1421 34.6528 44.1669 33.2384 43.3969C33.9452 41.3044 35.0814 39.368 36.6048 37.6926C37.8452 39.826 39.3794 41.751 41.1747 43.4265C41.0409 43.5438 40.9056 43.6596 40.7692 43.7736H40.77ZM42.3963 42.2903C42.3889 42.2978 42.3822 42.305 42.3749 42.3117C42.3223 42.3642 42.2649 42.4176 42.2108 42.4709C42.0556 42.6235 41.8938 42.7689 41.7346 42.9176C39.931 41.2429 38.4001 39.3063 37.1754 37.1654C39.3212 38.3845 41.2545 39.9138 42.9274 41.724C42.7509 41.9136 42.5785 42.1056 42.3963 42.2895V42.2903ZM46.1748 37.3617C46.1059 37.4808 46.0369 37.5997 45.9654 37.7173C45.8406 37.9224 45.7094 38.1243 45.5787 38.3263C45.5098 38.433 45.4426 38.5406 45.3719 38.6456C45.3013 38.7516 45.2316 38.8573 45.1593 38.9625C45.0099 39.1784 44.8524 39.3894 44.6955 39.6011C44.6512 39.6611 44.6077 39.7218 44.5624 39.7817C44.459 39.9189 44.3574 40.0576 44.2498 40.1921C44.0757 40.4129 43.8935 40.628 43.7121 40.8423C43.6202 40.9506 43.5291 41.059 43.4347 41.1657C41.7593 39.3614 39.8342 37.8272 37.7016 36.5958C39.3737 35.0706 41.3103 33.9313 43.401 33.222C44.1711 34.634 45.1478 35.9433 46.3143 37.1114C46.2667 37.195 46.2207 37.2789 46.1723 37.3625L46.1748 37.3617ZM48.3247 32.5227C48.2565 32.736 48.1801 32.9469 48.1063 33.1587C48.0176 33.4141 47.929 33.6702 47.8313 33.9231C47.8264 33.9362 47.8207 33.9493 47.8158 33.9632C47.7368 34.1668 47.6507 34.3664 47.5662 34.5674C47.4726 34.7899 47.379 35.0124 47.2789 35.2316C47.2346 35.3276 47.1885 35.4236 47.1433 35.5196C47.0777 35.66 47.0087 35.7987 46.9406 35.9374C46.8602 36.0992 46.7782 36.26 46.6943 36.4201C45.6847 35.3809 44.8318 34.2277 44.143 32.9914C45.5049 32.6014 46.9233 32.3871 48.3706 32.365C48.3541 32.4175 48.341 32.4709 48.3247 32.5234V32.5227ZM49.3917 27.0268C49.3894 27.0612 49.3853 27.0957 49.3827 27.1302C49.3572 27.4413 49.3318 27.7533 49.2942 28.0636C49.2859 28.1359 49.2744 28.208 49.2654 28.281C49.2466 28.428 49.2203 28.5733 49.199 28.7202C49.1545 29.0199 49.1118 29.3195 49.0569 29.6174C49.0184 29.826 48.9682 30.0313 48.9239 30.2382C48.864 30.5197 48.8056 30.8029 48.7351 31.0819C48.6908 31.2594 48.6374 31.4333 48.589 31.6098C46.9406 31.6139 45.325 31.8511 43.7836 32.3076C42.801 30.3252 42.2337 28.149 42.1277 25.8833C44.2612 26.4489 46.4375 26.737 48.6209 26.737C48.8853 26.737 49.1504 26.7263 49.4156 26.7182C49.409 26.8217 49.4 26.9251 49.3927 27.0275L49.3917 27.0268ZM49.4483 25.9646C47.0013 26.0483 44.5609 25.7586 42.1877 25.1149C44.5691 24.4706 47.0064 24.1809 49.4476 24.2645C49.4575 24.5519 49.4748 24.8383 49.4748 25.1264C49.4748 25.4146 49.4575 25.6855 49.4483 25.9646Z" fill="white"/>
<path d="M39.5509 25.8358C39.5782 25.3621 39.5782 24.8794 39.5509 24.4091C39.4961 23.2812 39.3104 22.1681 39.0011 21.1042C38.3296 18.7729 37.0637 16.6295 35.3407 14.9065C33.6127 13.1786 31.4693 11.9127 29.1462 11.247C28.0734 10.9343 26.9505 10.7471 25.8102 10.6921C25.3546 10.6691 24.8868 10.6691 24.4214 10.6921C23.3246 10.7413 22.2041 10.9261 21.0836 11.2429C18.7572 11.9218 16.6196 13.1884 14.9015 14.9065C13.1776 16.6304 11.9102 18.7721 11.2363 21.1025C10.9259 22.1877 10.7413 23.3017 10.6871 24.4148C10.6641 24.9057 10.6657 25.3842 10.6912 25.8219C10.7413 26.948 10.9251 28.0628 11.2363 29.1324C11.902 31.4655 13.1694 33.6144 14.9015 35.3456C16.6245 37.0687 18.772 38.3361 21.1148 39.0109C22.1902 39.3179 23.3025 39.5018 24.4214 39.5561C24.6766 39.5683 24.9203 39.5741 25.1544 39.5741C25.3883 39.5741 25.614 39.5683 25.8308 39.5561C26.9652 39.5003 28.0808 39.3156 29.1439 39.0053C31.4711 38.333 33.612 37.0663 35.3366 35.3415C37.0678 33.6105 38.3386 31.4621 39.0101 29.1291C39.3196 28.048 39.5018 26.9349 39.5502 25.8358H39.5509ZM36.824 20.9383C36.4529 20.8933 36.0886 20.8226 35.7297 20.7315C35.9178 20.4155 36.1239 20.1093 36.3536 19.8163C36.5268 20.1832 36.6878 20.5558 36.824 20.9383ZM33.9115 16.3365C34.7258 17.1508 35.4163 18.0768 35.9736 19.0758C35.5959 19.5232 35.2684 20.0026 34.9844 20.504C33.7957 20.0813 32.704 19.4008 31.7806 18.4798C31.778 18.4774 31.7765 18.4749 31.7739 18.4724C31.7723 18.4708 31.7698 18.4692 31.7682 18.4667C30.8446 17.5416 30.1633 16.4465 29.7414 15.2546C30.2405 14.9705 30.7175 14.6438 31.1623 14.2679C32.1647 14.8252 33.094 15.5181 33.9132 16.3373L33.9115 16.3365ZM16.0942 27.7863C16.2814 28.4249 16.5359 29.0397 16.8552 29.6233C16.4579 29.4059 16.0499 29.2129 15.6263 29.056C15.8151 28.6456 15.9678 28.2203 16.0951 27.7863H16.0942ZM16.0942 22.4635C15.9645 22.0212 15.8069 21.5893 15.614 21.1724C16.0442 21.0132 16.4645 20.8284 16.8675 20.6059C16.5433 21.1961 16.2839 21.8175 16.0942 22.4635ZM16.6672 26.9563C16.6598 26.9234 16.65 26.8922 16.6426 26.8595C16.5999 26.6517 16.5728 26.4383 16.5457 26.2256C16.5359 26.1494 16.5194 26.0738 16.5121 25.9966C16.4924 25.798 16.4874 25.5952 16.4817 25.3933V25.386V25.3835C16.4817 25.3827 16.4817 25.3809 16.4817 25.3801C16.4874 25.2965 16.4883 25.2144 16.4883 25.1282C16.4883 25.0559 16.485 24.9772 16.4809 24.9C16.4809 24.8933 16.4809 24.8869 16.4817 24.8794C16.4874 24.6692 16.4924 24.4591 16.5137 24.2532C16.5211 24.1801 16.5367 24.1094 16.5457 24.0371C16.5728 23.8197 16.6015 23.6022 16.6451 23.3903C16.6508 23.3625 16.6598 23.3362 16.6656 23.309C17.3822 19.9706 20.028 17.3404 23.3763 16.6517C23.3779 16.6517 23.3788 16.6517 23.3804 16.6509C23.6333 16.5992 23.8909 16.5622 24.1512 16.5327C24.1816 16.5294 24.212 16.522 24.2423 16.5196C24.5313 16.49 24.8243 16.4752 25.1207 16.4752C25.4171 16.4752 25.7109 16.4908 26.0006 16.5196C26.022 16.522 26.0426 16.5269 26.0639 16.5286C30.0944 16.9678 33.3017 20.1857 33.7236 24.2211C33.7236 24.2285 33.726 24.2359 33.7267 24.2432C33.7563 24.5306 33.7712 24.822 33.7712 25.1167C33.7712 25.1208 33.7712 25.1241 33.7712 25.1274C33.7712 25.1306 33.7712 25.1331 33.7712 25.1364C33.7712 25.4303 33.7563 25.7208 33.7267 26.0066C33.726 26.018 33.7226 26.0295 33.7218 26.0411C33.5119 28.0299 32.6235 29.8178 31.2946 31.1732C31.2765 31.1904 31.2575 31.2069 31.2395 31.2257C31.2092 31.2561 31.1772 31.288 31.1477 31.3185C29.986 32.4488 28.5125 33.2598 26.8667 33.5981C26.8651 33.5981 26.8633 33.5989 26.8618 33.5997C26.6171 33.6498 26.3668 33.6851 26.1156 33.7139C26.0763 33.7178 26.0377 33.727 25.9983 33.7311C25.7609 33.7548 25.5195 33.7631 25.2766 33.7672C25.1658 33.7631 25.0608 33.7631 24.9663 33.7672C24.7242 33.7631 24.4829 33.7548 24.2457 33.7311C24.1973 33.726 24.1495 33.7155 24.1011 33.7098C23.859 33.681 23.6184 33.6481 23.383 33.5997C23.3696 33.5971 23.3575 33.5932 23.3444 33.5899C21.7443 33.2541 20.3094 32.4717 19.1668 31.3842C19.12 31.3324 19.0716 31.2823 19.019 31.229C18.9764 31.1863 18.9271 31.1428 18.8795 31.0984C17.7943 29.9657 17.0128 28.5422 16.6689 26.9547L16.6672 26.9563ZM34.1487 27.7706C34.2768 28.2113 34.4402 28.6382 34.6314 29.0544C34.2004 29.2137 33.7843 29.4067 33.3812 29.6274C33.7038 29.0372 33.96 28.4158 34.1487 27.7706ZM33.3771 20.6141C33.7836 20.8374 34.2071 21.0229 34.6404 21.1822C34.4459 21.6024 34.2793 22.0351 34.1497 22.4815C33.9608 21.8324 33.7023 21.2077 33.3771 20.6141ZM30.4211 13.887C30.1314 14.1144 29.8276 14.3196 29.5141 14.5067C29.4238 14.1513 29.3539 13.7901 29.3096 13.4224C29.6881 13.557 30.0575 13.7154 30.4211 13.887ZM29.6364 16.8709C29.0387 16.5425 28.4083 16.2823 27.7541 16.0927C28.203 15.9622 28.6389 15.7947 29.0618 15.5985C29.2219 16.036 29.4115 16.4621 29.6364 16.8709ZM21.7148 13.1679C22.6531 12.9077 23.5937 12.7525 24.5148 12.7115C24.7168 12.7016 24.918 12.6967 25.1174 12.6967C25.3168 12.6967 25.5156 12.7016 25.7109 12.7115C26.6696 12.7582 27.612 12.9134 28.5167 13.172C28.566 13.7532 28.6726 14.322 28.8254 14.8753C27.6835 15.4204 26.4267 15.7134 25.1189 15.7134H25.1133C23.8065 15.7134 22.5496 15.4212 21.407 14.877C21.5596 14.322 21.6664 13.7515 21.714 13.1679H21.7148ZM21.1714 15.5993C21.5951 15.7955 22.0309 15.963 22.4807 16.0927C21.8249 16.2831 21.1935 16.545 20.5951 16.8742C20.8209 16.4637 21.0105 16.0377 21.1714 15.5985V15.5993ZM20.9226 13.4215C20.8783 13.7901 20.8094 14.1529 20.7191 14.5092C20.4054 14.3229 20.1018 14.1176 19.8111 13.8903C20.1749 13.7179 20.5443 13.5578 20.9226 13.4215ZM16.3315 16.3365C17.1458 15.5222 18.0734 14.8302 19.0724 14.2711C19.5173 14.6471 19.9943 14.9722 20.4934 15.2554C20.0714 16.4481 19.3901 17.544 18.4649 18.4692L18.4666 18.4708C18.4666 18.4708 18.4641 18.4732 18.4625 18.4749L18.46 18.4732C17.5415 19.3918 16.4538 20.0699 15.2701 20.4935C14.9852 19.991 14.6503 19.5133 14.2719 19.0659C14.8292 18.071 15.518 17.1483 16.3306 16.3357L16.3315 16.3365ZM13.8926 19.8014C14.1233 20.0962 14.3293 20.4057 14.519 20.724C14.1578 20.8169 13.79 20.8884 13.4157 20.9342C13.5536 20.5485 13.717 20.1716 13.8926 19.8014ZM12.7106 25.7184C12.6884 25.3366 12.6867 24.9304 12.7064 24.5118C12.7524 23.575 12.9076 22.6359 13.1645 21.7215C13.7514 21.6723 14.326 21.5663 14.8851 21.4104C15.3833 22.4553 15.6739 23.5922 15.7166 24.7686L15.7092 24.7907L15.7199 24.8753C15.7207 24.8843 15.7199 24.8951 15.7207 24.9041C15.7191 24.978 15.7092 25.0503 15.7092 25.1241C15.7092 25.198 15.7191 25.271 15.7207 25.3449C15.7199 25.3572 15.7207 25.3688 15.7191 25.3809L15.7092 25.4655L15.7158 25.4861C15.6698 26.6558 15.3825 27.7814 14.8949 28.8157C14.331 28.658 13.7506 28.5553 13.1612 28.5069C12.9051 27.6072 12.7516 26.6738 12.7089 25.7176L12.7106 25.7184ZM13.4124 29.2983C13.7908 29.3434 14.1619 29.418 14.528 29.5124C14.3367 29.8368 14.1282 30.1512 13.8943 30.4507C13.7161 30.0748 13.552 29.6915 13.4124 29.2991V29.2983ZM16.3315 33.9166C15.518 33.1031 14.8292 32.1805 14.2735 31.1863C14.6552 30.734 14.9918 30.2513 15.2791 29.7432C16.3602 30.1299 17.3617 30.725 18.2203 31.5221L18.2983 31.5951C18.3049 31.6008 18.3114 31.6083 18.3188 31.6139C18.3697 31.6674 18.4149 31.7256 18.4674 31.7781C18.5208 31.8316 18.5791 31.8766 18.6332 31.9283C18.6406 31.9366 18.6488 31.944 18.6562 31.953L18.7096 32.0202L18.7293 32.0302C19.5272 32.8937 20.1224 33.8976 20.5081 34.9787C20.0033 35.2644 19.5239 35.5985 19.074 35.9786C18.0734 35.4213 17.1466 34.7309 16.3323 33.9166H16.3315ZM19.8103 36.3578C20.1059 36.1263 20.4162 35.9194 20.7363 35.7298C20.8291 36.0918 20.903 36.4597 20.949 36.834C20.5606 36.6961 20.1823 36.5335 19.8103 36.3578ZM20.6205 33.3895C21.21 33.7113 21.8305 33.9674 22.475 34.1546C22.0358 34.2835 21.6064 34.441 21.1911 34.6332C21.0335 34.2046 20.8389 33.7909 20.6197 33.3895H20.6205ZM28.5182 37.0803C27.6236 37.3347 26.6868 37.4899 25.724 37.5367C25.3546 37.5588 24.9607 37.558 24.5207 37.5367C23.5791 37.4906 22.6425 37.3373 21.7379 37.0844C21.6885 36.4975 21.5868 35.9212 21.4317 35.3613C22.5103 34.8499 23.6907 34.5593 24.9221 34.529C24.9393 34.5272 24.9565 34.529 24.9738 34.5272C25.0188 34.5272 25.0623 34.5339 25.1076 34.5339C25.1117 34.5339 25.1158 34.5339 25.1199 34.5339C25.174 34.5339 25.2275 34.5272 25.2807 34.5257C25.3029 34.5264 25.3235 34.5264 25.3489 34.529C26.5721 34.5593 27.7492 34.8491 28.8246 35.3572C28.6694 35.9171 28.5668 36.4934 28.5174 37.0803H28.5182ZM29.0642 34.6291C28.6481 34.4369 28.2179 34.2802 27.777 34.1513C28.423 33.9617 29.0454 33.7031 29.6348 33.3797C29.4138 33.7828 29.2219 34.1989 29.0642 34.6291ZM29.3081 36.8281C29.3531 36.454 29.4262 36.0861 29.519 35.7241C29.8391 35.9129 30.1494 36.119 30.444 36.3496C30.073 36.5261 29.6955 36.6895 29.3081 36.8281ZM33.9074 33.9125C33.0956 34.7243 32.1737 35.413 31.1804 35.9696C30.7314 35.5911 30.2528 35.2579 29.7488 34.9731C30.1502 33.8485 30.779 32.8067 31.6295 31.9137C31.6417 31.8995 31.6558 31.8864 31.6689 31.8725C31.7026 31.8398 31.7402 31.811 31.7731 31.7773C31.8109 31.7395 31.8429 31.6978 31.8807 31.6592C31.8971 31.6435 31.9126 31.6288 31.9332 31.6116C32.8198 30.7667 33.8566 30.1397 34.9779 29.7391C35.2627 30.2439 35.5928 30.7266 35.9728 31.1765C35.4145 32.1722 34.7234 33.0964 33.9083 33.9115L33.9074 33.9125ZM36.3528 30.4376C36.1205 30.1412 35.9121 29.8309 35.7225 29.5101C36.086 29.4164 36.4563 29.3418 36.8322 29.2966C36.6935 29.6858 36.5301 30.065 36.3528 30.4384V30.4376ZM37.5317 25.7316C37.4898 26.6648 37.338 27.5974 37.0835 28.5054C36.4941 28.5545 35.9152 28.6587 35.3538 28.8147C34.8186 27.6811 34.5297 26.4366 34.5279 25.1413C34.5279 25.1355 34.5289 25.1298 34.5289 25.1241C34.5289 25.1192 34.5289 25.1141 34.5289 25.1092C34.5313 23.8065 34.8227 22.5546 35.3646 21.4161C35.9203 21.5697 36.4915 21.6755 37.0753 21.7248C37.3313 22.622 37.4857 23.557 37.5325 24.5159C37.5554 24.9172 37.5554 25.322 37.5325 25.7316H37.5317Z" fill="white"/>
</g>
<path d="M123.688 43L127.812 36.4609L127.266 38.375V37.2969L123.703 31.7266H126.484L128.875 35.7891H129.969L128.438 36.7031L131.344 31.7266H133.984L130.289 37.3359V38.4219L129.734 36.5078L133.93 43H131.242L128.773 39.0469H127.68L129.25 38.1641L126.234 43H123.688Z" fill="white"/>
<path d="M117 29.5V45" stroke="white"/>
<defs>
<clipPath id="clip0_741_1188">
<rect width="110.874" height="50.3438" fill="white"/>
</clipPath>
</defs>
</svg>
