<svg width="387" height="210" viewBox="0 0 387 210" fill="none" xmlns="http://www.w3.org/2000/svg">
<g id="Klarna">
<path d="M0.666016 20C0.666016 8.9543 9.62032 0 20.666 0H366.999C378.045 0 386.999 8.95431 386.999 20V210H0.666016V20Z" fill="url(#paint0_radial_810_759)"/>
<g id="Group 40718">
<g id="Layer_1" clip-path="url(#clip0_810_759)">
<path id="Vector" d="M132.16 83.7554H122.788C122.788 91.446 119.258 98.4643 113.122 103.087L109.424 105.861L123.797 125.445H135.606L122.368 107.416C128.63 101.196 132.16 92.7909 132.16 83.7554Z" fill="white"/>
<path id="Vector_2" d="M108.248 83.7554H98.666V125.445H108.248V83.7554Z" fill="white"/>
<path id="Vector_3" d="M147.414 83.7554H138.379V125.445H147.414V83.7554Z" fill="white"/>
<path id="Vector_4" d="M226.675 95.8171C223.229 95.8171 219.951 96.8678 217.766 99.8516V96.6156H209.193V125.445H217.892V110.316C217.892 105.945 220.834 103.802 224.364 103.802C228.146 103.802 230.332 106.071 230.332 110.274V125.487H238.947V107.122C238.947 100.398 233.61 95.8171 226.675 95.8171Z" fill="white"/>
<path id="Vector_5" d="M174.732 96.6156V98.4647C172.295 96.7837 169.353 95.8171 166.159 95.8171C157.754 95.8171 150.946 102.625 150.946 111.03C150.946 119.435 157.754 126.244 166.159 126.244C169.353 126.244 172.295 125.277 174.732 123.596V125.445H183.347V96.6156H174.732ZM166.873 118.427C162.545 118.427 159.057 115.107 159.057 111.03C159.057 106.954 162.545 103.634 166.873 103.634C171.202 103.634 174.69 106.954 174.69 111.03C174.69 115.107 171.202 118.427 166.873 118.427Z" fill="white"/>
<path id="Vector_6" d="M196.71 100.356V96.6155H187.885V125.445H196.752V111.997C196.752 107.458 201.669 105.021 205.073 105.021H205.157V96.6155C201.669 96.6155 198.433 98.1284 196.71 100.356Z" fill="white"/>
<path id="Vector_7" d="M265.758 96.6156V98.4647C263.321 96.7837 260.379 95.8171 257.185 95.8171C248.78 95.8171 241.972 102.625 241.972 111.03C241.972 119.435 248.78 126.244 257.185 126.244C260.379 126.244 263.321 125.277 265.758 123.596V125.445H274.373V96.6156H265.758ZM257.899 118.427C253.571 118.427 250.083 115.107 250.083 111.03C250.083 106.954 253.571 103.634 257.899 103.634C262.228 103.634 265.716 106.954 265.716 111.03C265.758 115.107 262.228 118.427 257.899 118.427Z" fill="white"/>
<g id="Group">
<path id="Vector_8" d="M281.057 97.4566C281.057 97.0363 280.763 96.7842 280.301 96.7842H279.502V98.9695H279.881V98.171H280.301L280.637 98.9695H281.057L280.679 98.087C280.931 97.9609 281.057 97.7508 281.057 97.4566ZM280.301 97.7928H279.881V97.1204H280.301C280.553 97.1204 280.679 97.2465 280.679 97.4566C280.679 97.6667 280.595 97.7928 280.301 97.7928Z" fill="white"/>
<path id="Vector_9" d="M280.174 95.8596C279.039 95.8596 278.115 96.7842 278.115 97.9189C278.157 99.0536 279.039 99.9781 280.174 99.9781C281.309 99.9781 282.233 99.0536 282.233 97.9189C282.233 96.7842 281.309 95.8596 280.174 95.8596ZM280.174 99.5999C279.249 99.5999 278.535 98.8434 278.535 97.9189C278.535 96.9943 279.291 96.2378 280.174 96.2378C281.057 96.2378 281.813 96.9943 281.813 97.9189C281.813 98.8434 281.057 99.5999 280.174 99.5999Z" fill="white"/>
</g>
<path id="Vector_10" d="M283.578 115.233C280.594 115.233 278.157 117.67 278.157 120.654C278.157 123.638 280.594 126.075 283.578 126.075C286.562 126.075 288.999 123.638 288.999 120.654C288.999 117.67 286.562 115.233 283.578 115.233Z" fill="white"/>
</g>
</g>
</g>
<defs>
<radialGradient id="paint0_radial_810_759" cx="0" cy="0" r="1" gradientUnits="userSpaceOnUse" gradientTransform="translate(193.833 343) rotate(90) scale(172.5 317.345)">
<stop stop-color="white"/>
<stop offset="1" stop-color="white" stop-opacity="0.1"/>
</radialGradient>
<clipPath id="clip0_810_759">
<rect width="190.334" height="42.4878" fill="white" transform="translate(98.666 83.7561)"/>
</clipPath>
</defs>
</svg>
