<svg width="387" height="210" viewBox="0 0 387 210" fill="none" xmlns="http://www.w3.org/2000/svg">
<g id="Spacex R1">
<path d="M0 20C0 8.9543 8.95431 0 20 0H366.333C377.379 0 386.333 8.95431 386.333 20V210H0V20Z" fill="url(#paint0_radial_810_703)"/>
<g id="Group 40734">
<g id="Group 40716">
<g id="Layer_1" clip-path="url(#clip0_810_703)">
<path id="Vector" d="M100.771 108.123H85.6695V104.376H105.142C104.631 102.786 102.985 101.31 100.089 101.31H85.9534C82.7174 101.31 80.844 102.502 80.844 105.114V107.896C80.844 110.166 82.7742 111.472 85.6128 111.472H100.884V115.446H80.333C80.844 117.603 82.4903 118.739 85.4424 118.739H100.828C104.063 118.739 105.653 117.49 105.653 114.822V112.04C105.653 109.599 103.78 108.293 100.771 108.123Z" fill="white"/>
<path id="Vector_2" d="M131.599 101.367H112.978V118.796H118.257V112.097H131.996C135.8 112.097 137.9 110.791 137.9 107.725V105.795C137.843 102.957 135.459 101.367 131.599 101.367ZM133.302 106.931C133.302 108.18 133.075 108.861 131.031 108.861H118.257L118.314 104.319H130.804C133.075 104.319 133.359 105 133.359 106.193V106.931H133.302Z" fill="white"/>
<path id="Vector_3" d="M153.226 100.629L150.047 104.547L155.441 111.984H144.2L141.418 114.936H157.655L160.436 118.796H166.681L153.226 100.629Z" fill="white"/>
<path id="Vector_4" d="M176.789 104.376H196.545C196.034 102.332 194.047 101.31 191.209 101.31H176.448C173.893 101.31 171.452 102.332 171.452 105.114V114.878C171.452 117.66 173.893 118.682 176.448 118.682H191.379C194.785 118.682 195.977 117.717 196.545 115.389H176.789V104.376Z" fill="white"/>
<g id="Group">
<path id="Vector_5" d="M209.091 115.503V110.167H219.707V107.215H203.754V118.796H227.315V115.503H209.091Z" fill="white"/>
<path id="Vector_6" d="M228.109 101.367H204.322V104.433H228.109V101.367Z" fill="white"/>
</g>
<path id="Vector_7" d="M242.754 101.367H234.466L244.231 108.52C245.65 107.555 247.296 106.533 248.772 105.682L242.754 101.367ZM254.79 110.28C253.371 111.245 251.951 112.324 250.589 113.346L257.969 118.739H266.315L254.79 110.28Z" fill="white"/>
<path id="Vector_8" d="M306 91.2048C260.583 93.8163 239.577 113.232 234.865 117.831L233.9 118.739H242.302C265.011 95.9736 297.654 91.9429 306 91.2048Z" fill="white"/>
</g>
</g>
</g>
</g>
<defs>
<radialGradient id="paint0_radial_810_703" cx="0" cy="0" r="1" gradientUnits="userSpaceOnUse" gradientTransform="translate(193.167 343) rotate(90) scale(172.5 317.345)">
<stop stop-color="white"/>
<stop offset="1" stop-color="white" stop-opacity="0.1"/>
</radialGradient>
<clipPath id="clip0_810_703">
<rect width="225.667" height="27.591" fill="white" transform="translate(80.333 91.2046)"/>
</clipPath>
</defs>
</svg>
