<svg width="576" height="675" viewBox="0 0 576 675" fill="none" xmlns="http://www.w3.org/2000/svg">
<g id="What is Tokenization?" filter="url(#filter0_d_810_552)">
<g clip-path="url(#clip0_810_552)">
<rect width="576" height="675" rx="24" fill="white" fill-opacity="0.06" shape-rendering="crispEdges"/>
<g id="Group 1410089393">
<path id="Vector 459" d="M576 498.484L333.328 634.66L253.02 634.66L-0.999988 498.484L576 498.484Z" fill="url(#paint0_linear_810_552)"/>
<g id="Group 1410089392">
<path id="Vector" d="M404.343 642.629C370.028 617.577 290.592 607.565 226.859 620.267C163.125 632.926 139.264 663.492 173.578 688.544C207.849 713.552 287.328 723.564 351.018 710.906C414.752 698.247 438.613 667.638 404.343 642.629ZM339.947 702.79C287.681 713.199 222.272 704.952 194.132 684.442C165.992 663.889 185.663 638.748 237.929 628.339C290.195 617.93 355.605 626.178 383.745 646.731C411.885 667.285 392.213 692.425 339.947 702.834V702.79Z" fill="url(#paint1_linear_810_552)"/>
<path id="Vector_2" d="M237.929 628.339C290.195 617.93 355.605 626.178 383.744 646.731C411.884 667.285 392.213 692.425 339.947 702.835C287.681 713.244 222.271 704.996 194.131 684.486C165.992 663.933 185.663 638.792 237.929 628.383V628.339Z" fill="url(#paint2_radial_810_552)"/>
<g id="Group">
<path id="Union" d="M420 667.549L418.324 712.758C418.015 720.168 413.561 726.696 407.739 731.945C407.695 731.989 407.65 732.076 407.606 732.076H407.562C364.25 770.581 223.33 771.331 171.902 733.752L173.578 688.543C206.878 712.89 272.774 718.712 316.527 715.492C352.65 712.802 418.809 699.482 420 667.505V667.549ZM157.921 663.624C157.612 672.004 162.597 680.561 173.535 688.588L171.858 733.797C160.92 725.814 155.892 717.257 156.201 708.877L157.921 663.624Z" fill="url(#paint3_linear_810_552)"/>
</g>
</g>
<g id="Group 1410089386">
<g id="Group 17">
<path id="Vector 447" d="M291 261C326.705 280.094 339.296 287.906 375 307" stroke="url(#paint4_linear_810_552)" stroke-width="0.841644"/>
<path id="Vector 451" d="M94.0001 389C129.016 412.049 141.447 421.323 176.464 444.372" stroke="url(#paint5_linear_810_552)" stroke-width="0.841644"/>
<path id="Vector 453" d="M401 321C437.108 343.04 449.893 351.96 486 374" stroke="url(#paint6_linear_810_552)" stroke-width="0.841644"/>
<path id="Vector 454" d="M201 456C231.957 475.461 242.929 483.319 273.886 502.78" stroke="url(#paint7_linear_810_552)" stroke-width="0.841644"/>
<path id="Vector 441" d="M308 358C333.605 342.141 343.395 336.859 369 321" stroke="url(#paint8_linear_810_552)" stroke-width="0.841644"/>
<path id="Vector 443" d="M258.539 362.299C232.85 346.371 223.689 339.928 198 324" stroke="url(#paint9_linear_810_552)" stroke-width="0.841644"/>
<path id="Vector 455" d="M166.8 308.434C141.163 293.256 132.035 287.092 106.399 271.914" stroke="url(#paint10_linear_810_552)" stroke-width="0.841644"/>
<path id="Vector 457" d="M469.401 492.507C443.338 477.338 434.064 471.169 408 456" stroke="url(#paint11_linear_810_552)" stroke-width="0.841644"/>
<path id="Vector 444" d="M265.877 402.501C238.643 419.02 228.235 424.511 201 441.031" stroke="url(#paint12_linear_810_552)" stroke-width="0.841644"/>
<path id="Vector 456" d="M175.692 456.549C148.689 472.731 138.37 478.11 111.366 494.293" stroke="url(#paint13_linear_810_552)" stroke-width="0.841644"/>
<path id="Vector 458" d="M455 271.5C429.036 286.497 425.964 288.003 400 303" stroke="url(#paint14_linear_810_552)" stroke-width="0.841644"/>
<path id="Vector 446" d="M272.203 262.573C241.054 280.794 229.15 286.85 198 305.072" stroke="url(#paint15_linear_810_552)" stroke-width="0.841644"/>
<path id="Vector 450" d="M167 322C136.355 342.159 124.645 348.861 94.0001 369.019" stroke="url(#paint16_linear_810_552)" stroke-width="0.841644"/>
<path id="Vector 452" d="M376 456C344.086 475.764 331.891 482.334 299.977 502.098" stroke="url(#paint17_linear_810_552)" stroke-width="0.841644"/>
<path id="Vector 449" d="M484 391C452.096 411.151 439.904 417.85 408 438" stroke="url(#paint18_linear_810_552)" stroke-width="0.841644"/>
<path id="Vector 445" d="M317.383 400.845C342.278 416.721 351.106 423.124 376 439" stroke="url(#paint19_linear_810_552)" stroke-width="0.841644"/>
<path id="Vector 442" d="M248.637 388.89V366.865H331.96V388.265C331.96 391.636 330.278 394.784 327.477 396.659L307.796 409.829C294.465 417.338 280.716 413.166 273.245 409.248L253.581 397.575C250.516 395.755 248.637 392.454 248.637 388.89Z" fill="url(#paint20_radial_810_552)"/>
<rect id="Rectangle 2.1" width="60.1012" height="60.1012" rx="19.3603" transform="matrix(0.866025 -0.5 0.866025 0.5 238.278 368.731)" fill="url(#paint21_linear_810_552)"/>
<g id="bitcoin-logo" clip-path="url(#clip1_810_552)">
<g id="Group_2">
<path id="Vector_3" d="M302.493 360.706C300.831 360.584 299.094 360.844 297.282 361.486C298.194 359.862 297.4 358.459 294.9 357.275C294 356.842 293.057 356.561 292.07 356.431C291.082 356.302 290.08 356.318 289.061 356.48C288.042 356.642 287.054 356.888 286.098 357.216C285.142 357.545 284.127 357.969 283.052 358.488L278.327 355.761L275.44 357.427L280.034 360.079C279.534 360.368 278.784 360.815 277.784 361.421L273.153 358.748L270.266 360.415L274.991 363.142C274.591 363.388 273.991 363.741 273.191 364.203L269.198 366.487L272.272 368.262L274.353 367.061C275.303 366.512 276.284 366.437 277.297 366.833L282.677 369.94C282.802 369.868 282.909 369.814 282.996 369.778L282.696 369.951L290.233 374.302C290.77 374.728 290.726 375.121 290.101 375.482L288.021 376.683L290.87 379L294.62 376.835C294.858 376.698 295.204 376.501 295.66 376.245C296.116 375.988 296.457 375.795 296.682 375.666L301.462 378.426L304.35 376.758L299.626 374.031C300.163 373.735 300.932 373.299 301.932 372.721L306.637 375.438L309.524 373.771L304.743 371.011C305.719 370.39 306.535 369.812 307.19 369.274C307.846 368.736 308.39 368.173 308.821 367.585C309.252 366.997 309.492 366.436 309.542 365.902C309.593 365.368 309.439 364.815 309.083 364.241C308.726 363.667 308.149 363.099 307.348 362.536C305.774 361.439 304.156 360.829 302.493 360.706ZM281.214 363.337C281.302 363.286 281.546 363.142 281.946 362.904C282.346 362.666 282.677 362.467 282.939 362.308C283.202 362.15 283.58 361.949 284.074 361.708C284.567 361.466 285.002 361.273 285.376 361.129C285.751 360.984 286.198 360.845 286.717 360.712C287.236 360.578 287.71 360.506 288.141 360.495C288.573 360.485 289.026 360.526 289.501 360.62C289.976 360.714 290.419 360.88 290.832 361.118C291.182 361.32 291.444 361.536 291.62 361.767C291.795 361.998 291.866 362.235 291.835 362.476C291.804 362.718 291.742 362.949 291.648 363.169C291.554 363.389 291.366 363.631 291.085 363.894C290.804 364.158 290.551 364.383 290.326 364.57C290.101 364.758 289.792 364.976 289.398 365.225C289.004 365.474 288.705 365.662 288.498 365.788C288.292 365.915 288.001 366.082 287.626 366.292C287.251 366.501 287.033 366.624 286.97 366.66L281.215 363.337L281.214 363.337L281.214 363.337ZM301.865 366.156C302.034 366.391 302.131 366.624 302.156 366.855C302.181 367.085 302.122 367.336 301.978 367.607C301.834 367.877 301.668 368.125 301.481 368.348C301.294 368.572 301.034 368.823 300.703 369.1C300.372 369.379 300.068 369.615 299.793 369.81C299.519 370.005 299.178 370.23 298.772 370.486C298.366 370.742 298.044 370.939 297.806 371.076C297.569 371.213 297.265 371.384 296.897 371.59C296.528 371.796 296.294 371.928 296.194 371.985L289.857 368.327C289.957 368.269 290.248 368.094 290.729 367.802C291.21 367.509 291.607 367.273 291.919 367.093C292.232 366.913 292.682 366.674 293.27 366.378C293.856 366.083 294.375 365.848 294.825 365.675C295.275 365.501 295.8 365.332 296.4 365.166C297 365 297.55 364.902 298.05 364.874C298.55 364.845 299.068 364.877 299.606 364.971C300.144 365.065 300.637 365.241 301.087 365.501C301.438 365.704 301.697 365.922 301.865 366.156Z" fill="#171920"/>
</g>
</g>
</g>
<g id="Group 1410089365">
<circle id="Ellipse 2739" cx="234" cy="284" r="3" fill="#95929B"/>
<circle id="Ellipse 2751" cx="227" cy="342" r="3" fill="#95929B"/>
<circle id="Ellipse 2740" cx="130" cy="346" r="3" fill="#95929B"/>
<circle id="Ellipse 2741" cx="133" cy="415" r="3" fill="#95929B"/>
<circle id="Ellipse 2742" cx="237" cy="479" r="3" fill="#95929B"/>
<circle id="Ellipse 2743" cx="234" cy="421" r="3" fill="#95929B"/>
<circle id="Ellipse 2744" cx="341" cy="338" r="3" fill="#95929B"/>
<circle id="Ellipse 2745" cx="335" cy="285" r="3" fill="#95929B"/>
<circle id="Ellipse 2746" cx="445" cy="348" r="3" fill="#95929B"/>
<circle id="Ellipse 2747" cx="448" cy="413" r="3" fill="#95929B"/>
<circle id="Ellipse 2748" cx="349" cy="422" r="3" fill="#95929B"/>
<circle id="Ellipse 2749" cx="341" cy="477" r="3" fill="#95929B"/>
<circle id="Ellipse 2750" cx="455" cy="484" r="3" fill="#95929B"/>
<circle id="Ellipse 2752" cx="437" cy="282" r="3" fill="#95929B"/>
<circle id="Ellipse 2753" cx="120" cy="280" r="3" fill="#95929B"/>
<circle id="Ellipse 2754" cx="125" cy="486" r="3" fill="#95929B"/>
<g id="Group 1410089364">
<path id="Rectangle 6" d="M367.467 302.52L385.357 312.609V332.186L367.467 322.096V302.52Z" fill="#645C6E"/>
<path id="Rectangle 7" d="M385.137 312.279L402.903 301.882V321.821L385.137 332.217V312.279Z" fill="#444051"/>
<path id="Rectangle 8" d="M385.127 291.8L402.953 301.853L385.292 312.572L367.467 302.519L385.127 291.8Z" fill="#98939F"/>
</g>
</g>
<g id="Group 1410089369">
<g id="Group 1410089364_2">
<path id="Rectangle 6_2" d="M483 371.719L500.891 381.809V401.386L483 391.296V371.719Z" fill="#645C6E"/>
<path id="Rectangle 7_2" d="M500.669 381.479L518.436 371.082V391.02L500.669 401.417V381.479Z" fill="#444051"/>
<path id="Rectangle 8_2" d="M500.661 361L518.486 371.053L500.825 381.772L483 371.719L500.661 361Z" fill="#98939F"/>
</g>
</g>
<g id="Group 1410089366">
<g id="Group 1410089364_3">
<path id="Rectangle 6_3" d="M374 437.719L391.891 447.809V467.386L374 457.296V437.719Z" fill="#645C6E"/>
<path id="Rectangle 7_3" d="M391.669 447.479L409.436 437.082V457.02L391.669 467.417V447.479Z" fill="#444051"/>
<path id="Rectangle 8_3" d="M391.661 427L409.486 437.053L391.825 447.772L374 437.719L391.661 427Z" fill="#98939F"/>
</g>
</g>
<g id="Group 1410089367">
<g id="Group 1410089364_4">
<path id="Rectangle 6_4" d="M170.364 439.866L188.254 449.956V469.532L170.364 459.442V439.866Z" fill="#645C6E"/>
<path id="Rectangle 7_4" d="M188.033 449.625L205.8 439.228V459.167L188.033 469.564V449.625Z" fill="#444051"/>
<path id="Rectangle 8_4" d="M188.024 429.147L205.85 439.2L188.189 449.919L170.364 439.866L188.024 429.147Z" fill="#98939F"/>
</g>
</g>
<g id="Group 1410089368">
<g id="Group 1410089364_5">
<rect id="Rectangle 6_5" width="20.5397" height="19.5765" transform="matrix(0.871024 0.49124 0 1 162.789 305.203)" fill="#645C6E"/>
<rect id="Rectangle 7_5" width="20.5851" height="19.9387" transform="matrix(0.86308 -0.505067 0 1 180.463 314.98)" fill="#444051"/>
<rect id="Rectangle 8_5" width="20.4646" height="20.659" transform="matrix(0.871024 0.49124 -0.854862 0.518856 180.45 294.484)" fill="#98939F"/>
</g>
</g>
<g id="Group 1410089370">
<g id="Group 1410089364_6">
<path id="Rectangle 6_6" d="M59 369.719L76.8906 379.809V399.386L59 389.296V369.719Z" fill="#645C6E"/>
<path id="Rectangle 7_6" d="M76.6694 379.478L94.436 369.081V389.02L76.6694 399.417V379.478Z" fill="#444051"/>
<path id="Rectangle 8_6" d="M76.6606 359L94.4858 369.053L76.8252 379.772L59 369.719L76.6606 359Z" fill="#98939F"/>
</g>
</g>
<g id="Group 1410089371">
<g id="Group 1410089364_7">
<path id="Rectangle 6_7" d="M270.52 497.939L288.41 508.029V527.606L270.52 517.516V497.939Z" fill="#645C6E"/>
<path id="Rectangle 7_7" d="M288.189 507.698L305.956 497.302V517.24L288.189 527.637V507.698Z" fill="#444051"/>
<path id="Rectangle 8_7" d="M288.18 487.22L306.005 497.273L288.345 507.992L270.52 497.939L288.18 487.22Z" fill="#98939F"/>
</g>
</g>
<g id="Group 1410089372">
<g id="Group 1410089364_8">
<path id="Rectangle 6_8" d="M264.628 247.13L282.518 257.219V276.796L264.628 266.706V247.13Z" fill="#645C6E"/>
<path id="Rectangle 7_8" d="M282.297 256.889L300.064 246.492V266.43L282.297 276.827V256.889Z" fill="#444051"/>
<path id="Rectangle 8_8" d="M282.289 236.41L300.114 246.463L282.453 257.182L264.628 247.129L282.289 236.41Z" fill="#98939F"/>
</g>
</g>
<g id="Group 1410089363">
<g id="Group_3">
<path id="Vector_4" d="M93.5774 242.302C82.9962 242.302 74.4165 250.88 74.4165 261.462C74.4165 272.044 82.9954 280.622 93.5774 280.622C104.16 280.622 112.738 272.044 112.738 261.462C112.738 250.88 104.16 242.302 93.5774 242.302ZM93.5774 248.031C97.0786 248.031 99.9158 250.869 99.9158 254.368C99.9158 257.869 97.0786 260.706 93.5774 260.706C90.0778 260.706 87.2406 257.869 87.2406 254.368C87.2406 250.869 90.0778 248.031 93.5774 248.031ZM93.5732 275.612C90.0812 275.612 86.8829 274.341 84.4161 272.236C83.8151 271.723 83.4684 270.972 83.4684 270.183C83.4684 266.634 86.3409 263.793 89.891 263.793H97.2655C100.816 263.793 103.678 266.634 103.678 270.183C103.678 270.972 103.333 271.722 102.731 272.235C100.265 274.341 97.066 275.612 93.5732 275.612Z" fill="url(#paint22_linear_810_552)"/>
</g>
</g>
<g id="Group_4">
<path id="Vector_5" d="M93.5774 482.17C82.9962 482.17 74.4165 490.748 74.4165 501.33C74.4165 511.912 82.9954 520.49 93.5774 520.49C104.16 520.49 112.738 511.912 112.738 501.33C112.738 490.748 104.16 482.17 93.5774 482.17ZM93.5774 487.899C97.0786 487.899 99.9158 490.737 99.9158 494.237C99.9158 497.737 97.0786 500.574 93.5774 500.574C90.0778 500.574 87.2406 497.737 87.2406 494.237C87.2406 490.737 90.0778 487.899 93.5774 487.899ZM93.5732 515.481C90.0812 515.481 86.8829 514.209 84.4161 512.104C83.8151 511.592 83.4684 510.84 83.4684 510.051C83.4684 506.502 86.3409 503.662 89.891 503.662H97.2655C100.816 503.662 103.678 506.502 103.678 510.051C103.678 510.841 103.333 511.591 102.731 512.103C100.265 514.209 97.066 515.481 93.5732 515.481Z" fill="url(#paint23_linear_810_552)"/>
</g>
<g id="Group_5">
<path id="Vector_6" d="M486.161 481C475.58 481 467 489.578 467 500.16C467 510.742 475.579 519.32 486.161 519.32C496.744 519.32 505.322 510.742 505.322 500.16C505.322 489.578 496.744 481 486.161 481ZM486.161 486.729C489.662 486.729 492.499 489.567 492.499 493.067C492.499 496.567 489.662 499.404 486.161 499.404C482.661 499.404 479.824 496.567 479.824 493.067C479.824 489.567 482.661 486.729 486.161 486.729ZM486.157 514.311C482.665 514.311 479.466 513.039 477 510.934C476.399 510.421 476.052 509.67 476.052 508.881C476.052 505.332 478.924 502.491 482.474 502.491H489.849C493.4 502.491 496.261 505.332 496.261 508.881C496.261 509.671 495.916 510.421 495.315 510.933C492.849 513.039 489.649 514.311 486.157 514.311Z" fill="url(#paint24_linear_810_552)"/>
</g>
<g id="Group_6">
<path id="Vector_7" d="M471.161 242C460.58 242 452 250.578 452 261.16C452 271.742 460.579 280.32 471.161 280.32C481.744 280.32 490.322 271.742 490.322 261.16C490.322 250.578 481.744 242 471.161 242ZM471.161 247.729C474.662 247.729 477.499 250.567 477.499 254.067C477.499 257.567 474.662 260.404 471.161 260.404C467.661 260.404 464.824 257.567 464.824 254.067C464.824 250.567 467.661 247.729 471.161 247.729ZM471.157 275.311C467.665 275.311 464.466 274.039 462 271.934C461.399 271.421 461.052 270.67 461.052 269.881C461.052 266.332 463.924 263.491 467.474 263.491H474.849C478.4 263.491 481.261 266.332 481.261 269.881C481.261 270.671 480.916 271.421 480.315 271.933C477.849 274.039 474.649 275.311 471.157 275.311Z" fill="url(#paint25_linear_810_552)"/>
</g>
</g>
</g>
</g>
<rect x="0.5" y="0.5" width="575" height="674" rx="23.5" stroke="#D9D9D9" stroke-opacity="0.2" shape-rendering="crispEdges"/>
</g>
<defs>
<filter id="filter0_d_810_552" x="-20" y="-18" width="616" height="715" filterUnits="userSpaceOnUse" color-interpolation-filters="sRGB">
<feFlood flood-opacity="0" result="BackgroundImageFix"/>
<feColorMatrix in="SourceAlpha" type="matrix" values="0 0 0 0 0 0 0 0 0 0 0 0 0 0 0 0 0 0 127 0" result="hardAlpha"/>
<feOffset dy="2"/>
<feGaussianBlur stdDeviation="10"/>
<feComposite in2="hardAlpha" operator="out"/>
<feColorMatrix type="matrix" values="0 0 0 0 0 0 0 0 0 0 0 0 0 0 0 0 0 0 0.06 0"/>
<feBlend mode="normal" in2="BackgroundImageFix" result="effect1_dropShadow_810_552"/>
<feBlend mode="normal" in="SourceGraphic" in2="effect1_dropShadow_810_552" result="shape"/>
</filter>
<linearGradient id="paint0_linear_810_552" x1="287.5" y1="760.5" x2="287.5" y2="546" gradientUnits="userSpaceOnUse">
<stop stop-color="#C1A3FF" stop-opacity="0.5"/>
<stop offset="1" stop-color="white" stop-opacity="0"/>
</linearGradient>
<linearGradient id="paint1_linear_810_552" x1="136.481" y1="625.703" x2="180.95" y2="786.913" gradientUnits="userSpaceOnUse">
<stop stop-color="#B787FF"/>
<stop offset="0.221154" stop-color="white"/>
<stop offset="0.490385" stop-color="#D7BDFF"/>
<stop offset="0.723874" stop-color="white"/>
<stop offset="1" stop-color="#8651D5"/>
</linearGradient>
<radialGradient id="paint2_radial_810_552" cx="0" cy="0" r="1" gradientUnits="userSpaceOnUse" gradientTransform="translate(127.651 675.755) rotate(-3.3507) scale(321.157 75.1221)">
<stop stop-color="#D8BEFF"/>
<stop offset="0.558487" stop-color="#8636FE"/>
<stop offset="1" stop-color="#502098"/>
</radialGradient>
<linearGradient id="paint3_linear_810_552" x1="169.889" y1="678.243" x2="185.006" y2="773.464" gradientUnits="userSpaceOnUse">
<stop stop-color="#8636FE"/>
<stop offset="0.43705" stop-color="#E8D9FF"/>
<stop offset="1" stop-color="#502098"/>
</linearGradient>
<linearGradient id="paint4_linear_810_552" x1="349.881" y1="319.086" x2="313.693" y2="249.909" gradientUnits="userSpaceOnUse">
<stop stop-color="white" stop-opacity="0"/>
<stop offset="0.48" stop-color="white" stop-opacity="0.5"/>
<stop offset="1" stop-color="white" stop-opacity="0.1"/>
</linearGradient>
<linearGradient id="paint5_linear_810_552" x1="153.799" y1="455.276" x2="113.45" y2="379.504" gradientUnits="userSpaceOnUse">
<stop stop-color="white" stop-opacity="0"/>
<stop offset="0.48" stop-color="white" stop-opacity="0.5"/>
<stop offset="1" stop-color="white" stop-opacity="0.1"/>
</linearGradient>
<linearGradient id="paint6_linear_810_552" x1="461.842" y1="385.623" x2="422.201" y2="310.641" gradientUnits="userSpaceOnUse">
<stop stop-color="white" stop-opacity="0"/>
<stop offset="0.48" stop-color="white" stop-opacity="0.5"/>
<stop offset="1" stop-color="white" stop-opacity="0.1"/>
</linearGradient>
<linearGradient id="paint7_linear_810_552" x1="253.432" y1="512.621" x2="218.805" y2="447.303" gradientUnits="userSpaceOnUse">
<stop stop-color="white" stop-opacity="0"/>
<stop offset="0.48" stop-color="white" stop-opacity="0.5"/>
<stop offset="1" stop-color="white" stop-opacity="0.1"/>
</linearGradient>
<linearGradient id="paint8_linear_810_552" x1="369" y1="339.5" x2="307.905" y2="341.92" gradientUnits="userSpaceOnUse">
<stop stop-color="white" stop-opacity="0"/>
<stop offset="0.48" stop-color="white" stop-opacity="0.5"/>
<stop offset="1" stop-color="white" stop-opacity="0.1"/>
</linearGradient>
<linearGradient id="paint9_linear_810_552" x1="213.663" y1="315.673" x2="245.234" y2="369.467" gradientUnits="userSpaceOnUse">
<stop stop-color="white" stop-opacity="0"/>
<stop offset="0.48" stop-color="white" stop-opacity="0.5"/>
<stop offset="1" stop-color="white" stop-opacity="0.1"/>
</linearGradient>
<linearGradient id="paint10_linear_810_552" x1="122.377" y1="263.42" x2="153.02" y2="315.862" gradientUnits="userSpaceOnUse">
<stop stop-color="white" stop-opacity="0"/>
<stop offset="0.48" stop-color="white" stop-opacity="0.5"/>
<stop offset="1" stop-color="white" stop-opacity="0.1"/>
</linearGradient>
<linearGradient id="paint11_linear_810_552" x1="424.37" y1="447.298" x2="455.212" y2="500.159" gradientUnits="userSpaceOnUse">
<stop stop-color="white" stop-opacity="0"/>
<stop offset="0.48" stop-color="white" stop-opacity="0.5"/>
<stop offset="1" stop-color="white" stop-opacity="0.1"/>
</linearGradient>
<linearGradient id="paint12_linear_810_552" x1="201.151" y1="421.516" x2="265.846" y2="419.446" gradientUnits="userSpaceOnUse">
<stop stop-color="white" stop-opacity="0"/>
<stop offset="0.48" stop-color="white" stop-opacity="0.5"/>
<stop offset="1" stop-color="white" stop-opacity="0.1"/>
</linearGradient>
<linearGradient id="paint13_linear_810_552" x1="111.515" y1="475.173" x2="175.661" y2="473.09" gradientUnits="userSpaceOnUse">
<stop stop-color="white" stop-opacity="0"/>
<stop offset="0.48" stop-color="white" stop-opacity="0.5"/>
<stop offset="1" stop-color="white" stop-opacity="0.1"/>
</linearGradient>
<linearGradient id="paint14_linear_810_552" x1="400.137" y1="285.272" x2="461.819" y2="283.177" gradientUnits="userSpaceOnUse">
<stop stop-color="white" stop-opacity="0"/>
<stop offset="0.48" stop-color="white" stop-opacity="0.5"/>
<stop offset="1" stop-color="white" stop-opacity="0.1"/>
</linearGradient>
<linearGradient id="paint15_linear_810_552" x1="198.167" y1="283.536" x2="272.165" y2="281.061" gradientUnits="userSpaceOnUse">
<stop stop-color="white" stop-opacity="0"/>
<stop offset="0.48" stop-color="white" stop-opacity="0.5"/>
<stop offset="1" stop-color="white" stop-opacity="0.1"/>
</linearGradient>
<linearGradient id="paint16_linear_810_552" x1="94.1845" y1="345.228" x2="166.966" y2="343.124" gradientUnits="userSpaceOnUse">
<stop stop-color="white" stop-opacity="0"/>
<stop offset="0.48" stop-color="white" stop-opacity="0.5"/>
<stop offset="1" stop-color="white" stop-opacity="0.1"/>
</linearGradient>
<linearGradient id="paint17_linear_810_552" x1="300.158" y1="478.756" x2="375.964" y2="476.393" gradientUnits="userSpaceOnUse">
<stop stop-color="white" stop-opacity="0"/>
<stop offset="0.48" stop-color="white" stop-opacity="0.5"/>
<stop offset="1" stop-color="white" stop-opacity="0.1"/>
</linearGradient>
<linearGradient id="paint18_linear_810_552" x1="408.185" y1="414.207" x2="483.964" y2="411.902" gradientUnits="userSpaceOnUse">
<stop stop-color="white" stop-opacity="0"/>
<stop offset="0.48" stop-color="white" stop-opacity="0.5"/>
<stop offset="1" stop-color="white" stop-opacity="0.1"/>
</linearGradient>
<linearGradient id="paint19_linear_810_552" x1="359.654" y1="446.865" x2="331.552" y2="393.925" gradientUnits="userSpaceOnUse">
<stop stop-color="white" stop-opacity="0"/>
<stop offset="0.48" stop-color="white" stop-opacity="0.5"/>
<stop offset="1" stop-color="white" stop-opacity="0.1"/>
</linearGradient>
<radialGradient id="paint20_radial_810_552" cx="0" cy="0" r="1" gradientUnits="userSpaceOnUse" gradientTransform="translate(290.299 337) rotate(90) scale(82 144.964)">
<stop offset="0.0835809" stop-color="white"/>
<stop offset="1" stop-color="#171920"/>
</radialGradient>
<linearGradient id="paint21_linear_810_552" x1="30.0506" y1="6.82415e-07" x2="21.0023" y2="149.024" gradientUnits="userSpaceOnUse">
<stop stop-color="white"/>
<stop offset="1" stop-color="#999999"/>
</linearGradient>
<linearGradient id="paint22_linear_810_552" x1="93.5774" y1="229.302" x2="93.5774" y2="280.622" gradientUnits="userSpaceOnUse">
<stop stop-color="white"/>
<stop offset="1" stop-color="white" stop-opacity="0"/>
</linearGradient>
<linearGradient id="paint23_linear_810_552" x1="93.5774" y1="469.17" x2="93.5774" y2="520.49" gradientUnits="userSpaceOnUse">
<stop stop-color="white"/>
<stop offset="1" stop-color="white" stop-opacity="0"/>
</linearGradient>
<linearGradient id="paint24_linear_810_552" x1="486.161" y1="468" x2="486.161" y2="519.32" gradientUnits="userSpaceOnUse">
<stop stop-color="white"/>
<stop offset="1" stop-color="white" stop-opacity="0"/>
</linearGradient>
<linearGradient id="paint25_linear_810_552" x1="471.161" y1="229" x2="471.161" y2="280.32" gradientUnits="userSpaceOnUse">
<stop stop-color="white"/>
<stop offset="1" stop-color="white" stop-opacity="0"/>
</linearGradient>
<clipPath id="clip0_810_552">
<rect width="576" height="675" rx="24" fill="white"/>
</clipPath>
<clipPath id="clip1_810_552">
<rect width="36.0218" height="44.206" fill="white" transform="matrix(0.866025 -0.5 0.866025 0.5 255.617 366.226)"/>
</clipPath>
</defs>
</svg>
