<svg width="361" height="474" viewBox="0 0 361 474" fill="none" xmlns="http://www.w3.org/2000/svg">
<g id="What is Tokenization" filter="url(#filter0_d_2027_251)">
<g clip-path="url(#clip0_2027_251)">
<rect width="361" height="474" rx="15.0417" fill="white" fill-opacity="0.06" shape-rendering="crispEdges"/>
<g id="Group 1410089393">
<path id="Vector 459" d="M361 367.251L208.909 452.597L158.577 452.597L-0.626702 367.251L361 367.251Z" fill="url(#paint0_linear_2027_251)"/>
<g id="Group 1410089392">
<path id="Vector" d="M253.416 457.592C231.91 441.891 182.125 435.616 142.181 443.577C102.236 451.511 87.2816 470.667 108.788 486.369C130.266 502.042 180.079 508.317 219.996 500.384C259.94 492.45 274.895 473.266 253.416 457.592ZM213.057 495.297C180.3 501.821 139.306 496.652 121.67 483.798C104.033 470.916 116.362 455.16 149.119 448.636C181.876 442.112 222.871 447.281 240.507 460.163C258.143 473.045 245.814 488.801 213.057 495.325V495.297Z" fill="url(#paint1_linear_2027_251)"/>
<path id="Vector_2" d="M149.119 448.636C181.875 442.112 222.87 447.282 240.506 460.163C258.143 473.045 245.814 488.801 213.057 495.325C180.3 501.849 139.305 496.68 121.669 483.826C104.033 470.944 116.362 455.187 149.119 448.664V448.636Z" fill="url(#paint2_radial_2027_251)"/>
<g id="Group">
<path id="Union" d="M263.23 473.21L262.179 501.544C261.985 506.188 259.194 510.279 255.545 513.569C255.517 513.596 255.49 513.652 255.462 513.652H255.434C228.288 537.784 139.969 538.254 107.737 514.703L108.788 486.369C129.659 501.627 170.957 505.276 198.379 503.258C221.018 501.572 262.483 493.224 263.23 473.183V473.21ZM98.9747 470.75C98.7812 476.003 101.905 481.366 108.761 486.397L107.71 514.731C100.855 509.728 97.7031 504.364 97.8966 499.112L98.9747 470.75Z" fill="url(#paint3_linear_2027_251)"/>
</g>
</g>
<g id="Group 1410089386">
<g id="Group 17">
<path id="Vector 447" d="M182.381 218.411C204.758 230.378 212.649 235.274 235.026 247.241" stroke="url(#paint4_linear_2027_251)" stroke-width="0.527489"/>
<path id="Vector 451" d="M58.9133 298.634C80.8593 313.079 88.6503 318.892 110.596 333.337" stroke="url(#paint5_linear_2027_251)" stroke-width="0.527489"/>
<path id="Vector 453" d="M251.322 256.015C273.951 269.829 281.964 275.419 304.594 289.232" stroke="url(#paint6_linear_2027_251)" stroke-width="0.527489"/>
<path id="Vector 454" d="M125.974 340.625C145.376 352.822 152.253 357.747 171.655 369.943" stroke="url(#paint7_linear_2027_251)" stroke-width="0.527489"/>
<path id="Vector 441" d="M193.035 279.205C209.082 269.265 215.219 265.955 231.266 256.016" stroke="url(#paint8_linear_2027_251)" stroke-width="0.527489"/>
<path id="Vector 443" d="M162.036 281.899C145.936 271.916 140.194 267.878 124.094 257.896" stroke="url(#paint9_linear_2027_251)" stroke-width="0.527489"/>
<path id="Vector 455" d="M104.54 248.14C88.4721 238.627 82.7517 234.764 66.6842 225.252" stroke="url(#paint10_linear_2027_251)" stroke-width="0.527489"/>
<path id="Vector 457" d="M294.191 363.505C277.856 353.998 272.044 350.132 255.709 340.625" stroke="url(#paint11_linear_2027_251)" stroke-width="0.527489"/>
<path id="Vector 444" d="M166.635 307.095C149.566 317.448 143.043 320.89 125.974 331.243" stroke="url(#paint12_linear_2027_251)" stroke-width="0.527489"/>
<path id="Vector 456" d="M110.113 340.969C93.1891 351.111 86.7215 354.482 69.7976 364.624" stroke="url(#paint13_linear_2027_251)" stroke-width="0.527489"/>
<path id="Vector 458" d="M285.165 224.992C268.892 234.391 266.967 235.335 250.694 244.734" stroke="url(#paint14_linear_2027_251)" stroke-width="0.527489"/>
<path id="Vector 446" d="M170.6 219.397C151.077 230.817 143.617 234.613 124.094 246.033" stroke="url(#paint15_linear_2027_251)" stroke-width="0.527489"/>
<path id="Vector 450" d="M104.665 256.642C85.459 269.276 78.1197 273.477 58.9135 286.111" stroke="url(#paint16_linear_2027_251)" stroke-width="0.527489"/>
<path id="Vector 452" d="M235.653 340.625C215.652 353.012 208.008 357.129 188.007 369.516" stroke="url(#paint17_linear_2027_251)" stroke-width="0.527489"/>
<path id="Vector 449" d="M303.341 299.887C283.345 312.516 275.704 316.714 255.709 329.344" stroke="url(#paint18_linear_2027_251)" stroke-width="0.527489"/>
<path id="Vector 445" d="M198.915 306.057C214.518 316.007 220.051 320.02 235.653 329.97" stroke="url(#paint19_linear_2027_251)" stroke-width="0.527489"/>
<path id="Vector 442" d="M155.83 298.564V284.761H208.051V298.173C208.051 300.285 206.998 302.259 205.242 303.434L192.907 311.688C184.552 316.394 175.935 313.779 171.253 311.324L158.929 304.007C157.008 302.867 155.83 300.798 155.83 298.564Z" fill="url(#paint20_radial_2027_251)"/>
<rect id="Rectangle 2.1" width="37.6676" height="37.6676" rx="12.1338" transform="matrix(0.866025 -0.5 0.866025 0.5 149.338 285.93)" fill="url(#paint21_linear_2027_251)"/>
<g id="bitcoin-logo" clip-path="url(#clip1_2027_251)">
<g id="Group_2">
<path id="Vector_3" d="M189.584 280.901C188.542 280.824 187.453 280.987 186.318 281.389C186.889 280.372 186.392 279.492 184.825 278.75C184.261 278.479 183.67 278.303 183.051 278.221C182.432 278.14 181.804 278.15 181.165 278.252C180.527 278.354 179.908 278.508 179.309 278.713C178.71 278.919 178.073 279.185 177.399 279.511L174.438 277.801L172.629 278.846L175.508 280.508C175.194 280.689 174.724 280.969 174.098 281.349L171.196 279.673L169.386 280.718L172.347 282.428C172.096 282.581 171.72 282.803 171.219 283.092L168.716 284.524L170.643 285.636L171.948 284.883C172.543 284.54 173.158 284.492 173.792 284.741L177.165 286.688C177.243 286.643 177.31 286.609 177.365 286.586L177.176 286.695L181.9 289.422C182.237 289.688 182.209 289.935 181.818 290.161L180.514 290.914L182.3 292.366L184.65 291.009C184.798 290.923 185.016 290.8 185.301 290.639C185.587 290.479 185.801 290.358 185.942 290.276L188.938 292.006L190.748 290.961L187.787 289.252C188.124 289.066 188.605 288.793 189.232 288.431L192.181 290.134L193.99 289.089L190.994 287.359C191.605 286.97 192.117 286.607 192.528 286.27C192.939 285.933 193.28 285.581 193.55 285.212C193.82 284.844 193.97 284.492 194.002 284.157C194.033 283.823 193.937 283.476 193.714 283.116C193.49 282.756 193.128 282.4 192.627 282.047C191.64 281.36 190.626 280.978 189.584 280.901ZM176.248 282.549C176.303 282.518 176.455 282.427 176.706 282.278C176.957 282.129 177.164 282.004 177.329 281.905C177.493 281.805 177.73 281.68 178.04 281.528C178.349 281.377 178.621 281.256 178.856 281.165C179.091 281.075 179.371 280.988 179.696 280.904C180.021 280.82 180.319 280.775 180.589 280.769C180.859 280.762 181.143 280.788 181.441 280.847C181.739 280.905 182.017 281.009 182.275 281.159C182.495 281.285 182.659 281.421 182.769 281.566C182.879 281.71 182.924 281.859 182.904 282.01C182.885 282.161 182.846 282.306 182.787 282.444C182.728 282.582 182.61 282.734 182.434 282.899C182.258 283.064 182.099 283.205 181.958 283.323C181.817 283.44 181.624 283.577 181.377 283.733C181.13 283.889 180.942 284.007 180.813 284.086C180.683 284.165 180.501 284.27 180.266 284.401C180.031 284.533 179.894 284.609 179.855 284.632L176.248 282.549L176.248 282.549L176.248 282.549ZM189.19 284.317C189.296 284.464 189.357 284.609 189.373 284.754C189.388 284.899 189.351 285.056 189.261 285.226C189.171 285.395 189.067 285.55 188.95 285.69C188.832 285.831 188.669 285.988 188.462 286.162C188.254 286.336 188.064 286.484 187.892 286.606C187.72 286.728 187.506 286.87 187.252 287.03C186.997 287.191 186.795 287.314 186.646 287.4C186.498 287.486 186.307 287.593 186.076 287.722C185.845 287.851 185.699 287.934 185.636 287.97L181.664 285.677C181.727 285.641 181.909 285.531 182.211 285.348C182.512 285.165 182.761 285.017 182.957 284.904C183.153 284.791 183.435 284.641 183.803 284.456C184.171 284.27 184.496 284.123 184.778 284.015C185.06 283.906 185.389 283.8 185.765 283.696C186.141 283.592 186.486 283.531 186.799 283.513C187.113 283.495 187.437 283.515 187.774 283.574C188.111 283.632 188.421 283.743 188.703 283.906C188.922 284.033 189.085 284.169 189.19 284.317Z" fill="#171920"/>
</g>
</g>
</g>
<g id="Group 1410089365">
<circle id="Ellipse 2739" cx="146.656" cy="232.826" r="1.88021" fill="#95929B"/>
<circle id="Ellipse 2751" cx="142.269" cy="269.177" r="1.88021" fill="#95929B"/>
<circle id="Ellipse 2740" cx="81.4759" cy="271.684" r="1.88021" fill="#95929B"/>
<circle id="Ellipse 2741" cx="83.3558" cy="314.929" r="1.88021" fill="#95929B"/>
<circle id="Ellipse 2742" cx="148.536" cy="355.04" r="1.88021" fill="#95929B"/>
<circle id="Ellipse 2743" cx="146.656" cy="318.689" r="1.88021" fill="#95929B"/>
<circle id="Ellipse 2744" cx="213.717" cy="266.67" r="1.88021" fill="#95929B"/>
<circle id="Ellipse 2745" cx="209.956" cy="233.453" r="1.88021" fill="#95929B"/>
<circle id="Ellipse 2746" cx="278.898" cy="272.937" r="1.88021" fill="#95929B"/>
<circle id="Ellipse 2747" cx="280.778" cy="313.675" r="1.88021" fill="#95929B"/>
<circle id="Ellipse 2748" cx="218.731" cy="319.316" r="1.88021" fill="#95929B"/>
<circle id="Ellipse 2749" cx="213.717" cy="353.786" r="1.88021" fill="#95929B"/>
<circle id="Ellipse 2750" cx="285.165" cy="358.173" r="1.88021" fill="#95929B"/>
<circle id="Ellipse 2752" cx="273.884" cy="231.573" r="1.88021" fill="#95929B"/>
<circle id="Ellipse 2753" cx="75.2083" cy="230.319" r="1.88021" fill="#95929B"/>
<circle id="Ellipse 2754" cx="78.3421" cy="359.427" r="1.88021" fill="#95929B"/>
<g id="Group 1410089364">
<path id="Rectangle 6" d="M230.305 244.433L241.517 250.757V263.026L230.305 256.702V244.433Z" fill="#645C6E"/>
<path id="Rectangle 7" d="M241.379 250.55L252.514 244.033V256.53L241.379 263.046V250.55Z" fill="#444051"/>
<path id="Rectangle 8" d="M241.373 237.715L252.545 244.016L241.476 250.734L230.304 244.433L241.373 237.715Z" fill="#98939F"/>
</g>
</g>
<g id="Group 1410089369">
<g id="Group 1410089364_2">
<path id="Rectangle 6_2" d="M302.713 287.803L313.926 294.127V306.396L302.713 300.072V287.803Z" fill="#645C6E"/>
<path id="Rectangle 7_2" d="M313.788 293.92L324.923 287.404V299.9L313.788 306.416V293.92Z" fill="#444051"/>
<path id="Rectangle 8_2" d="M313.782 281.085L324.954 287.386L313.885 294.104L302.714 287.803L313.782 281.085Z" fill="#98939F"/>
</g>
</g>
<g id="Group 1410089366">
<g id="Group 1410089364_3">
<path id="Rectangle 6_3" d="M234.399 329.168L245.612 335.491V347.761L234.399 341.437V329.168Z" fill="#645C6E"/>
<path id="Rectangle 7_3" d="M245.473 335.284L256.608 328.768V341.264L245.473 347.78V335.284Z" fill="#444051"/>
<path id="Rectangle 8_3" d="M245.468 322.449L256.639 328.75L245.571 335.468L234.399 329.167L245.468 322.449Z" fill="#98939F"/>
</g>
</g>
<g id="Group 1410089367">
<g id="Group 1410089364_4">
<path id="Rectangle 6_4" d="M106.773 330.513L117.986 336.837V349.106L106.773 342.782V330.513Z" fill="#645C6E"/>
<path id="Rectangle 7_4" d="M117.847 336.629L128.982 330.113V342.61L117.847 349.126V336.629Z" fill="#444051"/>
<path id="Rectangle 8_4" d="M117.842 323.795L129.013 330.096L117.945 336.814L106.773 330.513L117.842 323.795Z" fill="#98939F"/>
</g>
</g>
<g id="Group 1410089368">
<g id="Group 1410089364_5">
<rect id="Rectangle 6_5" width="12.873" height="12.2693" transform="matrix(0.871024 0.49124 0 1 102.026 246.115)" fill="#645C6E"/>
<rect id="Rectangle 7_5" width="12.9014" height="12.4963" transform="matrix(0.86308 -0.505067 0 1 113.103 252.243)" fill="#444051"/>
<rect id="Rectangle 8_5" width="12.8259" height="12.9478" transform="matrix(0.871024 0.49124 -0.854862 0.518856 113.094 239.397)" fill="#98939F"/>
</g>
</g>
<g id="Group 1410089370">
<g id="Group 1410089364_6">
<path id="Rectangle 6_6" d="M36.9775 286.55L48.1902 292.873V305.143L36.9775 298.819V286.55Z" fill="#645C6E"/>
<path id="Rectangle 7_6" d="M48.0513 292.666L59.1862 286.15V298.646L48.0513 305.162V292.666Z" fill="#444051"/>
<path id="Rectangle 8_6" d="M48.0459 279.832L59.2176 286.132L48.149 292.85L36.9773 286.55L48.0459 279.832Z" fill="#98939F"/>
</g>
</g>
<g id="Group 1410089371">
<g id="Group 1410089364_7">
<path id="Rectangle 6_7" d="M169.544 366.91L180.757 373.234V385.503L169.544 379.179V366.91Z" fill="#645C6E"/>
<path id="Rectangle 7_7" d="M180.619 373.026L191.754 366.51V379.006L180.619 385.522V373.026Z" fill="#444051"/>
<path id="Rectangle 8_7" d="M180.613 360.192L191.784 366.492L180.716 373.21L169.544 366.91L180.613 360.192Z" fill="#98939F"/>
</g>
</g>
<g id="Group 1410089372">
<g id="Group 1410089364_8">
<path id="Rectangle 6_8" d="M165.852 209.718L177.065 216.042V228.311L165.852 221.988V209.718Z" fill="#645C6E"/>
<path id="Rectangle 7_8" d="M176.926 215.835L188.061 209.319V221.815L176.926 228.331V215.835Z" fill="#444051"/>
<path id="Rectangle 8_8" d="M176.92 203L188.092 209.301L177.024 216.019L165.852 209.718L176.92 203Z" fill="#98939F"/>
</g>
</g>
<g id="Group 1410089363">
<g id="Group_3">
<path id="Vector_4" d="M58.6485 206.693C52.0169 206.693 46.6396 212.069 46.6396 218.701C46.6396 225.333 52.0163 230.709 58.6485 230.709C65.2811 230.709 70.6573 225.333 70.6573 218.701C70.6573 212.069 65.2811 206.693 58.6485 206.693ZM58.6485 210.283C60.8428 210.283 62.621 212.062 62.621 214.255C62.621 216.449 60.8428 218.227 58.6485 218.227C56.4552 218.227 54.677 216.449 54.677 214.255C54.677 212.062 56.4552 210.283 58.6485 210.283ZM58.6458 227.57C56.4573 227.57 54.4528 226.773 52.9067 225.453C52.5301 225.132 52.3128 224.661 52.3128 224.167C52.3128 221.942 54.1131 220.162 56.3381 220.162H60.9599C63.1854 220.162 64.9788 221.942 64.9788 224.167C64.9788 224.662 64.7626 225.132 64.3854 225.453C62.8399 226.773 60.8349 227.57 58.6458 227.57Z" fill="url(#paint22_linear_2027_251)"/>
</g>
</g>
<g id="Group_4">
<path id="Vector_5" d="M58.6485 357.027C52.0169 357.027 46.6396 362.403 46.6396 369.035C46.6396 375.667 52.0163 381.043 58.6485 381.043C65.2811 381.043 70.6573 375.667 70.6573 369.035C70.6573 362.403 65.2811 357.027 58.6485 357.027ZM58.6485 360.617C60.8428 360.617 62.621 362.396 62.621 364.589C62.621 366.783 60.8428 368.561 58.6485 368.561C56.4552 368.561 54.677 366.783 54.677 364.589C54.677 362.396 56.4552 360.617 58.6485 360.617ZM58.6458 377.904C56.4573 377.904 54.4528 377.107 52.9067 375.787C52.5301 375.466 52.3128 374.995 52.3128 374.501C52.3128 372.276 54.1131 370.496 56.3381 370.496H60.9599C63.1854 370.496 64.9788 372.276 64.9788 374.501C64.9788 374.996 64.7626 375.466 64.3854 375.787C62.8399 377.107 60.8349 377.904 58.6458 377.904Z" fill="url(#paint23_linear_2027_251)"/>
</g>
<g id="Group_5">
<path id="Vector_6" d="M304.694 356.293C298.063 356.293 292.686 361.669 292.686 368.301C292.686 374.934 298.062 380.31 304.694 380.31C311.327 380.31 316.703 374.934 316.703 368.301C316.703 361.669 311.327 356.293 304.694 356.293ZM304.694 359.884C306.889 359.884 308.667 361.663 308.667 363.856C308.667 366.05 306.889 367.828 304.694 367.828C302.501 367.828 300.723 366.05 300.723 363.856C300.723 361.663 302.501 359.884 304.694 359.884ZM304.692 377.17C302.503 377.17 300.499 376.373 298.953 375.054C298.576 374.733 298.359 374.262 298.359 373.767C298.359 371.543 300.159 369.763 302.384 369.763H307.006C309.231 369.763 311.025 371.543 311.025 373.767C311.025 374.262 310.808 374.732 310.431 375.053C308.886 376.373 306.881 377.17 304.692 377.17Z" fill="url(#paint24_linear_2027_251)"/>
</g>
<g id="Group_6">
<path id="Vector_7" d="M295.293 206.503C288.662 206.503 283.285 211.88 283.285 218.512C283.285 225.144 288.661 230.52 295.293 230.52C301.926 230.52 307.302 225.144 307.302 218.512C307.302 211.88 301.926 206.503 295.293 206.503ZM295.293 210.094C297.488 210.094 299.266 211.873 299.266 214.066C299.266 216.26 297.488 218.038 295.293 218.038C293.1 218.038 291.322 216.26 291.322 214.066C291.322 211.873 293.1 210.094 295.293 210.094ZM295.291 227.38C293.102 227.38 291.098 226.583 289.552 225.264C289.175 224.943 288.958 224.472 288.958 223.978C288.958 221.753 290.758 219.973 292.983 219.973H297.605C299.83 219.973 301.624 221.753 301.624 223.978C301.624 224.472 301.408 224.942 301.03 225.264C299.485 226.583 297.48 227.38 295.291 227.38Z" fill="url(#paint25_linear_2027_251)"/>
</g>
</g>
</g>
</g>
<rect x="0.313368" y="0.313368" width="360.373" height="473.373" rx="14.7283" stroke="#D9D9D9" stroke-opacity="0.2" stroke-width="0.626736" shape-rendering="crispEdges"/>
</g>
<defs>
<filter id="filter0_d_2027_251" x="-12.5347" y="-11.2813" width="386.069" height="499.069" filterUnits="userSpaceOnUse" color-interpolation-filters="sRGB">
<feFlood flood-opacity="0" result="BackgroundImageFix"/>
<feColorMatrix in="SourceAlpha" type="matrix" values="0 0 0 0 0 0 0 0 0 0 0 0 0 0 0 0 0 0 127 0" result="hardAlpha"/>
<feOffset dy="1.25347"/>
<feGaussianBlur stdDeviation="6.26736"/>
<feComposite in2="hardAlpha" operator="out"/>
<feColorMatrix type="matrix" values="0 0 0 0 0 0 0 0 0 0 0 0 0 0 0 0 0 0 0.06 0"/>
<feBlend mode="normal" in2="BackgroundImageFix" result="effect1_dropShadow_2027_251"/>
<feBlend mode="normal" in="SourceGraphic" in2="effect1_dropShadow_2027_251" result="shape"/>
</filter>
<linearGradient id="paint0_linear_2027_251" x1="180.187" y1="531.466" x2="180.187" y2="397.031" gradientUnits="userSpaceOnUse">
<stop stop-color="#C1A3FF" stop-opacity="0.5"/>
<stop offset="1" stop-color="white" stop-opacity="0"/>
</linearGradient>
<linearGradient id="paint1_linear_2027_251" x1="85.5373" y1="446.984" x2="113.408" y2="548.02" gradientUnits="userSpaceOnUse">
<stop stop-color="#B787FF"/>
<stop offset="0.221154" stop-color="white"/>
<stop offset="0.490385" stop-color="#D7BDFF"/>
<stop offset="0.723874" stop-color="white"/>
<stop offset="1" stop-color="#8651D5"/>
</linearGradient>
<radialGradient id="paint2_radial_2027_251" cx="0" cy="0" r="1" gradientUnits="userSpaceOnUse" gradientTransform="translate(80.0036 478.353) rotate(-3.3507) scale(201.281 47.0817)">
<stop stop-color="#D8BEFF"/>
<stop offset="0.558487" stop-color="#8636FE"/>
<stop offset="1" stop-color="#502098"/>
</radialGradient>
<linearGradient id="paint3_linear_2027_251" x1="106.476" y1="479.912" x2="115.95" y2="539.591" gradientUnits="userSpaceOnUse">
<stop stop-color="#8636FE"/>
<stop offset="0.43705" stop-color="#E8D9FF"/>
<stop offset="1" stop-color="#502098"/>
</linearGradient>
<linearGradient id="paint4_linear_2027_251" x1="219.283" y1="254.816" x2="196.603" y2="211.46" gradientUnits="userSpaceOnUse">
<stop stop-color="white" stop-opacity="0"/>
<stop offset="0.48" stop-color="white" stop-opacity="0.5"/>
<stop offset="1" stop-color="white" stop-opacity="0.1"/>
</linearGradient>
<linearGradient id="paint5_linear_2027_251" x1="96.3913" y1="340.171" x2="71.103" y2="292.682" gradientUnits="userSpaceOnUse">
<stop stop-color="white" stop-opacity="0"/>
<stop offset="0.48" stop-color="white" stop-opacity="0.5"/>
<stop offset="1" stop-color="white" stop-opacity="0.1"/>
</linearGradient>
<linearGradient id="paint6_linear_2027_251" x1="289.453" y1="296.517" x2="264.609" y2="249.523" gradientUnits="userSpaceOnUse">
<stop stop-color="white" stop-opacity="0"/>
<stop offset="0.48" stop-color="white" stop-opacity="0.5"/>
<stop offset="1" stop-color="white" stop-opacity="0.1"/>
</linearGradient>
<linearGradient id="paint7_linear_2027_251" x1="158.835" y1="376.111" x2="137.134" y2="335.174" gradientUnits="userSpaceOnUse">
<stop stop-color="white" stop-opacity="0"/>
<stop offset="0.48" stop-color="white" stop-opacity="0.5"/>
<stop offset="1" stop-color="white" stop-opacity="0.1"/>
</linearGradient>
<linearGradient id="paint8_linear_2027_251" x1="231.266" y1="267.61" x2="192.976" y2="269.127" gradientUnits="userSpaceOnUse">
<stop stop-color="white" stop-opacity="0"/>
<stop offset="0.48" stop-color="white" stop-opacity="0.5"/>
<stop offset="1" stop-color="white" stop-opacity="0.1"/>
</linearGradient>
<linearGradient id="paint9_linear_2027_251" x1="133.911" y1="252.677" x2="153.698" y2="286.391" gradientUnits="userSpaceOnUse">
<stop stop-color="white" stop-opacity="0"/>
<stop offset="0.48" stop-color="white" stop-opacity="0.5"/>
<stop offset="1" stop-color="white" stop-opacity="0.1"/>
</linearGradient>
<linearGradient id="paint10_linear_2027_251" x1="76.6981" y1="219.928" x2="95.9035" y2="252.795" gradientUnits="userSpaceOnUse">
<stop stop-color="white" stop-opacity="0"/>
<stop offset="0.48" stop-color="white" stop-opacity="0.5"/>
<stop offset="1" stop-color="white" stop-opacity="0.1"/>
</linearGradient>
<linearGradient id="paint11_linear_2027_251" x1="265.969" y1="335.171" x2="285.298" y2="368.301" gradientUnits="userSpaceOnUse">
<stop stop-color="white" stop-opacity="0"/>
<stop offset="0.48" stop-color="white" stop-opacity="0.5"/>
<stop offset="1" stop-color="white" stop-opacity="0.1"/>
</linearGradient>
<linearGradient id="paint12_linear_2027_251" x1="126.069" y1="319.012" x2="166.615" y2="317.715" gradientUnits="userSpaceOnUse">
<stop stop-color="white" stop-opacity="0"/>
<stop offset="0.48" stop-color="white" stop-opacity="0.5"/>
<stop offset="1" stop-color="white" stop-opacity="0.1"/>
</linearGradient>
<linearGradient id="paint13_linear_2027_251" x1="69.8905" y1="352.641" x2="110.093" y2="351.336" gradientUnits="userSpaceOnUse">
<stop stop-color="white" stop-opacity="0"/>
<stop offset="0.48" stop-color="white" stop-opacity="0.5"/>
<stop offset="1" stop-color="white" stop-opacity="0.1"/>
</linearGradient>
<linearGradient id="paint14_linear_2027_251" x1="250.781" y1="233.623" x2="289.439" y2="232.31" gradientUnits="userSpaceOnUse">
<stop stop-color="white" stop-opacity="0"/>
<stop offset="0.48" stop-color="white" stop-opacity="0.5"/>
<stop offset="1" stop-color="white" stop-opacity="0.1"/>
</linearGradient>
<linearGradient id="paint15_linear_2027_251" x1="124.199" y1="232.535" x2="170.576" y2="230.984" gradientUnits="userSpaceOnUse">
<stop stop-color="white" stop-opacity="0"/>
<stop offset="0.48" stop-color="white" stop-opacity="0.5"/>
<stop offset="1" stop-color="white" stop-opacity="0.1"/>
</linearGradient>
<linearGradient id="paint16_linear_2027_251" x1="59.029" y1="271.2" x2="104.644" y2="269.881" gradientUnits="userSpaceOnUse">
<stop stop-color="white" stop-opacity="0"/>
<stop offset="0.48" stop-color="white" stop-opacity="0.5"/>
<stop offset="1" stop-color="white" stop-opacity="0.1"/>
</linearGradient>
<linearGradient id="paint17_linear_2027_251" x1="188.12" y1="354.887" x2="235.63" y2="353.406" gradientUnits="userSpaceOnUse">
<stop stop-color="white" stop-opacity="0"/>
<stop offset="0.48" stop-color="white" stop-opacity="0.5"/>
<stop offset="1" stop-color="white" stop-opacity="0.1"/>
</linearGradient>
<linearGradient id="paint18_linear_2027_251" x1="255.824" y1="314.432" x2="303.318" y2="312.987" gradientUnits="userSpaceOnUse">
<stop stop-color="white" stop-opacity="0"/>
<stop offset="0.48" stop-color="white" stop-opacity="0.5"/>
<stop offset="1" stop-color="white" stop-opacity="0.1"/>
</linearGradient>
<linearGradient id="paint19_linear_2027_251" x1="225.408" y1="334.899" x2="207.795" y2="301.72" gradientUnits="userSpaceOnUse">
<stop stop-color="white" stop-opacity="0"/>
<stop offset="0.48" stop-color="white" stop-opacity="0.5"/>
<stop offset="1" stop-color="white" stop-opacity="0.1"/>
</linearGradient>
<radialGradient id="paint20_radial_2027_251" cx="0" cy="0" r="1" gradientUnits="userSpaceOnUse" gradientTransform="translate(181.941 266.043) rotate(90) scale(51.3924 90.8544)">
<stop offset="0.0835809" stop-color="white"/>
<stop offset="1" stop-color="#171920"/>
</radialGradient>
<linearGradient id="paint21_linear_2027_251" x1="18.8338" y1="4.27694e-07" x2="13.1629" y2="93.399" gradientUnits="userSpaceOnUse">
<stop stop-color="white"/>
<stop offset="1" stop-color="#999999"/>
</linearGradient>
<linearGradient id="paint22_linear_2027_251" x1="58.6485" y1="198.545" x2="58.6485" y2="230.709" gradientUnits="userSpaceOnUse">
<stop stop-color="white"/>
<stop offset="1" stop-color="white" stop-opacity="0"/>
</linearGradient>
<linearGradient id="paint23_linear_2027_251" x1="58.6485" y1="348.879" x2="58.6485" y2="381.043" gradientUnits="userSpaceOnUse">
<stop stop-color="white"/>
<stop offset="1" stop-color="white" stop-opacity="0"/>
</linearGradient>
<linearGradient id="paint24_linear_2027_251" x1="304.694" y1="348.146" x2="304.694" y2="380.31" gradientUnits="userSpaceOnUse">
<stop stop-color="white"/>
<stop offset="1" stop-color="white" stop-opacity="0"/>
</linearGradient>
<linearGradient id="paint25_linear_2027_251" x1="295.293" y1="198.356" x2="295.293" y2="230.52" gradientUnits="userSpaceOnUse">
<stop stop-color="white"/>
<stop offset="1" stop-color="white" stop-opacity="0"/>
</linearGradient>
<clipPath id="clip0_2027_251">
<rect width="361" height="474" rx="15.0417" fill="white"/>
</clipPath>
<clipPath id="clip1_2027_251">
<rect width="22.5762" height="27.7055" fill="white" transform="matrix(0.866025 -0.5 0.866025 0.5 160.205 284.36)"/>
</clipPath>
</defs>
</svg>
